<svg id="レイヤー_1" data-name="レイヤー 1" xmlns="http://www.w3.org/2000/svg" viewBox="0 0 180 41" width="180" height="41"><defs><style>.cls-1{fill:#040000;}</style></defs><title>adress_sp</title><path class="cls-1" d="M6.83.84v1H0v-1Zm0,2.42v1H4V8.72H2.82V4.26H0v-1Z"/><path class="cls-1" d="M10.19,6.59a1.47,1.47,0,0,0,1.63,1.13c1.87,0,2.17-1.39,2.28-2.81a3,3,0,0,1-2.34.88c-1.64,0-3-.82-3-2.54C8.75,1.72,9.84.48,11.89.48c2.83,0,3.47,2.26,3.47,4,0,3.39-2,4.27-3.51,4.27-.25,0-2.63,0-3-2.21ZM10,3.25c0,1.26,1.1,1.56,1.92,1.56,1.08,0,2-.48,2-1.56,0-.9-.66-1.7-2-1.7C10.1,1.55,10,3,10,3.25Z"/><path class="cls-1" d="M23.94,6.39c0,1-.63,2.41-3.29,2.41a4.13,4.13,0,0,1-2.49-.69,2.19,2.19,0,0,1-.81-1.72,2,2,0,0,1,1.67-2,1.79,1.79,0,0,1-1.41-1.76c0-1.16,1-2.11,3-2.11s3,1,3,2.11a1.79,1.79,0,0,1-1.42,1.76A2,2,0,0,1,23.94,6.39Zm-5.31-.13c0,1.19,1.17,1.46,2,1.46s2-.23,2-1.46c0-.81-.65-1.45-2-1.45S18.63,5.45,18.63,6.26Zm.26-3.48C18.89,4,20.41,4,20.64,4s1.77,0,1.77-1.17c0-.24-.1-1.22-1.77-1.22S18.89,2.47,18.89,2.78Z"/><path class="cls-1" d="M30.28,8.58H29V3.1H27.35V2.17C28.29,2.12,29,2,29.28.7h1Z"/><path class="cls-1" d="M37.14,6.24h-2.7V5.18h2.7Z"/><path class="cls-1" d="M41.82,4h.66c.88,0,1.69-.41,1.69-1.23,0-1.16-1.44-1.16-1.72-1.16-1.37,0-1.78.6-1.84,1.48h-1.3a2.67,2.67,0,0,1,.86-1.83A3.77,3.77,0,0,1,42.52.48c1.83,0,2.93.87,2.93,2.1A1.76,1.76,0,0,1,44,4.33a1.88,1.88,0,0,1,1.62,1.93c0,1.28-.9,2.54-3.26,2.54A2.91,2.91,0,0,1,39.07,6h1.3A1.66,1.66,0,0,0,42.3,7.72c.32,0,2,0,2-1.45,0-1.18-1.11-1.41-1.75-1.41h-.77Z"/><path class="cls-1" d="M54.25,8.58H47.66c.09-1.47.84-2.24,2.89-3.5S52.9,3.64,52.9,2.81s-.83-1.25-1.75-1.25a1.81,1.81,0,0,0-2.07,2H47.79a3.69,3.69,0,0,1,.52-1.81A3.37,3.37,0,0,1,51.13.48c1.89,0,3,1,3,2.34,0,1-.49,1.71-2.1,2.64-1.89,1.1-2.2,1.37-2.69,2.06h4.86Z"/><path class="cls-1" d="M62.12,1.76a5.53,5.53,0,0,1,.72,2.88,5.55,5.55,0,0,1-.72,2.88A3,3,0,0,1,59.53,8.8a2.9,2.9,0,0,1-2.6-1.28,5.51,5.51,0,0,1-.71-2.88,5.54,5.54,0,0,1,.71-2.88,3.27,3.27,0,0,1,5.19,0ZM57.5,4.64c0,.84.12,3.1,2,3.1s2-2.26,2-3.1c0-1-.19-3.1-2-3.1S57.5,3.7,57.5,4.64Z"/><path class="cls-1" d="M67.59,4h.66c.88,0,1.69-.41,1.69-1.23,0-1.16-1.44-1.16-1.72-1.16-1.37,0-1.78.6-1.84,1.48h-1.3a2.67,2.67,0,0,1,.86-1.83A3.77,3.77,0,0,1,68.29.48c1.83,0,2.93.87,2.93,2.1a1.76,1.76,0,0,1-1.45,1.75,1.88,1.88,0,0,1,1.62,1.93c0,1.28-.9,2.54-3.26,2.54A2.91,2.91,0,0,1,64.84,6h1.3a1.66,1.66,0,0,0,1.93,1.74c.32,0,2,0,2-1.45,0-1.18-1.11-1.41-1.75-1.41h-.77Z"/><path class="cls-1" d="M8.91,17.48v2.41h-1V18.36H1v1.53H0V17.48h3.9v-.84l1.08,0c.08,0,.26,0,.26.13s0,.09-.24.19v.5Zm-.94,5v3.37h-1v-.41h-5v.41h-1V22.52H3.2c.12-.23.29-.59.4-.87H1.77V19H7.09v2.62H4.81a8.34,8.34,0,0,1-.43.87Zm-1,2.09V23.4h-5v1.21ZM2.78,19.84v1H6.1v-1Z"/><path class="cls-1" d="M13.57,19.22v1h-.86v2.44c.38-.14.64-.25.84-.34a2.06,2.06,0,0,0,0,.54,1.86,1.86,0,0,0,0,.42c-.61.28-1.22.51-2.28.88,0,.19-.07.3-.19.3s-.13-.12-.14-.17l-.18-1a7.17,7.17,0,0,0,1-.25V20.17h-.87v-1h.87V17l1.1.08c.09,0,.15,0,.15.11s-.06.12-.24.21v1.85Zm1.3.15v1.25h1.7c0,3.25-.37,3.72-1.44,3.72l-.27,0a2.07,2.07,0,0,0-.32-.91,5.93,5.93,0,0,1-1.66,2.48,2.53,2.53,0,0,0-.9-.62,4.76,4.76,0,0,0,2-4.21V18.47h2.82c0-.28,0-1.54-.06-1.79l1,.08c.09,0,.17,0,.17.13s-.07.13-.21.19,0,.74,0,1.39H19a7.92,7.92,0,0,0-.9-1.25l.73-.51a6.81,6.81,0,0,1,1,1.32,6.32,6.32,0,0,0-.61.44H20v.9H17.74a16.6,16.6,0,0,0,.32,2.8,8.13,8.13,0,0,0,.59-2.09l.95.33c.1,0,.16.07.16.14s-.07.14-.27.15a8.24,8.24,0,0,1-1.12,2.75c.07.2.43,1.14.63,1.14s.52-1,.54-1.11a3.37,3.37,0,0,0,.71.74c-.2.57-.55,1.6-1.18,1.6-.45,0-.87-.44-1.34-1.52a7.45,7.45,0,0,1-2,1.62,2.84,2.84,0,0,0-.76-.69,6,6,0,0,0,2.46-1.93,23.79,23.79,0,0,1-.58-3.93Zm0,2.15a7,7,0,0,1-.32,1.88,2.29,2.29,0,0,0,.52.05c.46,0,.51-.19.58-.68a9.81,9.81,0,0,0,.09-1.25Z"/><path class="cls-1" d="M25.38,23.59c.07,0,.12.07.12.13s-.06.11-.15.11l-.2,0A9.19,9.19,0,0,1,23,25.68a3.18,3.18,0,0,0-.9-.68,8.31,8.31,0,0,0,2.24-1.93ZM22.32,23V17.7l1,.08s.19,0,.19.12-.12.14-.22.18v4.07H31V23H27v2.86H26V23ZM30,17V21.6H24.2V17Zm-1,1.35v-.61H25.2v.61Zm-3.73.63v.62h3.73v-.62Zm0,1.27v.62h3.73v-.62ZM28.83,23A9.07,9.07,0,0,1,30.78,25a3.88,3.88,0,0,0-.88.68,10.82,10.82,0,0,0-1.93-2Z"/><path class="cls-1" d="M35.14,25.84h-1V20.69a11.65,11.65,0,0,1-.76.92,2,2,0,0,0-.83-.69,10.53,10.53,0,0,0,2.63-4.35l1,.4s.15.07.15.17-.19.13-.28.12a13.38,13.38,0,0,1-.88,1.89c.16,0,.28.09.28.19s-.12.15-.23.19Zm5.45-1.62V18.35l1.06.07s.22,0,.22.12-.13.17-.23.21v7.08h-1V25.2H37.18v.63h-1V18.38l1.06,0c.1,0,.23,0,.23.14s-.09.15-.24.21v5.45h1.17v-7.6l1.07.05c.07,0,.23,0,.23.15s-.1.14-.23.18v7.22Z"/><path class="cls-1" d="M50.32,17.46a14.41,14.41,0,0,1,2.84,3.18,5.57,5.57,0,0,0-.94.62,9.74,9.74,0,0,0-.66-1c-1.49.14-1.87.18-3.48.31l-3.71.3c0,.11,0,.24-.18.24s-.13-.08-.16-.21L43.8,19.8c.29,0,.88,0,1.47,0a19.08,19.08,0,0,0,1.82-3.17l1.1.29c.09,0,.16.08.16.14s-.15.13-.31.16c-.48.87-1,1.71-1.54,2.53,2.18-.11,2.41-.13,4.41-.27a13.38,13.38,0,0,0-1.37-1.31Zm-4.15,7.83v.56h-1.1V21.51H51.8v4.33H50.69v-.55Zm4.52-1V22.48H46.17v1.84Z"/><path class="cls-1" d="M59.42,18.83l.58,0c.1,0,.23,0,.23.13s-.16.16-.25.18V20h3.1v3.79c0,1.07-.21,1.39-1.91,1.38a2.73,2.73,0,0,0-.35-1.1,4.42,4.42,0,0,0,.67.06c.4,0,.53-.07.53-.57V20.95H60v4.92H58.92V20.95h-2v4.14H55.82V20h3.1V18.83h-4v-1h4V16.71l1.08,0c.1,0,.23,0,.23.14s-.16.16-.25.18v.8h4v1Z"/><path class="cls-1" d="M69.25,21.66l.38.35a7.4,7.4,0,0,1-2.91,3.75,3,3,0,0,0-.87-.69,5.67,5.67,0,0,0,2.45-2.5H66.16v-.91Zm5.06-.12s.11.07.11.14a.15.15,0,0,1-.16.13l-.2,0a15.27,15.27,0,0,1-1.62,1.33A7.84,7.84,0,0,0,75,24.75a4,4,0,0,0-.72.83,8.46,8.46,0,0,1-1.61-1A5.85,5.85,0,0,1,71,22.82v1.86c0,1-.23,1.24-1.78,1.23a2.32,2.32,0,0,0-.41-1.14,3.78,3.78,0,0,0,.69.06c.45,0,.45-.13.45-.42V21H67.06V17.45h2a7.77,7.77,0,0,0,.46-.87l1.21.15c.09,0,.17,0,.17.11s-.13.16-.35.21c0,0-.18.27-.27.4h3.52V21h-.29Zm-6.21-2.7h4.73v-.61H68.1Zm4.73.69H68.1v.68h4.73ZM71,21v.19a5.5,5.5,0,0,0,.76,1.23A7.39,7.39,0,0,0,73.34,21Z"/><path class="cls-1" d="M86,24.35v1H78.35v.48H77.28V17.18h8.48v.94H78.35v6.23ZM79.66,18.7a20.71,20.71,0,0,1,2.49,1.78,7.75,7.75,0,0,0,1.28-2.12l1,.53a.2.2,0,0,1,.13.16c0,.09-.11.11-.34.1a12,12,0,0,1-1.33,2,22.35,22.35,0,0,1,1.94,2,3.89,3.89,0,0,0-.81.78,16.36,16.36,0,0,0-1.79-2A12.48,12.48,0,0,1,79.46,24a2.79,2.79,0,0,0-.83-.81,10.85,10.85,0,0,0,2.86-2A16.34,16.34,0,0,0,79,19.46Z"/><path class="cls-1" d="M97,17.38v.83H87.87v-.83h4v-.74l1.09,0c.09,0,.21,0,.21.13s-.14.14-.2.15v.42Zm-.54,3.87v3.46c0,.86-.27,1.16-1.68,1.18a2.17,2.17,0,0,0-.51-1.11,4.67,4.67,0,0,0,.83.1c.34,0,.35-.12.35-.44V22h-6v3.78h-1V21.25ZM95,18.67v2.14H89.84V18.67Zm-.63,3.83v2.06h-3v.5h-1V22.5Zm-3.6-3.11v.68h3.25v-.68Zm.61,3.81v.64h2V23.2Z"/><path class="cls-1" d="M101.75,25.81h-.86V23.44a9.59,9.59,0,0,1-1.44,1.82,2.42,2.42,0,0,0-.8-.68,8.62,8.62,0,0,0,2.11-2.11H98.89v-.83h2v-1l.86.06c.14,0,.25,0,.25.15s-.15.16-.25.18v.62h1.43v.83H101.8a8.08,8.08,0,0,0,1.4,1.24,3,3,0,0,0-.62.66,12.6,12.6,0,0,1-.83-1.09Zm2.17-4.76h-1V18.78a10.47,10.47,0,0,1-3.4,2.37,2.69,2.69,0,0,0-.82-.74,11,11,0,0,0,3.44-1.91H99.29v-.86H103v-1l1,.07c.18,0,.22,0,.22.12s-.1.16-.23.21v.6h3.69v.86h-2.89a12.18,12.18,0,0,0,3.4,1.9,2.63,2.63,0,0,0-.66.77,9.74,9.74,0,0,1-3.54-2.48Zm-.4,1.41v-.83H105V20.58l.87,0c.13,0,.24,0,.24.11s-.13.17-.23.23v.67H108v.83h-1.88a11.12,11.12,0,0,0,2.08,2.24,9.23,9.23,0,0,0-.76.68,15.72,15.72,0,0,1-1.53-2.09v2.51H105v-2.4a10.06,10.06,0,0,1-1.86,2.07,3.9,3.9,0,0,0-.83-.62,11.87,11.87,0,0,0,2.52-2.39Z"/><path class="cls-1" d="M116.46,17.21v1.06a7,7,0,0,0-2.18,2.93,10,10,0,0,0-.85,3.89h-1.31a10,10,0,0,1,3-6.82h-5V17.21Z"/><path class="cls-1" d="M123.8,24.37c0,1.28-.78,1.48-2.44,1.45a2.4,2.4,0,0,0-.37-1.23,6.11,6.11,0,0,0,.92.1c.66,0,.75-.18.75-.52V18.22h-4.18v-1h9.15v1H123.8Z"/><path class="cls-1" d="M131.27,25.24v.59H130.2V17.06h6.93v8.75h-1v-.58Zm4.82-5.81V18h-4.82v1.42Zm0,2.39V20.38h-4.82v1.44Zm0,2.48V22.78h-4.82V24.3Z"/><path class="cls-1" d="M146.41,25.09h-6.59c.09-1.47.84-2.24,2.89-3.5s2.35-1.44,2.35-2.27-.83-1.25-1.75-1.25a1.81,1.81,0,0,0-2.07,2H140a3.69,3.69,0,0,1,.52-1.81A3.37,3.37,0,0,1,143.29,17c1.89,0,3,1,3,2.34,0,1-.49,1.71-2.1,2.64-1.89,1.1-2.2,1.37-2.69,2.06h4.86Z"/><path class="cls-1" d="M155.94,25.85h-1v-.42h-4.09v.42h-1V22.36c-.46.28-.78.45-1.1.62a2.54,2.54,0,0,0-.74-.8,13,13,0,0,0,3.45-2h-3.15v-.84h2.39a5.54,5.54,0,0,0-.67-1l.81-.27-1.62,0a3.11,3.11,0,0,0-.26-.89,19.34,19.34,0,0,0,6.69-.69l.64.77a.34.34,0,0,1,.07.17.1.1,0,0,1-.11.09c-.08,0-.11,0-.33-.13a15,15,0,0,1-2.58.48v1.38H155l-.89-.3a5.16,5.16,0,0,0,.91-1.25l1,.37c.06,0,.09,0,.09.1s0,.1-.29.14a8.56,8.56,0,0,1-.68.94h2.3v.84h-3.24a10.28,10.28,0,0,0,3.45,2,2.32,2.32,0,0,0-.67.82,8,8,0,0,1-1.12-.6Zm-.73-4a8.64,8.64,0,0,1-1.85-1.58v1.34h-.95V20.36a11.3,11.3,0,0,1-1.82,1.53Zm-2.82,1.41v-.61h-1.54v.61Zm0,1.33V24h-1.54v.63Zm0-6.61c-.5,0-.93.06-1.44.08a4.88,4.88,0,0,1,.75,1l-.8.23h1.49Zm2.53,5.28v-.61h-1.56v.61Zm-1.56.7v.63h1.56V24Z"/><path class="cls-1" d="M.6,33.72a13.64,13.64,0,0,1,2.54,1.36,4.51,4.51,0,0,0-.65.89A10.54,10.54,0,0,0,0,34.59Zm0,5.49A14.11,14.11,0,0,0,7.9,33.65a4.26,4.26,0,0,0,.69.87,15.82,15.82,0,0,1-7.13,5.56c0,.09,0,.24-.16.24s-.11-.06-.15-.14Zm1-7.76a13.06,13.06,0,0,1,2.67,1.28,7.54,7.54,0,0,0-.64.88,10.73,10.73,0,0,0-2.62-1.35Z"/><path class="cls-1" d="M10.63,39.57v-.85H15.3V37.15H10.87v-.86H15.3V34.76H10.75v-.85h5.47v6H15.3v-.34Z"/><path class="cls-1" d="M19.72,33.92a10.49,10.49,0,0,1,1,2,4.07,4.07,0,0,0-.85.39,10.16,10.16,0,0,0-1-2Zm6-.07c.1,0,.18.06.18.14s-.14.14-.19.15c-.74,2.92-2,4.7-4.95,5.91a4.62,4.62,0,0,0-.61-.76,6.5,6.5,0,0,0,4.64-5.73Zm-3.81-.44a8.22,8.22,0,0,1,.91,2,4.84,4.84,0,0,0-.85.34,9.41,9.41,0,0,0-.92-2Z"/><path class="cls-1" d="M29.68,37.75c0,1.06.19,1.16,2.06,1.16a32.61,32.61,0,0,0,3.94-.18,5.5,5.5,0,0,0-.15,1.08c-.59,0-3.2,0-3.73,0-2.2,0-3.2,0-3.2-1.91V31.53l1.13.07c.09,0,.19,0,.19.12s-.1.14-.24.2V35a11.74,11.74,0,0,0,4.85-2l.89.73a.16.16,0,0,1,.08.12c0,.08-.09.11-.22.11a.6.6,0,0,1-.18,0,15.13,15.13,0,0,1-5.42,2Zm7-5.58a.9.9,0,1,1-.91-.91A.91.91,0,0,1,36.73,32.17Zm-1.4,0a.49.49,0,1,0,.49-.49A.49.49,0,0,0,35.33,32.17Z"/><path class="cls-1" d="M39,31.75a12.14,12.14,0,0,1,2.78,1.83,7.13,7.13,0,0,0-.65.9,10.47,10.47,0,0,0-2.76-1.83Zm-.55,7.17A11.78,11.78,0,0,0,46,33.46a6,6,0,0,0,.67.92,13.56,13.56,0,0,1-7.32,5.51c0,.11,0,.22-.14.22A.2.2,0,0,1,39,40Z"/><path class="cls-1" d="M55,33a1.63,1.63,0,0,0,.68-.15l.58.53A3.56,3.56,0,0,0,56,34a13.26,13.26,0,0,1-2.73,4.56,8.67,8.67,0,0,1-3,2,4.15,4.15,0,0,0-.82-.77,8.63,8.63,0,0,0,5.31-5.83H51.63a13.45,13.45,0,0,1-2.48,2.79,5.5,5.5,0,0,0-.8-.72,10.77,10.77,0,0,0,3.42-4.59l1,.44s.14.06.14.15-.15.13-.24.13c-.1.21-.16.33-.44.85Zm-.44-1.88a11.36,11.36,0,0,1,.92,1,4.25,4.25,0,0,0-.6.42,6,6,0,0,0-.89-1ZM56.09,31A8.87,8.87,0,0,1,57,32a5.45,5.45,0,0,0-.6.42,5.43,5.43,0,0,0-.87-1Z"/><path class="cls-1" d="M63.25,31.61c.13,0,.2,0,.2.11s0,.14-.2.18c0,.25,0,.6-.05,1.54h3.31c-.15,5.78-.39,6.83-3.44,6.68A4,4,0,0,0,62.79,39a3.37,3.37,0,0,0,.94.12,1.11,1.11,0,0,0,1.3-.88,14.85,14.85,0,0,0,.37-3.81H63.13a7.08,7.08,0,0,1-3.88,5.79,2.57,2.57,0,0,0-.75-.79,5.91,5.91,0,0,0,3.55-5H58.77v-1h3.36a14.87,14.87,0,0,0,0-1.95Zm1.93-.25a10.45,10.45,0,0,1,1,1.07,4.7,4.7,0,0,0-.59.46,9,9,0,0,0-1-1.12ZM66.59,31a7.47,7.47,0,0,1,1,1.09,3.11,3.11,0,0,0-.62.44,7.15,7.15,0,0,0-1-1.13Z"/><path class="cls-1" d="M78,35.35v1.08H69.43V35.35Z"/><path class="cls-1" d="M80.46,35.54v-1h8.42v1H85.41a4.59,4.59,0,0,1-1.13,3.33A5.23,5.23,0,0,1,82,40.28a3.78,3.78,0,0,0-.77-.84c2.9-.81,3.1-2.58,3.13-3.9Zm7-3.61v.95H81.79v-.95Zm.66.22a12.16,12.16,0,0,1,1,1,5.91,5.91,0,0,0-.5.57,7.46,7.46,0,0,0-1-1Zm.51-1a9.24,9.24,0,0,1,1.07,1,3.24,3.24,0,0,0-.51.53,6.22,6.22,0,0,0-1-1Z"/><path class="cls-1" d="M91.92,31.75a12.14,12.14,0,0,1,2.78,1.83,7.13,7.13,0,0,0-.65.9,10.47,10.47,0,0,0-2.76-1.83Zm-.55,7.17A11.78,11.78,0,0,0,99,33.46a6,6,0,0,0,.67.92,13.56,13.56,0,0,1-7.32,5.51c0,.11,0,.22-.14.22A.2.2,0,0,1,92,40Z"/><path class="cls-1" d="M103.7,35.89a.9.9,0,1,1-.9-.9A.91.91,0,0,1,103.7,35.89Z"/><path class="cls-1" d="M109.23,31.59l1-.13c.06,0,.21,0,.21.1s-.06.13-.16.2l.21,1.44,2.56-.33.11,1-2.53.33.24,1.67,3.56-.45.12,1-3.53.46.48,3.31-1,.19L110,36.95l-3.74.49-.12-1,3.72-.48-.25-1.67-2.7.35-.12-1,2.68-.34Z"/><path class="cls-1" d="M118.48,33.18l.91-.09c.09,0,.21,0,.21.1s-.06.11-.14.18l.31,1.57,2.8-.55a.94.94,0,0,0,.52-.26l.67.53c-.17.2-.38.5-.5.68a20.77,20.77,0,0,1-1.5,2.21,6.31,6.31,0,0,0-.86-.43,6.86,6.86,0,0,0,1.33-1.82l-2.29.48.83,4.22-.89.2L119,36l-2.24.48-.24-.89,2.31-.45Z"/><path class="cls-1" d="M132.5,34.28a3,3,0,0,0,.85-.09l.68.47c-.13.21-.61,1.2-.71,1.4a7.59,7.59,0,0,1-4.94,4.37,5.6,5.6,0,0,0-.73-.86,6.5,6.5,0,0,0,4.85-4.32h-6.63v-1Zm.33-2.38v1h-5.75v-1Z"/><path class="cls-1" d="M142.87,33.08a1.56,1.56,0,0,0,.72-.11l.65.47c-.09.33-.45,1.76-.54,2a7.52,7.52,0,0,1-4.23,5,4.52,4.52,0,0,0-.79-.79,6.44,6.44,0,0,0,3-2.32A8.17,8.17,0,0,0,143,34h-5.58V36.5h-1.06V33.08h3.26V31.47l1.1.06c.18,0,.22,0,.22.11s-.15.16-.22.19v1.25Z"/><path class="cls-1" d="M150.34,38.62h3v.89h-6.8v-.89h2.88v-3.8h-2.17v-.9h5.32v.9h-2.21Z"/><path class="cls-1" d="M160.48,40.25h-1.11v-5A19.51,19.51,0,0,1,156,36.94a4.28,4.28,0,0,0-.78-.93,14,14,0,0,0,7.08-4.76l1,.71a.19.19,0,0,1,.09.16c0,.07-.09.09-.16.09a.59.59,0,0,1-.19,0,17.53,17.53,0,0,1-2.48,2.3Z"/><path class="cls-1" d="M169.81,39.69h-1.25V34.21h-1.68v-.93c.94,0,1.63-.21,1.93-1.47h1Z"/><path class="cls-1" d="M180,31.81v1.06h-4.42v2.41h3.86v1.07h-3.86v3.34h-1.26V31.81Z"/></svg>