<svg id="レイヤー_1" data-name="レイヤー 1" xmlns="http://www.w3.org/2000/svg" viewBox="0 0 422 10" width="422" height="10"><defs><style>.cls-1{fill:#040000;}</style></defs><title>address</title><path class="cls-1" d="M6.82,1.2v1H0v-1Zm0,2.42v1H4V9.08H2.81V4.62H0v-1Z"/><path class="cls-1" d="M10.18,6.95a1.47,1.47,0,0,0,1.63,1.13c1.87,0,2.17-1.39,2.28-2.81a3,3,0,0,1-2.34.88c-1.64,0-3-.82-3-2.54C8.74,2.08,9.83.84,11.88.84c2.83,0,3.47,2.26,3.47,4,0,3.39-2,4.27-3.51,4.27-.25,0-2.63,0-3-2.21ZM10,3.61c0,1.26,1.1,1.56,1.92,1.56,1.08,0,2-.48,2-1.56,0-.9-.66-1.7-2-1.7C10.09,1.91,10,3.34,10,3.61Z"/><path class="cls-1" d="M23.93,6.75c0,1-.63,2.41-3.29,2.41a4.13,4.13,0,0,1-2.49-.69,2.19,2.19,0,0,1-.81-1.72,2,2,0,0,1,1.67-2A1.79,1.79,0,0,1,17.6,3c0-1.16,1-2.11,3-2.11s3,1,3,2.11a1.79,1.79,0,0,1-1.42,1.76A2,2,0,0,1,23.93,6.75Zm-5.31-.13c0,1.19,1.17,1.46,2,1.46s2-.23,2-1.46c0-.81-.65-1.45-2-1.45S18.62,5.81,18.62,6.62Zm.26-3.48c0,1.17,1.52,1.17,1.75,1.17s1.77,0,1.77-1.17c0-.24-.1-1.22-1.77-1.22S18.88,2.83,18.88,3.14Z"/><path class="cls-1" d="M30.27,8.94H29V3.46H27.34V2.53c.94,0,1.63-.21,1.93-1.47h1Z"/><path class="cls-1" d="M37.13,6.6h-2.7V5.54h2.7Z"/><path class="cls-1" d="M41.81,4.31h.66c.88,0,1.69-.41,1.69-1.23,0-1.16-1.44-1.16-1.72-1.16-1.37,0-1.78.6-1.84,1.48H39.3a2.67,2.67,0,0,1,.86-1.83A3.77,3.77,0,0,1,42.51.84c1.83,0,2.93.87,2.93,2.1A1.76,1.76,0,0,1,44,4.69a1.88,1.88,0,0,1,1.62,1.93c0,1.28-.9,2.54-3.26,2.54a2.91,2.91,0,0,1-3.29-2.82h1.3a1.66,1.66,0,0,0,1.93,1.74c.32,0,2,0,2-1.45,0-1.18-1.11-1.41-1.75-1.41h-.77Z"/><path class="cls-1" d="M54.24,8.94H47.65c.09-1.47.84-2.24,2.89-3.5S52.89,4,52.89,3.17s-.83-1.25-1.75-1.25a1.81,1.81,0,0,0-2.07,2H47.78a3.69,3.69,0,0,1,.52-1.81A3.37,3.37,0,0,1,51.12.84c1.89,0,3,1,3,2.34,0,1-.49,1.71-2.1,2.64-1.89,1.1-2.2,1.37-2.69,2.06h4.86Z"/><path class="cls-1" d="M62.11,2.12A5.53,5.53,0,0,1,62.83,5a5.55,5.55,0,0,1-.72,2.88,3,3,0,0,1-2.59,1.28,2.9,2.9,0,0,1-2.6-1.28A5.51,5.51,0,0,1,56.21,5a5.54,5.54,0,0,1,.71-2.88,3.27,3.27,0,0,1,5.19,0ZM57.49,5c0,.84.12,3.1,2,3.1s2-2.26,2-3.1c0-1-.19-3.1-2-3.1S57.49,4.06,57.49,5Z"/><path class="cls-1" d="M67.58,4.31h.66c.88,0,1.69-.41,1.69-1.23,0-1.16-1.44-1.16-1.72-1.16-1.37,0-1.78.6-1.84,1.48h-1.3a2.67,2.67,0,0,1,.86-1.83A3.77,3.77,0,0,1,68.28.84c1.83,0,2.93.87,2.93,2.1a1.76,1.76,0,0,1-1.45,1.75,1.88,1.88,0,0,1,1.62,1.93c0,1.28-.9,2.54-3.26,2.54a2.91,2.91,0,0,1-3.29-2.82h1.3a1.66,1.66,0,0,0,1.93,1.74c.32,0,2,0,2-1.45,0-1.18-1.11-1.41-1.75-1.41h-.77Z"/><path class="cls-1" d="M86.68,1.33V3.74h-1V2.21H78.83V3.74h-1V1.33h3.9V.49l1.08,0c.08,0,.26,0,.26.13s0,.09-.24.19v.5Zm-.94,5V9.74h-1V9.33h-5v.41h-1V6.37H81c.12-.23.29-.59.4-.87H79.55V2.88h5.32V5.5H82.59a8.34,8.34,0,0,1-.43.87Zm-1,2.09V7.25h-5V8.46ZM80.56,3.69v1h3.32v-1Z"/><path class="cls-1" d="M91.35,3.07V4h-.86V6.46c.38-.14.64-.25.84-.34a2.06,2.06,0,0,0,0,.54,1.86,1.86,0,0,0,0,.42c-.61.28-1.22.51-2.28.88,0,.19-.07.3-.19.3s-.13-.12-.14-.17l-.18-1a7.17,7.17,0,0,0,1-.25V4h-.87v-1h.87V.82l1.1.08c.09,0,.15,0,.15.11s-.06.12-.24.21V3.07Zm1.3.15V4.47h1.7c0,3.25-.37,3.72-1.44,3.72l-.27,0a2.07,2.07,0,0,0-.32-.91,5.93,5.93,0,0,1-1.66,2.48,2.53,2.53,0,0,0-.9-.62,4.76,4.76,0,0,0,2-4.21V2.32h2.82c0-.28,0-1.54-.06-1.79l1,.08c.09,0,.17,0,.17.13s-.07.13-.21.19,0,.74,0,1.39h1.29a7.92,7.92,0,0,0-.9-1.25L96.6.56a6.81,6.81,0,0,1,1,1.32,6.32,6.32,0,0,0-.61.44h.82v.9H95.52A16.6,16.6,0,0,0,95.84,6a8.13,8.13,0,0,0,.59-2.09l.95.33c.1,0,.16.07.16.14s-.07.14-.27.15A8.24,8.24,0,0,1,96.15,7.3c.07.2.43,1.14.63,1.14s.52-1,.54-1.11a3.37,3.37,0,0,0,.71.74c-.2.57-.55,1.6-1.18,1.6-.45,0-.87-.44-1.34-1.52a7.45,7.45,0,0,1-2,1.62,2.84,2.84,0,0,0-.76-.69,6,6,0,0,0,2.46-1.93,23.79,23.79,0,0,1-.58-3.93Zm0,2.15a7,7,0,0,1-.32,1.88,2.29,2.29,0,0,0,.52.05c.46,0,.51-.19.58-.68a9.81,9.81,0,0,0,.09-1.25Z"/><path class="cls-1" d="M103.16,7.44c.07,0,.12.07.12.13s-.06.11-.15.11l-.2,0a9.19,9.19,0,0,1-2.1,1.88,3.18,3.18,0,0,0-.9-.68,8.31,8.31,0,0,0,2.24-1.93Zm-3.06-.6V1.55l1,.08s.19,0,.19.12-.12.14-.22.18V6h7.68v.84h-4V9.7h-1V6.84Zm7.65-6V5.45H102V.82Zm-1,1.35V1.56H103v.61ZM103,2.8v.62h3.73V2.8Zm0,1.27v.62h3.73V4.07Zm3.63,2.83a9.07,9.07,0,0,1,1.95,1.93,3.88,3.88,0,0,0-.88.68,10.82,10.82,0,0,0-1.93-2Z"/><path class="cls-1" d="M112.92,9.69h-1V4.54a11.65,11.65,0,0,1-.76.92,2,2,0,0,0-.83-.69A10.53,10.53,0,0,0,112.91.42l1,.4s.15.07.15.17-.19.13-.28.12A13.38,13.38,0,0,1,112.87,3c.16,0,.28.09.28.19s-.12.15-.23.19Zm5.45-1.62V2.2l1.06.07s.22,0,.22.12-.13.17-.23.21V9.68h-1V9H115v.63h-1V2.23l1.06,0c.1,0,.23,0,.23.14s-.09.15-.24.21V8.07h1.17V.47l1.07.05c.07,0,.23,0,.23.15s-.1.14-.23.18V8.07Z"/><path class="cls-1" d="M128.1,1.31a14.41,14.41,0,0,1,2.84,3.18,5.57,5.57,0,0,0-.94.62,9.74,9.74,0,0,0-.66-1c-1.49.14-1.87.18-3.48.31l-3.71.3c0,.11,0,.24-.18.24s-.13-.08-.16-.21l-.23-1.09c.29,0,.88,0,1.47,0A19.08,19.08,0,0,0,124.87.43l1.1.29c.09,0,.16.08.16.14S126,1,125.82,1c-.48.87-1,1.71-1.54,2.53,2.18-.11,2.41-.13,4.41-.27A13.38,13.38,0,0,0,127.32,2Zm-4.15,7.83V9.7h-1.1V5.36h6.73V9.69h-1.11V9.14Zm4.52-1V6.33h-4.52V8.17Z"/><path class="cls-1" d="M137.2,2.68l.58,0c.1,0,.23,0,.23.13s-.16.16-.25.18v.79h3.1V7.6c0,1.07-.21,1.39-1.91,1.38a2.73,2.73,0,0,0-.35-1.1,4.42,4.42,0,0,0,.67.06c.4,0,.53-.07.53-.57V4.8h-2V9.72H136.7V4.8h-2V8.94H133.6V3.81h3.1V2.68h-4v-1h4V.56l1.08,0c.1,0,.23,0,.23.14s-.16.16-.25.18v.8h4v1Z"/><path class="cls-1" d="M147,5.51l.38.35a7.4,7.4,0,0,1-2.91,3.75,3,3,0,0,0-.87-.69,5.67,5.67,0,0,0,2.45-2.5h-2.14V5.51Zm5.06-.12s.11.07.11.14a.15.15,0,0,1-.16.13l-.2,0A15.27,15.27,0,0,1,150.22,7a7.84,7.84,0,0,0,2.58,1.63,4,4,0,0,0-.72.83,8.46,8.46,0,0,1-1.61-1,5.85,5.85,0,0,1-1.65-1.78V8.53c0,1-.23,1.24-1.78,1.23a2.32,2.32,0,0,0-.41-1.14,3.78,3.78,0,0,0,.69.06c.45,0,.45-.13.45-.42V4.87h-2.93V1.3h2a7.77,7.77,0,0,0,.46-.87l1.21.15c.09,0,.17,0,.17.11s-.13.16-.35.21c0,0-.18.27-.27.4h3.52V4.87h-.29Zm-6.21-2.7h4.73V2.08h-4.73Zm4.73.69h-4.73v.68h4.73Zm-1.79,1.49v.19a5.5,5.5,0,0,0,.76,1.23,7.39,7.39,0,0,0,1.54-1.42Z"/><path class="cls-1" d="M163.75,8.2v1h-7.63v.48h-1.07V1h8.48V2h-7.41V8.2Zm-6.32-5.65a20.71,20.71,0,0,1,2.49,1.78,7.75,7.75,0,0,0,1.28-2.12l1,.53a.2.2,0,0,1,.13.16c0,.09-.11.11-.34.1a12,12,0,0,1-1.33,2,22.35,22.35,0,0,1,1.94,2,3.89,3.89,0,0,0-.81.78,16.36,16.36,0,0,0-1.79-2,12.48,12.48,0,0,1-2.79,2.1,2.79,2.79,0,0,0-.83-.81,10.85,10.85,0,0,0,2.86-2,16.34,16.34,0,0,0-2.49-1.74Z"/><path class="cls-1" d="M174.78,1.23v.83h-9.13V1.23h4V.49l1.09,0c.09,0,.21,0,.21.13s-.14.14-.2.15v.42Zm-.54,3.87V8.56c0,.86-.27,1.16-1.68,1.18a2.17,2.17,0,0,0-.51-1.11,4.67,4.67,0,0,0,.83.1c.34,0,.35-.12.35-.44V5.89h-6V9.67h-1V5.1Zm-1.42-2.58V4.66h-5.21V2.52Zm-.63,3.83V8.41h-3v.5h-1V6.35Zm-3.6-3.11v.68h3.25V3.24ZM169.21,7v.64h2V7Z"/><path class="cls-1" d="M179.53,9.67h-.86V7.29a9.59,9.59,0,0,1-1.44,1.82,2.42,2.42,0,0,0-.8-.68,8.62,8.62,0,0,0,2.11-2.11h-1.87V5.49h2v-1l.86.06c.14,0,.25,0,.25.15s-.15.16-.25.18v.62H181v.83h-1.38A8.08,8.08,0,0,0,181,7.56a3,3,0,0,0-.62.66,12.6,12.6,0,0,1-.83-1.09Zm2.17-4.76h-1V2.63A10.47,10.47,0,0,1,177.34,5a2.69,2.69,0,0,0-.82-.74A11,11,0,0,0,180,2.35h-2.89V1.49h3.67v-1l1,.07c.18,0,.22,0,.22.12s-.1.16-.23.21v.6h3.69v.86H182.5a12.18,12.18,0,0,0,3.4,1.9,2.63,2.63,0,0,0-.66.77,9.74,9.74,0,0,1-3.54-2.48Zm-.4,1.41V5.49h1.52V4.43l.87,0c.13,0,.24,0,.24.11s-.13.17-.23.23v.67h2.09v.83h-1.88A11.12,11.12,0,0,0,186,8.56a9.23,9.23,0,0,0-.76.68,15.72,15.72,0,0,1-1.53-2.09V9.66h-.88V7.26A10.06,10.06,0,0,1,181,9.33a3.9,3.9,0,0,0-.83-.62,11.87,11.87,0,0,0,2.52-2.39Z"/><path class="cls-1" d="M194.24,1.06V2.12a7,7,0,0,0-2.18,2.93,10,10,0,0,0-.85,3.89H189.9a10,10,0,0,1,3-6.82h-5V1.06Z"/><path class="cls-1" d="M201.58,8.22c0,1.28-.78,1.48-2.44,1.45a2.4,2.4,0,0,0-.37-1.23,6.11,6.11,0,0,0,.92.1c.66,0,.75-.18.75-.52V2.07h-4.18V1h9.15v1h-3.83Z"/><path class="cls-1" d="M209,9.09v.59H208V.91h6.93V9.67h-1V9.09Zm4.82-5.81V1.86H209V3.28Zm0,2.39V4.23H209V5.67Zm0,2.48V6.63H209V8.15Z"/><path class="cls-1" d="M224.19,8.94H217.6c.09-1.47.84-2.24,2.89-3.5s2.35-1.44,2.35-2.27-.83-1.25-1.75-1.25a1.81,1.81,0,0,0-2.07,2h-1.29a3.69,3.69,0,0,1,.52-1.81A3.37,3.37,0,0,1,221.07.84c1.89,0,3,1,3,2.34,0,1-.49,1.71-2.1,2.64-1.89,1.1-2.2,1.37-2.69,2.06h4.86Z"/><path class="cls-1" d="M233.72,9.7h-1V9.28h-4.09V9.7h-1V6.21c-.46.28-.78.45-1.1.62a2.54,2.54,0,0,0-.74-.8,13,13,0,0,0,3.45-2h-3.15V3.17h2.39a5.54,5.54,0,0,0-.67-1l.81-.27L227,2a3.11,3.11,0,0,0-.26-.89,19.34,19.34,0,0,0,6.69-.69l.64.77a.34.34,0,0,1,.07.17.1.1,0,0,1-.11.09c-.08,0-.11,0-.33-.13a15,15,0,0,1-2.58.48V3.17h1.68l-.89-.3a5.16,5.16,0,0,0,.91-1.25l1,.37c.06,0,.09,0,.09.1s0,.1-.29.14a8.56,8.56,0,0,1-.68.94h2.3V4h-3.24a10.28,10.28,0,0,0,3.45,2,2.32,2.32,0,0,0-.67.82,8,8,0,0,1-1.12-.6Zm-.73-4a8.64,8.64,0,0,1-1.85-1.58V5.5h-.95V4.21a11.3,11.3,0,0,1-1.82,1.53Zm-2.82,1.41V6.54h-1.54v.61Zm0,1.33V7.85h-1.54v.63Zm0-6.61c-.5,0-.93.06-1.44.08a4.88,4.88,0,0,1,.75,1l-.8.23h1.49Zm2.53,5.28V6.54h-1.56v.61Zm-1.56.7v.63h1.56V7.85Z"/><path class="cls-1" d="M242.13,3a13.64,13.64,0,0,1,2.54,1.36,4.51,4.51,0,0,0-.65.89,10.54,10.54,0,0,0-2.48-1.38Zm0,5.49a14.11,14.11,0,0,0,7.28-5.56,4.26,4.26,0,0,0,.69.87A15.82,15.82,0,0,1,243,9.33c0,.09,0,.24-.16.24s-.11-.06-.15-.14Zm1-7.76A13.06,13.06,0,0,1,245.85,2a7.54,7.54,0,0,0-.64.88,10.73,10.73,0,0,0-2.62-1.35Z"/><path class="cls-1" d="M252.16,8.82V8h4.67V6.4H252.4V5.54h4.43V4h-4.55V3.16h5.47v6h-.92V8.82Z"/><path class="cls-1" d="M261.25,3.17a10.49,10.49,0,0,1,1,2,4.07,4.07,0,0,0-.85.39,10.16,10.16,0,0,0-1-2Zm6-.07c.1,0,.18.06.18.14s-.14.14-.19.15c-.74,2.92-2,4.7-4.95,5.91a4.62,4.62,0,0,0-.61-.76,6.5,6.5,0,0,0,4.64-5.73Zm-3.81-.44a8.22,8.22,0,0,1,.91,2,4.84,4.84,0,0,0-.85.34,9.41,9.41,0,0,0-.92-2Z"/><path class="cls-1" d="M271.21,7c0,1.06.19,1.16,2.06,1.16A32.61,32.61,0,0,0,277.21,8a5.5,5.5,0,0,0-.15,1.08c-.59,0-3.2,0-3.73,0-2.2,0-3.2,0-3.2-1.91V.78l1.13.07c.09,0,.19,0,.19.12s-.1.14-.24.2V4.29a11.74,11.74,0,0,0,4.85-2l.89.73a.16.16,0,0,1,.08.12c0,.08-.09.11-.22.11a.6.6,0,0,1-.18,0,15.13,15.13,0,0,1-5.42,2Zm7-5.58a.9.9,0,1,1-.91-.91A.91.91,0,0,1,278.25,1.42Zm-1.4,0a.49.49,0,1,0,.49-.49A.49.49,0,0,0,276.85,1.42Z"/><path class="cls-1" d="M280.49,1a12.14,12.14,0,0,1,2.78,1.83,7.13,7.13,0,0,0-.65.9,10.47,10.47,0,0,0-2.76-1.83Zm-.55,7.17a11.78,11.78,0,0,0,7.59-5.46,6,6,0,0,0,.67.92,13.56,13.56,0,0,1-7.32,5.51c0,.11,0,.22-.14.22a.2.2,0,0,1-.16-.12Z"/><path class="cls-1" d="M296.55,2.22a1.63,1.63,0,0,0,.68-.15l.58.53a3.56,3.56,0,0,0-.32.61,13.26,13.26,0,0,1-2.73,4.56,8.67,8.67,0,0,1-3,2A4.15,4.15,0,0,0,291,9a8.63,8.63,0,0,0,5.31-5.83h-3.12A13.45,13.45,0,0,1,290.68,6a5.5,5.5,0,0,0-.8-.72A10.77,10.77,0,0,0,293.3.65l1,.44s.14.06.14.15-.15.13-.24.13c-.1.21-.16.33-.44.85ZM296.11.34a11.36,11.36,0,0,1,.92,1,4.25,4.25,0,0,0-.6.42,6,6,0,0,0-.89-1Zm1.51-.11a8.87,8.87,0,0,1,.92,1,5.45,5.45,0,0,0-.6.42,5.43,5.43,0,0,0-.87-1Z"/><path class="cls-1" d="M304.78.86c.13,0,.2,0,.2.11s0,.14-.2.18c0,.25,0,.6-.05,1.54H308c-.15,5.78-.39,6.83-3.44,6.68a4,4,0,0,0-.28-1.13,3.37,3.37,0,0,0,.94.12,1.11,1.11,0,0,0,1.3-.88,14.85,14.85,0,0,0,.37-3.81h-2.27a7.08,7.08,0,0,1-3.88,5.79,2.57,2.57,0,0,0-.75-.79,5.91,5.91,0,0,0,3.55-5H300.3v-1h3.36a14.87,14.87,0,0,0,0-1.95Zm1.93-.25a10.45,10.45,0,0,1,1,1.07,4.7,4.7,0,0,0-.59.46,9,9,0,0,0-1-1.12Zm1.41-.36a7.47,7.47,0,0,1,1,1.09,3.11,3.11,0,0,0-.62.44,7.15,7.15,0,0,0-1-1.13Z"/><path class="cls-1" d="M319.5,4.6V5.68H311V4.6Z"/><path class="cls-1" d="M322,4.79v-1h8.42v1h-3.47a4.59,4.59,0,0,1-1.13,3.33,5.23,5.23,0,0,1-2.28,1.41,3.78,3.78,0,0,0-.77-.84c2.9-.81,3.1-2.58,3.13-3.9Zm7-3.61v.95h-5.65V1.18Zm.66.22a12.16,12.16,0,0,1,1,1,5.91,5.91,0,0,0-.5.57,7.46,7.46,0,0,0-1-1Zm.51-1a9.24,9.24,0,0,1,1.07,1,3.24,3.24,0,0,0-.51.53,6.22,6.22,0,0,0-1-1Z"/><path class="cls-1" d="M333.45,1a12.14,12.14,0,0,1,2.78,1.83,7.13,7.13,0,0,0-.65.9,10.47,10.47,0,0,0-2.76-1.83Zm-.55,7.17a11.78,11.78,0,0,0,7.59-5.46,6,6,0,0,0,.67.92,13.56,13.56,0,0,1-7.32,5.51c0,.11,0,.22-.14.22a.2.2,0,0,1-.16-.12Z"/><path class="cls-1" d="M345.23,5.14a.9.9,0,1,1-.9-.9A.91.91,0,0,1,345.23,5.14Z"/><path class="cls-1" d="M350.76.84l1-.13c.06,0,.21,0,.21.1s-.06.13-.16.2l.21,1.44,2.56-.33.11,1-2.53.33.24,1.67L356,4.64l.12,1-3.53.46.48,3.31-1,.19-.49-3.37-3.74.49-.12-1,3.72-.48-.25-1.67-2.7.35-.12-1L351,2.58Z"/><path class="cls-1" d="M360,2.43l.91-.09c.09,0,.21,0,.21.1s-.06.11-.14.18l.31,1.57,2.8-.55a.94.94,0,0,0,.52-.26l.67.53c-.17.2-.38.5-.5.68a20.77,20.77,0,0,1-1.5,2.21,6.31,6.31,0,0,0-.86-.43,6.86,6.86,0,0,0,1.33-1.82L361.47,5l.83,4.22-.89.2-.85-4.23-2.24.48-.24-.89,2.31-.45Z"/><path class="cls-1" d="M374,3.53a3,3,0,0,0,.85-.09l.68.47c-.13.21-.61,1.2-.71,1.4a7.59,7.59,0,0,1-4.94,4.37,5.6,5.6,0,0,0-.73-.86A6.5,6.5,0,0,0,374,4.5H367.4v-1Zm.33-2.38v1h-5.75v-1Z"/><path class="cls-1" d="M384.4,2.33a1.56,1.56,0,0,0,.72-.11l.65.47c-.09.33-.45,1.76-.54,2a7.52,7.52,0,0,1-4.23,5,4.52,4.52,0,0,0-.79-.79,6.44,6.44,0,0,0,3-2.32,8.17,8.17,0,0,0,1.23-3.35h-5.58V5.75h-1.06V2.33h3.26V.72l1.1.06c.18,0,.22,0,.22.11s-.15.16-.22.19V2.33Z"/><path class="cls-1" d="M391.87,7.87h3v.89H388V7.87h2.88V4.07h-2.17v-.9h5.32v.9h-2.21Z"/><path class="cls-1" d="M402,9.5H400.9v-5a19.51,19.51,0,0,1-3.41,1.69,4.28,4.28,0,0,0-.78-.93A14,14,0,0,0,403.79.5l1,.71a.19.19,0,0,1,.09.16c0,.07-.09.09-.16.09a.59.59,0,0,1-.19,0A17.53,17.53,0,0,1,402,3.73Z"/><path class="cls-1" d="M411.34,8.94h-1.25V3.46h-1.68V2.53c.94,0,1.63-.21,1.93-1.47h1Z"/><path class="cls-1" d="M421.53,1.06V2.12h-4.42V4.53H421V5.6h-3.86V8.94h-1.26V1.06Z"/></svg>