<svg id="レイヤー_1" data-name="レイヤー 1" xmlns="http://www.w3.org/2000/svg" viewBox="0 0 256 18" width="256" height="18"><defs><style>.cls-1{fill:#040000;}</style></defs><title>fax</title><path class="cls-1" d="M11.33,7.67v3H3.89v6.61H0V.47H12.52V3.61H3.89V7.67Z"/><path class="cls-1" d="M20.33,14.21l-1,3.1h-4L21.44.47h4.3l6.09,16.85h-4l-1-3.1ZM26,11.54,23.57,4.1l-2.39,7.44Z"/><path class="cls-1" d="M46.08.47h4.4L44.82,8.63l6,8.68h-4.4L42.6,11.8l-3.83,5.52h-4.4l6-8.68L34.71.47h4.42l3.46,5Z"/><path class="cls-1" d="M58.16,13.45v3.87H54.4V13.45Z"/><path class="cls-1" d="M76.5,9.17c0,2.05-.49,8.62-7.12,8.62A6.47,6.47,0,0,1,63.74,15c-1.11-1.62-1.5-4.55-1.5-6.41,0-2.05.49-8.62,7.14-8.62C75.62,0,76.5,5.69,76.5,9.17ZM66.22,8.89c0,.71,0,5.66,3.16,5.66s3.14-4.94,3.14-5.66,0-5.67-3.14-5.67S66.22,8.12,66.22,8.89Z"/><path class="cls-1" d="M94.43,17.31H80.07C80.34,13.57,82.44,12,87,9c3.44-2.35,3.44-2.84,3.44-3.74,0-1.6-1.71-2-2.82-2-2.89,0-3.19,2.05-3.27,3.44h-4a6.44,6.44,0,0,1,1.33-4.26A7.26,7.26,0,0,1,87.61,0c4.9,0,6.67,2.69,6.67,5.15a5.06,5.06,0,0,1-.94,2.93c-1.09,1.52-5.41,4.28-5.62,4.43a11.82,11.82,0,0,0-2.18,1.64h8.89Z"/><path class="cls-1" d="M112.26,17.31H97.89c.28-3.74,2.37-5.28,6.9-8.36,3.44-2.35,3.44-2.84,3.44-3.74,0-1.6-1.71-2-2.82-2-2.89,0-3.19,2.05-3.27,3.44h-4a6.44,6.44,0,0,1,1.33-4.26A7.26,7.26,0,0,1,105.44,0c4.9,0,6.67,2.69,6.67,5.15a5.06,5.06,0,0,1-.94,2.93c-1.09,1.52-5.41,4.28-5.62,4.43a11.82,11.82,0,0,0-2.18,1.64h8.89Z"/><path class="cls-1" d="M121.81,12.78h-6.24V9.58h6.24Z"/><path class="cls-1" d="M131.15,9.77V7.16h1.07c.41,0,3-.23,3-2.09s-1.9-1.78-2.54-1.78c-1.65,0-2.8.26-2.84,2.12h-4c.47-4,3.29-5.41,7-5.41,4,0,6.28,1.84,6.28,4.57a3.6,3.6,0,0,1-2.61,3.63,4,4,0,0,1,3,4c0,3.81-3.38,5.56-7.23,5.56-3.68,0-6.73-1.71-7-6.09h4c0,.81.19,2.88,3.06,2.88.41,0,3.16-.06,3.16-2.39,0-1.37-1-2.41-3.06-2.41Z"/><path class="cls-1" d="M143.27,3.61V.47H157.1V3.59c-.92.64-2.82,2-4.51,5.86a20.23,20.23,0,0,0-1.65,7.87h-4a19.5,19.5,0,0,1,1.86-7.87,17.19,17.19,0,0,1,4.28-5.84Z"/><path class="cls-1" d="M161.1,3.61V.47h13.83V3.59c-.92.64-2.82,2-4.51,5.86a20.23,20.23,0,0,0-1.65,7.87h-4a19.5,19.5,0,0,1,1.86-7.87,17.19,17.19,0,0,1,4.28-5.84Z"/><path class="cls-1" d="M184.8,12.78h-6.24V9.58h6.24Z"/><path class="cls-1" d="M202.48,12.57a4.77,4.77,0,0,1-1.92,3.91,9.54,9.54,0,0,1-5.19,1.3,9.42,9.42,0,0,1-5.19-1.3,4.77,4.77,0,0,1-1.95-3.91,4.24,4.24,0,0,1,3.21-4.19,4,4,0,0,1-2.65-3.76,4.25,4.25,0,0,1,1.86-3.46A9,9,0,0,1,195.45,0c6,0,6.48,3.61,6.48,4.62a4,4,0,0,1-2.65,3.76A4.24,4.24,0,0,1,202.48,12.57Zm-10.28-.45c0,1.82,1.71,2.44,3.16,2.44s3.14-.62,3.14-2.44c0-.69-.36-2.44-3.14-2.44S192.2,11.41,192.2,12.12Zm.56-6.86c0,.28,0,2,2.59,2s2.61-1.71,2.61-2c0-.77-.49-2.07-2.59-2.07S192.75,4.49,192.75,5.26Z"/><path class="cls-1" d="M216.05,4.68c-.21-.45-.64-1.43-2.59-1.43-3.31,0-3.53,2.87-3.66,4.51.75-.69,1.73-1.58,4.51-1.58,3.57,0,6,2.05,6,5.43,0,3.14-2.16,6.18-6.82,6.18a7.38,7.38,0,0,1-4-1c-3-1.82-3.46-5.28-3.46-7.85C206,.51,212,0,213.49,0c1.92,0,5.92.88,6.63,4.68Zm.41,7.1c0-1.77-1.54-2.67-3.16-2.67s-3.19.92-3.19,2.67a3.2,3.2,0,0,0,6.35,0Z"/><path class="cls-1" d="M238.13,9.17c0,2.05-.49,8.62-7.12,8.62A6.47,6.47,0,0,1,225.37,15c-1.11-1.62-1.5-4.55-1.5-6.41,0-2.05.49-8.62,7.14-8.62C237.26,0,238.13,5.69,238.13,9.17Zm-10.28-.28c0,.71,0,5.66,3.16,5.66s3.14-4.94,3.14-5.66,0-5.67-3.14-5.67S227.85,8.12,227.85,8.89Z"/><path class="cls-1" d="M254.78,3.61h-7.33L246.81,7a5.79,5.79,0,0,1,3.42-.92c2.74,0,5.73,1.69,5.73,5.52,0,3.61-2.57,6.18-7.16,6.18-6.09,0-6.76-3.83-7-5.17h4c.41,2,2.61,2,3,2,1.95,0,3.16-1.13,3.16-2.8a2.8,2.8,0,0,0-3-2.86,3.28,3.28,0,0,0-2.5.88h-4.21L244.07.47h10.71Z"/></svg>