<svg id="レイヤー_1" data-name="レイヤー 1" xmlns="http://www.w3.org/2000/svg" viewBox="0 0 19.5 19.5" width="19.5" height="19.5"><defs><style>.cls-1{fill:#fff;}</style></defs><title>icon_maintenance_1</title><path class="cls-1" d="M16.74,0h-14A2.76,2.76,0,0,0,0,2.76v14A2.76,2.76,0,0,0,2.76,19.5h14a2.76,2.76,0,0,0,2.76-2.76v-14A2.76,2.76,0,0,0,16.74,0Zm1.75,16.74a1.75,1.75,0,0,1-1.75,1.75h-14A1.75,1.75,0,0,1,1,16.74v-14A1.75,1.75,0,0,1,2.76,1h14a1.75,1.75,0,0,1,1.75,1.75Z"/><path class="cls-1" d="M6.5,6.22A6.3,6.3,0,0,0,5.77,14s.11.4.23.34A3.81,3.81,0,0,0,9.27,16.3a2.65,2.65,0,0,0,.46,0l-.13-.73a3,3,0,0,1-3-1.65c.26-.12.67-.3,1.28-.55C10,12.44,12.82,11,13.79,9a7.86,7.86,0,0,0,.41-5.27S9.4,3.28,6.5,6.22Z"/></svg>