<svg id="レイヤー_1" data-name="レイヤー 1" xmlns="http://www.w3.org/2000/svg" viewBox="0 0 46.5 46.5" width="46.5" height="46.5"><defs><style>.cls-1{fill:#d61819;}</style></defs><title>icon_build_2</title><path class="cls-1" d="M39.92,0H6.58A6.59,6.59,0,0,0,0,6.58V39.91A6.59,6.59,0,0,0,6.58,46.5H39.92a6.59,6.59,0,0,0,6.58-6.58V6.58A6.59,6.59,0,0,0,39.92,0Zm4.17,39.91a4.18,4.18,0,0,1-4.17,4.17H6.58a4.18,4.18,0,0,1-4.17-4.17V6.58A4.18,4.18,0,0,1,6.58,2.41H39.92a4.18,4.18,0,0,1,4.17,4.17Z"/><path class="cls-1" d="M37.86,19.81h-.15l-5.09-3.54V10.8H27.21v2l-4-2.53L6.13,22,7.64,24.2l3.9-2.67V36.82h5.93V30H23v6.85H35l0-15.44,4.58,2.84L41.05,22l-3.19-2.08Zm-9.34,9.7c0-2.71-3.73-7.19-5.89-7.19,2.17,0,5.89-4.73,5.89-7.45,0,2.71,3.38,7.45,5.55,7.45C31.9,22.31,28.51,26.8,28.51,29.51Z"/></svg>