<svg id="レイヤー_1" data-name="レイヤー 1" xmlns="http://www.w3.org/2000/svg" viewBox="0 0 46.5 46.5" width="46.5" height="46.5"><defs><style>.cls-1{fill:#0b579e;}</style></defs><title>icon_realestate_2</title><path class="cls-1" d="M39.92,0H6.58A6.59,6.59,0,0,0,0,6.58V39.92A6.59,6.59,0,0,0,6.58,46.5H39.92a6.59,6.59,0,0,0,6.58-6.58V6.58A6.59,6.59,0,0,0,39.92,0Zm4.17,39.92a4.18,4.18,0,0,1-4.17,4.17H6.58a4.18,4.18,0,0,1-4.17-4.17V6.58A4.18,4.18,0,0,1,6.58,2.41H39.92a4.18,4.18,0,0,1,4.17,4.17Z"/><path class="cls-1" d="M32.35,32.5a8.71,8.71,0,0,1-.45-17.4l-9.17-6-17,11.67L7.19,23l3.9-2.67V35.61H17V28.77H22.6v6.85H34.54l-1.64-3.13Z"/><path class="cls-1" d="M38.24,20.7A6.64,6.64,0,1,0,34,30.21l3.17,6,2.64-1.38-3.17-6A6.64,6.64,0,0,0,38.24,20.7Zm-4.05,6.82A4.2,4.2,0,1,1,36,21.85,4.2,4.2,0,0,1,34.19,27.52Z"/></svg>