<svg id="レイヤー_1" data-name="レイヤー 1" xmlns="http://www.w3.org/2000/svg" viewBox="0 0 19.5 19.5" width="19.5" height="19.5"><defs><style>.cls-1{fill:#fff;}</style></defs><title>icon_realsetate_1</title><path class="cls-1" d="M16.74,0h-14A2.76,2.76,0,0,0,0,2.76v14A2.76,2.76,0,0,0,2.76,19.5h14a2.76,2.76,0,0,0,2.76-2.76v-14A2.76,2.76,0,0,0,16.74,0Zm1.75,16.74a1.75,1.75,0,0,1-1.75,1.75h-14A1.75,1.75,0,0,1,1,16.74v-14A1.75,1.75,0,0,1,2.76,1h14a1.75,1.75,0,0,1,1.75,1.75Z"/><path class="cls-1" d="M13.57,13.63a3.65,3.65,0,0,1-.19-7.3L9.53,3.82,2.38,8.72,3,9.65,4.65,8.52v6.41H7.14V12.06H9.48v2.87h5l-.69-1.31Z"/><path class="cls-1" d="M16,8.68a2.79,2.79,0,1,0-1.76,4l1.33,2.53,1.11-.58-1.33-2.53A2.79,2.79,0,0,0,16,8.68Zm-1.7,2.86a1.76,1.76,0,1,1,.74-2.38A1.76,1.76,0,0,1,14.34,11.54Z"/></svg>