<svg id="レイヤー_1" data-name="レイヤー 1" xmlns="http://www.w3.org/2000/svg" viewBox="0 0 62 62" width="62" height="62"><defs><style>.cls-1{fill:#070001;}.cls-2{fill:#040000;}</style></defs><title>icon_menu</title><polyline class="cls-1" points="0 3.81 61.45 3.81 61.45 0.55 0 0.55"/><polyline class="cls-1" points="0 18.17 61.45 18.17 61.45 14.91 0 14.91"/><polyline class="cls-1" points="0 33.65 61.45 33.65 61.45 30.39 0 30.39"/><path class="cls-2" d="M13.62,61.21h-2.2V54.53c0-1.65,0-3.1,0-4.67h-.24c-.34,1.52-.65,2.88-1.09,4.5L8.35,61.21H5.66L3.92,54.45c-.41-1.53-.73-3-1.12-4.58H2.56c0,1.53.05,3.07.05,4.7v6.64h-2V48H4.31L6,54.74c.34,1.38.68,2.91,1,4.36h.24c.36-1.45.63-2.81,1-4.33L9.88,48h3.75Z"/><path class="cls-2" d="M28.91,49.82H22.49v3.49h4.85v1.82H22.49v4.26H29v1.82H20.19V48h8.72Z"/><path class="cls-2" d="M44.75,61.21H41.95l-3.2-6.81C38,52.75,37.45,51.52,36.85,50h-.24c.08,1.57.12,3.13.12,4.77v6.4H34.62V48h3.46l2.74,5.86a40.41,40.41,0,0,1,1.75,4.53h.24c-.1-1.62-.17-3.07-.17-4.84V48h2.11Z"/><path class="cls-2" d="M61.32,56.65c0,3.17-1.94,4.8-5,4.8s-5-1.58-5-4.8V48h2.3v8.62c0,2.16,1,3.08,2.79,3.08s2.79-.92,2.79-3.08V48h2.15Z"/></svg>