<svg id="レイヤー_1" data-name="レイヤー 1" xmlns="http://www.w3.org/2000/svg" viewBox="0 0 19.5 19.5" width="19.5" height="19.5"><defs><style>.cls-1{fill:#fff;}</style></defs><title>icon_build_1</title><path class="cls-1" d="M16.74,0h-14A2.76,2.76,0,0,0,0,2.76v14A2.76,2.76,0,0,0,2.76,19.5h14a2.76,2.76,0,0,0,2.76-2.76v-14A2.76,2.76,0,0,0,16.74,0Zm1.75,16.74a1.75,1.75,0,0,1-1.75,1.75h-14A1.75,1.75,0,0,1,1,16.74v-14A1.75,1.75,0,0,1,2.76,1h14a1.75,1.75,0,0,1,1.75,1.75Z"/><path class="cls-1" d="M15.88,8.31h-.06L13.68,6.82V4.53H11.41v.86L9.72,4.33,2.57,9.22l.63.93L4.84,9v6.41H7.33V12.57H9.67v2.87h5l0-6.48,1.92,1.19.61-.94-1.34-.87ZM12,12.38c0-1.14-1.56-3-2.47-3,.91,0,2.47-2,2.47-3.12,0,1.14,1.42,3.12,2.33,3.12C13.38,9.36,12,11.24,12,12.38Z"/></svg>