<svg id="レイヤー_1" data-name="レイヤー 1" xmlns="http://www.w3.org/2000/svg" viewBox="0 0 16 16" width="16" height="16"><defs><style>.cls-1{fill:#ef7d32;}</style></defs><title>icon_window</title><path class="cls-1" d="M13.07,5a1.4,1.4,0,0,1,1.4,1.4v6.14a1.4,1.4,0,0,1-1.4,1.4H6.93a1.4,1.4,0,0,1-1.4-1.4V6.43A1.4,1.4,0,0,1,6.93,5h6.14m0-1.25H6.93A2.65,2.65,0,0,0,4.28,6.43v6.14a2.65,2.65,0,0,0,2.65,2.65h6.14a2.65,2.65,0,0,0,2.65-2.65V6.43A2.65,2.65,0,0,0,13.07,3.78ZM3.53,11h-.6a1.4,1.4,0,0,1-1.4-1.4V3.43A1.4,1.4,0,0,1,2.93,2H9.07a1.4,1.4,0,0,1,1.33,1h1.27A2.64,2.64,0,0,0,9.07.78H2.93A2.65,2.65,0,0,0,.28,3.43V9.57a2.65,2.65,0,0,0,2.65,2.65h.6Z"/></svg>