<svg id="レイヤー_1" data-name="レイヤー 1" xmlns="http://www.w3.org/2000/svg" viewBox="0 0 46.5 46.5" width="46.5" height="46.5"><defs><style>.cls-1{fill:#129144;}</style></defs><title>icon_maintenance_2</title><path class="cls-1" d="M39.92,0H6.58A6.59,6.59,0,0,0,0,6.58V39.92A6.59,6.59,0,0,0,6.58,46.5H39.92a6.59,6.59,0,0,0,6.58-6.58V6.58A6.59,6.59,0,0,0,39.92,0Zm4.17,39.92a4.18,4.18,0,0,1-4.17,4.17H6.58a4.18,4.18,0,0,1-4.17-4.17V6.58A4.18,4.18,0,0,1,6.58,2.41H39.92a4.18,4.18,0,0,1,4.17,4.17Z"/><path class="cls-1" d="M15.5,14.82c-6.93,7-3.7,15.29-1.74,18.67,0,0,.26.94.56.82a9.09,9.09,0,0,0,7.79,4.56,6.32,6.32,0,0,0,1.09-.08L22.87,37c-.18,0-4.44.72-7.22-3.93.63-.29,1.59-.71,3.05-1.32,5.11-2.12,11.87-5.57,14.17-10.42a18.74,18.74,0,0,0,1-12.57S22.42,7.81,15.5,14.82Z"/></svg>