<svg id="レイヤー_1" data-name="レイヤー 1" xmlns="http://www.w3.org/2000/svg" viewBox="0 0 482 63" width="482" height="63"><defs><style>.cls-1{fill:#00a63c;}.cls-2{fill:#fff;}.cls-3{fill:#231815;}.cls-4{fill:#040000;}</style></defs><title>tel</title><rect class="cls-1" y="0.08" width="59.09" height="38.6"/><path class="cls-2" d="M59.09,6.12A33.29,33.29,0,0,0,44.15,9.49,31.8,31.8,0,0,0,29.54,6.12,31.78,31.78,0,0,0,14.93,9.49,33.25,33.25,0,0,0,0,6.12V9.49a29.82,29.82,0,0,1,11.24,2.13C7.59,14.07,4,17.77,4,22.43a11,11,0,0,0,11,10.89,10.83,10.83,0,0,0,10.7-10.89c0-4.67-3.36-8.37-7-10.81A28.17,28.17,0,0,1,29.54,9.49a28.2,28.2,0,0,1,10.92,2.13c-3.65,2.44-7,6.14-7,10.81a10.83,10.83,0,0,0,10.7,10.89A11,11,0,0,0,55,22.43c0-4.67-3.53-8.37-7.18-10.81A29.83,29.83,0,0,1,59.09,9.49Zm-22,16.24c0-4,3.93-7.14,7.26-9,3.33,1.89,7.26,5.06,7.26,9a7.27,7.27,0,1,1-14.53,0M14.85,30a7.32,7.32,0,0,1-7.27-7.59c0-4,3.93-7.14,7.27-9,3.33,1.9,7.27,5.07,7.27,9A7.32,7.32,0,0,1,14.85,30"/><path class="cls-3" d="M60.57,36.15a2.52,2.52,0,1,1,2.52,2.52A2.52,2.52,0,0,1,60.57,36.15Zm-.3,0a2.82,2.82,0,1,0,2.82-2.82,2.82,2.82,0,0,0-2.82,2.82"/><path class="cls-3" d="M62.34,35.9h.55a.82.82,0,0,0,.56-.19.59.59,0,0,0,.21-.47c0-.41-.25-.62-.76-.62h-.56ZM64.45,38h-.54l-1.1-1.69h-.48V38h-.44V34.24H63a1.28,1.28,0,0,1,.84.26.88.88,0,0,1,.3.72.91.91,0,0,1-.22.61,1.17,1.17,0,0,1-.62.36L64.45,38"/><path class="cls-4" d="M108.83,17.1c0,3.69-.85,15.5-12.28,15.5a11,11,0,0,1-9.73-5c-1.92-2.92-2.58-8.19-2.58-11.54,0-3.69.85-15.5,12.31-15.5C107.32.61,108.83,10.83,108.83,17.1ZM91.1,16.6c0,1.27,0,10.19,5.46,10.19S102,17.91,102,16.6s0-10.19-5.42-10.19S91.1,15.22,91.1,16.6Z"/><path class="cls-4" d="M122.69,31.75V12.07h-6.3V7c3.72-.12,6.38-.77,7.74-5.58h5.42v30.3Z"/><path class="cls-4" d="M165,31.75H140.2c.48-6.73,4.09-9.5,11.91-15C158,12.49,158,11.6,158,10c0-2.88-2.95-3.62-4.87-3.62-5,0-5.49,3.69-5.64,6.19h-6.82c.11-2.42.22-5.08,2.29-7.65,2.47-3.11,6-4.31,10.21-4.31,8.44,0,11.5,4.85,11.5,9.27a9.36,9.36,0,0,1-1.62,5.27c-1.88,2.73-9.33,7.69-9.7,8a20.49,20.49,0,0,0-3.76,3H165Z"/><path class="cls-4" d="M192.77,17.1c0,3.69-.85,15.5-12.28,15.5a11,11,0,0,1-9.73-5c-1.92-2.92-2.58-8.19-2.58-11.54,0-3.69.85-15.5,12.31-15.5C191.26.61,192.77,10.83,192.77,17.1ZM175,16.6c0,1.27,0,10.19,5.46,10.19s5.42-8.88,5.42-10.19,0-10.19-5.42-10.19S175,15.22,175,16.6Z"/><path class="cls-4" d="M206.67,23.6H195.91V17.83h10.76Z"/><path class="cls-4" d="M223.48,1.45h6.6V19.68h4.5v5.81h-4.5v6.27h-6.67V25.49H209.62V19.64Zm-.07,18.23V9L215.3,19.68Z"/><path class="cls-4" d="M262.37,23.22a8.71,8.71,0,0,1-3.32,7c-2.87,2.12-7,2.35-9,2.35-2.29,0-6.19-.31-9-2.35a8.69,8.69,0,0,1-3.35-7,7.55,7.55,0,0,1,5.53-7.54,7.19,7.19,0,0,1-4.57-6.77,7.73,7.73,0,0,1,3.21-6.23c2.14-1.65,6-2.08,8.29-2.08,10.36,0,11.17,6.5,11.17,8.31a7.15,7.15,0,0,1-4.57,6.77A7.55,7.55,0,0,1,262.37,23.22Zm-17.73-.81c0,3.27,2.95,4.38,5.46,4.38s5.42-1.12,5.42-4.38c0-1.23-.63-4.38-5.42-4.38S244.64,21.14,244.64,22.41Zm1-12.34c0,.5.07,3.65,4.46,3.65s4.5-3.08,4.5-3.61c0-1.38-.85-3.73-4.46-3.73S245.6,8.68,245.6,10.07Z"/><path class="cls-4" d="M276.27,23.6H265.5V17.83h10.76Z"/><path class="cls-4" d="M279.77,7.11V1.45h23.85V7.07c-1.58,1.15-4.87,3.58-7.78,10.54A37.72,37.72,0,0,0,293,31.75h-6.86a36.33,36.33,0,0,1,3.21-14.15,30.81,30.81,0,0,1,7.37-10.5Z"/><path class="cls-4" d="M307.75,7.11V1.45H331.6V7.07c-1.58,1.15-4.87,3.58-7.78,10.54A37.72,37.72,0,0,0,321,31.75h-6.86a36.33,36.33,0,0,1,3.21-14.15,30.81,30.81,0,0,1,7.37-10.5Z"/><path class="cls-4" d="M360.13,31.75H335.36c.48-6.73,4.09-9.5,11.91-15,5.94-4.23,5.94-5.11,5.94-6.73,0-2.88-2.95-3.62-4.87-3.62-5,0-5.49,3.69-5.64,6.19h-6.82c.11-2.42.22-5.08,2.29-7.65,2.47-3.11,6-4.31,10.21-4.31,8.44,0,11.5,4.85,11.5,9.27a9.36,9.36,0,0,1-1.62,5.27c-1.88,2.73-9.33,7.69-9.7,8a20.49,20.49,0,0,0-3.76,3h15.34Z"/><path class="cls-4" d="M388.11,31.75H363.34c.48-6.73,4.09-9.5,11.91-15,5.94-4.23,5.94-5.11,5.94-6.73,0-2.88-2.95-3.62-4.87-3.62-5,0-5.49,3.69-5.64,6.19h-6.82c.11-2.42.22-5.08,2.29-7.65,2.47-3.11,6-4.31,10.21-4.31,8.44,0,11.5,4.85,11.5,9.27a9.36,9.36,0,0,1-1.62,5.27c-1.88,2.73-9.33,7.69-9.7,8a20.49,20.49,0,0,0-3.76,3h15.34Z"/><path class="cls-4" d="M287.47,58.5l-.29-.29,2.93-2.92-2.93-2.92.29-.29L290.38,55l2.92-2.93.29.29-2.93,2.92,2.93,2.92-.29.29-2.92-2.93Zm1.22-3.21a.75.75,0,1,1-.75-.75A.75.75,0,0,1,288.68,55.3Zm2.45-2.45a.75.75,0,1,1-.75-.76A.75.75,0,0,1,291.13,52.85Zm0,4.9a.75.75,0,1,1-.75-.75A.75.75,0,0,1,291.13,57.75Zm2.46-2.45a.75.75,0,1,1-.76-.75A.75.75,0,0,1,293.59,55.3Z"/><path class="cls-4" d="M303.74,53.24v.49h-1.43v.47h1.44v.48h-1.44v.49h1.89v.63h-4.68v-2a7,7,0,0,1-.45.58,1.49,1.49,0,0,0-.69-.42c.15-.16.26-.27.4-.43h-.72V55c.32-.12.67-.26,1-.4a2.06,2.06,0,0,0,0,.42,3.24,3.24,0,0,0,0,.38c-.52.27-.82.39-1,.45v2.56c0,.76-.25,1-1.46.95a2.19,2.19,0,0,0-.31-1,2.65,2.65,0,0,0,.53.07c.35,0,.35-.12.35-.32V56.25l-.66.23c-.06.18-.07.23-.15.23s-.11-.09-.14-.22l-.17-.83c.68-.17,1-.26,1.12-.32v-1.8h-1v-.83h1V51.18l.88,0c.17,0,.25,0,.25.11s-.06.13-.25.22v1.19h1v.51a6.81,6.81,0,0,0,1.06-2.08l.77.23c.11,0,.16,0,.16.12s-.08.11-.26.14c-.11.25-.17.38-.23.5h.87a6.48,6.48,0,0,0,.52-1l.88.26c.1,0,.15.05.15.12s-.09.12-.31.14c-.13.22-.18.32-.31.51H304v.64h-1.73v.46ZM299,56.82v-.74h4l.29.34c0,.11-.08.23-.22.58h1.3c-.06.71-.26,1.81-.75,2.13a2.59,2.59,0,0,1-1.62.26,1.79,1.79,0,0,0-.3-.87,5.38,5.38,0,0,0,.78.07c.56,0,.66-.14.86-.89h-.59l-.18.32a4,4,0,0,0-.87-.13,6,6,0,0,0,.5-1.07h-.89a3.53,3.53,0,0,1-2,2.64,2.21,2.21,0,0,0-.7-.58,2.69,2.69,0,0,0,1.76-2.05Zm2.55-3.58v-.46h-1.15v.46Zm0,1v-.47h-1.15v.47Zm-1.15.48v.49h1.15v-.49Z"/><path class="cls-4" d="M309.71,52v-.86l.94,0c.1,0,.2,0,.2.1s-.09.12-.2.15V52h1.49v-.78l.92,0c.07,0,.17,0,.17.11s-.06.1-.17.15V52h1.28v.75h-1.28v1.4h-5.74v-1.4h-1.24V52h1.24v-.8l.95,0c.09,0,.15,0,.15.1s-.09.11-.15.14V52Zm.94,4.12h2.29v1.82c0,.95-.32,1.1-1.59,1.08a1.62,1.62,0,0,0-.32-.92,3.48,3.48,0,0,0,.61.07c.28,0,.39,0,.39-.34v-1h-1.37v2.54h-.94V56.88h-1.33V59h-.94V56.13h2.27v-.79h-2.55v1.21h-1V54.63h8v1.92h-1V55.33h-2.57Zm-2.4-3.38v.64h1.46v-.64Zm2.4,0v.64h1.49v-.64Z"/><path class="cls-4" d="M320.52,52.5h3.55v1.87h-.89V53.14h-2.66v1.77h-.91V53.14h-2.67v1.23H316V52.5h3.57V52h-3v-.67h7V52h-3Zm0,5.66c0,.39.14.42.61.42h1.5c.49,0,.78,0,.95-1a2.07,2.07,0,0,0,.8.39c-.26,1.36-.86,1.4-1.67,1.4h-1.84c-.67,0-1.25,0-1.25-1v-.33h-1.85v.66h-.87V55.14h6.32v2.81h-2.7Zm-1.37-4.69V54h-1.7v-.49Zm0,.81v.48h-1.7v-.48Zm.48,1.5h-1.85v.45h1.85Zm0,1h-1.85v.47h1.85Zm.89-.58h1.82v-.45h-1.82Zm0,1.05h1.82v-.47h-1.82Zm2.19-3.82V54H321v-.49Zm0,.81v.48H321v-.48Z"/><path class="cls-4" d="M329.38,52.7v.73h-3.6V52.7Zm-.32,3.65v3h-.82v-.42H327v.53h-.9V56.34Zm-.13-2.42v.71h-2.71v-.71Zm0,1.21v.72h-2.71v-.72Zm0-3.61v.71h-2.67v-.71ZM327,57.08v1h1.24v-1Zm5.16-3.41h2v.8h-2v1.28h1.57V59.4h-.92v-.56h-2.19v.56h-.92V55.75h1.54V54.47h-2v-.8h2V52.49a12.83,12.83,0,0,1-1.67.12,1.93,1.93,0,0,0-.28-.8,9.7,9.7,0,0,0,4-.68l.62.71a.17.17,0,0,1,.05.12s0,.09-.11.09a.41.41,0,0,1-.21-.09,11.79,11.79,0,0,1-1.49.4ZM332.8,58v-1.5h-2.19V58Z"/><path class="cls-4" d="M337.86,55.3a.81.81,0,1,1-.81-.81A.82.82,0,0,1,337.86,55.3Z"/><path class="cls-4" d="M344,51.62a2.22,2.22,0,0,1,2.47,2.25A2.15,2.15,0,0,1,344,56.11h-2.59v2.61h-1.12V51.62Zm-2.59,1v2.57h2.49a1.28,1.28,0,0,0,1.41-1.28,1.29,1.29,0,0,0-1.41-1.3Z"/><path class="cls-4" d="M349.66,51.62v2.9h4.22v-2.9H355v7.09h-1.13V55.48h-4.22v3.24h-1.13V51.62Z"/><path class="cls-4" d="M361.61,53.63c-.07-1.22-1.15-1.25-1.59-1.25s-1.6,0-1.6,1c0,.68.49.9,2.29,1.44,1.19.36,2.24.68,2.24,2,0,.7-.44,2.16-2.81,2.16-1.16,0-3-.33-3.09-2.35h1.19c0,1.08.86,1.4,1.85,1.4a2.18,2.18,0,0,0,1.3-.32,1.12,1.12,0,0,0,.4-.79c0-.67-.76-.93-2-1.25-1.46-.4-2.56-.81-2.56-2.12,0-.83.55-2,2.58-2a2.7,2.7,0,0,1,2.3.8,2.27,2.27,0,0,1,.62,1.4Z"/><path class="cls-4" d="M368.63,51.54c.1,0,.16.05.16.13s-.05.13-.23.15c0,.11-.25,1.12-.3,1.31.77,0,2.23-.08,2.23,2.06a6,6,0,0,1-.87,3.22,1.52,1.52,0,0,1-1.32.63,4.63,4.63,0,0,1-.92-.11,4.32,4.32,0,0,0-.07-1,2,2,0,0,0,.88.2.83.83,0,0,0,.79-.39,4.86,4.86,0,0,0,.6-2.41c0-1.15-.52-1.32-1-1.32a4.3,4.3,0,0,0-.5,0,14,14,0,0,1-2.4,5,4.56,4.56,0,0,0-.89-.48,11.19,11.19,0,0,0,2.32-4.36,11.64,11.64,0,0,0-1.83.53l-.33-1c.39-.07,2.05-.45,2.39-.5a13.86,13.86,0,0,0,.3-2Zm2.56.64a5.93,5.93,0,0,1,1.65,3.26c0,.57-.35,1-1.54,1.22a5.33,5.33,0,0,0-.38-.8c.45-.08,1-.19,1-.61a5,5,0,0,0-1.42-2.6Z"/><path class="cls-4" d="M376.58,53.06s.1,0,.1.11-.1.13-.21.13a11,11,0,0,0-.67,2.3,4.3,4.3,0,0,1,3-1.29,2,2,0,0,1,2.2,2.07c0,1.8-1.87,2.75-4.58,2.75l-.71,0c0-.13-.07-.4-.1-.5a4.53,4.53,0,0,0-.16-.5,6.67,6.67,0,0,0,1.31.11c1.75,0,3.29-.59,3.29-1.85a1.2,1.2,0,0,0-1.35-1.21,4.09,4.09,0,0,0-3.15,1.75l-.87-.31a20.89,20.89,0,0,1,.88-3.85Zm-.31-1.88a9.65,9.65,0,0,1,3.18,1.06,8.14,8.14,0,0,0-.52.88,8.34,8.34,0,0,0-3-1.15Z"/><path class="cls-4" d="M386.85,51.48c.12,0,.17.07.17.14s0,.1-.29.14c-.25.5-.34.71-.54,1.16a11.41,11.41,0,0,0,1.94.06,5.29,5.29,0,0,0-.26,1,16.43,16.43,0,0,1-2-.12c-.19.51-.37,1-.45,1.25a16.56,16.56,0,0,0,2.35.13,7.78,7.78,0,0,0-.26.9,19.44,19.44,0,0,1-2.33-.19,4.12,4.12,0,0,0-.13,1c0,1.11.83,1.43,1.76,1.43,1.25,0,2-.57,2-1.6a3.19,3.19,0,0,0-.56-1.58,3.37,3.37,0,0,0,.88-.38,4,4,0,0,1,.66,2c0,1.86-1.81,2.4-3,2.4-2.34,0-2.67-1.58-2.67-2.33a4.54,4.54,0,0,1,.14-1.11,11.23,11.23,0,0,1-1.48-.37l.2-.88a11.83,11.83,0,0,0,1.52.4c.2-.66.32-1,.41-1.26a12.63,12.63,0,0,1-1.64-.42l.19-.93a10.24,10.24,0,0,0,1.76.47c.1-.27.54-1.46.62-1.7Z"/><path class="cls-4" d="M394.12,55.75c-.15.13-1.08.89-1.08,1.46a.54.54,0,0,0,.27.5,5.27,5.27,0,0,0,2.1.34,11.75,11.75,0,0,0,3.37-.43,8,8,0,0,0,.22,1,17.94,17.94,0,0,1-3.55.35c-2.09,0-3.36-.42-3.36-1.66,0-.35.07-1,1.37-2.08Zm3.72-3.11a11,11,0,0,0-2.43,1.79c-.12-.13-.5-.49-.62-.58.42-.37.84-.73,1.29-1.06-.36,0-1.32.1-2.29.1a7.75,7.75,0,0,1-1.09-.05l-.07-1a12.82,12.82,0,0,0,2,.15,17,17,0,0,0,2.69-.22Zm.47-1a7.29,7.29,0,0,1,.86.95,2.23,2.23,0,0,0-.43.44,7.14,7.14,0,0,0-.87-1ZM399,51a9,9,0,0,1,.88.92,1.84,1.84,0,0,0-.47.45,6.14,6.14,0,0,0-.83-1Z"/><path class="cls-4" d="M403.86,59.42H403v-3.6a8.71,8.71,0,0,1-1.25,2.08,2.22,2.22,0,0,0-.84-.52,9,9,0,0,0,2-2.94h-1.8v-.78H403V52.42c-.44.07-1,.14-1.4.17a4.17,4.17,0,0,0-.44-.77,9.87,9.87,0,0,0,3.56-.69l.55.59a.28.28,0,0,1,.06.15c0,.05,0,.09-.11.09a.79.79,0,0,1-.23-.07c-.46.18-.93.3-1.14.36v1.4h1.63v.78h-1.54a6.91,6.91,0,0,0,1.55,1.94,3.84,3.84,0,0,0-.63.65,6.12,6.12,0,0,1-1-1.52ZM407,51.94c.13,0,.22,0,.22.12s0,.1-.22.15v5.11h-.92V51.88Zm2-.69c.1,0,.19.06.19.12s-.09.12-.23.17v6.7c0,1-.29,1.22-1.86,1.17a2.59,2.59,0,0,0-.33-.95,4.94,4.94,0,0,0,.84.07c.36,0,.44-.08.44-.41v-7Z"/><path class="cls-4" d="M415.73,59h-.94V56.36h-2a6.51,6.51,0,0,1-.93,3.06,2.25,2.25,0,0,0-1-.4c.3-.37,1-1.26,1-4.06V51.51h6.89v6.67c0,1-.49,1.26-1.85,1.21a2.65,2.65,0,0,0-.36-1,3.86,3.86,0,0,0,.73.07c.49,0,.51-.17.51-.55V56.36h-2Zm-.94-4.66h-1.94v.5s0,.29,0,.67h2Zm0-2h-1.94v1.17h1.94Zm.94,1.17h2V52.34h-2Zm0,2h2V54.33h-2Z"/><path class="cls-4" d="M422.66,52.1c.13,0,.19.05.19.14s-.12.13-.2.13a8.65,8.65,0,0,0-.43,2.7c0,1.47.56,2.58,1,2.58s.85-1.15,1.06-1.67a2.91,2.91,0,0,0,.66.61c-.16.4-.91,2.26-1.77,2.26s-1.85-1.37-1.85-3.92a16.16,16.16,0,0,1,.39-3.12Zm4.61.18a9.06,9.06,0,0,1,1.79,4.61c-.14,0-.75.31-1,.42a7.9,7.9,0,0,0-1.59-4.54Z"/><path class="cls-4" d="M434.64,51.44c.12,0,.17.07.17.13s-.13.13-.17.14c0,.18-.24,1-.28,1.18a7,7,0,0,0,1.84-.49l.15.93a13.71,13.71,0,0,1-2.23.46,20.23,20.23,0,0,1-2.41,5.47,7.18,7.18,0,0,0-.91-.47,14.48,14.48,0,0,0,2.33-4.87,16.64,16.64,0,0,1-1.91.09l-.08-1c.22,0,.45,0,.8,0,.6,0,1.13,0,1.41-.06a14.7,14.7,0,0,0,.26-1.81Zm.79,5.33a1.4,1.4,0,0,0-.39.85c0,.36.42.59,1.7.59a7,7,0,0,0,1.92-.3,3.63,3.63,0,0,0,0,.5,2.11,2.11,0,0,0,.05.5,10.64,10.64,0,0,1-1.92.17c-.58,0-2.57,0-2.57-1.38a2.17,2.17,0,0,1,.46-1.22Zm-.33-2.26a14,14,0,0,1,2.06-.15,7.83,7.83,0,0,1,1.31.09,6.13,6.13,0,0,0-.07.92,6.25,6.25,0,0,0-1.34-.13,15.32,15.32,0,0,0-2,.15Z"/><path class="cls-4" d="M444.4,51.44c.12,0,.17.07.17.13s-.13.13-.17.14c0,.18-.24,1-.28,1.18A7,7,0,0,0,446,52.4l.15.93a13.71,13.71,0,0,1-2.23.46,20.23,20.23,0,0,1-2.41,5.47,7.18,7.18,0,0,0-.91-.47,14.46,14.46,0,0,0,2.33-4.87A16.63,16.63,0,0,1,441,54l-.08-1c.22,0,.45,0,.8,0,.6,0,1.13,0,1.41-.06a14.7,14.7,0,0,0,.26-1.81Zm.79,5.33a1.41,1.41,0,0,0-.39.85c0,.36.42.59,1.7.59a7,7,0,0,0,1.92-.3,3.63,3.63,0,0,0,0,.5,2.11,2.11,0,0,0,.05.5,10.64,10.64,0,0,1-1.92.17c-.58,0-2.57,0-2.57-1.38a2.17,2.17,0,0,1,.46-1.22Zm-.33-2.26a14,14,0,0,1,2.06-.15,7.83,7.83,0,0,1,1.31.09,6.13,6.13,0,0,0-.07.92,6.25,6.25,0,0,0-1.34-.13,15.31,15.31,0,0,0-2,.15ZM447.07,52a7.13,7.13,0,0,1,.87,1,1.87,1.87,0,0,0-.5.37,9.12,9.12,0,0,0-.84-1Zm.87-.6a5.86,5.86,0,0,1,.87,1,3.46,3.46,0,0,0-.48.37,6.16,6.16,0,0,0-.86-1Z"/><path class="cls-4" d="M452.09,51.71c.1,0,.14,0,.14.11s-.14.13-.21.14a11.27,11.27,0,0,0-.44,3.25,7.83,7.83,0,0,0,.23,2c0-.11.06-.18.29-.78.12-.31.26-.63.36-.84a2.35,2.35,0,0,0,.68.42,8.56,8.56,0,0,0-1,2.81l-.76.17a10.13,10.13,0,0,1-.74-4,14.9,14.9,0,0,1,.44-3.57Zm4.43-.29c.19,0,.24,0,.24.1s-.1.12-.16.13c0,1.25,0,1.4,0,1.78A7.39,7.39,0,0,0,458.1,53a7.93,7.93,0,0,0,0,.93,7.51,7.51,0,0,1-1.49.38,7.28,7.28,0,0,1-.39,3.21,4.73,4.73,0,0,1-1.49,1.85,2.49,2.49,0,0,0-.77-.66c1.64-1.14,1.79-2.21,1.75-4.27a18.47,18.47,0,0,1-2.29.1l-.08-1a5.89,5.89,0,0,0,.88.05,13.84,13.84,0,0,0,1.47-.08c0-.33-.06-1.49-.17-2.27Z"/><path class="cls-4" d="M464,51.43c.08,0,.14,0,.14.1s-.13.13-.18.14c0,.38,0,.58,0,.75.43,0,2.32,0,2.71,0v.89c-.47,0-1.12-.07-2.73,0,0,0,0,1,0,1.41a11.75,11.75,0,0,0,2.5-.41v.92a15.8,15.8,0,0,1-2.48.31c0,.18,0,1,0,1.14a8,8,0,0,1,3,1.27c-.3.34-.35.41-.63.78a6.13,6.13,0,0,0-2.3-1.26c0,.62.11,1.71-1.74,1.71-1.3,0-2.13-.63-2.13-1.34,0-1,1.18-1.34,2.16-1.34l.72,0c0-.12,0-.77,0-.95-1.27,0-2.66.05-2.66-.71,0-.32.19-.59.64-1l.7.22c-.32.28-.35.32-.35.43s.23.22.53.23a9.42,9.42,0,0,0,1.12,0c0-.23,0-1.22,0-1.43-1.46.05-2.45.18-3,.24V52.6c.47,0,2.57-.13,3-.15,0-.67,0-.88,0-1.22Zm-1.65,5.73c-.61,0-1.28.16-1.28.62s.84.58,1,.58c.93,0,.93-.55.93-.84,0-.11,0-.19,0-.29A2.45,2.45,0,0,0,462.4,57.15Z"/><path class="cls-4" d="M473.47,51.29c.22,0,.22.06.22.11s-.06.1-.15.14c0,.25,0,.31,0,.85l3.12-.13a8.76,8.76,0,0,0,0,1c-.3,0-1.07,0-1.87,0l-1.24,0a12.81,12.81,0,0,0,0,1.4,3.12,3.12,0,0,1,.39,1.53,3.88,3.88,0,0,1-.81,2.29,4.14,4.14,0,0,1-1.44,1.15,4.45,4.45,0,0,0-.83-.65,2.93,2.93,0,0,0,2-1.85,1.38,1.38,0,0,1-1,.44c-.85,0-1.28-.75-1.28-1.67,0-1.1.64-1.77,1.47-1.77a1.24,1.24,0,0,1,.58.13v-.95a33.56,33.56,0,0,0-3.8.39l-.08-1c.35,0,.7,0,3.85-.19a10.8,10.8,0,0,0-.14-1.26Zm-2.13,4.54c0,.13,0,1,.68,1,.47,0,.79-.48.79-1.07,0-.28-.13-.88-.74-.88S471.34,55.33,471.34,55.83Z"/><path class="cls-4" d="M481.11,58a1.2,1.2,0,0,1-2.39,0,1.2,1.2,0,0,1,2.39,0Zm-1.92,0a.72.72,0,1,0,.72-.72A.72.72,0,0,0,479.19,58Z"/><path class="cls-4" d="M81.79,62.92V47h3.85a15.53,15.53,0,0,0,0,15.91Z"/><path class="cls-4" d="M92.86,50a8.88,8.88,0,0,0-1.06-1.58l1.79-1a10.43,10.43,0,0,1,1.38,2l-.86.54h1.21A13.76,13.76,0,0,0,97,47.61l1.81,1a.27.27,0,0,1,.15.22c0,.13-.14.21-.48.26-.28.48-.46.78-.57.93h3v3.91H98.57v-2H89.46v2h-2.3V50H89.4a9.62,9.62,0,0,0-.89-1.3l1.78-.94a11,11,0,0,1,1.3,1.89l-.54.35Zm6.66,7.35v5H97.28v-.45H90.85v.45H88.6v-5h3.73l.37-.75H89.95V52.42h8.16v4.15h-3c0,.11-.29.64-.35.75Zm-2.24,2.75v-1H90.85v1Zm-5.06-6v.88h3.67v-.88Z"/><path class="cls-4" d="M110.43,62.28h-2.09V59.52A16.62,16.62,0,0,1,104,62.24a5,5,0,0,0-1.6-1.58,14.35,14.35,0,0,0,4.46-2.56h-4.46V56.33h5.9v-.48H104.2V54.23h4.14v-.45h-5.17V52.07h2.91c-.08-.19-.31-.7-.34-.77h-3.31V49.54h1.87c-.25-.48-.37-.69-.58-1l1.76-1.12c.37.61.81,1.49,1,1.81l-.63.35h1.06V47.61l2,.08c.15,0,.31,0,.31.18s-.11.21-.31.3v1.38h.75V47.61l2.06.08c.06,0,.32,0,.32.21s-.21.26-.32.29v1.36h1.2l-.87-.35a12.3,12.3,0,0,0,.78-1.65l2.13.78a.2.2,0,0,1,.14.18c0,.22-.25.21-.44.21a8.42,8.42,0,0,0-.49.83h2.12V51.3H113c-.12.32-.25.64-.31.77h2.64v1.71h-5v.45h4v1.62h-4v.48h5.86v1.76h-4.42a13.43,13.43,0,0,0,4.43,2.5,4.45,4.45,0,0,0-1.52,1.63,13.67,13.67,0,0,1-4.36-2.77Zm-2.32-11,.32.77h1.93c.11-.24.17-.35.34-.77Z"/><path class="cls-4" d="M122.9,48.74V59.61h-2.07V59.1h-.77v1.26H118V48.74Zm-2.07,4.15V50.78h-.77v2.11Zm-.77,2v2.18h.77V54.94Zm10.24.66h1.37v2h-1.37v2.9c0,1.6-1.09,1.89-3.37,1.76a4.17,4.17,0,0,0-.81-2.37c-.18.16-.89.86-1,1a13.58,13.58,0,0,0-1.75-2.29l1.18-1h-1.13v-2H128V54.36h-4.82v-2H126v-1h-2.5V49.24H126V47.61l2.59.06a.17.17,0,0,1,.17.19c0,.13,0,.16-.38.3v1.07h2.82v2.08h-2.82v1h3.36v2h-1.21s0,.06,0,.11,0,.14-.31.3Zm-2.33,2h-2.56a9,9,0,0,1,1.38,1.7l-.63.54a12.59,12.59,0,0,0,1.43.19c.32,0,.38-.18.38-.54Z"/><path class="cls-4" d="M139.63,47.91v5.57h-4.16v8.79h-2.15V47.91ZM137.53,50v-.66h-2.06V50Zm-2.06,1.25v.67h2.06v-.67Zm3.28,9.32v.51h-2V54.26h6.64V60a6.7,6.7,0,0,0,.84.08c.4,0,.41-.16.41-.56V53.48h-4.23V47.91h6.32V60.35c0,1.62-.54,1.89-2.84,2a5.57,5.57,0,0,0-.52-1.84Zm2.65-3.89v-.71h-2.65v.71Zm-2.65,1.49v.72h2.65v-.72ZM144.59,50v-.66h-2V50Zm-2,1.25v.67h2v-.67Z"/><path class="cls-4" d="M152.29,47V62.92h-3.85a15.53,15.53,0,0,0,0-15.91Z"/><path class="cls-4" d="M164.75,61.05v-8.2h-2.62v-2.1c1.55,0,2.65-.32,3.22-2.32h2.25V61.05Z"/><path class="cls-4" d="M182.26,55c0,1.54-.35,6.45-5.11,6.45a4.59,4.59,0,0,1-4-2.07,10,10,0,0,1-1.07-4.8c0-1.54.35-6.45,5.12-6.45C181.63,48.09,182.26,52.34,182.26,55Zm-7.38-.21c0,.53,0,4.24,2.27,4.24s2.25-3.7,2.25-4.24,0-4.24-2.25-4.24S174.89,54.17,174.89,54.75Z"/><path class="cls-4" d="M186.73,51.85v2.9H184v-2.9Zm0,6.31v2.9H184v-2.9Z"/><path class="cls-4" d="M198.74,55c0,1.54-.35,6.45-5.11,6.45a4.59,4.59,0,0,1-4-2.07,10,10,0,0,1-1.07-4.8c0-1.54.35-6.45,5.12-6.45C198.11,48.09,198.74,52.34,198.74,55Zm-7.38-.21c0,.53,0,4.24,2.27,4.24s2.25-3.7,2.25-4.24,0-4.24-2.25-4.24S191.36,54.17,191.36,54.75Z"/><path class="cls-4" d="M210.38,55c0,1.54-.35,6.45-5.11,6.45a4.59,4.59,0,0,1-4-2.07,10,10,0,0,1-1.07-4.8c0-1.54.35-6.45,5.12-6.45C209.75,48.09,210.38,52.34,210.38,55ZM203,54.75c0,.53,0,4.24,2.27,4.24s2.25-3.7,2.25-4.24,0-4.24-2.25-4.24S203,54.17,203,54.75Z"/><path class="cls-4" d="M224.72,55.08c-1.26,2.1-2.73,2.37-3.67,2.37A3.83,3.83,0,0,1,218.19,56c-.89-.9-1.18-1.2-1.95-1.2-1.26,0-2.06,1.34-2.39,2l-1.06-1.89a4,4,0,0,1,3.44-2.34c1.2,0,1.92.61,3.13,1.75.74.69,1,.93,1.63.93,1.35,0,2.12-1.28,2.53-2Z"/><path class="cls-4" d="M231.49,61.05v-8.2h-2.62v-2.1c1.55,0,2.65-.32,3.22-2.32h2.25V61.05Z"/><path class="cls-4" d="M238.93,50.79V48.44h9.92v2.34a9.25,9.25,0,0,0-3.24,4.39,15.71,15.71,0,0,0-1.18,5.89h-2.85a15.14,15.14,0,0,1,1.33-5.89A12.83,12.83,0,0,1,246,50.79Z"/><path class="cls-4" d="M253.47,51.85v2.9h-2.7v-2.9Zm0,6.31v2.9h-2.7v-2.9Z"/><path class="cls-4" d="M259.5,55.4v-2h.77c.29,0,2.12-.18,2.12-1.57s-1.37-1.33-1.83-1.33c-1.18,0-2,.19-2,1.58h-2.87c.34-3,2.36-4,5-4,2.87,0,4.51,1.38,4.51,3.42a2.68,2.68,0,0,1-1.87,2.72,3,3,0,0,1,2.18,3c0,2.85-2.42,4.16-5.18,4.16s-4.83-1.28-5-4.56h2.88A2,2,0,0,0,260.33,59c.29,0,2.27,0,2.27-1.79,0-1-.69-1.81-2.19-1.81Z"/><path class="cls-4" d="M277.12,55c0,1.54-.35,6.45-5.11,6.45a4.59,4.59,0,0,1-4-2.07,10,10,0,0,1-1.07-4.8c0-1.54.35-6.45,5.12-6.45C276.49,48.09,277.12,52.34,277.12,55Zm-7.38-.21c0,.53,0,4.24,2.27,4.24s2.25-3.7,2.25-4.24,0-4.24-2.25-4.24S269.75,54.17,269.75,54.75Z"/></svg>