<svg id="レイヤー_1" data-name="レイヤー 1" xmlns="http://www.w3.org/2000/svg" viewBox="0 0 381 105" width="381" height="105"><defs><style>.cls-1{fill:#00a63c;}.cls-2{fill:#fff;}.cls-3{fill:#231815;}.cls-4{fill:#040000;}</style></defs><title>tel_sp</title><rect class="cls-1" x="0.94" y="0.1" width="59.09" height="38.6"/><path class="cls-2" d="M60,6.14A33.29,33.29,0,0,0,45.09,9.52,31.8,31.8,0,0,0,30.48,6.14,31.78,31.78,0,0,0,15.88,9.52,33.25,33.25,0,0,0,.95,6.14V9.52a29.82,29.82,0,0,1,11.24,2.13c-3.65,2.44-7.26,6.14-7.26,10.81a11,11,0,0,0,11,10.89,10.83,10.83,0,0,0,10.7-10.89c0-4.67-3.36-8.37-7-10.81A28.17,28.17,0,0,1,30.48,9.52,28.2,28.2,0,0,1,41.4,11.65c-3.65,2.44-7,6.14-7,10.81a10.83,10.83,0,0,0,10.7,10.89A11,11,0,0,0,56,22.46c0-4.67-3.53-8.37-7.18-10.81A29.83,29.83,0,0,1,60,9.52Zm-22,16.24c0-4,3.93-7.14,7.26-9,3.33,1.89,7.26,5.06,7.26,9a7.27,7.27,0,1,1-14.53,0M15.79,30.06a7.32,7.32,0,0,1-7.27-7.59c0-4,3.93-7.14,7.27-9,3.33,1.9,7.27,5.07,7.27,9a7.32,7.32,0,0,1-7.27,7.59"/><path class="cls-3" d="M61.51,36.17A2.52,2.52,0,1,1,64,38.69,2.52,2.52,0,0,1,61.51,36.17Zm-.3,0A2.82,2.82,0,1,0,64,33.35a2.82,2.82,0,0,0-2.82,2.82"/><path class="cls-3" d="M63.29,35.92h.55a.82.82,0,0,0,.56-.19.59.59,0,0,0,.21-.47c0-.41-.25-.62-.76-.62h-.56ZM65.4,38h-.54l-1.1-1.69h-.48V38h-.44V34.27H63.9a1.28,1.28,0,0,1,.84.26.88.88,0,0,1,.3.72.91.91,0,0,1-.22.61,1.17,1.17,0,0,1-.62.36L65.4,38"/><path class="cls-4" d="M101.78,20.13c0,3.69-.85,15.5-12.28,15.5a11,11,0,0,1-9.73-5c-1.92-2.92-2.58-8.19-2.58-11.54,0-3.69.85-15.5,12.31-15.5C100.27,3.63,101.78,13.86,101.78,20.13ZM84,19.63c0,1.27,0,10.19,5.46,10.19s5.42-8.88,5.42-10.19,0-10.19-5.42-10.19S84,18.24,84,19.63Z"/><path class="cls-4" d="M115.64,34.78V15.09h-6.3v-5c3.72-.12,6.38-.77,7.74-5.58h5.42v30.3Z"/><path class="cls-4" d="M157.92,34.78H133.15c.48-6.73,4.09-9.5,11.91-15C151,15.51,151,14.63,151,13c0-2.88-2.95-3.62-4.87-3.62-5,0-5.49,3.69-5.64,6.19h-6.82c.11-2.42.22-5.08,2.29-7.65,2.47-3.11,6-4.31,10.21-4.31,8.44,0,11.5,4.85,11.5,9.27A9.36,9.36,0,0,1,156,18.17c-1.88,2.73-9.33,7.69-9.7,8a20.49,20.49,0,0,0-3.76,3h15.34Z"/><path class="cls-4" d="M185.72,20.13c0,3.69-.85,15.5-12.28,15.5a11,11,0,0,1-9.73-5c-1.92-2.92-2.58-8.19-2.58-11.54,0-3.69.85-15.5,12.31-15.5C184.2,3.63,185.72,13.86,185.72,20.13ZM168,19.63c0,1.27,0,10.19,5.46,10.19s5.42-8.88,5.42-10.19,0-10.19-5.42-10.19S168,18.24,168,19.63Z"/><path class="cls-4" d="M199.61,26.62H188.85V20.86h10.76Z"/><path class="cls-4" d="M216.42,4.48H223V22.7h4.5v5.81H223v6.27h-6.67V28.51H202.56V22.66Zm-.07,18.23V12.05L208.24,22.7Z"/><path class="cls-4" d="M255.31,26.24a8.71,8.71,0,0,1-3.32,7c-2.87,2.12-7,2.35-9,2.35-2.29,0-6.19-.31-9-2.35a8.69,8.69,0,0,1-3.35-7,7.55,7.55,0,0,1,5.53-7.54,7.19,7.19,0,0,1-4.57-6.77,7.73,7.73,0,0,1,3.21-6.23c2.14-1.65,6-2.08,8.29-2.08,10.36,0,11.17,6.5,11.17,8.31a7.15,7.15,0,0,1-4.57,6.77A7.55,7.55,0,0,1,255.31,26.24Zm-17.73-.81c0,3.27,2.95,4.38,5.46,4.38s5.42-1.12,5.42-4.38c0-1.23-.63-4.38-5.42-4.38S237.58,24.16,237.58,25.43Zm1-12.34c0,.5.07,3.65,4.46,3.65s4.5-3.08,4.5-3.61c0-1.38-.85-3.73-4.46-3.73S238.54,11.71,238.54,13.09Z"/><path class="cls-4" d="M269.21,26.62H258.45V20.86h10.76Z"/><path class="cls-4" d="M272.71,10.13V4.48h23.85v5.61c-1.58,1.15-4.87,3.58-7.78,10.54a37.72,37.72,0,0,0-2.84,14.15h-6.86a36.33,36.33,0,0,1,3.21-14.15,30.81,30.81,0,0,1,7.37-10.5Z"/><path class="cls-4" d="M300.69,10.13V4.48h23.85v5.61c-1.58,1.15-4.87,3.58-7.78,10.54a37.72,37.72,0,0,0-2.84,14.15h-6.86a36.33,36.33,0,0,1,3.21-14.15,30.81,30.81,0,0,1,7.37-10.5Z"/><path class="cls-4" d="M353.08,34.78H328.3c.48-6.73,4.09-9.5,11.91-15,5.94-4.23,5.94-5.11,5.94-6.73,0-2.88-2.95-3.62-4.87-3.62-5,0-5.49,3.69-5.64,6.19h-6.82c.11-2.42.22-5.08,2.29-7.65,2.47-3.11,6-4.31,10.21-4.31,8.44,0,11.5,4.85,11.5,9.27a9.36,9.36,0,0,1-1.62,5.27c-1.88,2.73-9.33,7.69-9.7,8a20.49,20.49,0,0,0-3.76,3h15.34Z"/><path class="cls-4" d="M381.06,34.78H356.28c.48-6.73,4.09-9.5,11.91-15,5.94-4.23,5.94-5.11,5.94-6.73,0-2.88-2.95-3.62-4.87-3.62-5,0-5.49,3.69-5.64,6.19H356.8c.11-2.42.22-5.08,2.29-7.65,2.47-3.11,6-4.31,10.21-4.31,8.44,0,11.5,4.85,11.5,9.27a9.36,9.36,0,0,1-1.62,5.27c-1.88,2.73-9.33,7.69-9.7,8a20.49,20.49,0,0,0-3.76,3h15.34Z"/><path class="cls-4" d="M56,102.82l-.4-.4,4.09-4.07-4.09-4.07.4-.4L60.07,98l4.07-4.09.4.4-4.09,4.07,4.09,4.07-.4.4-4.07-4.09Zm1.7-4.48a1,1,0,1,1-1-1A1,1,0,0,1,57.69,98.35Zm3.42-3.42a1,1,0,1,1-1-1.06A1,1,0,0,1,61.11,94.93Zm0,6.84a1,1,0,1,1-1-1A1,1,0,0,1,61.11,101.77Zm3.43-3.42a1,1,0,1,1-1.06-1A1.05,1.05,0,0,1,64.54,98.35Z"/><path class="cls-4" d="M78.72,95.47v.68h-2v.65h2v.67h-2v.68h2.64V99H72.82V96.3a9.72,9.72,0,0,1-.63.8,2.08,2.08,0,0,0-1-.59c.21-.23.36-.38.55-.6h-1V98c.44-.16.93-.37,1.37-.55a2.88,2.88,0,0,0-.05.59,4.52,4.52,0,0,0,0,.53c-.73.38-1.14.54-1.36.63v3.57c0,1.07-.35,1.33-2,1.32a3.06,3.06,0,0,0-.43-1.37,3.71,3.71,0,0,0,.74.1c.49,0,.49-.16.49-.44V99.68l-.92.32c-.09.25-.1.33-.21.33s-.15-.13-.19-.3L68,98.86c.94-.24,1.33-.36,1.56-.44V95.91h-1.4V94.75h1.4V92.6l1.23,0c.24,0,.35,0,.35.15s-.09.18-.35.3v1.66h1.37v.72a9.51,9.51,0,0,0,1.48-2.9l1.08.32c.15,0,.23.06.23.16s-.11.15-.36.2c-.15.35-.24.53-.31.69h1.22a9,9,0,0,0,.73-1.45l1.23.36c.14,0,.21.08.21.16s-.13.16-.43.2c-.18.31-.25.45-.43.72h2.34v.89H76.72v.64Zm-6.68,5v-1h5.53l.4.48c-.05.15-.11.33-.3.8h1.81c-.09,1-.36,2.53-1,3a3.62,3.62,0,0,1-2.26.36,2.5,2.5,0,0,0-.41-1.22,7.51,7.51,0,0,0,1.09.1c.78,0,.92-.2,1.19-1.25h-.82c-.18.32-.2.35-.25.45a5.59,5.59,0,0,0-1.22-.18,8.35,8.35,0,0,0,.7-1.5H75.22a4.92,4.92,0,0,1-2.75,3.68,3.08,3.08,0,0,0-1-.82A3.75,3.75,0,0,0,74,100.47Zm3.56-5v-.64H74v.64Zm0,1.33v-.65H74v.65ZM74,97.47v.68H75.6v-.68Z"/><path class="cls-4" d="M87.06,93.74V92.54l1.31.05c.14,0,.28,0,.28.14s-.13.16-.28.21v.8h2.07V92.65l1.28.05c.1,0,.24,0,.24.15s-.09.14-.24.21v.68h1.79v1H91.73v1.95h-8V94.79H82v-1h1.73V92.63l1.32.05c.13,0,.21,0,.21.14s-.13.15-.21.2v.73Zm1.31,5.76h3.19V102c0,1.32-.45,1.53-2.23,1.51a2.26,2.26,0,0,0-.45-1.28,4.86,4.86,0,0,0,.86.1c.39,0,.54-.06.54-.48v-1.33H88.37v3.55H87.06v-3.55H85.2v3H83.89v-4h3.17V98.4H83.5v1.7H82.17V97.42H93.29v2.68H92V98.4H88.37ZM85,94.79v.89h2v-.89Zm3.34,0v.89h2.07v-.89Z"/><path class="cls-4" d="M102.16,94.44h5v2.61h-1.25V95.33h-3.71V97.8h-1.27V95.33H97.15v1.72H95.9V94.44h5v-.65H96.66v-.93h9.73v.93h-4.24Zm0,7.91c0,.54.19.59.86.59h2.1c.68,0,1.09,0,1.32-1.46a2.89,2.89,0,0,0,1.12.54c-.36,1.9-1.21,1.95-2.33,1.95h-2.56c-.93,0-1.75,0-1.75-1.46V102H98.3V103H97.08V98.12h8.83V102h-3.77Zm-1.91-6.55v.68H97.85v-.68Zm0,1.13v.67H97.85v-.67Zm.67,2.1H98.3v.63h2.59Zm0,1.45H98.3v.65h2.59Zm1.24-.82h2.54V99h-2.54Zm0,1.47h2.54v-.65h-2.54Zm3.06-5.33v.68h-2.36v-.68Zm0,1.13v.67h-2.36v-.67Z"/><path class="cls-4" d="M114.52,94.71v1h-5v-1Zm-.45,5.09v4.12h-1.14v-.59h-1.74v.74h-1.26V99.8Zm-.18-3.38v1h-3.78v-1Zm0,1.69v1h-3.78v-1Zm-.05-5v1h-3.72v-1Zm-2.65,7.77v1.41h1.74v-1.41Zm7.2-4.76h2.8v1.12h-2.8V99h2.19v5.1H119.3v-.78h-3.06v.78H115V99h2.15V97.19h-2.83V96.07h2.83V94.42a17.92,17.92,0,0,1-2.34.16,2.7,2.7,0,0,0-.39-1.12,13.54,13.54,0,0,0,5.59-1l.87,1a.24.24,0,0,1,.08.16c0,.06,0,.13-.15.13a.57.57,0,0,1-.29-.13,16.47,16.47,0,0,1-2.09.55Zm.91,6.11v-2.1h-3.06v2.1Z"/><path class="cls-4" d="M126.36,98.35a1.13,1.13,0,1,1-1.13-1.13A1.14,1.14,0,0,1,126.36,98.35Z"/><path class="cls-4" d="M135,93.22a3.09,3.09,0,0,1,3.44,3.14c0,.38,0,3.12-3.44,3.12h-3.62v3.65h-1.57V93.22Zm-3.62,1.33v3.59h3.48a1.78,1.78,0,0,0,2-1.79,1.81,1.81,0,0,0-2-1.81Z"/><path class="cls-4" d="M142.84,93.22v4h5.9v-4h1.57v9.91h-1.57V98.6h-5.9v4.53h-1.58V93.22Z"/><path class="cls-4" d="M159.53,96c-.1-1.71-1.61-1.75-2.23-1.75-.45,0-2.24,0-2.24,1.33,0,.94.68,1.26,3.19,2,1.66.5,3.13.94,3.13,2.77,0,1-.62,3-3.92,3-1.62,0-4.2-.47-4.31-3.28h1.66c0,1.51,1.19,1.95,2.59,1.95a3,3,0,0,0,1.81-.45,1.56,1.56,0,0,0,.57-1.11c0-.93-1.06-1.29-2.75-1.75-2-.55-3.57-1.13-3.57-3,0-1.16.77-2.85,3.61-2.85,2.17,0,2.85.73,3.22,1.12a3.18,3.18,0,0,1,.87,2Z"/><path class="cls-4" d="M169.33,93.1c.14,0,.23.08.23.18s-.08.19-.31.21c0,.15-.35,1.56-.41,1.84,1.08-.06,3.12-.11,3.12,2.88a8.41,8.41,0,0,1-1.22,4.5,2.12,2.12,0,0,1-1.85.88,6.47,6.47,0,0,1-1.28-.15,6,6,0,0,0-.1-1.45,2.81,2.81,0,0,0,1.23.28,1.15,1.15,0,0,0,1.11-.54,6.79,6.79,0,0,0,.84-3.37c0-1.61-.73-1.85-1.46-1.85a6,6,0,0,0-.7.05,19.56,19.56,0,0,1-3.36,7,6.37,6.37,0,0,0-1.24-.67,15.62,15.62,0,0,0,3.24-6.08,16.26,16.26,0,0,0-2.55.74l-.47-1.33c.54-.1,2.87-.63,3.34-.7a19.35,19.35,0,0,0,.42-2.83Zm3.57.89a8.28,8.28,0,0,1,2.3,4.55c0,.79-.49,1.42-2.15,1.7a7.44,7.44,0,0,0-.53-1.12c.63-.11,1.35-.26,1.35-.85a6.94,6.94,0,0,0-2-3.63Z"/><path class="cls-4" d="M180.43,95.22c.05,0,.14.06.14.15s-.14.19-.29.18a15.34,15.34,0,0,0-.93,3.22,6,6,0,0,1,4.21-1.8,2.84,2.84,0,0,1,3.07,2.89c0,2.51-2.61,3.83-6.4,3.83-.43,0-.74,0-1,0,0-.18-.1-.55-.14-.69a6.33,6.33,0,0,0-.23-.7,9.31,9.31,0,0,0,1.82.15c2.44,0,4.59-.83,4.59-2.59a1.68,1.68,0,0,0-1.89-1.69,5.72,5.72,0,0,0-4.4,2.44l-1.22-.43A29.17,29.17,0,0,1,179,94.78ZM180,92.59a13.47,13.47,0,0,1,4.44,1.48,11.37,11.37,0,0,0-.73,1.23,11.65,11.65,0,0,0-4.17-1.61Z"/><path class="cls-4" d="M194.78,93c.16.06.24.1.24.2s-.05.14-.4.2c-.35.69-.48,1-.75,1.62a15.94,15.94,0,0,0,2.72.09,7.38,7.38,0,0,0-.36,1.34,22.94,22.94,0,0,1-2.79-.16c-.26.72-.52,1.41-.63,1.75a23.13,23.13,0,0,0,3.28.19,10.86,10.86,0,0,0-.36,1.26,27.15,27.15,0,0,1-3.26-.26,5.76,5.76,0,0,0-.18,1.41c0,1.55,1.16,2,2.46,2,1.75,0,2.85-.79,2.85-2.24a4.46,4.46,0,0,0-.78-2.2,4.7,4.7,0,0,0,1.23-.53,5.65,5.65,0,0,1,.92,2.83c0,2.59-2.53,3.35-4.24,3.35-3.27,0-3.72-2.21-3.72-3.26a6.34,6.34,0,0,1,.2-1.55,15.68,15.68,0,0,1-2.06-.52l.28-1.23a16.52,16.52,0,0,0,2.12.55c.28-.92.45-1.41.57-1.76a17.64,17.64,0,0,1-2.29-.59l.26-1.29a14.3,14.3,0,0,0,2.46.65c.14-.38.75-2,.87-2.38Z"/><path class="cls-4" d="M204.93,99c-.21.18-1.51,1.24-1.51,2a.75.75,0,0,0,.38.69,7.36,7.36,0,0,0,2.93.48,16.41,16.41,0,0,0,4.7-.6,11.2,11.2,0,0,0,.3,1.37,25.05,25.05,0,0,1-5,.49c-2.92,0-4.69-.59-4.69-2.31,0-.49.1-1.38,1.91-2.9Zm5.19-4.34a15.33,15.33,0,0,0-3.39,2.5c-.16-.18-.7-.68-.87-.82.59-.52,1.17-1,1.8-1.48-.5,0-1.85.14-3.19.14a10.82,10.82,0,0,1-1.52-.08l-.1-1.36a17.9,17.9,0,0,0,2.83.21,23.68,23.68,0,0,0,3.76-.3Zm.65-1.33A10.18,10.18,0,0,1,212,94.62a3.11,3.11,0,0,0-.6.62,10,10,0,0,0-1.22-1.36Zm.93-1a12.51,12.51,0,0,1,1.23,1.28,2.57,2.57,0,0,0-.65.63,8.57,8.57,0,0,0-1.16-1.34Z"/><path class="cls-4" d="M218.52,104.1h-1.17v-5a12.16,12.16,0,0,1-1.75,2.9,3.11,3.11,0,0,0-1.17-.73,12.62,12.62,0,0,0,2.78-4.11H214.7V96h2.65V94.32c-.62.1-1.35.2-2,.24a5.83,5.83,0,0,0-.62-1.07,13.78,13.78,0,0,0,5-1l.77.83a.39.39,0,0,1,.09.21c0,.08,0,.13-.15.13a1.1,1.1,0,0,1-.33-.1c-.64.25-1.29.41-1.6.5V96h2.28v1.09h-2.15a9.65,9.65,0,0,0,2.16,2.7,5.36,5.36,0,0,0-.88.91,8.55,8.55,0,0,1-1.41-2.12Zm4.39-10.45c.18,0,.3,0,.3.16s-.05.14-.3.21v7.14h-1.28V93.57Zm2.82-1c.14,0,.26.09.26.16s-.13.16-.33.24v9.35c0,1.37-.4,1.71-2.6,1.64a3.61,3.61,0,0,0-.47-1.32,6.9,6.9,0,0,0,1.17.1c.5,0,.62-.11.62-.58V92.57Z"/><path class="cls-4" d="M235.1,103.51H233.8V99.83H231a9.09,9.09,0,0,1-1.29,4.27,3.15,3.15,0,0,0-1.41-.55c.42-.52,1.4-1.76,1.4-5.67V93.05h9.62v9.32c0,1.41-.68,1.76-2.58,1.68a3.71,3.71,0,0,0-.5-1.42,5.39,5.39,0,0,0,1,.1c.68,0,.72-.24.72-.77V99.83H235.1ZM233.8,97h-2.72v.71c0,.06,0,.4,0,.93h2.74Zm0-2.79h-2.72v1.63h2.72Zm1.31,1.63h2.84V94.21H235.1Zm0,2.79h2.84V97H235.1Z"/><path class="cls-4" d="M244.78,93.88c.18.05.26.08.26.2s-.16.18-.28.18a12.08,12.08,0,0,0-.6,3.77c0,2,.78,3.61,1.37,3.61S246.73,100,247,99.3a4.07,4.07,0,0,0,.92.85c-.23.55-1.27,3.16-2.48,3.16-1,0-2.59-1.91-2.59-5.48a22.57,22.57,0,0,1,.54-4.36Zm6.44.25a12.65,12.65,0,0,1,2.5,6.44c-.2.06-1,.44-1.38.59a11,11,0,0,0-2.22-6.34Z"/><path class="cls-4" d="M261.51,93c.16,0,.24.1.24.18s-.18.18-.24.19c-.06.25-.34,1.41-.39,1.65a9.76,9.76,0,0,0,2.57-.68l.21,1.3a19.15,19.15,0,0,1-3.12.64,28.25,28.25,0,0,1-3.37,7.64,10,10,0,0,0-1.27-.65,20.21,20.21,0,0,0,3.26-6.8,23.24,23.24,0,0,1-2.67.13l-.11-1.37c.3,0,.63.05,1.12.05.84,0,1.57-.06,2-.09a20.52,20.52,0,0,0,.36-2.53Zm1.11,7.44a2,2,0,0,0-.54,1.18c0,.5.59.82,2.38.82a9.74,9.74,0,0,0,2.68-.42,5.06,5.06,0,0,0-.05.69,2.94,2.94,0,0,0,.08.69,14.85,14.85,0,0,1-2.68.24c-.82,0-3.6,0-3.6-1.92a3,3,0,0,1,.64-1.71Zm-.47-3.16A19.5,19.5,0,0,1,265,97a10.94,10.94,0,0,1,1.83.13,8.56,8.56,0,0,0-.1,1.28,8.73,8.73,0,0,0-1.87-.18,21.39,21.39,0,0,0-2.74.21Z"/><path class="cls-4" d="M275.14,93c.16,0,.24.1.24.18s-.18.18-.24.19c-.06.25-.34,1.41-.39,1.65a9.76,9.76,0,0,0,2.57-.68l.21,1.3a19.15,19.15,0,0,1-3.12.64,28.25,28.25,0,0,1-3.37,7.64,10,10,0,0,0-1.27-.65,20.19,20.19,0,0,0,3.26-6.8,23.22,23.22,0,0,1-2.66.13l-.11-1.37c.3,0,.63.05,1.12.05.84,0,1.57-.06,2-.09a20.53,20.53,0,0,0,.36-2.53Zm1.11,7.44a2,2,0,0,0-.54,1.18c0,.5.59.82,2.38.82a9.74,9.74,0,0,0,2.68-.42,5.06,5.06,0,0,0-.05.69,2.94,2.94,0,0,0,.08.69,14.85,14.85,0,0,1-2.68.24c-.82,0-3.6,0-3.6-1.92a3,3,0,0,1,.64-1.71Zm-.47-3.16a19.5,19.5,0,0,1,2.88-.21,10.94,10.94,0,0,1,1.84.13,8.56,8.56,0,0,0-.1,1.28,8.73,8.73,0,0,0-1.87-.18,21.38,21.38,0,0,0-2.74.21Zm3.09-3.51a10,10,0,0,1,1.22,1.34,2.61,2.61,0,0,0-.7.52,12.74,12.74,0,0,0-1.17-1.36Zm1.22-.84a8.19,8.19,0,0,1,1.22,1.33,4.84,4.84,0,0,0-.67.52,8.6,8.6,0,0,0-1.19-1.38Z"/><path class="cls-4" d="M285.88,93.34c.14,0,.2.05.2.15s-.2.18-.29.19a15.74,15.74,0,0,0-.62,4.54,10.94,10.94,0,0,0,.31,2.8c.06-.15.09-.25.4-1.09.16-.44.36-.88.5-1.17a3.29,3.29,0,0,0,1,.59,12,12,0,0,0-1.37,3.92l-1.06.24a14.15,14.15,0,0,1-1-5.54,20.81,20.81,0,0,1,.62-5Zm6.19-.4c.26,0,.34,0,.34.14s-.14.16-.23.19c0,1.75,0,1.95,0,2.49a10.31,10.31,0,0,0,2.07-.59,11.07,11.07,0,0,0,0,1.29,10.48,10.48,0,0,1-2.09.53c0,2.23,0,3.27-.54,4.48a6.6,6.6,0,0,1-2.09,2.59,3.47,3.47,0,0,0-1.07-.92c2.29-1.6,2.5-3.09,2.44-6a25.8,25.8,0,0,1-3.19.14L287.65,96a8.23,8.23,0,0,0,1.23.08,19.33,19.33,0,0,0,2-.11c0-.47-.09-2.09-.24-3.17Z"/><path class="cls-4" d="M302.58,92.94c.11,0,.2,0,.2.14s-.18.18-.25.2c0,.53-.05.8-.06,1,.6,0,3.24-.05,3.78,0v1.24c-.65,0-1.57-.1-3.81-.06,0,.06,0,1.37,0,2a16.4,16.4,0,0,0,3.5-.57v1.28a22.07,22.07,0,0,1-3.46.43c0,.25,0,1.37,0,1.6a11.22,11.22,0,0,1,4.15,1.77c-.42.48-.49.58-.88,1.09a8.55,8.55,0,0,0-3.21-1.76c0,.87.15,2.39-2.43,2.39-1.81,0-3-.88-3-1.87,0-1.33,1.65-1.87,3-1.87.26,0,.68,0,1,.05,0-.16,0-1.08,0-1.32-1.77,0-3.71.08-3.71-1,0-.44.26-.83.89-1.41l1,.31c-.44.39-.49.44-.49.6s.31.3.74.33a13.15,13.15,0,0,0,1.56,0c0-.32,0-1.71,0-2-2,.08-3.42.25-4.2.34V94.57c.65-.05,3.6-.19,4.2-.21,0-.93,0-1.23-.06-1.7Zm-2.3,8c-.86,0-1.79.23-1.79.87s1.17.8,1.45.8c1.29,0,1.29-.77,1.29-1.17,0-.15,0-.26,0-.4A3.42,3.42,0,0,0,300.28,100.94Z"/><path class="cls-4" d="M315.74,92.75c.3,0,.3.09.3.15s-.09.14-.21.2c0,.35,0,.44-.06,1.18l4.36-.19a12.24,12.24,0,0,0,0,1.34c-.41,0-1.5,0-2.61,0-.29,0-1,0-1.73,0a17.89,17.89,0,0,0,0,1.95,4.36,4.36,0,0,1,.54,2.14,5.42,5.42,0,0,1-1.13,3.19,5.79,5.79,0,0,1-2,1.61,6.21,6.21,0,0,0-1.16-.91,4.09,4.09,0,0,0,2.78-2.58,1.93,1.93,0,0,1-1.4.62c-1.18,0-1.79-1-1.79-2.34,0-1.53.89-2.48,2-2.48a1.73,1.73,0,0,1,.8.18V95.49a46.87,46.87,0,0,0-5.31.54l-.11-1.42c.49,0,1,0,5.38-.26a15.08,15.08,0,0,0-.19-1.76Zm-3,6.34c0,.18,0,1.33.94,1.33.65,0,1.11-.67,1.11-1.5,0-.39-.18-1.23-1-1.23S312.76,98.38,312.76,99.09Z"/><path class="cls-4" d="M326.41,102.1a1.67,1.67,0,0,1-3.34,0,1.67,1.67,0,0,1,3.34,0Zm-2.68,0a1,1,0,1,0,1-1A1,1,0,0,0,323.73,102.1Z"/><path class="cls-4" d="M54.61,79.28V57.07H60a21.68,21.68,0,0,0,0,22.22Z"/><path class="cls-4" d="M70.08,61.2A12.4,12.4,0,0,0,68.6,59l2.51-1.39A14.57,14.57,0,0,1,73,60.44c-.19.14-1,.65-1.2.76h1.69a19.22,19.22,0,0,0,2.29-3.31l2.53,1.34a.37.37,0,0,1,.21.31c0,.18-.19.29-.66.36-.39.67-.64,1.1-.79,1.3h4.18v5.45H78V63.86H65.33v2.79H62.11V61.2h3.13A13.43,13.43,0,0,0,64,59.39l2.48-1.32a15.32,15.32,0,0,1,1.82,2.64c-.09.07-.49.34-.75.49Zm9.29,10.26v6.93H76.25v-.63h-9v.63H64.13V71.46h5.2l.51-1.05H66V64.62H77.4v5.79H73.27c-.06.16-.41.89-.49,1.05ZM76.25,75.3V74h-9V75.3Zm-7.07-8.4v1.23H74.3V66.9Z"/><path class="cls-4" d="M94.61,78.39H91.69V74.52a23.21,23.21,0,0,1-6,3.8,7,7,0,0,0-2.23-2.21,20,20,0,0,0,6.23-3.58H83.45V70.07h8.25V69.4H85.91V67.15h5.78v-.63H84.48V64.13h4.07c-.11-.27-.43-1-.47-1.07H83.45V60.6h2.61c-.34-.67-.51-1-.81-1.45l2.46-1.57c.51.85,1.14,2.08,1.35,2.53l-.88.49h1.48v-2.7l2.85.11c.21,0,.43,0,.43.25s-.15.29-.43.43V60.6h1v-2.7l2.87.11c.09,0,.45,0,.45.29s-.3.36-.45.4v1.9H98.1l-1.22-.49A17.18,17.18,0,0,0,98,57.8l3,1.1a.28.28,0,0,1,.19.25c0,.31-.34.29-.62.29a11.76,11.76,0,0,0-.69,1.16h3v2.46H98.27c-.17.45-.34.89-.43,1.07h3.68v2.39H94.61v.63h5.61V69.4H94.61v.67h8.18v2.46H96.62A18.75,18.75,0,0,0,102.81,76a6.22,6.22,0,0,0-2.12,2.28,19.09,19.09,0,0,1-6.08-3.87ZM91.37,63.06l.45,1.07h2.7c.15-.34.24-.49.47-1.07Z"/><path class="cls-4" d="M112,59.48V74.66h-2.89v-.72h-1.07v1.77h-2.87V59.48Zm-2.89,5.79v-3h-1.07v3Zm-1.07,2.86v3h1.07v-3Zm14.3.92h1.91v2.86h-1.91v4c0,2.24-1.52,2.64-4.71,2.46a5.82,5.82,0,0,0-1.13-3.31c-.26.22-1.24,1.21-1.46,1.41a19,19,0,0,0-2.44-3.2l1.65-1.41h-1.58V69h6.42V67.33h-6.72V64.46h4V63.08h-3.49V60.17h3.49V57.89L120,58a.24.24,0,0,1,.24.27c0,.18-.06.22-.54.43v1.5h3.94v2.91h-3.94v1.39h4.69v2.86h-1.69c0,.07.06.09.06.16s0,.2-.43.43Zm-3.25,2.86h-3.58a12.63,12.63,0,0,1,1.93,2.37l-.88.76a17.58,17.58,0,0,0,2,.27c.45,0,.54-.25.54-.76Z"/><path class="cls-4" d="M135.39,58.32V66.1h-5.8V78.37h-3V58.32Zm-2.93,2.88v-.92h-2.87v.92Zm-2.87,1.74v.94h2.87v-.94Zm4.58,13v.72h-2.78V67.19h9.27v8a9.36,9.36,0,0,0,1.18.11c.56,0,.58-.22.58-.78V66.1h-5.91V58.32h8.82V75.69c0,2.26-.75,2.64-4,2.84a7.78,7.78,0,0,0-.73-2.57Zm3.7-5.43v-1h-3.7v1Zm-3.7,2.08v1h3.7v-1Zm8.14-11.4v-.92h-2.85v.92Zm-2.85,1.74v.94h2.85v-.94Z"/><path class="cls-4" d="M153.07,57.07V79.28h-5.38a21.68,21.68,0,0,0,0-22.22Z"/><path class="cls-4" d="M170.46,76.67V65.22H166.8V62.3c2.16-.07,3.7-.45,4.5-3.24h3.15V76.67Z"/><path class="cls-4" d="M194.92,68.15c0,2.15-.49,9-7.13,9a6.41,6.41,0,0,1-5.65-2.88c-1.11-1.7-1.5-4.76-1.5-6.71,0-2.15.49-9,7.15-9C194,58.56,194.92,64.51,194.92,68.15Zm-10.3-.29c0,.74,0,5.92,3.17,5.92s3.15-5.16,3.15-5.92,0-5.92-3.15-5.92S184.62,67.06,184.62,67.86Z"/><path class="cls-4" d="M201.16,63.82v4h-3.77v-4Zm0,8.81v4h-3.77v-4Z"/><path class="cls-4" d="M217.93,68.15c0,2.15-.49,9-7.13,9a6.41,6.41,0,0,1-5.65-2.88c-1.11-1.7-1.5-4.76-1.5-6.71,0-2.15.49-9,7.15-9C217,58.56,217.93,64.51,217.93,68.15Zm-10.3-.29c0,.74,0,5.92,3.17,5.92s3.15-5.16,3.15-5.92,0-5.92-3.15-5.92S207.63,67.06,207.63,67.86Z"/><path class="cls-4" d="M234.19,68.15c0,2.15-.49,9-7.13,9a6.41,6.41,0,0,1-5.65-2.88c-1.11-1.7-1.5-4.76-1.5-6.71,0-2.15.49-9,7.15-9C233.31,58.56,234.19,64.51,234.19,68.15Zm-10.3-.29c0,.74,0,5.92,3.17,5.92s3.15-5.16,3.15-5.92,0-5.92-3.15-5.92S223.88,67.06,223.88,67.86Z"/><path class="cls-4" d="M254.21,68.33c-1.76,2.93-3.81,3.31-5.12,3.31-.6,0-2,0-4-2.06-1.24-1.25-1.65-1.68-2.72-1.68-1.76,0-2.87,1.88-3.34,2.73L237.55,68c.58-1,1.95-3.26,4.8-3.26,1.67,0,2.68.85,4.37,2.44,1,1,1.39,1.3,2.27,1.3,1.88,0,3-1.79,3.53-2.77Z"/><path class="cls-4" d="M263.66,76.67V65.22H260V62.3c2.16-.07,3.7-.45,4.5-3.24h3.15V76.67Z"/><path class="cls-4" d="M274.05,62.34V59.05h13.86v3.26c-.92.67-2.83,2.08-4.52,6.12a21.94,21.94,0,0,0-1.65,8.23h-4a21.14,21.14,0,0,1,1.86-8.23,17.91,17.91,0,0,1,4.28-6.1Z"/><path class="cls-4" d="M294.36,63.82v4h-3.77v-4Zm0,8.81v4h-3.77v-4Z"/><path class="cls-4" d="M302.78,68.78V66.05h1.07c.41,0,3-.25,3-2.19S304.9,62,304.25,62c-1.65,0-2.81.27-2.85,2.21h-4c.47-4.2,3.3-5.65,7-5.65,4,0,6.3,1.92,6.3,4.78a3.74,3.74,0,0,1-2.61,3.8,4.13,4.13,0,0,1,3,4.2c0,4-3.38,5.81-7.24,5.81-3.68,0-6.75-1.79-7-6.37h4a2.77,2.77,0,0,0,3.06,3c.41,0,3.17-.07,3.17-2.5,0-1.43-1-2.53-3.06-2.53Z"/><path class="cls-4" d="M327.39,68.15c0,2.15-.49,9-7.13,9a6.41,6.41,0,0,1-5.65-2.88c-1.11-1.7-1.5-4.76-1.5-6.71,0-2.15.49-9,7.15-9C326.51,58.56,327.39,64.51,327.39,68.15Zm-10.3-.29c0,.74,0,5.92,3.17,5.92s3.15-5.16,3.15-5.92,0-5.92-3.15-5.92S317.09,67.06,317.09,67.86Z"/></svg>