<svg id="レイヤー_1" data-name="レイヤー 1" xmlns="http://www.w3.org/2000/svg" viewBox="0 0 98 16" width="98" height="16"><defs><style>.cls-1{fill:#ef7d32;}</style></defs><title>btn_newall</title><path class="cls-1" d="M1.28,1.36A4,4,0,0,0,.49.06h4A2.45,2.45,0,0,0,4.3,1a1.91,1.91,0,0,0,.11.62L8.1,12.67,11.78,1.58a2,2,0,0,0,.11-.64,2.36,2.36,0,0,0-.22-.88h4.07a3.57,3.57,0,0,0-.79,1.3L9.89,14.78a2.22,2.22,0,0,0-.11.62,5.34,5.34,0,0,0,.07.55H6.5Z"/><path class="cls-1" d="M16.42.06h3.92a1.06,1.06,0,0,0-.51.84V15.13a1,1,0,0,0,.51.81H16.42a1.06,1.06,0,0,0,.51-.84V.89A1.06,1.06,0,0,0,16.42.06Z"/><path class="cls-1" d="M26.34,9.32v4h5a1,1,0,0,0,.81-.51v3.12h-9.2a1.06,1.06,0,0,0,.51-.84V.89a1.06,1.06,0,0,0-.51-.84h9.2V3.18a1,1,0,0,0-.81-.51h-5v4h3.1a1,1,0,0,0,.84-.51V9.83a1.06,1.06,0,0,0-.84-.51Z"/><path class="cls-1" d="M43.59,10.38,42,14.78a2.2,2.2,0,0,0-.11.62,5.34,5.34,0,0,0,.07.55H38.64L33.51,1.36a4,4,0,0,0-.77-1.3h4a2.46,2.46,0,0,0-.22.9,2,2,0,0,0,.11.62l3.63,11.09,2-6.16L40.44,1.36a4.22,4.22,0,0,0-.77-1.3h4a2.36,2.36,0,0,0-.22.88,2.15,2.15,0,0,0,.11.64l3.63,11.09L50.74,1.58A1.92,1.92,0,0,0,50.85,1a2.46,2.46,0,0,0-.22-.9h4a3.8,3.8,0,0,0-.77,1.3l-5,13.42a2.16,2.16,0,0,0-.09.62,5.16,5.16,0,0,0,0,.55H45.57Z"/><path class="cls-1" d="M73.18,15a1.91,1.91,0,0,0-.09-.62l-.7-1.94H66.27l-.64,1.94a2.18,2.18,0,0,0-.11.64,2.46,2.46,0,0,0,.22.9H61.65a3.83,3.83,0,0,0,.79-1.3L67.55,1.16a1.64,1.64,0,0,0,.11-.62,4.35,4.35,0,0,0-.07-.48H71l5.28,14.59a4,4,0,0,0,.81,1.3H73A2.45,2.45,0,0,0,73.18,15ZM71.46,9.63,69.33,3.31,67.22,9.63Z"/><path class="cls-1" d="M78.17.06h3.94a1.06,1.06,0,0,0-.51.84V13.33h4.55a1,1,0,0,0,.81-.51v3.12h-8.8a1.06,1.06,0,0,0,.51-.84V.89A1.06,1.06,0,0,0,78.17.06Z"/><path class="cls-1" d="M88.71.06h3.94a1.06,1.06,0,0,0-.51.84V13.33H96.7a1,1,0,0,0,.81-.51v3.12h-8.8a1.06,1.06,0,0,0,.51-.84V.89A1.06,1.06,0,0,0,88.71.06Z"/></svg>