<svg id="レイヤー_1" data-name="レイヤー 1" xmlns="http://www.w3.org/2000/svg" viewBox="0 0 117 131" width="117" height="131"><defs><style>.cls-1{fill:#129144;}</style></defs><title>img_maintenance</title><path class="cls-1" d="M.2,26.61c.06.22.26.3.43.43l.29.22.75.57,2.16,1.65,3,2.26,3.69,2.81,4.32,3.29,4.86,3.7,2.93,2.23c0,.1,0,.2,0,.32a29.68,29.68,0,0,1-.2,3.95A6.58,6.58,0,0,0,22,50.89a3.62,3.62,0,0,0,1.22,1.61,22.44,22.44,0,0,0-.38,4.89c.14,3,.27,6.16.6,9.16.4,3.67.15,7.8.84,11.48l0,0c-1.79,2.22-.94,6.58-1,9.16-.08,4.21-.19,8.43.06,12.64.28,4.72-2.33,10.07-1.16,14.63.74,2.9,4.73,2.77,6.05.48,1.45-2.51,1.1-5.2,1-8a27.73,27.73,0,0,1,.63-7c.6-2.68,1-5.47,1.35-8.2.46-3.38,1.44-7,1.34-10.43,0-.19,0-.36,0-.52A33.66,33.66,0,0,0,34,73.43C34.56,69.89,36,66.7,36,63.09a93.54,93.54,0,0,0,3.83,12.42c1,2.76,1.59,6.36,2.9,9.3-.14,0-.29.1-.44.13-.85.92.19,3.62.45,4.66,1.35,5.43,2.74,10.81,4.11,16.19.64,2.52,1.11,5.12,1.94,7.58.24.72.82.86,1.48,1s1.44.41,2.17.56.88-.4,1.53-.72c.24-.12,3.15,2.15,3.69,2.35a19.93,19.93,0,0,0,4.36.78c1.44.21,3.79-.13,3.73-2.06-.05-1.54-1.31-2.67-2.4-3.53s-2.55-2-3.87-2.84a10.49,10.49,0,0,1-3.4-3.24,10,10,0,0,1-1-3.36c-.72-3.95-1.31-7.9-1.91-11.87-.29-1.87-.37-3.75-.73-5.63-.12-.64-.11-1.57-.79-1.69a1.91,1.91,0,0,0-.22,0c-.17-2.41-.56-4.88-.66-7.11-.17-3.76-.46-7.54-.71-11.31L55,68.49l5.45,4.16a2,2,0,0,0-.31.75c-.08,1.1.73.36,1.24.07,0,.8-.41,1.41.76,1.41a10.39,10.39,0,0,0,1-.16l1.07.82c-.06.47-.28,1,.28,1.13a1.08,1.08,0,0,0,.87-.25L67,77.61l5.6,4.27,5.23,4,4.77,3.64,4.22,3.21,3.57,2.72,2.84,2.16,2,1.53,1.09.83.18.14a12.85,12.85,0,0,0,2.92,1.75h0c.15,0,3.07,4,4.1,5.46h0L110.37,121a8.52,8.52,0,0,1,.82,3.33,4.76,4.76,0,0,1,0,.62.55.55,0,0,0,.48.62h.07a.55.55,0,0,0,.55-.48,6.16,6.16,0,0,0,0-.76,9.26,9.26,0,0,0-.94-3.83l-6.62-13.1a2.6,2.6,0,0,0,.34-.38l7.08,9.94s1.93,2.72,1.91,5.18a4.07,4.07,0,0,1-.08.83.37.37,0,0,0,.29.43h.07a.37.37,0,0,0,.36-.29,4.87,4.87,0,0,0,.1-1,11.35,11.35,0,0,0-2-5.6l-7.28-10.23a4.7,4.7,0,0,0,.13-.49l7,6.93s2.3,2.11,2.28,4.77a4.06,4.06,0,0,1,0,.46.37.37,0,0,0,.33.41h0a.37.37,0,0,0,.37-.33,4.83,4.83,0,0,0,0-.54,8,8,0,0,0-2.51-5.31l-7.34-7.31c0-.14,0-.25,0-.41,0,0,0-.21-.08-.53l8,4.79s2.18,1.81,2.15,3.86a.37.37,0,0,0,.74,0c0-2.54-2.41-4.4-2.47-4.46l-8.7-5.17,0-.09,8,2.33s2.7.77,2.63,2.6a.37.37,0,0,0,.74,0c-.07-2.58-3.18-3.28-3.17-3.31L105.11,102l-.09-.22,6.57.06s3,.22,3.51,1.7a.37.37,0,0,0,.34.24l.13,0a.37.37,0,0,0,.21-.48c-.91-2.13-4.14-2.14-4.17-2.17l-7-.06,0,0,6.31-1.15s.17,0,.44,0c.69,0,1.88.18,2.06.69a.37.37,0,1,0,.66-.32c-.57-1.07-2-1.09-2.72-1.11-.3,0-.5,0-.54,0L104,100.34a1.84,1.84,0,0,0-.3-.22l-2.45.34-3.55-2.58-.5-.38L95.74,96.4l-2.29-1.74L90.4,92.34,86.67,89.5l-4.32-3.29-4.83-3.68-5.25-4-5.28-4a4.79,4.79,0,0,0,0-1.26c-.06-1.39.32-2.49-.2-3.82-.28-.7-.5-1.4-.75-2.09-.13-.38-.24-.78-.36-1.18.68-.38.55-1.22.65-2.07.21-1.73,1-3.4,1-5.18-.07-1.59-.23-3.26-.39-4.85a38.41,38.41,0,0,1-.51-3.86c0-.81.25-1.54.3-2.33.1-1.63-.9-3.1-.82-4.62,0-.67.43-1.31.52-2a7.32,7.32,0,0,0-.13-2.2c-.13-.8-.15-1.63-.23-2.43-.12-1.09-.46-2.12-.66-3.19C64.93,31.16,65,29,64,26.86a30.72,30.72,0,0,0-5.23-6.58c.4-.74,1.43-1.11,2.08-1.59a19,19,0,0,0,2.24-1.84,2.7,2.7,0,0,0,.74-1.61,5.54,5.54,0,0,1,1.1-2.11c1.32-1.63,2.46-3.2,2.24-5.46A8.24,8.24,0,0,0,66,4.25c-1.58-2.56-5-4.72-8.12-4.15-1.49.27-2.91,1.84-3.76,3A16.39,16.39,0,0,0,52,7.55c-.33,1-.92,2.91-.56,4a5.85,5.85,0,0,0-3.59.92c-1,.73-3.2.44-4.47.44-1.92,0-3.76-.17-5.65,0-.79.07-1.53-.18-2.34-.08a10,10,0,0,0-2.35.65,32.88,32.88,0,0,0-4.08,2.31c-1.52.87-3.11,1.69-4.58,2.64a20.42,20.42,0,0,0-4.38,3.34c-.8.92-1.84,1.48-2.63,2.38a12.5,12.5,0,0,0-1.61,2.18c-1,1.82-.09,3.41.73,5.21A75.84,75.84,0,0,0,20.35,39l-4.59-3.49-4.15-3.16L8.08,29.68,5.26,27.53,3.22,26a12.83,12.83,0,0,0-1.16-.88c-.51-.3-1.1.13-1.48.5A1.24,1.24,0,0,0,.2,26.61Zm30.41,1.11c-.65,1.43-1.13,3-1.78,4.51-.73,1.66-.84,4.5-2.31,5.75a15.25,15.25,0,0,0-.81-3c-.07-.27-.53-3.23-.46-3.26,1.07-.38.42-.88.73-1.58s1.51-.81,2.14-1A5.61,5.61,0,0,0,30.61,27.71ZM49.49,56.88a2.64,2.64,0,0,0,2.42-1.76c.33-1.39-.75-2.66-.26-4s1.55-2.34,2.23-3.5,1.3-2.24,1.9-3.41c.69-1.33,1.71-2.51,2-4-.06,3.12-1.38,5.89-.69,9,.44,2,1,3.72,1.59,5.64.66,2.09.6,4.22,1.09,6.34a28.66,28.66,0,0,1,.85,3.14c.08.71.06,1.28.66,1.7a2.23,2.23,0,0,0-.14.8c0,.82.32,1.76.44,2.67a4.52,4.52,0,0,1,0,.92l-.7-.53-6-4.56-5-3.82A44.45,44.45,0,0,0,49.49,56.88Z"/><path class="cls-1" d="M79.82,114.56c-2.15-1.41-3.59-1.06-7.07-1.77,1.84,2.46,1.82,3.66,4.13,4.9a4.78,4.78,0,0,0,4.69.45c.75.51,1.32.88,1.32.88l.08-.08.08-.08.08-.08s-.6-.33-1.43-.76C82,116,81,115.36,79.82,114.56Zm-4.09,0a31.68,31.68,0,0,1,5.19,3.09A31.89,31.89,0,0,1,75.73,114.59Z"/><path class="cls-1" d="M83.25,115.27l.14,0,.14,0s-.36-.47-.89-1.1c1.8-1.3,1.27-2.15.63-3.2-1.14-1.85-2.84-2.16-5.82-4,.07,2.48-.82,3.32.6,5.11.8,1,1.44,1.83,4.39,2.15.38.66.69,1.14.69,1.14Zm-4.11-5.93c.51.54,2.76,3.33,3,4.24A20,20,0,0,1,79.15,109.34Z"/><path class="cls-1" d="M85,120.33c-.91.23-1.56.42-1.56.42l.06.1.06.1.06.1s.63-.23,1.48-.56a4.78,4.78,0,0,0,4.67.62c2.53-.69,2.78-1.86,5.12-3.85-3.56-.09-4.88-.76-7.29.13C86.27,117.89,85.16,118.29,85,120.33Zm.82-.16a31.68,31.68,0,0,1,5.75-1.84A31.89,31.89,0,0,1,85.86,120.17Z"/><path class="cls-1" d="M84.26,117.36s.41-.4.93-1c2.94.35,3.76-.3,4.76-1.11,1.78-1.43,1.11-2.45,1.73-4.85-3.33,1.15-5.05,1.07-6.58,2.61-.86.87-1.57,1.58-.11,3.25-.65.49-1.11.87-1.11.87l.13.06.13.06Zm1.36-1.46c.41-.83,3.24-3,3.85-3.46A20,20,0,0,1,85.62,115.9Z"/><path class="cls-1" d="M87,125.83c-.17-2.57-1.31-3.5-2.84-6.71-.86,2.95-1.82,3.65-1.43,6.24a4.78,4.78,0,0,0,2.46,4c0,.91.09,1.58.09,1.58h.34s-.1-.68-.26-1.6C87.16,128.46,87.08,127.28,87,125.83Zm-2.48-3.25a31.68,31.68,0,0,1,.65,6A31.89,31.89,0,0,1,84.51,122.58Z"/><path class="cls-1" d="M88.49,129l.1.09.11.09s.16-.57.34-1.37c2.13.65,2.49-.28,2.93-1.42.79-2,0-3.56-.29-7.07-1.94,1.54-3.15,1.35-3.72,3.55-.33,1.24-.6,2.26.92,4.8-.3.7-.5,1.23-.5,1.23Zm2.26-6.85c-.12.73-1,4.21-1.59,4.92A20,20,0,0,1,90.76,122.15Z"/><path class="cls-1" d="M98.61,122.76c-1.09,2.33-.54,3.7-.75,7.25,2.17-2.17,3.36-2.32,4.27-4.78a4.78,4.78,0,0,0-.22-4.71c.4-.81.68-1.43.68-1.43l-.09-.07-.09-.06-.09-.07s-.24.64-.55,1.52C99.73,120.37,99.23,121.44,98.61,122.76Zm.6,4a31.68,31.68,0,0,1,2.32-5.58A31.89,31.89,0,0,1,99.22,126.8Z"/><path class="cls-1" d="M98.83,119.26l0-.13,0-.13s-.41.42-1,1c-1.55-1.6-2.31-1-3.25-.17-1.67,1.39-1.73,3.11-3.16,6.33,2.44-.42,3.4.34,5-1.32.89-.93,1.61-1.69,1.51-4.65.6-.47,1-.84,1-.84Zm-5.29,4.91c.46-.58,2.91-3.21,3.77-3.55A20,20,0,0,1,93.54,124.16Z"/></svg>