<svg id="レイヤー_1" data-name="レイヤー 1" xmlns="http://www.w3.org/2000/svg" viewBox="0 0 64 115" width="64" height="115"><defs><style>.cls-1{fill:#d61819;fill-rule:evenodd;}</style></defs><title>img_build</title><path class="cls-1" d="M49.44,87.42a11.47,11.47,0,0,1-.22-6c1-3.25-.55-11.76-.68-12.54s.65-1.56,1.56-2.6c2.07-2.37,5.06-6.76,6.11-7.54,9.49-7,7.15-10.4,6.37-12.48,0,0,.91-.39,1.17-2.08-1-1.43-4.29-9.49-5.2-10.79s-5.72-9.75-9.36-12.09-11.05-9.1-13.52-10-7.93-1.17-10.14-.91c-.65,0-3.49-1.39-3.4-.62a21.58,21.58,0,0,0-1.4-1.92c-1.52-8-5.93-9.12-12.86-6.22s-5.3,7-3.44,11.48C2.11,18.54.61,20.67,7.81,16.73c.09.92,0,3.9,1.83,3.17.24,1.18.58,1.28,1.3,1-.08,1.39,1.38.27,1.37.85s1.58,1.91,4-1.64c.51-.73,2.07.48,2.47.07C13.33,25.71,14.22,37.3,14,38.73c-.91,1.17-1,5.07-2.21,6.37-1,1.14-2.4,4.3-3.59,7.11-.28-.11-.58-.25-.92-.4a4.21,4.21,0,0,0-2-.25A4.7,4.7,0,0,0,2,53.86.23.23,0,0,0,2,54l1.15,4A5.66,5.66,0,0,0,.9,59.4c-1.27,1.16-.38,2,0,2.21.23.12.05,1.3.56,1.48,1,.37.25.8,1.22,1.25s-.1.91,1.23,1.17a1.83,1.83,0,0,0,1.22-.29l.34,1.2-.39.45-.19.25-.09.13,0,.05a1.39,1.39,0,0,1,.35-.36,1.26,1.26,0,0,1,.44-.19l.4,1.4.4,1.38a1.42,1.42,0,0,0,.48-.22,1.54,1.54,0,0,0,.37-.39l0,0,0,0,0-.06.1-.14.22-.27a3.67,3.67,0,0,1,.5-.47,2.34,2.34,0,0,1,1.08-.49,2.47,2.47,0,0,1,1.21.15l.76.33a5.23,5.23,0,0,0,1.25.4,23.21,23.21,0,0,0,8.16-.64c1.08-.24,2.15-.52,3.21-.82-1.86,2.52-4.05,5.76-3.72,8.3.11.84,1.16,6.19,2.32,12.3M37,48.61a39,39,0,0,1-4,3.82L32.59,51c1.61-.44,2-1.22,2.85-1.62a8.22,8.22,0,0,0,1.08-.94C36.68,48.48,36.84,48.56,37,48.61ZM19,48c.39-.71,1.41-2.94,2.45-5.17A23.58,23.58,0,0,0,24.14,44a28.21,28.21,0,0,0,2.54-3.75A69.27,69.27,0,0,1,31.77,45a3.08,3.08,0,0,0,.63.69L31.05,46c-.05-.07-.08-.16-.16-.21a.74.74,0,0,0-1,.25,2.82,2.82,0,0,1-.29.35l-.07,0,0,0a9.49,9.49,0,0,1-2.37,1.67,28.14,28.14,0,0,1-3.43,1.54,51.07,51.07,0,0,1-7.29,2.17l-.52.1A46.79,46.79,0,0,0,19,48ZM2.44,54a4.14,4.14,0,0,1,2.84-1.88A3.58,3.58,0,0,1,7,52.42c.26.12.56.28.89.42-1,2.28-1.77,4.21-2.11,4.42A6.87,6.87,0,0,1,3.43,58ZM20.11,65.27a21.48,21.48,0,0,1-7.12.4c-.3,0-.37-.15-.57-.19s-.65-.34-1-.47a5.27,5.27,0,0,0-2.56-.38,5.18,5.18,0,0,0-2.43,1,6.38,6.38,0,0,0-.9.78l-.3-1.2C7,64.1,8.72,60.72,9.53,59.53c.24-.35,3-3.53,5.47-6.5l1.64-.26a52.14,52.14,0,0,0,7.52-2,29.36,29.36,0,0,0,3.63-1.5,13.45,13.45,0,0,0,2.33-1.45L31.67,54c-1.19,1.94-4.81,7.84-5.49,9.42,0,.09-.15.24-.21.36A51.07,51.07,0,0,1,20.11,65.27ZM35,81.11c-.26-1.43,2.34-1.56,2.6-4.29.39,1.82,1,7.15.39,8.58-.92,0-2.24.92-1.81,2H36a7.13,7.13,0,0,1,1.09-3.07C37.9,83.21,35.28,82.54,35,81.11Z"/><path class="cls-1" d="M4.77,67.32v0h0Z"/><path class="cls-1" d="M20.6,79.35l4.95,27.76s-6.13,2-5.28,5.95,9.11.13,11.16.06,8.76-4,8.76-4l-.47-1.33,1.3-.65L35.7,90.36a12.26,12.26,0,0,1,7,2.14c2.9,1.74,6.73,2.52,6.85.44s.41-3.09,0-4.3-1.52-2.52-.93-5.62,0-4.55,0-4.55l-3.74-3.68H38l-.67,2,.39,8.58s-.28.47-.91-1a15.93,15.93,0,0,0-2.08-3.25l.46-1.1-2.89-5.22Z"/></svg>