<svg id="レイヤー_1" data-name="レイヤー 1" xmlns="http://www.w3.org/2000/svg" viewBox="0 0 71 123" width="71" height="123"><defs><style>.cls-1{fill:#0b579e;fill-rule:evenodd;}</style></defs><title>img_realestate</title><path class="cls-1" d="M49.4,108.07c.09,1.06.12,3,.12,3l.31.09a3.54,3.54,0,0,1-1.77.37,6,6,0,0,0-3.36.34,2.49,2.49,0,0,0-.87,2.36c.15.84,1.58,1.09,2.55,1.31a14.27,14.27,0,0,0,4.72.09c.87-.31,2.36-.65,2.36-.65L53.34,116a11.75,11.75,0,0,0-1.55,1.27c-.72.72-1.83,1.18-2.43,1.93s-.15,2.36,1.06,3.2,3.79.5,5.32-.19a21.54,21.54,0,0,0,4.1-3.2s.19.28,1.09-.44c.23-.18.31-.84.59-.84a2.54,2.54,0,0,0,.87-.4A37.32,37.32,0,0,0,63,112.3c.22-3.26.88-11.8-.05-15.22-.42-1.53.93-20.44,1-21.89s.52-4.91.77-6.28.56-2.42.56-2.42.66-.15,1.43-.35,2.69-.85,2.84-.89a.24.24,0,0,0,.17-.19s-.71-3.34-1.33-6.71-1.2-8-1.2-8a45.13,45.13,0,0,0,1.66-4.44,68.09,68.09,0,0,0,1.88-8.62,50.23,50.23,0,0,0-.16-8,11.47,11.47,0,0,0-.06-1.72,31.42,31.42,0,0,0-1.39-4.7,5.28,5.28,0,0,0-2-2.11A8.72,8.72,0,0,0,65.26,20a2.78,2.78,0,0,1-1.74-.77,5.27,5.27,0,0,0-1.68-1S61,16.83,60.7,16.5a2.53,2.53,0,0,1-.37-1,.49.49,0,0,0,.29-.15,2.2,2.2,0,0,0,.33-1.33,17.29,17.29,0,0,0-.14-1.84,2.54,2.54,0,0,1,.25-1.62,15.15,15.15,0,0,0,0-2.09A2.1,2.1,0,0,0,61.32,8c.18-1-.17-2.8-1.93-5A6.29,6.29,0,0,0,55.54.29a5.54,5.54,0,0,0-3.17,0A4,4,0,0,1,50.65,1a6.73,6.73,0,0,0-1.91,1.37,2.19,2.19,0,0,1-.48.6,3.94,3.94,0,0,0-1,1.2,1.92,1.92,0,0,0-.15.77l.23-.33a5.56,5.56,0,0,0-.15.56,4.69,4.69,0,0,0,0,.79,2.29,2.29,0,0,1,.35,1.68,1.77,1.77,0,0,0,.31,1.47c0,.17.14.66.14.66l-.35.21a.22.22,0,0,0,0,.19c0,.08.29.15.29.15l.27.52a.91.91,0,0,0,.41.33,8.34,8.34,0,0,0,.06,1c.06.44.33.93.54,1.64a6.12,6.12,0,0,0,1,1.82c.27.33,1,.93,1.51,1.66a2.35,2.35,0,0,1,.52,1.35L52,19a4.25,4.25,0,0,0-.31.66s-1.22.62-2.32,1.16-2.67,1.57-2.67,1.57a2.8,2.8,0,0,0-1.41,1.49,35.6,35.6,0,0,0-.81,4.37c-.27,1.72-.66,2.92-.74,4.33a11.51,11.51,0,0,0,.37,3.65,1.88,1.88,0,0,1,.06,1.06s-.77,0-.85.66a6,6,0,0,0-.13,1c0,.25-.44.66-.77.7a1.41,1.41,0,0,0-.79.58,2.26,2.26,0,0,1-1.22.39c-.56.08-1.08.19-1.08.19a3.73,3.73,0,0,1-.56.08c-.19,0-.42.19-.54.12a12.38,12.38,0,0,0-1.76-1,10.93,10.93,0,0,1-1.24-.56c-.23-.08-.62.35-.71.54a2,2,0,0,1-.23.37s-.6-.27-1.31-.5a11.73,11.73,0,0,0-1.43-.33s-.06-.17-.08-.25-.16-.1-.16-.1a.39.39,0,0,0-.17-.17A6.67,6.67,0,0,1,29,38.75c-1.91-.39-4.33-1-4.33-1s-.87-3.44-1.14-4.62a10.07,10.07,0,0,0-1-2.36c-.25-.58-1.39-3.42-1.82-4.66A4.44,4.44,0,0,0,19,23.69a8.94,8.94,0,0,1-1.37-.89s-.17-.45-.29-.77a3.55,3.55,0,0,0-.58-1.1,5.1,5.1,0,0,1-.62-1.08l.23-1.24a6.55,6.55,0,0,0,.42-.6,13.77,13.77,0,0,0,.79-1.55,9.39,9.39,0,0,0,.25-1.18.52.52,0,0,0,.31-.1,1.37,1.37,0,0,0,.29-.72,8.66,8.66,0,0,1,.12-.93s.23-.19.33-.29a3.89,3.89,0,0,0,.37-.6c.15-.25.46-.62.58-.87a1.89,1.89,0,0,0,.06-.79,1,1,0,0,0,.27-.44c0-.23-.4-.56-.13-1a2.07,2.07,0,0,0,.25-1.12A1.59,1.59,0,0,0,20,7.73a9.1,9.1,0,0,1-.51-1.39c-.1-.27-.79-.75-.79-.75a7,7,0,0,0-.52-1.1,2.67,2.67,0,0,0-1.49-.89,20.69,20.69,0,0,0-4.33-1.2,5,5,0,0,0-3,.68,13.28,13.28,0,0,0-1.76.81A4.32,4.32,0,0,0,6.07,5.95c-.35.72-.37.64-.37,1.2s-.12,1.37-.1,1.49a4.44,4.44,0,0,1-.08,1.28,7.73,7.73,0,0,0,.17,1.93,4.43,4.43,0,0,1,.41.93,2,2,0,0,0,.29.79,2,2,0,0,1,.21,1,3,3,0,0,0,0,.87,3.14,3.14,0,0,0,.29.75c.1.17,0,.66,0,.66s.06,0,.15,0,.41.35.52.31a2.7,2.7,0,0,1,.39-.08.62.62,0,0,1-.21,0c-.1,0,0-.31.08-.29s.19.14.27.27a.5.5,0,0,1,.08.25,4.56,4.56,0,0,0-.43.6,4.44,4.44,0,0,1-.77,1.24,1.48,1.48,0,0,0-.44.81s-2,1.4-2.7,1.9a10.69,10.69,0,0,0-2.46,2.46c-1,1.55-.87,4-1,4.6a8.22,8.22,0,0,0,0,3.95c.53,1.43,1.77,5.44,1.77,5.44a44.63,44.63,0,0,1,1,5A8.83,8.83,0,0,0,4.3,46.82s-.09,1.74-.12,3.29-.75,5.16-.53,6.81.44,7.18.37,7.65.5.84.5.84A16.87,16.87,0,0,0,5.17,67c.37.78-.22.81.06,1.58s.84,1.24.72,1.62A5.25,5.25,0,0,0,6.11,73c.4.93.65,11.1,1,12.56s-.1,2.42-.19,4-.72,10.66-.5,13.93A36.86,36.86,0,0,0,7,108.56a2.53,2.53,0,0,0,.87.4c.28,0,.37.66.59.84.9.71,1.09.43,1.09.43a21.64,21.64,0,0,0,4.1,3.2c1.52.68,4.1,1,5.32.19s1.65-2.46,1.06-3.2-1.71-1.21-2.42-1.93a11.68,11.68,0,0,0-1.55-1.27l-.13-1.09s1.49.34,2.36.65a14.26,14.26,0,0,0,4.72-.09c1-.22,2.39-.47,2.55-1.31a2.51,2.51,0,0,0-.87-2.36,6,6,0,0,0-3.36-.34,3.54,3.54,0,0,1-1.77-.37l.31-.09s0-1.9.12-3,1.15-9.17,1-11.87,1.46-10.88,2-13.71a51.31,51.31,0,0,0,1-7.37,10.4,10.4,0,0,1,.09-2s1.37,1.31,1.68.47-.25-4.07-.34-5.41-.65-5.72-.37-7.86a39.78,39.78,0,0,0,.25-4.76l3.76.78a1.08,1.08,0,0,0,.84-.28,13.65,13.65,0,0,1,.53-1.87,10.08,10.08,0,0,0,.47-1.31,2.64,2.64,0,0,0,.53,1.34c.4.34.65.12.65.12s-.22.72,0,1,.59.5.78.43l.28-.09a.94.94,0,0,0,.5.72.7.7,0,0,0,.84-.16s-.09.9.4.93a1.39,1.39,0,0,0,1-.4,2.07,2.07,0,0,1,.19-.22,1.32,1.32,0,0,0,.78,0c.28-.16.22-.25.22-.25s.43,0,.53-.22a1,1,0,0,0,.06-.47.85.85,0,0,0,.5.28,1.23,1.23,0,0,0,.34,0l.75,1.34c.12.22.28.25.59.31s.72-.31,1.15-.53,1.62-.65,2.64-1.15,2.17-1.09,2.17-1.09-.19,1.74-.22,2.55a17.73,17.73,0,0,1-.71,2.83c-.09.4-.44,1.68-.44,1.68l.31-.12a30.74,30.74,0,0,1-.47,3.26c-.28,1.18-.19,3.57-.5,5.44a15.27,15.27,0,0,0-.44,4.1c.5,1.34,2.64,1,2.64,1s-.37,1.15.37,5.32,2,14.5,1.74,19S49.4,108.07,49.4,108.07Z"/></svg>