<svg id="レイヤー_1" data-name="レイヤー 1" xmlns="http://www.w3.org/2000/svg" viewBox="0 0 869 95" width="869" height="95"><defs><style>.cls-1{fill:#66aece;}.cls-2{fill:#fff;}</style></defs><title>lead_needs</title><path class="cls-1" d="M6.33,58.31c2.07-2.16,4.86-5.18,7.53-6.44,4.69-2.1,3.6-6.09,7-7.78a12.21,12.21,0,0,0,5.53-5.6c2.83-3.9-2.92-6.24-5.37-9.39-.58-1.34-1.79-3.13-1.71-4.45.12-2.2-2.42-3.58-4.26-5.83L2.3,0A80.92,80.92,0,0,1,16.52,3c3.24.52,6.52.15,9.14.21l9,2c2.58.5,5.22.12,7.17.17,3.24.52,5.77,1.9,9,2,5.87.14,12.9,2.95,18.84,1.76,3.34-1.25,3.87,1,6.49,1,3.23.52,6.52.15,9.1.65l9.79.23c3.27.08,5.82,1,9.09,1.09L140,14.24a51.44,51.44,0,0,1-9.93,2.42c-4.59.33-9.19.67-13.85,2.32-4.63,1.21-9.18.67-13.84,2.32-3.34,1.24-13.1.58-11.33,4.15,1.67,5.33-2.54,10.53-.86,15.86,1.86,1.81,1,5.32.9,7.52-.07,1.32-.82,3.07-.92,4.83C90.13,55,88.74,56.7,88.66,58s1.18,2.23,1.11,3.55S89,64.64,88.88,66c-.82,3.07.27,7.06-.55,10.13-.07,1.32-24.77-1-28-1.1-2.61-.06-4.5-1.43-7.1-1.49S48.64,73,46,72.9c-5.81-1.46-10.42-.68-16.23-2.14-9.69-2-20.11-2.67-29.81-4.22C.82,63.47,4.19,61.34,6.33,58.31ZM94.4,72.71c.12-2.2,3.49-4.33,1.71-7.46-1.83-2.25.87-3.95.34-6.17-.48-3.1-1.69-4.89.38-7s-1-5.76-.87-8c.1-1.76,3.54-5.21,1.71-7.46-1.86-1.81-1.59-6.65-.85-8.4,2,0,3.21,1,5.17,1,2.58.5,4.62-.77,7.2-.27,4.5,1.43,9.84-.65,14.31,1.22,1.88,1.37,11,1.58,13.65,1.2,5.3-1.2,11.1.26,16.3.82l28.71.67c2,0,4.52,1,6.54-.29,3.34-1.24,4.52,1,7.14,1,5.22.12,11.19-1.5,16.38-.94,9.72,1.55,18.22,1.31,28.08.21,5.24-.32,9.72,1.55,14.36.33,3.34-1.25,4.54.55,7.15.61,3.27.08,6.61-1.17,9.21-1.11,9.81-.21,18.27.43,28.09.21l30.75-1c9.81-.21,18.4-1.78,28.18-1.55,2.63-.38,4.54.55,7.15.61s4-1.23,6.59-1.17c5.85.58,11.13-.18,17,0,9.85-1.09,17.71-1.35,27.52-1.56l14.41-.55c5.22.12,11.24-2.38,16.39-.94,9.71,1.55,18.36-1.34,28.15-1.11,4.57.11,9.79.23,14.38-.11l6.59-1.17c3.27.08,6.55-.29,9.16-.23,9.86-1.09,19-.44,28.78-.65,2-.39,4.54.55,6.53.15a32.7,32.7,0,0,0,7.25-1.15c5.22.12,11,1.14,16.34-.06,4.64-1.21,9.71,1.55,14.38-.11,4.64-1.21,9.09,1.09,13.75-.56,4.63-1.21,9.78.23,14.37-.11,5.22.12,11.09.26,16.33-.06,9.79.23,18.35-.9,28.14-.67,4.57.11,9.77.67,14.33.78,5.21.12,11.16-1.06,16.31.38,4.5,1.43,9.8-.21,14.35.33,4.57.11,9.14.21,13.73-.12,10.46-.2,20.18,1.35,30.6,2,4.57.11,9.11.65,13.65,1.2l7.18.17c2.58.5,5.27-.76,7.2-.27,7.18.17,4.55.55,4.36,4.07-.17,3.08-2.24,5.24-.46,8.37,1.88,1.37-.94,5.27-1.06,7.47s3,4.48.89,7.52c-3.54,5.21,1.34,11.5-1.56,16.72-.75,1.75-1.54,4.37.31,6.18s-2.19,4.36-.36,6.61c3.56,6.7-17.18,3.57-21.7,2.58-4.5-1.43-9.77-.67-14.36-.33s-9-2.41-13.65-1.2c-3.34,1.25-4.54-.55-7.16-.61-3.26-.08-4,1.67-7.2.27-5.12-1.88-11.12.18-16.34.06-3.26-.08-3.8-2.29-7.13-1-1.34.41-3.94.35-7.21.27-2.6-.06-3.82-1.85-6.5-.59s-4.59.33-7.2.27c-4.57-.11-9.77-.67-14.33-.78-2.62-.06-4,1.67-7.21.27-2.53-1.38-5.87-.14-9.13-.21-9.72-1.55-18.44,2.66-28.13.67a78,78,0,0,0-14.35-.33c-5.3,1.2-11.12.18-16.37.5l-28.13.67-13.8,1.44c-3.26-.08-4.49-1.43-7.17-.17s-6.55.29-9.16.23c-9.72-1.55-18.43,2.66-28.15,1.11-4.5-1.43-9.84.65-14.43,1-5.22-.12-11.09-.26-16.33.06l-28.15,1.11L413,88.08c-5.24.32-10.58,2.4-16.38.94-3.19-1.4-9.21,1.11-13.8,1.44s-9.77-.67-14.36-.33c-9.85,1.09-20.29.85-30.1,1.06S320,92.52,310.21,92.73c-2.63.38-4.52-1-7.15-.61-2,.39-4.64,1.21-7.25,1.15-2,0-4.52-1-6.51-.59-3.26-.08-6.55.29-9.81.21-4.54-.55-9.25,2-13.74.56s-9.79-.23-14.36-.33c-4.59.33-9.16.23-14.38.11-5.24.32-10.51,1.08-16.38.94-4.57-.11-9.09-1.09-13.66-1.2s-9.8.21-14.4.55c-4.57-.11-9.09-1.09-13.66-1.2-3.27-.08-5.87-.14-7.2.27-4.64,1.21-5.15-1.44-9.79-.23-2.69,1.26-3.92-.09-6.52-.15l-26.1-.61c-12.38-.73-23.45-1.43-34.47-3C92.48,83.69,94.11,78,94.4,72.71ZM852.94,36.15c-2.06,1.72-2.76,2.58-3.53,4.77-.1,1.76-2.08,2.16-4.11,3.43-2,1.72-4.86,5.18-4.32,7.4,1.8,3.13,5,4.53,6.78,7.66,1.86,1.81-.19,3.52,1.69,4.89s3.15,2.28,3.7,4.05c1.88,1.37,3.72,3.62,3.63,5.38-.07,1.32.53,2.22,2.41,3.58,2.54,1.38,1.77,3.57,3.65,4.94s3.09,3.16,3,4.48c-20.05-3.55-40.16-6.23-60.94-8.48-2.62-.06-4.54-.55-7.18-.17-3.33,1.25-3.86-1-7.1-1.49-4.57-.11-9.81.21-15-.35-1.83-2.25,1.54-4.37,1.66-6.58.19-3.52,1.72-7.46-.08-10.59-.48-3.1.29-5.29.46-8.37.12-2.2-1-6.2,1.11-8.35,2.13-3-1.06-4.43-.9-7.52s1.64-6.14,1.81-9.22c.22-4-3.65-4.94-8.14-6.36s-9.64-2.87-14.79-4.32c-9.67-2.43-17.35-5.25-27-8.57,46.91,2.42,92.43,6.12,139.05,13.82C866.52,26.76,857.79,31,852.94,36.15Z"/><path class="cls-2" d="M158.75,60.28c-.48.54-1,1.07-1.53,1.57-.21.2-.36.28-.46.27s-.16-.13-.23-.43a7.26,7.26,0,0,0-.61-2.12,21.77,21.77,0,0,0,5.16-7.22,7.74,7.74,0,0,0,.52-1.64,15.37,15.37,0,0,1,2.3.92c.25.14.34.22.33.39a.48.48,0,0,1-.27.41c-.18.1-.31.31-.58.91a32.4,32.4,0,0,1-1.87,3.32l-1,12.09c-.2,2.34-.25,3.51-.26,3.63s0,.26-.26.24l-2.05-.18c-.21,0-.24,0-.22-.28s.16-1.28.36-3.62ZM164.8,72c-2.34-.2-3.18-.23-3.32-.24s-.26,0-.24-.31l.16-1.84c0-.24,0-.26.29-.24s1,.13,3.31.33l2.91.25.42-4.94-1.6-.14c-2.22-.19-3-.21-3.13-.22s-.28,0-.26-.29l.15-1.79c0-.24,0-.26.31-.24s.9.12,3.12.32l1.6.14.35-4.12-2.24-.19c-2.31-.2-3.1-.22-3.25-.23s-.26,0-.24-.29l.16-1.81c0-.26,0-.26.28-.24s.93.1,3.24.3l7.46.64c2.29.2,3.1.24,3.25.25s.29,0,.26.29l-.16,1.81c0,.24,0,.26-.31.24s-.95-.13-3.24-.33l-2.67-.23-.35,4.13,1.88.16c2.24.19,3,.21,3.15.22s.26,0,.24.29l-.15,1.79c0,.24,0,.26-.28.24s-.9-.13-3.14-.32l-1.88-.16-.42,4.94,3.36.29c2.34.2,3.15.22,3.29.24s.26,0,.24.28l-.16,1.84c0,.26,0,.28-.29.26s-.95-.13-3.29-.33Zm3.84-20.38a.35.35,0,0,1,.51-.05,20.65,20.65,0,0,1,3.94,2.77c.11.11.18.16.17.23a.72.72,0,0,1-.19.25L171.84,56c-.26.27-.36.26-.54.1a19.11,19.11,0,0,0-3.93-2.91c-.11-.08-.16-.13-.15-.21s.06-.14.19-.25Z"/><path class="cls-2" d="M188.33,64.81a42.41,42.41,0,0,1-4.91-.4c-.26,0-.35-.12-.36-.43a14.18,14.18,0,0,1,0-2,33.66,33.66,0,0,0,5.36.53c0-.91.09-1.84.12-2.75a39.49,39.49,0,0,1-5.7-.48c-.26,0-.38-.12-.39-.36,0-.6,0-1.18,0-2.16a54.84,54.84,0,0,0,6.24.63c.06-.88.07-1.51.1-2.32a6.9,6.9,0,0,0-.19-1.62,13.84,13.84,0,0,1,3,.62.49.49,0,0,1,.22.73,3.07,3.07,0,0,0-.43,1.12c-.05.48-.07.81-.14,1.53a40.26,40.26,0,0,0,5.28-.39c.29-.05.38,0,.39.31a12.78,12.78,0,0,1,0,1.75c0,.31-.09.35-.29.37a49,49,0,0,1-5.56.27c-.06,1-.09,1.84-.15,2.7,1.82,0,3-.17,4.72-.33.29-.05.36,0,.37.21,0,.46,0,1.25-.05,2,0,.24-.12.31-.38.31a43.19,43.19,0,0,1-4.72.28c0,1.1,0,2.27,0,3.38a21.32,21.32,0,0,1,6.15,3.29c.23.23.22.3.13.58a7.21,7.21,0,0,1-1.16,1.7.35.35,0,0,1-.32.17.37.37,0,0,1-.26-.14,19,19,0,0,0-4.58-3c-.19,2.58-1.8,3.53-5.08,3.33-3.11-.19-4.79-1.67-4.66-3.65s2.1-3.27,5-3.09c.6,0,1.17.07,2.29.24C188.29,66.61,188.31,65.63,188.33,64.81ZM186,69.51c-1.74-.11-2.61.34-2.66,1.1s.65,1.12,2.3,1.22a3,3,0,0,0,2.22-.58,2.29,2.29,0,0,0,.35-1.32A10.34,10.34,0,0,0,186,69.51Z"/><path class="cls-2" d="M205.73,58.06c.21.1.37.28.36.45a2.07,2.07,0,0,1-.22.66,10.73,10.73,0,0,0-.32,2.33,30.1,30.1,0,0,0,.19,5.47c.25,1.9.8,3.56,1.81,3.6.77,0,1.4-.78,2.44-3.22a9.13,9.13,0,0,0,1.45,1.91.73.73,0,0,1,.13.89c-1,2.4-2.56,3.63-4.23,3.55-1.87-.08-3.73-2.37-4.2-6.44a43.4,43.4,0,0,1-.27-7,12.84,12.84,0,0,0-.15-3.15A10.35,10.35,0,0,1,205.73,58.06Zm11,2A.7.7,0,0,1,217,60a.37.37,0,0,1,.26.16,15.83,15.83,0,0,1,4.33,8.38c.06.31-.09.4-.29.51a8.09,8.09,0,0,1-1.91.87c-.29.08-.46,0-.49-.29a16.13,16.13,0,0,0-4.1-8.54C215.75,60.54,216.37,60.23,216.76,60.05Z"/><path class="cls-2" d="M237.17,60.36a30,30,0,0,1-3.26,10.24c-1.08,1.77-2.35,2.69-4.14,2.65-2.11-.06-4.18-2.36-4.08-6.26a8.82,8.82,0,0,1,2.87-6.15A10.48,10.48,0,0,1,236.42,58c5.74.15,9,3.78,8.9,8.54-.12,4.45-2.7,7.19-7.6,8.52-.51.13-.72,0-1-.46A5.08,5.08,0,0,0,235.07,73c4.07-.85,7.3-2.44,7.42-7a5.44,5.44,0,0,0-5.22-5.69Zm-6.93,2.14a6.89,6.89,0,0,0-2,4.38c-.06,2.2.8,3.45,1.54,3.47s1.16-.28,1.83-1.41a27.34,27.34,0,0,0,2.76-8.5A7.21,7.21,0,0,0,230.24,62.5Z"/><path class="cls-2" d="M258.63,56.53c.29.1.43.24.43.44a.53.53,0,0,1-.12.38,1.85,1.85,0,0,0-.34.86c-.08.43-.13.79-.2,1.19a46,46,0,0,0,6.23-.94c.29-.07.36,0,.4.24a7.45,7.45,0,0,1,.22,1.63c0,.31-.24.43-.51.47a50.87,50.87,0,0,1-6.81.93c-.11,1-.16,1.58-.19,2.42a14.39,14.39,0,0,1,3.67-.49,5.87,5.87,0,0,0,.43-1.74,9.61,9.61,0,0,1,2.12.91c.28.19.43.39.42.53a.41.41,0,0,1-.15.29,2.07,2.07,0,0,0-.32.48C267,65,268.78,67,268.75,70c0,3.47-2.91,5.69-6.73,6.68-.53.14-.79.06-1-.47a6.1,6.1,0,0,0-1.4-1.5A13.79,13.79,0,0,0,264,73a4.12,4.12,0,0,0,2-3.57,3.57,3.57,0,0,0-2.93-3.5,25.32,25.32,0,0,1-4.59,6.22,7.24,7.24,0,0,0,.42,1.08c.14.31,0,.43-.2.6a7.6,7.6,0,0,1-1.44.82c-.24.12-.34.12-.48-.12a4.76,4.76,0,0,1-.4-.94,7.53,7.53,0,0,1-4.18,1.68c-1.63,0-2.64-1.13-2.62-3,0-3.06,2.72-6,5.68-7.38,0-1,.09-2.08.15-3-1.41,0-2.06,0-2.46,0a9.51,9.51,0,0,1-1.36-.06c-.26,0-.41-.15-.42-.55s-.06-1.15-.1-1.82a36.5,36.5,0,0,0,4.64.15c.11-.86.21-1.94.22-2.61a5.61,5.61,0,0,0-.08-1.08A13.08,13.08,0,0,1,258.63,56.53Zm-6.53,15.29a.82.82,0,0,0,.78.92,5.12,5.12,0,0,0,2.79-1.36,31,31,0,0,1-.43-4.12C253.37,68.55,252.11,70.26,252.09,71.82Zm8.56-6.13a11.23,11.23,0,0,0-3.07.52,25.6,25.6,0,0,0,.25,3.59A22,22,0,0,0,260.66,65.69Z"/><path class="cls-2" d="M276.78,62.11c.26.12.38.26.38.45a.72.72,0,0,1-.12.36,4.49,4.49,0,0,0-.48,1.27,39.84,39.84,0,0,0-.56,4.36,11.68,11.68,0,0,1,8-3.8c3.5,0,5.58,2,5.59,5.11a5.87,5.87,0,0,1-3.6,5.37,20.75,20.75,0,0,1-6.12,1.67c-.53.07-.74,0-1-.31a6.13,6.13,0,0,0-1.63-2,19.87,19.87,0,0,0,6.58-1.36c1.94-.84,2.82-2.09,2.82-3.62,0-1.29-.82-2.46-2.88-2.46s-4.64,1.38-6.89,3.66a6.5,6.5,0,0,0-1,1.32c-.14.24-.24.24-.55.17a16.37,16.37,0,0,1-1.63-.64c-.24-.1-.34-.14-.34-.48.14-2.78.44-5.6.72-7.73a15,15,0,0,0,.21-2.16A13.49,13.49,0,0,1,276.78,62.11Zm.58-6.06a.4.4,0,0,1,.45-.12,15.72,15.72,0,0,1,4.7,2.84c.12.1.17.17.17.26a.67.67,0,0,1-.12.29A15.77,15.77,0,0,1,281.35,61c-.1.12-.19.19-.26.19s-.17,0-.29-.17a19.15,19.15,0,0,0-4.84-3.1A13.1,13.1,0,0,1,277.36,56Z"/><path class="cls-2" d="M306.54,72.75a11.83,11.83,0,0,1-3.32,3.93,1,1,0,0,1-.57.25.77.77,0,0,1-.48-.21,5.88,5.88,0,0,0-1.88-1,9.58,9.58,0,0,0,3.54-3.41,6.09,6.09,0,0,1-2.1-1.14,5.2,5.2,0,0,1-1.25-1.61.92.92,0,0,1-.1-.31.69.69,0,0,1,.16-.39,7.76,7.76,0,0,0,.79-1.9,5.72,5.72,0,0,0,1.54,2.18,4.78,4.78,0,0,0,1.91,1,22.09,22.09,0,0,0,.36-4.44c0-1.2-.08-2-.19-3.23A8.43,8.43,0,0,0,300.72,65,13,13,0,0,0,298,69.17a6.58,6.58,0,0,0-.36,2.93c0,.26-.14.36-.45.44a14.08,14.08,0,0,1-1.67.34.4.4,0,0,1-.44-.38,21.9,21.9,0,0,1-.62-4.76c0-1.29.07-3.42.31-6.09.06-.84.12-1.7.11-2.3a3.83,3.83,0,0,0-.09-1,13.15,13.15,0,0,1,2.76.75.44.44,0,0,1,.34.45,1.38,1.38,0,0,1-.09.43,3.19,3.19,0,0,0-.34.94c-.33,1.75-.44,2.76-.52,3.6s-.1,1.41-.13,2.76a12.93,12.93,0,0,1,2.95-4.52,10.9,10.9,0,0,1,4.94-2.57c-.11-.84-.24-1.55-.37-2.17a4.61,4.61,0,0,0-.65-1.64,9.85,9.85,0,0,1,2.78,0c.43.07.55.21.56.45a5.87,5.87,0,0,0,0,.65c.13.79.27,1.67.35,2.48h.38a5.91,5.91,0,0,1,6,5.94,6.41,6.41,0,0,1-2.39,5.3,7.61,7.61,0,0,1-4.36,1.5Zm3-3.25a4.1,4.1,0,0,0,1.57-3.64c0-2.15-1.22-3.36-3.48-3.56.1,1.67.14,2.63.15,3.49a25.22,25.22,0,0,1-.36,4.53A3.8,3.8,0,0,0,309.51,69.5Z"/><path class="cls-2" d="M324.91,64.85a7.21,7.21,0,0,1,3.78-1.18,5.56,5.56,0,0,1,6.09,5.58c.11,4-3.05,6.65-8.17,6.79-3,.08-4.87-1.16-4.93-3.39a3.18,3.18,0,0,1,3.3-3,4.36,4.36,0,0,1,4.6,3.37,3.61,3.61,0,0,0,2.34-3.7,3.5,3.5,0,0,0-3.86-3.51A9.75,9.75,0,0,0,322,68.5c-.68.64-1.33,1.35-2,2.09-.16.17-.28.27-.4.27a.59.59,0,0,1-.36-.21,10.8,10.8,0,0,1-1.46-1.52c-.15-.19-.08-.36.1-.55a57.65,57.65,0,0,0,5.53-5.45c1.44-1.57,2.53-2.8,3.6-4.19-1.43.3-3.12.68-4.59,1a7.3,7.3,0,0,0-1,.31,1.78,1.78,0,0,1-.48.13.54.54,0,0,1-.54-.39,11.42,11.42,0,0,1-.91-2.56,11.54,11.54,0,0,0,2.23,0c1.46-.18,3.55-.55,5.41-1a6.32,6.32,0,0,0,1.31-.4,1.23,1.23,0,0,1,.45-.2.85.85,0,0,1,.56.18,9,9,0,0,1,1.65,1.49.83.83,0,0,1,.28.57.63.63,0,0,1-.39.59,3.89,3.89,0,0,0-1,.79c-1.7,1.75-3.26,3.47-5,5.26Zm.21,6.82c-.69,0-1.14.44-1.12.94,0,.74.68,1.23,2.12,1.19a5.2,5.2,0,0,0,1.1-.13C326.87,72.37,326.13,71.65,325.12,71.67Z"/><path class="cls-2" d="M343.62,71.91c-1.55.06-3.13.15-4.3.29-.24,0-.32-.13-.38-.44-.12-.55-.2-1.36-.32-2.62,1.73.05,3.45,0,5,0l8.71-.34c2.65-.1,4.28-.24,5.38-.33.31,0,.39.1.4.42a15,15,0,0,1,.08,2.08c0,.36,0,.5-.34.52-1.15,0-3.61.07-5.24.13Zm1.81-10.25c-1.51.06-2.56.15-3.66.24-.24,0-.32-.13-.35-.49a16.11,16.11,0,0,1-.24-2.53c1.51.06,2.64,0,4.07,0l4.74-.18c1.84-.07,3.27-.2,4.3-.29.19,0,.27.11.28.4a15.81,15.81,0,0,1,.08,2.13c0,.34-.05.46-.29.47-1.13,0-2.66,0-4.19.09Z"/><path class="cls-2" d="M365.88,66a19.13,19.13,0,0,0-3.5.46c-.29,0-.49-.12-.57-.47a26.07,26.07,0,0,1-.5-2.88,30.79,30.79,0,0,0,5.18,0l7.7-.38c1.82-.09,3.66-.23,5.5-.35.36,0,.43,0,.45.31a17.64,17.64,0,0,1,.11,2.25c0,.29-.08.39-.41.38-1.79.06-3.57.13-5.33.22Z"/><path class="cls-2" d="M395.67,55.5a3.52,3.52,0,0,0,1.64-.31.4.4,0,0,1,.26-.11.79.79,0,0,1,.42.17,8.73,8.73,0,0,1,1.65,1.58.64.64,0,0,1,.14.3.66.66,0,0,1-.28.5,4.39,4.39,0,0,0-.82,1.11,37.79,37.79,0,0,1-2.79,4.65,56.28,56.28,0,0,1,7,5.38.55.55,0,0,1,.21.32.59.59,0,0,1-.15.37,12.82,12.82,0,0,1-1.5,1.72.42.42,0,0,1-.28.16.49.49,0,0,1-.35-.17,43.53,43.53,0,0,0-6.57-5.55,34.43,34.43,0,0,1-7.65,6.79,1.51,1.51,0,0,1-.54.22.53.53,0,0,1-.42-.19,6.56,6.56,0,0,0-2.1-1.43,29.88,29.88,0,0,0,12.17-12.87l-6.16.4c-1.24.08-2.48.2-3.77.37-.19,0-.27-.13-.34-.39a14,14,0,0,1-.37-2.47c1.3,0,2.49-.05,4-.15Zm3.89-2.68c.11-.1.21-.08.36,0a11,11,0,0,1,2.42,2.42.24.24,0,0,1,0,.39l-1,.8a.25.25,0,0,1-.41,0,11.87,11.87,0,0,0-2.58-2.62Zm2-1.68c.14-.1.21-.08.36,0a10,10,0,0,1,2.42,2.32.28.28,0,0,1,0,.43l-.91.8a.25.25,0,0,1-.41,0,11.33,11.33,0,0,0-2.56-2.6Z"/><path class="cls-2" d="M412.13,53.31c.42.19.57.32.59.53s0,.24-.31.74a5.66,5.66,0,0,0-.45,1.74,38.8,38.8,0,0,0-.45,7.78,23.13,23.13,0,0,0,.34,2.78c.42-1.13.8-2,1.37-3.67a6.25,6.25,0,0,0,.94,1.44.94.94,0,0,1,.19.35.66.66,0,0,1-.09.39,23.46,23.46,0,0,0-1.1,3.7,2.72,2.72,0,0,0,0,.75c0,.29.08.47.1.67s-.08.27-.29.33a11.84,11.84,0,0,1-1.93.52c-.17,0-.27-.08-.33-.24a22.45,22.45,0,0,1-1.61-7,45.76,45.76,0,0,1,.25-7.89,19.27,19.27,0,0,0,.18-3.59A10.6,10.6,0,0,1,412.13,53.31ZM418,64.19c.19,0,.25.08.26.34.26,1.64,1.45,2.15,4.05,2a34.16,34.16,0,0,0,4.54-.64c.24,0,.29,0,.36.29a17.67,17.67,0,0,1,.29,2c0,.29,0,.31-.38.39a32.12,32.12,0,0,1-3.87.54c-3.53.25-5.22-.2-6.35-1.54a5.27,5.27,0,0,1-1.06-3Zm-2-8.83c0-.29.07-.36.31-.43a38.31,38.31,0,0,1,5.15-.8c1.43-.1,2.53-.13,3.54-.11.5,0,.55,0,.57.27.05.72.1,1.36.1,2,0,.22-.07.32-.29.31-1.44,0-2.68,0-3.9.13a29.27,29.27,0,0,0-5.38.94C416.09,56.36,416,55.77,416.07,55.36Z"/><path class="cls-2" d="M434.64,57.24c.06.84.15,2,.23,2.86,0,.38,0,.41-.4.46-.67.07-1.43.13-2.1.15-.31,0-.46,0-.47-.23,0-1,0-2-.1-3l-.16-2.24c-.1-1.38-.19-2.22-.32-3.1,0-.14.1-.25.29-.26,1.05,0,2.56-.09,4-.19l8-.59a2.5,2.5,0,0,0,1.44-.37.51.51,0,0,1,.3-.17.78.78,0,0,1,.47.18,10.91,10.91,0,0,1,1.88,1.45.66.66,0,0,1,.2.42.67.67,0,0,1-.18.47,3.9,3.9,0,0,0-.49,1.45,32.86,32.86,0,0,1-2.38,7.59A23.65,23.65,0,0,1,440,69a.79.79,0,0,1-.55.3.78.78,0,0,1-.49-.13,7.1,7.1,0,0,0-2.36-.74,20.47,20.47,0,0,0,5.54-7.34,25.7,25.7,0,0,0,2.21-7.58l-9.93.72Z"/><path class="cls-2" d="M454.15,50.83a.45.45,0,0,1,.32-.21.64.64,0,0,1,.32.1,25,25,0,0,1,4.79,3.08c.15.13.23.22.24.32a.51.51,0,0,1-.12.32c-.33.5-1,1.51-1.36,1.89-.11.13-.18.2-.27.21s-.2-.06-.32-.17a25.37,25.37,0,0,0-5.13-3.57C453.09,52.12,453.73,51.34,454.15,50.83Zm2.92,12.44a35.5,35.5,0,0,0,6.58-4.9,36,36,0,0,0,6.11-6.93,10.66,10.66,0,0,0,.86,2.75,1.17,1.17,0,0,1,.15.45c0,.21-.09.41-.33.74a39.09,39.09,0,0,1-5.15,5.43,51.44,51.44,0,0,1-6.9,5.16,8.31,8.31,0,0,0-1.53,1.21.66.66,0,0,1-.41.27.62.62,0,0,1-.42-.24,16.63,16.63,0,0,1-2.09-2.52A14.41,14.41,0,0,0,457.07,63.27Z"/><path class="cls-2" d="M486.44,48.9a3.52,3.52,0,0,0,1.64-.31.4.4,0,0,1,.26-.11.79.79,0,0,1,.42.17,8.77,8.77,0,0,1,1.65,1.58.65.65,0,0,1,.14.3.66.66,0,0,1-.28.5,4.39,4.39,0,0,0-.82,1.1,37.77,37.77,0,0,1-2.79,4.65,56.22,56.22,0,0,1,7,5.39.55.55,0,0,1,.21.32.6.6,0,0,1-.15.37,12.69,12.69,0,0,1-1.5,1.72.41.41,0,0,1-.28.16.49.49,0,0,1-.35-.17A43.63,43.63,0,0,0,485,59a34.44,34.44,0,0,1-7.65,6.79,1.51,1.51,0,0,1-.54.22.54.54,0,0,1-.42-.19,6.55,6.55,0,0,0-2.1-1.43,29.88,29.88,0,0,0,12.18-12.86l-6.16.39c-1.24.07-2.48.2-3.77.37-.19,0-.27-.13-.33-.39a13.94,13.94,0,0,1-.36-2.47c1.3,0,2.49-.05,4-.15Z"/><path class="cls-2" d="M503.49,52.28a33.74,33.74,0,0,1,7.78,2.85c.27.13.4.29.3.61a13.93,13.93,0,0,1-.92,2.14c-.09.17-.18.27-.3.28a.37.37,0,0,1-.27-.1,26.5,26.5,0,0,0-6.45-2.73l.28,5.28c.08,1.55.21,3,.34,4.68,0,.29-.08.36-.41.38a15.89,15.89,0,0,1-2.13.11c-.33,0-.46,0-.47-.33,0-1.77-.07-3.19-.15-4.72L500.46,49a18.18,18.18,0,0,0-.43-3.53,17.78,17.78,0,0,1,3,.22c.34.05.47.19.48.38a1.25,1.25,0,0,1-.16.56,6.25,6.25,0,0,0,0,2.26Z"/><path class="cls-2" d="M517.19,51.65a.43.43,0,0,1,.63.14A12.8,12.8,0,0,1,520,55.24a1.65,1.65,0,0,1,.11.35c0,.14-.09.22-.27.35a9.85,9.85,0,0,1-1.5.81c-.33.13-.48,0-.61-.31a14.15,14.15,0,0,0-2.43-3.75C516.14,52.21,516.7,51.92,517.19,51.65Zm13.14-.29c.2.13.32.25.33.39s-.06.27-.24.44a3.3,3.3,0,0,0-.66,1.25A29.2,29.2,0,0,1,526.44,60a19.13,19.13,0,0,1-4.71,4.84,1,1,0,0,1-.56.29.55.55,0,0,1-.39-.15,5.39,5.39,0,0,0-2.08-.91,20.81,20.81,0,0,0,5.51-5.24,24.75,24.75,0,0,0,3-5.91,8.6,8.6,0,0,0,.43-2.56A11.42,11.42,0,0,1,530.33,51.36ZM522,50.28a.42.42,0,0,1,.63.16,13.82,13.82,0,0,1,2,3.41c.14.35.09.48-.21.66a9.86,9.86,0,0,1-1.62.82c-.26.11-.36,0-.5-.34a16.3,16.3,0,0,0-2.18-3.73C521,50.76,521.57,50.47,522,50.28Z"/><path class="cls-2" d="M539.92,49.29c-1.55.06-2.92.18-3.94.26-.31,0-.41-.13-.47-.46s-.23-1.72-.3-2.41a41.9,41.9,0,0,0,4.6,0l8.54-.31a2.28,2.28,0,0,0,1.3-.29.77.77,0,0,1,.4-.16.56.56,0,0,1,.41.15,8.83,8.83,0,0,1,1.69,1.59.82.82,0,0,1,.21.47.65.65,0,0,1-.22.46,2.87,2.87,0,0,0-.52,1,28.18,28.18,0,0,1-4.36,7.94,26.84,26.84,0,0,1-6.59,5.94,1.16,1.16,0,0,1-.64.24.84.84,0,0,1-.61-.24,7.14,7.14,0,0,0-2.27-1.23,23.13,23.13,0,0,0,7.6-6.26,20.16,20.16,0,0,0,3.8-7Zm16.36-5.19a2.59,2.59,0,0,1-5.17.19,2.53,2.53,0,0,1,2.49-2.65A2.55,2.55,0,0,1,556.28,44.09Zm-4,.14a1.41,1.41,0,1,0,1.36-1.46A1.37,1.37,0,0,0,552.29,44.24Z"/><path class="cls-2" d="M570.58,47.6c-2.91.62-5.46,1.18-8,1.77-.9.24-1.14.29-1.5.42a1.4,1.4,0,0,1-.52.2.56.56,0,0,1-.46-.35,16.67,16.67,0,0,1-.95-2.56,33.16,33.16,0,0,0,3.8-.5c2.93-.5,8.18-1.41,14.34-2.37.36-.06.48.08.51.25a13.82,13.82,0,0,1,.31,2.1c0,.29-.13.36-.45.37a10.69,10.69,0,0,0-2.91.6c-4,1.48-6,4.33-5.94,7.2.07,3.09,2.31,4.71,6.48,4.88.38,0,.53.08.54.35a8.47,8.47,0,0,1-.22,2.06c-.06.36-.16.51-.44.51-4.21.1-8.89-2.21-9-7.19-.08-3.4,1.57-5.74,4.42-7.7Zm4.8,2.47c.12-.1.21-.08.36,0a11,11,0,0,1,2.33,2.51A.24.24,0,0,1,578,53l-1,.77a.25.25,0,0,1-.41-.06A11.88,11.88,0,0,0,574.13,51Zm2.09-1.61c.14-.1.21-.08.36,0a10,10,0,0,1,2.33,2.41.28.28,0,0,1-.06.43l-.94.76a.24.24,0,0,1-.41-.06,11.35,11.35,0,0,0-2.46-2.7Z"/><path class="cls-2" d="M589.64,50c-1.2.11-2.42.21-4,.23-.41,0-.53-.14-.58-.5s-.18-1.24-.28-2.08a12.21,12.21,0,0,0,1.87.1c1,0,2-.11,3-.22,0-.79,0-1.7,0-2.73a8.86,8.86,0,0,0-.18-1.94,13.6,13.6,0,0,1,2.85.41c.29.07.48.24.48.45a.84.84,0,0,1-.14.38,3,3,0,0,0-.33.94c-.07.62-.08,1.22-.1,2a23.53,23.53,0,0,0,3.06-.91c.21-.07.38,0,.41.21a12,12,0,0,1,.16,1.87c0,.24-.07.31-.31.39a24.38,24.38,0,0,1-3.42.94c0,1.15,0,2.32,0,3.47A15.12,15.12,0,0,1,598,51.64c3,0,5.12,1.87,5.14,4.74,0,3.06-1.92,4.88-5.15,4.91a9.29,9.29,0,0,1-2-.2.64.64,0,0,1-.53-.71,4.16,4.16,0,0,0-.74-2,8.94,8.94,0,0,0,3,.4,2.38,2.38,0,0,0,2.56-2.49c0-1.56-1-2.41-2.65-2.4a11.83,11.83,0,0,0-5.47,1.68c0,1,.06,1.82.12,2.87s.21,2.56.22,3.11c0,.33.05.69-.35.79a9.74,9.74,0,0,1-1.77.3c-.26,0-.36-.16-.58-.47a14.71,14.71,0,0,0-3.43-3,4.29,4.29,0,0,0-.76.53.6.6,0,0,1-.41.17.67.67,0,0,1-.53-.38c-.27-.43-.75-1.43-1.12-2.22a8.84,8.84,0,0,0,2.2-.86c1-.58,2.14-1.24,3.88-2.26Zm-2.15,8.25a24.61,24.61,0,0,0,2.26,1.06c.19,0,.26,0,.24-.19-.05-.62-.11-1.72-.17-2.51C589.15,57.08,588.34,57.64,587.49,58.27ZM598.82,45.6c.17-.26.24-.34.4-.29a11.39,11.39,0,0,1,5.1,2.88c.1.1.15.17.15.24a.6.6,0,0,1-.09.24c-.31.48-.92,1.23-1.28,1.71-.07.1-.41.12-.48,0a11.06,11.06,0,0,0-4.89-2.9A14.87,14.87,0,0,1,598.82,45.6Z"/><path class="cls-2" d="M612.15,49.34a47.28,47.28,0,0,1-.52,7.56,17.77,17.77,0,0,1-1.87,5.63c-.17.31-.27.45-.39.45s-.26-.12-.48-.39a7,7,0,0,0-1.54-1.35,14.4,14.4,0,0,0,1.87-5.3,43.34,43.34,0,0,0,.45-7.08c0-2.92,0-4.24,0-4.38s0-.26.29-.26.93.06,3.21.08l4.81,0v-1a9.68,9.68,0,0,0-.13-1.94c.89,0,1.72.09,2.54.17.24,0,.38.12.38.24a1.11,1.11,0,0,1-.15.45,2.37,2.37,0,0,0-.18,1v1.08l5.12,0c2.25,0,3,0,3.18,0s.26,0,.26.27l0,1.79c0,.22,0,.24-.27.24s-.93-.06-3.18-.08l-13.35-.12Zm3.7,4.08c.31.07.36.1.31.39a24.62,24.62,0,0,1-1.83,6.59c-.12.21-.22.17-.5,0l-1.62-.78c-.29-.15-.29-.27-.16-.48a19.06,19.06,0,0,0,1.85-6c0-.26.07-.26.43-.16Zm3.75,6.06c0,.79,0,1,.32,1.25a2.87,2.87,0,0,0,1.53.25,2.71,2.71,0,0,0,1.7-.34c.46-.38.59-1.22.65-3.06a6.17,6.17,0,0,0,1.72.71c.65.15.65.15.57.8-.21,2.13-.65,3-1.4,3.48a6.1,6.1,0,0,1-3.4.59c-1.8,0-2.82-.17-3.46-.63-.48-.36-.66-.84-.65-2.16l.05-5.79a25,25,0,0,0-.14-2.87c.77,0,1.72.11,2.44.21.29,0,.48.15.48.32a1,1,0,0,1-.2.52,6.19,6.19,0,0,0-.16,1.91Zm-1-12.26c.22-.24.24-.26.48-.14a25.82,25.82,0,0,1,4.52,3c.12.07.17.15.17.19s0,.14-.17.28l-1.14,1.31c-.24.29-.29.29-.46.12a25.7,25.7,0,0,0-4.42-3.22c-.17-.1-.21-.15,0-.38Zm9,12.72c-.34.16-.38.16-.45-.1a28.82,28.82,0,0,0-2.46-6.44c-.12-.22-.09-.29.22-.43l1.44-.63c.29-.14.34-.14.45.08a29.7,29.7,0,0,1,2.62,6.34c.07.26,0,.29-.29.45Z"/><path class="cls-2" d="M639.3,49.22c1.85-.23,3.2-.46,4.18-.65a3.49,3.49,0,0,0,1-.36.91.91,0,0,1,.53-.15c.14,0,.21.05.4.18a5.61,5.61,0,0,1,1.37,1.31.89.89,0,0,1,.25.56.64.64,0,0,1-.45.54,3.72,3.72,0,0,0-.78.53c-1.82,1.62-2.83,2.6-4.48,4.28a3,3,0,0,1,.87-.1,2.72,2.72,0,0,1,2.54,2.49c.42,2,.79,2.37,2.56,2.42a16.08,16.08,0,0,0,3.72-.32c.26,0,.38.11.42.37a12.64,12.64,0,0,1,.11,2.11c0,.24-.13.33-.44.37a21,21,0,0,1-3.53.21c-3.52-.1-4.64-1.07-5.07-3.45-.34-1.64-.6-2.32-1.44-2.34a3.4,3.4,0,0,0-2.28,1.13c-1.11,1.07-2.92,3.12-3.76,4.11a.42.42,0,0,1-.34.16.45.45,0,0,1-.26-.1A13.12,13.12,0,0,1,632.76,61a.38.38,0,0,1-.11-.24.59.59,0,0,1,.2-.38l4.65-4.46c1-.93,2.24-2.28,4.88-5-1.81.43-3.42.76-5,1.12a9.22,9.22,0,0,0-1.3.39,1.09,1.09,0,0,1-.51.13c-.17,0-.28-.13-.39-.42a16.9,16.9,0,0,1-.88-2.71A26.63,26.63,0,0,0,639.3,49.22Zm6.82-4.93c.24.05.33.2.25.53a14.59,14.59,0,0,1-.7,1.94.34.34,0,0,1-.42.25,36.92,36.92,0,0,1-6.62-2.2.32.32,0,0,1-.2-.44,21.28,21.28,0,0,1,.88-2.2A43.6,43.6,0,0,0,646.12,44.29Z"/><path class="cls-2" d="M660.16,44.22c.4.12.56.24.55.48a2.34,2.34,0,0,1-.28.78,14.28,14.28,0,0,0-.48,2.9c-.42,3.67-.66,6.1-.81,9.24-.12,2.42.14,3,2.05,3.07,2.13.1,5.52-1,8.59-4a8.32,8.32,0,0,0,.44,2.3,1.56,1.56,0,0,1,.16.58c0,.21-.11.4-.51.72a13.68,13.68,0,0,1-9.24,3.14c-3.06-.15-4.44-1.44-4.25-5.1.2-4,.58-7.45.84-10.31a15.88,15.88,0,0,0,0-4.39A24.89,24.89,0,0,1,660.16,44.22Z"/><path class="cls-2" d="M681.38,55.82a42.3,42.3,0,0,1-4.91-.45c-.26,0-.35-.12-.35-.43a14.21,14.21,0,0,1,0-2,33.75,33.75,0,0,0,5.36.58c0-.91.11-1.84.15-2.75a39.45,39.45,0,0,1-5.7-.53c-.26,0-.37-.12-.38-.36,0-.6,0-1.18,0-2.16a54.65,54.65,0,0,0,6.24.69c.06-.88.08-1.51.12-2.32a6.91,6.91,0,0,0-.17-1.62,13.88,13.88,0,0,1,3,.65.49.49,0,0,1,.21.74,3.07,3.07,0,0,0-.44,1.12c-.06.48-.08.81-.16,1.52a40.28,40.28,0,0,0,5.28-.34c.29-.05.38,0,.38.32a12.8,12.8,0,0,1,0,1.75c0,.31-.1.35-.29.36a49.05,49.05,0,0,1-5.56.22c-.07,1-.11,1.84-.17,2.7,1.82,0,3-.14,4.72-.28.29-.05.36,0,.37.22,0,.46,0,1.25-.07,2,0,.24-.12.3-.38.31a43.42,43.42,0,0,1-4.72.23c0,1.1-.07,2.28-.08,3.38a21.35,21.35,0,0,1,6.12,3.35c.22.23.22.3.13.59a7.24,7.24,0,0,1-1.18,1.69.35.35,0,0,1-.32.17.37.37,0,0,1-.25-.14,19,19,0,0,0-4.55-3.06c-.21,2.58-1.84,3.51-5.11,3.28-3.1-.22-4.77-1.71-4.63-3.69s2.13-3.25,5-3c.6,0,1.17.08,2.28.26C681.32,57.62,681.34,56.64,681.38,55.82ZM679,60.5c-1.74-.13-2.62.31-2.67,1.08s.64,1.13,2.29,1.24a3,3,0,0,0,2.22-.56,2.29,2.29,0,0,0,.36-1.32A10.31,10.31,0,0,0,679,60.5Z"/><path class="cls-2" d="M705.64,48.32a7.6,7.6,0,0,0-.11-1.77,24.21,24.21,0,0,1,2.75.61c.4.11.64.31.62.52a1,1,0,0,1-.27.53,2.5,2.5,0,0,0-.26.67c-.05.31-.09.62-.2,1.52,2.58.16,5,.38,7.33.61.29,0,.33.08.32.39,0,.6-.1,1.22-.18,1.81,0,.26-.15.32-.44.27-2.47-.32-4.78-.55-7.26-.77-.15,1.45-.3,3-.42,4.43a7.45,7.45,0,0,1,.12,2.39,8.94,8.94,0,0,1-5,7.27,2.29,2.29,0,0,1-1,.36,1.35,1.35,0,0,1-.68-.43,5.32,5.32,0,0,0-1.72-1.13c2.91-1,4.78-2.79,5.41-4.75a2.76,2.76,0,0,1-2.33.73c-1.88-.19-3.18-1.69-2.95-4a3.49,3.49,0,0,1,4-3.21,2.93,2.93,0,0,1,1.76.66c.08-.83.14-1.65.22-2.43-3-.13-6.41-.18-8.31-.11-.53,0-.93.19-1.15.17s-.32-.13-.37-.37a16.82,16.82,0,0,1-.35-2.47,15.82,15.82,0,0,0,2.91.2c1.47,0,4.56.14,7.43.26C705.54,49.56,705.6,49,705.64,48.32Zm-4,9.34A1.48,1.48,0,0,0,703,59.43a1.54,1.54,0,0,0,1.78-1.48,1.44,1.44,0,0,0-1.42-1.68A1.52,1.52,0,0,0,701.63,57.66Z"/><path class="cls-2" d="M721.3,66.73a3.47,3.47,0,1,1-3-3.85A3.45,3.45,0,0,1,721.3,66.73Zm-5.42-.67a2,2,0,1,0,2.21-1.73A2,2,0,0,0,715.88,66.06Z"/></svg>