<svg id="レイヤー_1" data-name="レイヤー 1" xmlns="http://www.w3.org/2000/svg" viewBox="0 0 367 87" width="367" height="87"><defs><style>.cls-1,.cls-2{fill:#ef7d32;}.cls-1{stroke:#ef7d32;stroke-miterlimit:10;stroke-width:0.23px;}.cls-3{fill:#fff;}</style></defs><title>lead_pr</title><path class="cls-1" d="M82.31,67.18A12,12,0,0,0,83,63.54,23.88,23.88,0,0,1,86,64.4a.41.41,0,0,1,.33.35.72.72,0,0,1-.18.5,4.56,4.56,0,0,0-.66,1.55,26.35,26.35,0,0,1-4.13,8.58.9.9,0,0,1-.62.43.8.8,0,0,1-.57-.17A6.68,6.68,0,0,0,78,74.87,21.18,21.18,0,0,0,82.31,67.18Zm8.5-4.29a.57.57,0,0,1,.32-.18.49.49,0,0,1,.38.15,30,30,0,0,1,7,8,.6.6,0,0,1,.13.32.46.46,0,0,1-.19.41,14.37,14.37,0,0,1-1.82,1.49c-.29.18-.46.15-.6-.15a31.26,31.26,0,0,0-7-8.54C89.85,63.73,90.43,63.21,90.81,62.9Zm7.81-2.57a2.58,2.58,0,0,1-5.13.61,2.52,2.52,0,0,1,2.26-2.84A2.55,2.55,0,0,1,98.61,60.33Zm-4,.47a1.41,1.41,0,1,0,1.23-1.57A1.37,1.37,0,0,0,94.65,60.8Z"/><path class="cls-1" d="M106.39,67.91a19.09,19.09,0,0,0-3.46.7.53.53,0,0,1-.61-.43,26.24,26.24,0,0,1-.7-2.83,30.65,30.65,0,0,0,5.16-.33l7.64-.91c1.8-.21,3.63-.48,5.45-.72.35-.07.43,0,.47.28a17.34,17.34,0,0,1,.27,2.23c0,.29,0,.39-.38.41-1.78.19-3.54.37-5.3.58Z"/><path class="cls-1" d="M135.77,56.37a2.23,2.23,0,0,0,1.15-.43.48.48,0,0,1,.3-.13.69.69,0,0,1,.4.1A11,11,0,0,1,139.38,57a.78.78,0,0,1,.37.51.69.69,0,0,1-.23.53,2.89,2.89,0,0,0-.66,1.12A33,33,0,0,1,135,67a30.37,30.37,0,0,1-6.51,6.77.65.65,0,0,1-.37.16.84.84,0,0,1-.58-.2A6.27,6.27,0,0,0,125.2,73a27.59,27.59,0,0,0,7.19-7A24.37,24.37,0,0,0,136,58.7l-5.73.85a33.31,33.31,0,0,1-3.91,5.4.74.74,0,0,1-.47.32.58.58,0,0,1-.37-.1,6.51,6.51,0,0,0-2.4-.75,28.33,28.33,0,0,0,5.55-7.81,10.18,10.18,0,0,0,1-3.37,11.72,11.72,0,0,1,2.93.93.5.5,0,0,1,.29.38.47.47,0,0,1-.21.43,2.59,2.59,0,0,0-.52.71L131.51,57Z"/><path class="cls-1" d="M156.46,53.37a2.36,2.36,0,0,0,1.26-.51.69.69,0,0,1,.38-.21.83.83,0,0,1,.45.14A7.75,7.75,0,0,1,160.35,54a.58.58,0,0,1,.24.4.61.61,0,0,1-.21.48,3,3,0,0,0-.61,1A37.25,37.25,0,0,1,157,62.08a21.31,21.31,0,0,1,2.85,2.09.47.47,0,0,1,.18.32.46.46,0,0,1-.11.32,14.72,14.72,0,0,1-1.29,1.67.49.49,0,0,1-.27.15.42.42,0,0,1-.28-.11,26.57,26.57,0,0,0-2.58-2,29.12,29.12,0,0,1-6.87,6.84,1.3,1.3,0,0,1-.57.28.72.72,0,0,1-.48-.16,6.76,6.76,0,0,0-2.4-.94,29,29,0,0,0,8-7.47,19.87,19.87,0,0,0-3.68-1.82c.45-.63.88-1.31,1.37-1.87a.46.46,0,0,1,.29-.2.62.62,0,0,1,.25.07,23.88,23.88,0,0,1,3.29,1.54,23,23,0,0,0,2.22-5l-5.87.82a28.83,28.83,0,0,1-4.45,5.95.85.85,0,0,1-.45.27.55.55,0,0,1-.4-.12,10.06,10.06,0,0,0-2.12-.85,26.66,26.66,0,0,0,5.83-8.25,8.8,8.8,0,0,0,.93-3.07,15,15,0,0,1,2.92.83.42.42,0,0,1,.31.35.64.64,0,0,1-.23.51,2,2,0,0,0-.44.56c-.15.35-.26.61-.59,1.27Z"/><path class="cls-1" d="M177.84,51.48c1.12-.13,1.46-.25,1.75-.47a.57.57,0,0,1,.32-.16.77.77,0,0,1,.55.18,11.59,11.59,0,0,1,1.77,1.28.5.5,0,0,1,.21.34.81.81,0,0,1-.18.55,2.6,2.6,0,0,0-.38,1.23,26.56,26.56,0,0,1-2.16,7.34,19.85,19.85,0,0,1-5.43,6.55.68.68,0,0,1-.36.19.87.87,0,0,1-.53-.18,8.12,8.12,0,0,0-2.5-.79A17.38,17.38,0,0,0,177,60.81a19.79,19.79,0,0,0,2-7l-10.33,1.23.24,2c.11.95.28,1.92.41,2.86,0,.38,0,.46-.33.5a16.75,16.75,0,0,1-2.18.26c-.31,0-.39,0-.42-.31-.12-1.21-.19-2-.3-3l-.23-1.92c-.09-.76-.19-1.62-.32-2.3,0-.21.08-.32.29-.35,1.12-.09,2.43-.22,3.62-.36l2.42-.29-.11-.92a12.87,12.87,0,0,0-.61-3.13,27.07,27.07,0,0,1,3,0c.49,0,.66.28.52.69a4.9,4.9,0,0,0-.07,1.86l.14,1.14Z"/><path class="cls-1" d="M187.72,48.79a.45.45,0,0,1,.31-.23.63.63,0,0,1,.32.08,25,25,0,0,1,4.94,2.83c.16.13.24.21.25.31a.52.52,0,0,1-.11.33c-.3.52-1,1.56-1.26,2-.1.13-.17.21-.26.22a.5.5,0,0,1-.33-.15,25.32,25.32,0,0,0-5.3-3.29C186.72,50.13,187.32,49.32,187.72,48.79Zm3.55,12.27a35.58,35.58,0,0,0,6.31-5.23,35.92,35.92,0,0,0,5.74-7.23,10.69,10.69,0,0,0,1,2.7.88.88,0,0,1-.12,1.19,39.16,39.16,0,0,1-4.86,5.68,51.31,51.31,0,0,1-6.62,5.51A8.28,8.28,0,0,0,191.25,65a.66.66,0,0,1-.4.29.62.62,0,0,1-.43-.21,16.53,16.53,0,0,1-2.21-2.41A14.44,14.44,0,0,0,191.27,61.06Z"/><path class="cls-1" d="M211.68,45.36c.43.17.59.29.61.5s0,.24-.27.75a5.61,5.61,0,0,0-.37,1.75,38.72,38.72,0,0,0-.08,7.79,23,23,0,0,0,.47,2.76c.37-1.15.7-2,1.19-3.73a6.25,6.25,0,0,0,1,1.4.94.94,0,0,1,.21.33.67.67,0,0,1-.07.4,23.33,23.33,0,0,0-.93,3.75,2.66,2.66,0,0,0,0,.74c0,.29.1.47.13.66s-.06.27-.27.34a11.91,11.91,0,0,1-1.9.61c-.16,0-.27-.07-.34-.23a22.42,22.42,0,0,1-1.93-6.95,45.69,45.69,0,0,1-.12-7.88,19.4,19.4,0,0,0,0-3.59A10.57,10.57,0,0,1,211.68,45.36Zm4,1.86c0-.29.05-.37.28-.44a38,38,0,0,1,5.1-1c1.42-.17,2.52-.25,3.53-.28.5,0,.55,0,.58.24.08.71.16,1.35.19,2,0,.22-.06.32-.27.32-1.44.07-2.68.17-3.89.32a29.27,29.27,0,0,0-5.33,1.19C215.78,48.22,215.71,47.62,215.71,47.22Zm2.39,8.72c.19,0,.25.07.28.33.34,1.62,1.55,2.08,4.14,1.77a34.18,34.18,0,0,0,4.5-.85c.23-.05.29,0,.37.27a17.82,17.82,0,0,1,.38,2c0,.29,0,.31-.36.4a32,32,0,0,1-3.84.72c-3.51.42-5.22,0-6.41-1.24a5.28,5.28,0,0,1-1.2-3Z"/><path class="cls-1" d="M231.75,50c-.36.62-.77,1.25-1.18,1.85-.16.24-.3.35-.39.36s-.18-.1-.31-.37a7.25,7.25,0,0,0-1-1.95,21.73,21.73,0,0,0,3.59-8.11,7.76,7.76,0,0,0,.18-1.71,15.2,15.2,0,0,1,2.44.43c.27.09.38.15.4.31a.48.48,0,0,1-.19.46c-.15.14-.25.37-.39,1a31.94,31.94,0,0,1-1.16,3.63l1.43,12c.28,2.33.46,3.48.48,3.6s0,.26-.21.29l-2,.24c-.21,0-.24,0-.27-.23s-.11-1.29-.38-3.61Zm8.3,10.28c-2.33.28-3.15.42-3.29.44s-.26,0-.29-.25l-.22-1.83c0-.24,0-.26.23-.29s1-.07,3.3-.34l2.9-.34-.58-4.91L240.5,53c-2.21.26-3,.4-3.1.42s-.29,0-.32-.23l-.21-1.78c0-.24,0-.26.25-.29s.91-.06,3.12-.32l1.59-.19-.49-4.11-2.23.27c-2.3.27-3.08.42-3.22.43s-.26,0-.29-.23l-.21-1.8c0-.26,0-.26.23-.29s.93-.09,3.23-.36l7.43-.88c2.28-.27,3.08-.39,3.23-.41s.29,0,.32.23l.21,1.8c0,.24,0,.26-.25.3s-1,.07-3.23.34l-2.66.32.49,4.11,1.88-.22c2.23-.27,3-.4,3.13-.42s.26,0,.29.23l.21,1.78c0,.24,0,.26-.23.29s-.91.06-3.14.33l-1.87.22.58,4.91,3.35-.4c2.33-.28,3.13-.42,3.27-.44s.26,0,.29.23l.22,1.83c0,.26,0,.29-.23.31s-1,.07-3.28.34Zm-.37-20.71a.35.35,0,0,1,.49-.15,20.61,20.61,0,0,1,4.42,1.91c.13.08.21.12.22.19a.72.72,0,0,1-.14.28l-1,1.39c-.2.31-.3.33-.5.21a19.11,19.11,0,0,0-4.43-2c-.13-.06-.18-.1-.19-.17s0-.15.13-.28Z"/><path class="cls-1" d="M259.9,49a4.75,4.75,0,0,1,2.75-1.56c2.56-.3,3.47,1.83,4,4.08.4,1.71.77,2.46,1.68,2.35a3.06,3.06,0,0,0,2.1-1.41,11.84,11.84,0,0,0,1.94-4.16A5.81,5.81,0,0,0,274,50.08a.65.65,0,0,1,.32.47.86.86,0,0,1,0,.42,12.91,12.91,0,0,1-1.69,3.19,6,6,0,0,1-4.13,2.51c-2.4.29-3.57-.85-4.28-4.16-.5-2.35-1.1-3-1.93-2.88-1,.12-2,1-2.75,2.37a27.8,27.8,0,0,0-2.15,5.6c-.1.35-.22.41-.54.35a7.74,7.74,0,0,1-2-.8.42.42,0,0,1-.25-.28.72.72,0,0,1,.08-.35c2.66-7.2,4.3-12,5.26-15.12a14.39,14.39,0,0,0,.78-3.61,13.78,13.78,0,0,1,2.82,1,.62.62,0,0,1,.39.46.75.75,0,0,1-.21.51,6.09,6.09,0,0,0-.61,1.11c-1.17,3.1-2.16,5.75-3.21,8Z"/><path class="cls-1" d="M284.85,39.66c-2.83.89-5.31,1.69-7.79,2.52-.88.32-1.11.4-1.45.56a1.39,1.39,0,0,1-.5.25.56.56,0,0,1-.49-.3,16.68,16.68,0,0,1-1.18-2.46,32.73,32.73,0,0,0,3.73-.85c2.87-.78,8-2.18,14-3.72.35-.09.49,0,.53.2a13.74,13.74,0,0,1,.51,2.06c0,.29-.1.37-.41.41a10.65,10.65,0,0,0-2.83.87c-3.87,1.86-5.56,4.88-5.22,7.72.36,3.06,2.75,4.46,6.91,4.23.38,0,.53,0,.56.29a8.51,8.51,0,0,1,0,2.07c0,.37-.11.52-.39.55-4.18.5-9-1.36-9.63-6.29-.4-3.37,1-5.85,3.66-8.07Zm5,2c.11-.11.2-.1.36,0a11,11,0,0,1,2.56,2.27.24.24,0,0,1,0,.39l-.91.85a.25.25,0,0,1-.41,0,11.86,11.86,0,0,0-2.73-2.47Zm1.93-1.79c.13-.11.2-.1.36,0a10,10,0,0,1,2.55,2.18.28.28,0,0,1,0,.44l-.86.85a.25.25,0,0,1-.41,0,11.34,11.34,0,0,0-2.7-2.45Z"/><path class="cls-1" d="M312.2,38.77a7.48,7.48,0,0,0-.22-1.61,10.28,10.28,0,0,1,2.88.69.45.45,0,0,1,.24.62,4,4,0,0,0-.27,1c-.07,1-.18,2.09-.3,3.14a27.63,27.63,0,0,1,4,1.84c.25.11.25.24.2.48a20.78,20.78,0,0,1-.78,2.16c-.06.13-.12.18-.19.19a.47.47,0,0,1-.3-.13,19.32,19.32,0,0,0-3.38-1.86A14.68,14.68,0,0,1,310,52.08c-.19.19-.3.3-.44.32a.66.66,0,0,1-.38-.12,5,5,0,0,0-2.18-.73,13.2,13.2,0,0,0,4.55-7.07,16.15,16.15,0,0,0-4.87-.89c-.95,2.76-1.49,4-2.33,5.09a3.93,3.93,0,0,1-2.88,1.67c-1.38.16-2.94-.61-3.21-2.92-.35-2.94,2.41-5.61,6.38-6.08.55-2.06.95-3.8,1.3-5.86l-3.23.77a5.06,5.06,0,0,0-1,.39,1.24,1.24,0,0,1-.42.15.39.39,0,0,1-.41-.21,14.59,14.59,0,0,1-1-2.51A8.92,8.92,0,0,0,302,34a26.64,26.64,0,0,0,3.64-.75,2.74,2.74,0,0,0,1.12-.54.53.53,0,0,1,.3-.13.56.56,0,0,1,.34.05,7.94,7.94,0,0,1,1.77,1.12.57.57,0,0,1,.26.38.61.61,0,0,1-.19.43,3.25,3.25,0,0,0-.49,1.31c-.43,1.69-.87,3.62-1.38,5.41a19.82,19.82,0,0,1,4.75.64A23.82,23.82,0,0,0,312.2,38.77Zm-11.75,8.12c.09.76.39,1.06,1,1s.87-.42,1.27-1.07a16.31,16.31,0,0,0,1.39-3.1C301.66,44.09,300.29,45.53,300.45,46.88Z"/><path class="cls-1" d="M335.21,33.35a.2.2,0,0,1,.3.11,17.12,17.12,0,0,1,.81,1.95c.08.26,0,.31-.15.38a35.68,35.68,0,0,1-5.88,1.78c.28,1.92.55,3.21,1.06,5.44a28.14,28.14,0,0,1,7.25,2.24c.18.08.21.19.14.39a10.78,10.78,0,0,1-1,2.14c-.13.16-.19.24-.4.12a22.37,22.37,0,0,0-5.63-2.36,4.72,4.72,0,0,1,0,.55c.15,2.05-1.19,3.75-4.37,4.13-2.92.35-5.21-.7-5.47-2.89s1.82-3.9,4.77-4.25a16.43,16.43,0,0,1,2-.17c-.66-3.08-1-5.32-1.31-7.57-.12-.85-.29-2.06-.46-3.27a7,7,0,0,0-.59-2.12,21.89,21.89,0,0,1,3.09.07c.27,0,.41.17.43.36a.71.71,0,0,1-.08.37,3,3,0,0,0-.13,1.32c0,.72.16,1.76.31,3A23.29,23.29,0,0,0,335.21,33.35ZM329,45.22a11.11,11.11,0,0,0-2.21,0c-1.66.2-2.67.87-2.56,1.73s1.09,1.1,2.59.92c1.78-.21,2.44-1.35,2.25-2.34Z"/><path class="cls-1" d="M343.94,34.39a17.16,17.16,0,0,1,5.3-1.83c3.18-.38,5.27,1.56,5.68,5.05a9.38,9.38,0,0,1-1.25,5.9,13.52,13.52,0,0,1-4.13,4.32,1.09,1.09,0,0,1-.39.17.78.78,0,0,1-.61-.24,5.92,5.92,0,0,0-2.12-1,13,13,0,0,0,4.75-4.59,7,7,0,0,0,.81-4.36c-.23-2-1.19-2.89-2.56-2.73a8,8,0,0,0-3.61,1.46,11.44,11.44,0,0,0-1.88,1.38.87.87,0,0,1-.49.3c-.31,0-.56-.25-.73-.44a16.62,16.62,0,0,1-1.51-2.35A12.4,12.4,0,0,0,343.94,34.39Zm8-6.49a.34.34,0,0,1,.36.39,19.08,19.08,0,0,1-.27,2.15c0,.25-.1.37-.29.37a31.52,31.52,0,0,1-7.1-1c-.12,0-.26-.14-.22-.46a11.27,11.27,0,0,1,.45-2.32A30,30,0,0,0,352,27.89Z"/><path class="cls-1" d="M365.34,39.79l-2.4.29L360.6,26l3.7-.44Zm.73,2.25.38,3.21-3.37.4-.38-3.21Z"/><path class="cls-2" d="M79.26,30.72c-.16-.23-.11-.36.16-.43,1.59-.42,3.48-1.91,5-2.26a2.41,2.41,0,0,1,3,1.4,4.32,4.32,0,0,1-.15,4,9.6,9.6,0,0,1-3.13,3.37,2.8,2.8,0,0,1,1.28.78,2.72,2.72,0,0,1,0,3.26,8,8,0,0,1-3.67,2.84,3,3,0,0,1-2,.22A3.3,3.3,0,0,1,78.49,43c-.43-.45-.73-.78-.45-2.35A43.58,43.58,0,0,1,81,31.38,1.76,1.76,0,0,1,79.26,30.72Zm2.59,7.17a2.63,2.63,0,0,1-1.46.09,21.76,21.76,0,0,0-.93,3.85c-.11.85.19,1.08.91.87a7.72,7.72,0,0,0,4.05-3.12c.67-1.21.49-2.25-1.63-2C82.48,37.68,82.16,37.79,81.84,37.89Zm4.82-8.1c-.67-1.12-2.77.33-4.28,1.12a4.23,4.23,0,0,1-.3,2.38c-.32.93-.8,2.14-1.27,3.43C85.2,34.86,87.51,31.26,86.66,29.78Z"/><path class="cls-2" d="M92.34,27.75c-.09-.2,0-.3.2-.33,1.93-.26,4.33-1.42,5.61-1.7a1.62,1.62,0,0,1,2,.78c.11.17.09.34-.19.35a26.46,26.46,0,0,0-4.55,1.54C94.73,30,94,32.18,93.27,34.45a13.22,13.22,0,0,1,1.6-.5c1.14-.27,1.72,0,2.09.66.11.19.14.33-.16.39a20.16,20.16,0,0,0-4.13,1.48c-.41,1.42-.79,2.81-1.06,4A17.15,17.15,0,0,1,95,39c1.12-.27,1.77,0,2.15.63.11.19.11.34-.16.39A25,25,0,0,0,92.13,42c-.41.2-.67.25-1,0a5,5,0,0,1-.65-.76,1.41,1.41,0,0,1-.23-1.32,63.11,63.11,0,0,1,3.3-11.14A1.67,1.67,0,0,1,92.34,27.75Z"/><path class="cls-2" d="M103.47,35.87a37.2,37.2,0,0,0-1,3.68.23.23,0,0,1-.4.13c-.35-.31-.59-1-.39-2.36a12.73,12.73,0,0,1,.33-1.44,1.66,1.66,0,0,1-.93-.61c-.18-.27-.15-.37.2-.4s.68-.05,1.05-.11c1.11-3.5,3.3-8.73,5.3-11.25.3-.38.53-.43.83-.16a3.15,3.15,0,0,1,.73.82,2.28,2.28,0,0,1,.36,1.67,48.94,48.94,0,0,0-.22,7,1.46,1.46,0,0,1,1.29.94c.09.2,0,.29-.21.26a5.54,5.54,0,0,0-1,.08c.1,1.23.24,2.52.46,3.74,0,.23-.07.33-.3.28-.5-.11-1-.6-1.3-1.9-.1-.46-.21-1.06-.29-1.76C106.34,35,104.55,35.66,103.47,35.87Zm4.36-2.8a36.32,36.32,0,0,1,.16-7.42A63.17,63.17,0,0,0,104,34.31C105.41,33.89,106.75,33.33,107.82,33.07Z"/><path class="cls-2" d="M113.23,33.07c0-2.73,1.63-7.62,3-11.25.12-.32.34-.32.55-.1.5.49.79,1.36.3,3.27-.62,2.43-2.14,6.37-2.15,8.92,0,1.23.26,2.08,1,2.18,1.52.23,2.88-2.21,3.77-5.66.69-2.73,2.14-7.83,2.93-10.11.11-.34.33-.32.55-.1a3.54,3.54,0,0,1,.36,2.9,82.61,82.61,0,0,1-3.05,10.33c-1.11,2.61-3,3.65-4.73,3.38C114.51,36.63,113.19,35.73,113.23,33.07Z"/><path class="cls-2" d="M128.63,21.06c-1.36.37-2.46.1-2.91-.69-.12-.19-.05-.32.18-.36,2.07-.32,5.66-2.05,7-2.32a2.16,2.16,0,0,1,2.44.65c.11.17.11.36-.19.41a16.07,16.07,0,0,0-3.8,1.26,4.85,4.85,0,0,1-.18,2.6,101.69,101.69,0,0,0-2.76,11.05c0,.25-.15.28-.35.16a2.11,2.11,0,0,1-.79-2A52.68,52.68,0,0,1,130,20.58,12.29,12.29,0,0,1,128.63,21.06Z"/><path class="cls-2" d="M141.38,15.72c.47.59.71,1.69.14,3.65-.83,2.82-2.3,7.81-3.08,11.95,0,.25-.12.29-.35.13-.4-.27-.86-1-.69-2.51a70.51,70.51,0,0,1,3.43-13.12C141,15.48,141.18,15.48,141.38,15.72Z"/><path class="cls-2" d="M145.36,15.71c-.09-.17,0-.28.19-.33,1.92-.35,4.18-1.57,5.46-1.87a1.91,1.91,0,0,1,2.14.73c.11.17.1.34-.19.41a28.6,28.6,0,0,0-4.55,1.73c-.5,1.49-1.14,3.58-1.78,5.9a11.63,11.63,0,0,1,1.49-.54,1.68,1.68,0,0,1,2.17.65c.12.19.1.34-.17.4a19.65,19.65,0,0,0-4.05,1.62c-.47,1.89-.92,3.8-1.23,5.48,0,.25-.17.28-.37.18-.52-.26-.92-.94-.77-2.47a69,69,0,0,1,2.83-10.93A1.71,1.71,0,0,1,145.36,15.71Z"/><path class="cls-2" d="M154.28,23.48c.06-2.73,1.68-7.61,3-11.23.12-.32.34-.32.55-.1.49.49.79,1.36.28,3.28-.63,2.42-2.18,6.35-2.2,8.91,0,1.23.25,2.08,1,2.18,1.52.24,2.9-2.19,3.8-5.64.71-2.73,2.18-7.82,3-10.09.12-.34.34-.32.55-.1a3.54,3.54,0,0,1,.34,2.9,82.57,82.57,0,0,1-3.11,10.31c-1.12,2.61-3,3.64-4.75,3.35C155.54,27,154.23,26.13,154.28,23.48Z"/><path class="cls-2" d="M171.89,21.6a1.77,1.77,0,0,1,2.24.6c.11.17.14.33-.16.39a26.68,26.68,0,0,0-4.81,2c-.52.25-.75.3-1.08,0a6.89,6.89,0,0,1-.81-.86,1.65,1.65,0,0,1-.22-1.34,88.39,88.39,0,0,1,3.77-13.08c.15-.32.36-.34.56-.07.4.51.7,1.46.12,3.35-.73,2.43-2.06,6.41-3,10.44A22.15,22.15,0,0,1,171.89,21.6Z"/><path class="cls-2" d="M189.59,18a1.78,1.78,0,0,1,2.22.65c.1.17.14.33-.16.39a26.71,26.71,0,0,0-4.85,1.86c-.53.24-.76.29-1.08,0a7,7,0,0,1-.79-.87,1.65,1.65,0,0,1-.19-1.35,88.29,88.29,0,0,1,4-13c.15-.32.37-.33.56-.06.39.52.66,1.47,0,3.36-.78,2.42-2.19,6.37-3.19,10.38A22.28,22.28,0,0,1,189.59,18Z"/><path class="cls-2" d="M199.79,3.5c.44.61.62,1.72-.06,3.65-1,2.77-2.72,7.68-3.73,11.76-.05.25-.14.29-.36.11-.38-.29-.81-1-.55-2.54a70.53,70.53,0,0,1,4.14-12.91C199.38,3.24,199.6,3.25,199.79,3.5Z"/><path class="cls-2" d="M203.87,3.73c-.08-.18,0-.28.21-.32,1.93-.22,4.27-1.3,5.57-1.51a1.9,1.9,0,0,1,2.09.86c.1.17.08.34-.22.39a28.7,28.7,0,0,0-4.65,1.44c-.59,1.45-1.37,3.5-2.16,5.77a11.72,11.72,0,0,1,1.52-.44,1.68,1.68,0,0,1,2.13.79c.1.2.08.34-.2.39A19.76,19.76,0,0,0,204,12.45c-.59,1.86-1.16,3.73-1.58,5.39-.05.25-.19.27-.38.16-.5-.3-.85-1-.61-2.51A69.08,69.08,0,0,1,205,4.76,1.71,1.71,0,0,1,203.87,3.73Z"/><path class="cls-2" d="M214.79,2c-.08-.2,0-.3.21-.32,1.94-.17,4.39-1.22,5.69-1.44a1.62,1.62,0,0,1,1.93.88c.1.18.07.34-.21.34a26.5,26.5,0,0,0-4.61,1.32c-.72,1.53-1.56,3.72-2.39,5.95A13.41,13.41,0,0,1,217,8.33c1.15-.22,1.72.08,2.06.76.1.2.12.34-.18.38a20.29,20.29,0,0,0-4.19,1.29c-.48,1.4-.92,2.77-1.24,3.93A17.14,17.14,0,0,1,217,13.44c1.13-.22,1.76.07,2.12.73.1.2.1.34-.18.38a25.11,25.11,0,0,0-5,1.69c-.42.18-.68.22-1-.09a5,5,0,0,1-.61-.79,1.41,1.41,0,0,1-.17-1.33,63.14,63.14,0,0,1,3.82-11A1.66,1.66,0,0,1,214.79,2Z"/><circle class="cls-2" cx="31.49" cy="55.71" r="31.06"/><path class="cls-3" d="M16.61,53.18c.14,0,.17.06.15.18a9.57,9.57,0,0,1-.37,2.42c0,.11-.06.1-.18,0l-.53-.22c-.14-.05-.16-.11-.12-.22a9.15,9.15,0,0,0,.35-2.24c0-.11,0-.1.18-.08Zm.36-.76a10.15,10.15,0,0,0-.09-1.67c.42,0,.77,0,1.14.08.11,0,.18,0,.18.11a.54.54,0,0,1-.05.22,4.36,4.36,0,0,0-.08,1.22V58.8c0,1.25,0,1.88,0,1.93s0,.13-.12.13h-.89c-.11,0-.12,0-.12-.13s0-.68,0-1.92Zm3.59,1.72H19.28l.07.26c0,.12,0,.14-.12.2l-.46.17c-.14.06-.18.06-.2-.07a7.57,7.57,0,0,0-.4-1.44c0-.12,0-.14.11-.19l.43-.13c.12,0,.15,0,.2.07l.09.25H19c.06,0,.42,0,1.39,0a6.9,6.9,0,0,0-.41-.87l-.86,0c-.11,0-.12,0-.12-.12v-.61c0-.12,0-.13.12-.13s.43,0,1.47,0h.85v-.13a2.68,2.68,0,0,0-.08-.76c.42,0,.77,0,1.14.05.11,0,.18.06.18.1a.28.28,0,0,1-.05.18.73.73,0,0,0-.07.4v.17h1.08c1,0,1.4,0,1.47,0s.12,0,.12.13v.61c0,.11,0,.12-.12.12l-1,0a.4.4,0,0,0-.12.17,7.78,7.78,0,0,1-.34.71h.39c1.08,0,1.44,0,1.5,0s.13,0,.13.13v.65c0,.1,0,.11-.13.11s-.41,0-1.5,0Zm-.39,6.43c-1.07,0-1.44,0-1.51,0s-.12,0-.12-.12v-.65c0-.11,0-.12.12-.12s.44,0,1.51,0h1.38v-.53h-.84c-1,0-1.39,0-1.46,0s-.12,0-.12-.12v-.6c0-.12,0-.13.12-.13s.42,0,1.46,0h.84v-.51h-.68c-1,0-1.35,0-1.42,0s-.12,0-.12-.12,0-.32,0-.9v-1.2c0-.6,0-.84,0-.92s0-.12.12-.12.43,0,1.42,0h2.46c1,0,1.33,0,1.41,0s.12,0,.12.12,0,.32,0,.92v1.2c0,.58,0,.84,0,.9s0,.12-.12.12-.42,0-1.41,0h-.78v.51h1c1,0,1.39,0,1.46,0s.12,0,.12.13v.6c0,.11,0,.12-.12.12s-.42,0-1.46,0h-1v.53h1.58c1.08,0,1.45,0,1.51,0s.12,0,.12.12v.65c0,.11,0,.12-.12.12s-.43,0-1.51,0Zm1.38-4.64v-.55H20.3v.55Zm0,1.26v-.57H20.3v.57Zm-.47-4.77a5.47,5.47,0,0,1,.36.87H22.7a8.34,8.34,0,0,0,.36-.87Zm1.47,3v.55h1.32v-.55Zm1.32,1.24H22.54v.57h1.32Z"/><path class="cls-3" d="M30.06,52.13A4.06,4.06,0,0,0,30,51.06a6.2,6.2,0,0,1,1.26.21c.18,0,.23.11.23.22a.45.45,0,0,1-.08.21,1.34,1.34,0,0,0-.1.54c0,.36,0,.6-.05,1.1a3.54,3.54,0,0,1,.42.24.19.19,0,0,1,.1.15.24.24,0,0,1-.06.12c-.21.34-.4.68-.57,1V55c.35-.4.6-.65,1-1.07a3,3,0,0,1,2-1.08,1.29,1.29,0,0,1,1.32,1.47c0,.32,0,1-.09,2s-.11,1.51-.11,1.85c0,.55.13.63.41.63a1.44,1.44,0,0,0,.82-.4,2.88,2.88,0,0,0,.66-.93,2.73,2.73,0,0,0,.41.83.42.42,0,0,1,.12.25.32.32,0,0,1-.08.19A2.66,2.66,0,0,1,35.47,60c-.95,0-1.41-.54-1.41-1.69,0-.3,0-.92.09-1.85s.08-1.33.08-1.81-.12-.73-.34-.73-.7.23-1.24.72-1,1-1.54,1.62c0,1.39,0,3,0,4.18a.13.13,0,0,1-.15.15,8.16,8.16,0,0,1-.86,0c-.11,0-.15-.06-.15-.19,0-1,0-2.16,0-3.15l-1.28,2c0,.08-.08.11-.12.11a.31.31,0,0,1-.13-.06,3.5,3.5,0,0,1-.68-.62.17.17,0,0,1-.07-.12.28.28,0,0,1,.1-.19c.92-1.17,1.49-2,2.16-2.9,0-.28,0-.49,0-.75a10.35,10.35,0,0,0-1.32.44c-.1,0-.21.15-.32.15a.27.27,0,0,1-.22-.18,5.9,5.9,0,0,1-.43-1,5,5,0,0,0,.81-.1c.38-.09,1-.24,1.56-.42Z"/><path class="cls-3" d="M45,53.21A13.79,13.79,0,0,1,43.66,58a2.09,2.09,0,0,1-1.87,1.27c-1,0-2-1-2-2.83a4.06,4.06,0,0,1,1.25-2.87,4.83,4.83,0,0,1,3.58-1.41c2.65,0,4.2,1.63,4.2,3.83s-1.16,3.34-3.4,4c-.23.07-.33,0-.47-.2a2.32,2.32,0,0,0-.77-.69c1.87-.44,3.33-1.21,3.33-3.3a2.51,2.51,0,0,0-2.47-2.56Zm-3.17,1.07a3.18,3.18,0,0,0-.86,2c0,1,.41,1.58.75,1.58s.53-.14.83-.67a12.61,12.61,0,0,0,1.17-3.95A3.32,3.32,0,0,0,41.87,54.28Z"/></svg>