<svg id="レイヤー_1" data-name="レイヤー 1" xmlns="http://www.w3.org/2000/svg" viewBox="0 0 232 92" width="232" height="92"><defs><style>.cls-1{fill:#ef7d32;}.cls-2{fill:#fff;}.cls-3{fill:none;stroke:#ef7d32;stroke-miterlimit:10;stroke-width:4.07px;fill-rule:evenodd;}</style></defs><title>link_garden</title><path class="cls-1" d="M2,35.78a16.53,16.53,0,0,1,2.09-3.87c1.28-1.25,1-3.68,2-4.68a7.9,7.9,0,0,0,1.55-3.37c.81-2.36-.69-3.8-1.29-5.72A14.81,14.81,0,0,1,6,15.42c.06-1.34-.59-2.19-1-3.56L1.8.37A12,12,0,0,1,5.54,2.25,7.4,7.4,0,0,0,8,2.43l2.37,1.24a4.57,4.57,0,0,0,1.9.14c.85.33,1.51,1.18,2.37,1.24,1.56.11,3.39,1.85,5,1.17.9-.74,1,.61,1.71.66.85.33,1.73.13,2.41.44l2.6.19c.87.06,1.53.65,2.4.71L38.2,9.72a8.26,8.26,0,0,1-2.67,1.42,7.12,7.12,0,0,0-3.71,1.34c-1.25.71-2.45.36-3.71,1.34-.9.74-3.49.28-3.07,2.46.37,3.24-.82,6.38-.45,9.62.47,1.11.19,3.23.13,4.57,0,.8-.26,1.86-.31,2.93,0,.8-.43,1.85-.47,2.65s.28,1.36.24,2.16-.26,1.86-.3,2.66c-.26,1.86,0,4.29-.29,6.15,0,.8-6.57-.75-7.43-.81-.69-.05-1.17-.89-1.87-.94s-1.2-.36-1.89-.41c-1.52-.91-2.76-.47-4.28-1.38-2.55-1.26-5.3-1.73-7.86-2.72C.51,38.89,1.44,37.62,2,35.78ZM25.24,45c.06-1.34,1-2.61.56-4.52-.46-1.37.29-2.39.18-3.74-.08-1.88-.38-3,.2-4.28s-.18-3.5-.12-4.84c.05-1.07,1-3.14.56-4.52a12.7,12.7,0,0,1-.11-5.1c.52,0,.84.6,1.36.63.68.32,1.24-.45,1.92-.13,1.17.89,2.62-.35,3.78.81.48.84,2.91,1,3.61.8,1.43-.7,2.95.21,4.32.58l7.62.55c.52,0,1.19.62,1.74-.14.9-.74,1.19.62,1.88.67,1.39.1,3-.86,4.37-.49a11.87,11.87,0,0,0,7.46.27c1.4-.17,2.56,1,3.81.28.9-.74,1.2.36,1.89.41.87.06,1.77-.68,2.46-.63,2.61-.08,4.85.35,7.46.27l8.19-.48c2.61-.08,4.91-1,7.51-.8.7-.22,1.2.36,1.89.41s1.08-.73,1.77-.68c1.55.38,3-.05,4.52.06a34.41,34.41,0,0,1,7.33-.81l3.84-.26c1.39.1,3-1.39,4.37-.49,2.56,1,4.9-.72,7.49-.53a18.28,18.28,0,0,0,3.82,0l1.77-.68c.87.06,1.74-.14,2.44-.09,2.64-.61,5-.17,7.65-.25.53-.23,1.2.36,1.73.13a4.49,4.49,0,0,0,1.94-.66c1.39.1,2.92.75,4.34,0,1.25-.71,2.56,1,3.82,0,1.25-.71,2.4.71,3.66-.27,1.25-.71,2.59.19,3.82,0a23.55,23.55,0,0,0,4.34,0c2.6.19,4.89-.45,7.49-.26,1.21.09,2.59.46,3.8.54,1.38.1,3-.59,4.33.31,1.17.89,2.61-.08,3.81.28a16.68,16.68,0,0,0,3.65,0c2.78-.07,5.34.92,8.1,1.39a17.29,17.29,0,0,1,3.61.8l1.91.14c.68.32,1.41-.43,1.92-.13,1.91.14,1.2.36,1.1,2.49-.09,1.87-.67,3.17-.24,5.08.48.84-.32,3.19-.39,4.53s.74,2.73.13,4.57c-1,3.14.19,7-.65,10.14a6.92,6.92,0,0,0,0,3.75c.47,1.11-.64,2.64-.19,4,.85,4.08-4.61,2.08-5.8,1.46-1.17-.89-2.59-.46-3.81-.28s-2.36-1.51-3.61-.8c-.9.74-1.2-.36-1.89-.41-.86-.06-1.09,1-1.92.13-1.33-1.17-3,.05-4.34,0-.87-.06-1-1.41-1.88-.67a3.58,3.58,0,0,1-1.92.13c-.69-.05-1-1.14-1.72-.39s-1.22.18-1.92.13c-1.21-.09-2.59-.46-3.8-.54-.69-.05-1.09,1-1.92.13-.65-.85-1.56-.11-2.42-.18-2.56-1-4.94,1.52-7.48.26a9.18,9.18,0,0,0-3.81-.28c-1.43.7-3,.05-4.36.22l-7.48.26-3.69.8c-.86-.06-1.17-.89-1.9-.14s-1.74.14-2.44.09c-2.56-1-4.94,1.52-7.5.53-1.17-.89-2.62.35-3.85.53a23.55,23.55,0,0,0-4.34,0l-7.5.53-3.84.26c-1.4.17-2.85,1.4-4.37.49-.83-.86-2.46.63-3.69.8s-2.59-.46-3.81-.28c-2.63.61-5.4.41-8,.49s-4.9.72-7.51.8c-.7.22-1.19-.62-1.89-.41a4.5,4.5,0,0,1-1.94.66c-.52,0-1.19-.62-1.72-.39-.86-.06-1.74.14-2.61.08-1.2-.35-2.49,1.16-3.66.27s-2.6-.19-3.81-.28a17.47,17.47,0,0,1-3.82,0,21.8,21.8,0,0,1-4.37.49c-1.21-.09-2.4-.71-3.61-.8a18.59,18.59,0,0,0-3.83.26c-1.21-.09-2.4-.71-3.61-.8a3.57,3.57,0,0,0-1.92.13c-1.25.71-1.35-.9-2.6-.19-.73.75-1-.08-1.73-.13l-6.93-.5a50.29,50.29,0,0,1-9.11-2C24.58,51.63,25.09,48.18,25.24,45ZM227.3,26.65a7.56,7.56,0,0,0-1,2.88c-.05,1.07-.58,1.3-1.14,2.06a9.85,9.85,0,0,0-1.25,4.47c.43,1.91,1.26,2.77,1.69,4.68.47,1.11-.1,2.14.38,3a5.6,5.6,0,0,1,.93,2.48,6.84,6.84,0,0,1,.89,3.28,3.57,3.57,0,0,0,.59,2.19c.66.85.42,2.18.9,3a5.52,5.52,0,0,1,.74,2.73A117.9,117.9,0,0,0,213.95,52c-.69-.05-1.2-.36-1.91-.14-.9.74-1-.61-1.87-.94a19.91,19.91,0,0,1-4-.29c-.46-1.37.47-2.65.54-4,.1-2.14.56-4.52.13-6.43a49.67,49.67,0,0,1,.24-5.08c.06-1.34-.17-3.77.41-5.06.61-1.83-.22-2.7-.13-4.57s.52-3.72.61-5.59c.11-2.4-.9-3-2.07-3.9s-2.52-1.79-3.87-2.69a59.13,59.13,0,0,1-7-5.34c12.43,1.71,24.47,4.19,36.75,9.1C231,21,228.66,23.53,227.3,26.65Z"/><circle class="cls-2" cx="111" cy="76.87" r="14.76"/><polyline class="cls-3" points="107.74 85.56 115.85 77.44 107.74 69.33"/><path class="cls-2" d="M76.63,36c-.87.07-1.76.14-2.93.14-.3,0-.38-.1-.42-.37s-.12-.91-.19-1.51a8.94,8.94,0,0,0,1.36.09c.73,0,1.48-.07,2.21-.14,0-.57,0-1.24,0-2a6.43,6.43,0,0,0-.12-1.41,9.89,9.89,0,0,1,2.07.31c.21.05.35.17.35.33a.61.61,0,0,1-.1.28,2.14,2.14,0,0,0-.24.68c-.05.45-.07.89-.09,1.45a17.21,17.21,0,0,0,2.23-.64c.16-.05.28,0,.3.16a8.73,8.73,0,0,1,.1,1.36c0,.17-.05.23-.23.28a17.67,17.67,0,0,1-2.49.66c0,.83,0,1.69,0,2.52a11,11,0,0,1,4.28-1,3.45,3.45,0,0,1,3.71,3.48c0,2.23-1.43,3.53-3.78,3.53A6.69,6.69,0,0,1,81.21,44a.47.47,0,0,1-.38-.52A3,3,0,0,0,80.3,42a6.5,6.5,0,0,0,2.18.31,1.73,1.73,0,0,0,1.88-1.79c0-1.13-.7-1.76-1.92-1.76a8.62,8.62,0,0,0-4,1.18c0,.73,0,1.32.07,2.09s.14,1.86.14,2.26c0,.24,0,.5-.26.57a7.1,7.1,0,0,1-1.29.21c-.19,0-.26-.12-.42-.35a10.72,10.72,0,0,0-2.47-2.23,3.19,3.19,0,0,0-.56.38.43.43,0,0,1-.3.12.49.49,0,0,1-.38-.28c-.19-.31-.54-1-.8-1.62a6.43,6.43,0,0,0,1.6-.61l2.84-1.62Zm-1.62,6a17.74,17.74,0,0,0,1.64.78c.14,0,.19,0,.17-.14,0-.45-.07-1.25-.1-1.83C76.23,41.09,75.64,41.49,75,41.94Zm8.32-9.14c.12-.19.17-.24.3-.21a8.27,8.27,0,0,1,3.69,2.12c.07.07.1.12.1.17a.46.46,0,0,1-.07.17c-.23.35-.68.89-.94,1.24-.05.07-.3.09-.35,0a8,8,0,0,0-3.53-2.14A10.77,10.77,0,0,1,83.33,32.8Z"/><path class="cls-2" d="M93.46,35.45a48.73,48.73,0,0,1-.28,5.8A11.94,11.94,0,0,1,92,45.36c-.1.23-.17.33-.24.33s-.17-.09-.35-.28a5.36,5.36,0,0,0-1.15-1,9.49,9.49,0,0,0,1.2-3.92,47.1,47.1,0,0,0,.24-5.34c0-2.44,0-3.5,0-3.6s0-.19.19-.19.68,0,2.32,0h3.66v-.23a6.6,6.6,0,0,0-.1-1.37c.66,0,1.25.05,1.85.1.17,0,.28.09.28.17a.58.58,0,0,1-.1.33,1.55,1.55,0,0,0-.12.73v.26h4c1.64,0,2.19,0,2.3,0s.19,0,.19.19v1.24c0,.17,0,.19-.19.19s-.66,0-2.3,0H93.46Zm2.84,8.27a8.8,8.8,0,0,1-2.07,1.76,1.09,1.09,0,0,1-.38.17c-.12,0-.19-.12-.37-.38a3.55,3.55,0,0,0-.78-.89,8.19,8.19,0,0,0,2.47-1.81A13.36,13.36,0,0,1,94,40.81c-.12-.23-.12-.26.12-.43l.73-.5a.48.48,0,0,1,.23-.1c.07,0,.12.05.17.16a9.64,9.64,0,0,0,.85,1.32A7.84,7.84,0,0,0,96.82,39H95.71a3.08,3.08,0,0,0-.19.31c-.09.14-.16.16-.35.1l-1-.31C94,39,94,39,94,38.91a.41.41,0,0,1,.1-.19,24.12,24.12,0,0,0,2-3.29h-.77c-.64,0-.91,0-1,0s-.19,0-.19-.19V34.11c0-.17,0-.19.19-.19s.35,0,1.27,0h1.06A.89.89,0,0,0,97,33.9a.41.41,0,0,1,.21-.05c.12,0,.23.05.57.4s.45.47.45.61a.33.33,0,0,1-.16.28,1.17,1.17,0,0,0-.37.45c-.35.64-.75,1.34-1.18,2.07h.7a.72.72,0,0,0,.31-.05.31.31,0,0,1,.21-.07c.1,0,.23,0,.59.4s.37.47.37.57-.1.19-.21.3a1.27,1.27,0,0,0-.23.61,10.86,10.86,0,0,1-1,3c1,.83,2.3,1.31,4.79,1.31a43.32,43.32,0,0,0,4.54-.21,3.47,3.47,0,0,0-.4,1.22c-.1.57-.1.57-.64.59-1.36.07-2.32.07-3.24.07-3.08,0-4.68-.64-5.85-1.58Zm7.59-6.32c1.39,0,1.86,0,2,0s.19,0,.19.21v1.1c0,.17,0,.19-.19.19s-.57,0-2,0h-.8v2h.44c1.32,0,1.74,0,1.85,0s.19,0,.19.19v1.1c0,.17,0,.19-.19.19s-.52,0-1.85,0h-2.37c-1.31,0-1.74,0-1.85,0s-.17,0-.17-.19V41c0-.17,0-.19.17-.19s.54,0,1.85,0h.31v-2h-.42c-1.39,0-1.85,0-2,0s-.19,0-.19-.19v-1.1c0-.19,0-.21.19-.21s.56,0,2,0h.42V35.69c-.47.09-1,.16-1.51.23s-.5.05-.7-.5a3.4,3.4,0,0,0-.44-.82,17.85,17.85,0,0,0,4.65-.84,5.86,5.86,0,0,0,.94-.42,7.38,7.38,0,0,1,1,1,.4.4,0,0,1,.12.28c0,.12-.09.16-.28.17a2.85,2.85,0,0,0-.59.14,13.08,13.08,0,0,1-1.55.45v2Z"/><path class="cls-2" d="M112.58,34.87a22.59,22.59,0,0,1,6.27-1.45C122,33.43,124,35.31,124,38a5.05,5.05,0,0,1-3.06,4.84,14.82,14.82,0,0,1-4.42,1.45c-.35.07-.49.05-.61-.28a3.23,3.23,0,0,0-1.22-1.37,16.36,16.36,0,0,0,4.72-1.29,3.8,3.8,0,0,0,2.4-3.46c0-1.64-1.06-2.65-3-2.65a17,17,0,0,0-6.29,1.79,11.3,11.3,0,0,0-1.2.63c-.24.21-.38.26-.47.26s-.31-.1-.5-.37a10.1,10.1,0,0,1-1.11-1.81A15.46,15.46,0,0,0,112.58,34.87ZM122,31.18c.09-.07.16-.05.26,0a8,8,0,0,1,1.65,1.86.18.18,0,0,1-.05.28l-.73.54a.18.18,0,0,1-.3-.05,8.64,8.64,0,0,0-1.76-2Zm1.55-1.13c.1-.07.16-.05.26,0a7.27,7.27,0,0,1,1.65,1.79.2.2,0,0,1-.05.31l-.7.54a.18.18,0,0,1-.3-.05,8.25,8.25,0,0,0-1.74-2Z"/><path class="cls-2" d="M137.45,31.58a.42.42,0,0,1,.14.28.35.35,0,0,1-.24.33,3.31,3.31,0,0,0-.84.61c-1.5,1.34-3.41,3.13-4.75,4.53-.16.19-.23.3-.23.38s.07.19.23.31a48.33,48.33,0,0,1,6.48,5.48.42.42,0,0,1,.12.23c0,.07,0,.12-.12.21-.4.44-.91.94-1.2,1.2-.1.09-.17.14-.24.14s-.12-.05-.21-.16a43.9,43.9,0,0,0-6.34-5.88c-.66-.5-.92-.89-.92-1.46s.31-1,.85-1.53c1.48-1.6,2.92-3,4.42-4.68a5,5,0,0,0,.94-1.31A13.79,13.79,0,0,1,137.45,31.58Z"/><path class="cls-2" d="M146.05,31c.23.09.33.19.33.35a.4.4,0,0,1-.12.28,2,2,0,0,0-.31.82c-.24,1.18-.38,2.42-.49,3.33a17.66,17.66,0,0,0-.05,1.92c.38-.68.75-1.34,1.22-2.23a3.61,3.61,0,0,0,.54,1.13.4.4,0,0,1,.1.28.82.82,0,0,1-.17.44,14.29,14.29,0,0,0-1,2.23,2.18,2.18,0,0,0-.09.52.24.24,0,0,1-.23.28c-.21.05-1,.16-1.39.21-.12,0-.21-.1-.24-.23a11.13,11.13,0,0,1-.52-3.53,36.76,36.76,0,0,1,.42-4.33,16.17,16.17,0,0,0,.14-2A9.15,9.15,0,0,1,146.05,31Zm5.66-.3c.35.09.38.17.35.47a6.2,6.2,0,0,0,0,.8c.12,1.65.24,3.24.24,4.49a11.44,11.44,0,0,1-1.32,6,9.6,9.6,0,0,1-2.87,2.8.6.6,0,0,1-.35.12.51.51,0,0,1-.37-.19,4,4,0,0,0-1.48-.8,8.63,8.63,0,0,0,3-2.33c1-1.38,1.46-2.8,1.46-5.55,0-1.24-.09-3-.21-4.16a8.34,8.34,0,0,0-.37-1.9A10.05,10.05,0,0,1,151.71,30.71Z"/></svg>