<svg id="レイヤー_1" data-name="レイヤー 1" xmlns="http://www.w3.org/2000/svg" viewBox="0 0 193 92" width="193" height="92"><defs><style>.cls-1{fill:#ef7d32;}.cls-2{fill:#fff;}.cls-3{fill:none;stroke:#ef7d32;stroke-miterlimit:10;stroke-width:4.07px;fill-rule:evenodd;}</style></defs><title>link_parking</title><path class="cls-1" d="M1.75,35.78a17.79,17.79,0,0,1,1.74-3.87c1.06-1.25.87-3.68,1.63-4.68a8.71,8.71,0,0,0,1.29-3.37c.67-2.36-.57-3.8-1.08-5.72A17.63,17.63,0,0,1,5,15.42c.05-1.34-.49-2.19-.87-3.56L1.55.37A9.46,9.46,0,0,1,4.65,2.25a5.15,5.15,0,0,0,2,.18l2,1.24c.56.32,1.15.1,1.58.14.71.33,1.25,1.18,2,1.24,1.3.11,2.82,1.85,4.14,1.17.75-.74.84.61,1.42.66.71.33,1.44.13,2,.44l2.16.19c.72.06,1.27.65,2,.71l7.89,1.49a6.56,6.56,0,0,1-2.22,1.42,5.33,5.33,0,0,0-3.09,1.34c-1,.71-2,.36-3.08,1.34-.75.74-2.9.28-2.55,2.46.31,3.24-.69,6.38-.38,9.62.39,1.11.16,3.23.11,4.57,0,.8-.22,1.86-.26,2.93,0,.8-.36,1.85-.39,2.65s.24,1.36.2,2.16-.22,1.86-.25,2.66c-.22,1.86,0,4.29-.24,6.15,0,.8-5.46-.75-6.18-.81s-1-.89-1.55-.94-1-.36-1.57-.41c-1.27-.91-2.29-.47-3.56-1.38C4.68,42.21,2.38,41.74.26,40.75.47,38.89,1.24,37.62,1.75,35.78ZM21,45c.05-1.34.82-2.61.47-4.52-.38-1.37.24-2.39.15-3.74-.07-1.88-.32-3,.17-4.28s-.15-3.5-.1-4.84c0-1.07.84-3.14.47-4.52A15.22,15.22,0,0,1,22.1,18c.43,0,.7.6,1.13.63.56.32,1-.45,1.59-.13,1,.89,2.18-.35,3.15.81.4.84,2.42,1,3,.8,1.19-.7,2.45.21,3.59.58l6.33.55c.43,0,1,.62,1.45-.14.75-.74,1,.62,1.56.67,1.15.1,2.49-.86,3.63-.49a8.3,8.3,0,0,0,6.2.27c1.16-.17,2.13,1,3.17.28.75-.74,1,.36,1.57.41s1.47-.68,2-.63c2.17-.08,4,.35,6.2.27l6.81-.48c2.17-.08,4.08-1,6.24-.8.59-.22,1,.36,1.57.41s.9-.73,1.47-.68c1.28.38,2.46-.05,3.76.06a24,24,0,0,1,6.1-.81l3.19-.26c1.15.1,2.51-1.39,3.63-.49,2.13,1,4.07-.72,6.23-.53a12.65,12.65,0,0,0,3.18,0l1.47-.68c.72.06,1.45-.14,2-.09,2.19-.61,4.19-.17,6.36-.25.44-.23,1,.36,1.44.13.57.05,1.17-.43,1.61-.66,1.15.1,2.43.75,3.61,0s2.13,1,3.18,0c1-.71,2,.71,3-.27,1-.71,2.16.19,3.18,0a16.3,16.3,0,0,0,3.61,0c2.16.19,4.06-.45,6.22-.26,1,.09,2.15.46,3.16.54s2.48-.59,3.6.31,2.17-.08,3.17.28a11.55,11.55,0,0,0,3,0c2.31-.07,4.44.92,6.74,1.39a12.34,12.34,0,0,1,3,.8l1.59.14c.56.32,1.17-.43,1.59-.13,1.59.14,1,.36.91,2.49-.07,1.87-.56,3.17-.2,5.08.4.84-.27,3.19-.32,4.53s.62,2.73.11,4.57c-.84,3.14.16,7-.54,10.14a8.28,8.28,0,0,0,0,3.75c.39,1.11-.54,2.64-.16,4,.71,4.08-3.84,2.08-4.82,1.46-1-.89-2.15-.46-3.17-.28s-2-1.51-3-.8c-.75.74-1-.36-1.57-.41s-.9,1-1.59.13c-1.11-1.17-2.46.05-3.61,0-.72-.06-.81-1.41-1.56-.67-.3.24-.87.19-1.6.13s-.82-1.14-1.43-.39-1,.18-1.59.13c-1-.09-2.15-.46-3.16-.54-.58-.05-.91,1-1.6.13s-1.3-.11-2-.18c-2.13-1-4.11,1.52-6.22.26a6.4,6.4,0,0,0-3.17-.28c-1.19.7-2.46.05-3.62.22l-6.22.26-3.07.8c-.72-.06-1-.89-1.58-.14s-1.45.14-2,.09c-2.13-1-4.1,1.52-6.23.53-1-.89-2.18.35-3.2.53a16.3,16.3,0,0,0-3.61,0l-6.23.53-3.19.26c-1.16.17-2.37,1.4-3.63.49-.69-.86-2,.63-3.07.8s-2.15-.46-3.17-.28c-2.19.61-4.49.41-6.66.49s-4.07.72-6.24.8c-.59.22-1-.62-1.57-.41s-1,.71-1.61.66-1-.62-1.43-.39c-.72-.06-1.45.14-2.17.08-1-.35-2.07,1.16-3,.27s-2.16-.19-3.17-.28a12.09,12.09,0,0,1-3.18,0,15.22,15.22,0,0,1-3.63.49c-1-.09-2-.71-3-.8a12.9,12.9,0,0,0-3.19.26c-1-.09-2-.71-3-.8-.72-.06-1.3-.11-1.59.13-1,.71-1.12-.9-2.16-.19-.61.75-.86-.08-1.44-.13l-5.76-.5a35.88,35.88,0,0,1-7.58-2C20.49,51.63,20.91,48.18,21,45ZM189,26.65a8.6,8.6,0,0,0-.84,2.88c0,1.07-.49,1.3-.95,2.06a11.4,11.4,0,0,0-1,4.47c.36,1.91,1,2.77,1.41,4.68.39,1.11-.08,2.14.32,3a6.33,6.33,0,0,1,.77,2.48,7.93,7.93,0,0,1,.74,3.28,4.14,4.14,0,0,0,.49,2.19c.55.85.35,2.18.75,3a6.41,6.41,0,0,1,.61,2.73A87.25,87.25,0,0,0,177.94,52c-.58-.05-1-.36-1.59-.14-.75.74-.84-.61-1.55-.94a13.83,13.83,0,0,1-3.31-.29c-.38-1.37.39-2.65.44-4,.08-2.14.47-4.52.11-6.43-.07-1.88.13-3.21.2-5.08.05-1.34-.14-3.77.34-5.06.51-1.83-.18-2.7-.11-4.57s.43-3.72.51-5.59a4,4,0,0,0-1.72-3.9c-1-.89-2.1-1.79-3.22-2.69a51.24,51.24,0,0,1-5.86-5.34c10.33,1.71,20.35,4.19,30.56,9.1C192.16,21,190.18,23.53,189,26.65Z"/><circle class="cls-2" cx="91.5" cy="76.87" r="14.76"/><polyline class="cls-3" points="88.24 85.56 96.35 77.44 88.24 69.33"/><path class="cls-2" d="M67.53,40.24c.24.07.26.09.24.28a13.51,13.51,0,0,1-.63,4c-.05.17-.09.16-.3,0l-.57-.37c-.21-.12-.23-.19-.17-.37a13.25,13.25,0,0,0,.63-3.59c0-.21.05-.19.28-.12Zm1.34-.91c-1.18,0-1.64,0-1.83,0s-.19,0-.19-.21,0-.75,0-2.14V32.7c0-1.37,0-2,0-2.14s0-.19.19-.19.64,0,1.83,0h2.72c1.11,0,1.62,0,1.71,0s.19,0,.19.19v1.1c0,.17,0,.19-.19.19s-.59,0-1.71,0h-.31V33c1,0,1.38,0,1.48,0s.19,0,.19.19v1c0,.17,0,.19-.19.19l-1.48,0v1.17c1,0,1.38,0,1.48,0s.19,0,.19.19v1c0,.17,0,.19-.19.19l-1.48,0V38h.4c1.1,0,1.43,0,1.53,0s.21,0,.19.23l-.05,1.15a17.19,17.19,0,0,1-.56,5.08A1.83,1.83,0,0,1,71,45.6c-.23,0-.52,0-.75,0s-.31,0-.38-.56a4.09,4.09,0,0,0-.35-1.18,10.84,10.84,0,0,0,1.29.1.71.71,0,0,0,.71-.43,14.37,14.37,0,0,0,.38-4.18Zm-.16.84c.21,0,.24-.05.26.12a20.51,20.51,0,0,1,.28,3.06c0,.21,0,.24-.21.31l-.54.16c-.21.07-.24.07-.24-.12a21.47,21.47,0,0,0-.19-3.2c0-.19,0-.21.21-.24ZM69.79,33V31.81H68.42V33Zm0,2.44V34.3H68.42v1.17Zm0,2.52V36.75H68.42V38Zm.05,2c.19-.07.23-.05.26.12a16.67,16.67,0,0,1,.4,2.47c0,.16,0,.21-.21.3l-.37.16c-.19.09-.23.09-.24-.1a14.83,14.83,0,0,0-.37-2.59c0-.16,0-.16.17-.23Zm1-.21c.16-.05.19,0,.24.1a6.91,6.91,0,0,1,.49,1.83c0,.14,0,.16-.16.23l-.33.17c-.17.09-.23.05-.23-.09a9,9,0,0,0-.47-1.88c0-.16,0-.16.14-.23Zm7.71-.23v3.87h1.27c1.58,0,2.11,0,2.21,0s.19,0,.19.21V45c0,.19,0,.21-.19.21s-.63,0-2.21,0H75.78c-1.57,0-2.11,0-2.21,0s-.21,0-.21-.21V43.63c0-.19,0-.21.21-.21s.64,0,2.21,0h1V39.59h-.35c-1.41,0-1.86,0-2,0s-.19,0-.19-.19V38.11c0-.17,0-.19.19-.19s.56,0,2,0h.35V34.77h-.71c-1.5,0-2,0-2.11,0s-.21,0-.21-.19V33.32c0-.19,0-.21.21-.21s.61,0,2.11,0h3.48c1.51,0,2,0,2.12,0s.19,0,.19.21v1.29c0,.17,0,.19-.19.19s-.61,0-2.12,0h-1V38h.61c1.39,0,1.86,0,2,0s.19,0,.19.19v1.32c0,.17,0,.19-.19.19s-.57,0-2,0Zm-2-9.68c.17-.12.21-.16.37-.07a17.32,17.32,0,0,1,2.47,1.83c.07.07.1.1.1.14s-.05.1-.16.21l-1,.84c-.09.07-.14.12-.19.12a.21.21,0,0,1-.16-.1,12,12,0,0,0-2.46-2c-.14-.09-.16-.14,0-.3Z"/><path class="cls-2" d="M87.41,43.42c-1.53,0-2.05,0-2.16,0s-.17,0-.17-.19V42c0-.17,0-.19.17-.19s.63,0,2.16,0h4.46V40.69H89.67c-1.69,0-2.3,0-2.42,0s-.19,0-.19-.19,0-.56,0-1.65V36.15c0-1.08,0-1.55,0-1.65s0-.21.19-.21.73,0,2.42,0h2.19V33.24h-4c-1.6,0-2.14,0-2.25,0s-.21,0-.21-.21V31.79c0-.16,0-.17.21-.17s.64,0,2.25,0h4a13.38,13.38,0,0,0-.14-1.85c.64,0,1.25.05,1.85.12.16,0,.26.1.26.19a.6.6,0,0,1-.09.35,3.34,3.34,0,0,0-.1,1.18h4.14c1.6,0,2.16,0,2.26,0s.19,0,.19.17v1.27c0,.19,0,.21-.19.21s-.66,0-2.26,0H93.64v1.08H96c1.71,0,2.32,0,2.42,0s.19,0,.19.21,0,.57,0,1.65v2.73c0,1.1,0,1.55,0,1.65s0,.19-.19.19-.71,0-2.42,0H93.64v1.15h4.67c1.53,0,2.05,0,2.16,0s.17,0,.17.19v1.27c0,.17,0,.19-.17.19s-.63,0-2.16,0H93.64c0,1.36,0,2.07,0,2.14s0,.19-.21.19H92c-.17,0-.19,0-.19-.19s0-.78,0-2.14Zm4.46-6.6V35.69h-3v1.13Zm0,2.49V38.18h-3v1.13Zm1.78-3.62v1.13h3.17V35.69Zm3.17,2.49H93.64v1.13h3.17Z"/><path class="cls-2" d="M107.34,39.45c.47-.23,1-.45,1.44-.71,0,.3,0,.7,0,1.08,0,.58,0,.54-.45.8a24.44,24.44,0,0,1-3.2,1.5,2.67,2.67,0,0,0-.56.24.54.54,0,0,1-.31.16c-.1,0-.17-.05-.26-.23a11.21,11.21,0,0,1-.47-1.55,11.92,11.92,0,0,0,1.72-.44l.4-.14V35.85h-.14c-1.15,0-1.5,0-1.6,0s-.17,0-.17-.19V34.37c0-.17,0-.19.17-.19s.45,0,1.6,0h.14v-1.5a16.09,16.09,0,0,0-.14-2.63c.68,0,1.2.05,1.78.1.17,0,.28.1.28.19a.9.9,0,0,1-.1.35,7.34,7.34,0,0,0-.1,1.93v1.55c.94,0,1.27,0,1.38,0s.19,0,.19.19v1.32c0,.17,0,.19-.19.19s-.44,0-1.37,0Zm9.26.94a11.17,11.17,0,0,1-4.28,5c-.21.12-.31.19-.42.19s-.23-.1-.44-.33a3.32,3.32,0,0,0-.77-.66A9.27,9.27,0,0,0,115,40.39H114A11.61,11.61,0,0,1,110,44.26a1,1,0,0,1-.44.19c-.14,0-.23-.1-.44-.33a3.07,3.07,0,0,0-.73-.61,10,10,0,0,0,3.88-3.12h-1.1a9.55,9.55,0,0,1-2.3,2.05c-.23.14-.33.23-.44.23s-.19-.1-.37-.31a3.67,3.67,0,0,0-.84-.73,8.89,8.89,0,0,0,3.22-2.85,3.63,3.63,0,0,0,.37-.73c-1.43,0-2,0-2.05,0s-.19,0-.19-.21V36.74c0-.17,0-.19.19-.19s.68,0,2.37,0H117c1.69,0,2.28,0,2.37,0s.19,0,.19.19v1.13c0,.19,0,.21-.19.21s-.68,0-2.37,0h-5.22l.58.14c.16.05.24.16.24.23a.23.23,0,0,1-.14.23.84.84,0,0,0-.28.31h4.54c1.48,0,2,0,2.09,0s.24,0,.23.23l-.12,1.76a11.74,11.74,0,0,1-.54,3.34,1.84,1.84,0,0,1-2,1.34,7.57,7.57,0,0,1-.89,0c-.4,0-.4,0-.54-.58a5.88,5.88,0,0,0-.45-1.15,9.41,9.41,0,0,0,1.58.1c.38,0,.52-.05.68-.54a14.13,14.13,0,0,0,.45-3Zm-1-10c1.5,0,2,0,2.11,0s.19,0,.19.19,0,.52,0,1.48v2.11c0,1,0,1.39,0,1.5s0,.19-.19.19-.61,0-2.11,0h-3.27c-1.51,0-2,0-2.12,0s-.19,0-.19-.19,0-.5,0-1.5V32.07c0-1,0-1.38,0-1.48s0-.19.19-.19.61,0,2.12,0Zm-4,1.31v.84h4.56v-.84Zm4.56,2h-4.56v.85h4.56Z"/></svg>