<svg id="レイヤー_1" data-name="レイヤー 1" xmlns="http://www.w3.org/2000/svg" viewBox="0 0 262 59" width="262" height="59"><defs><style>.cls-1{fill:#ef7d32;}.cls-2{fill:#fff;}.cls-3{fill:none;stroke:#ef7d32;stroke-miterlimit:10;stroke-width:4.07px;fill-rule:evenodd;}</style></defs><title>link_realestate</title><path class="cls-1" d="M1.8,35.41a16.53,16.53,0,0,1,2.09-3.87c1.28-1.25,1-3.68,2-4.68A7.9,7.9,0,0,0,7.4,23.48c.81-2.36-.69-3.8-1.29-5.72A14.81,14.81,0,0,1,5.71,15c.06-1.34-.59-2.19-1-3.56L1.55,0A12,12,0,0,1,5.29,1.88a7.4,7.4,0,0,0,2.43.18L10.09,3.3a4.57,4.57,0,0,0,1.9.14c.85.33,1.51,1.18,2.37,1.24,1.56.11,3.39,1.85,5,1.17.9-.74,1,.61,1.71.66.85.33,1.73.13,2.41.44l2.6.19c.87.06,1.53.65,2.4.71l9.49,1.49a8.26,8.26,0,0,1-2.67,1.42,7.12,7.12,0,0,0-3.71,1.34c-1.25.71-2.45.36-3.71,1.34-.9.74-3.49.28-3.07,2.46.37,3.24-.82,6.38-.45,9.62.47,1.11.19,3.23.13,4.57,0,.8-.26,1.86-.31,2.93,0,.8-.43,1.85-.47,2.65s.28,1.36.24,2.16-.26,1.86-.3,2.66c-.26,1.86,0,4.29-.29,6.15,0,.8-6.57-.75-7.43-.81-.69-.05-1.17-.89-1.87-.94s-1.2-.36-1.89-.41c-1.52-.91-2.76-.47-4.28-1.38C5.31,41.83,2.56,41.37,0,40.38.26,38.52,1.19,37.24,1.8,35.41ZM25,44.6c.06-1.34,1-2.61.56-4.52-.46-1.37.29-2.39.18-3.74-.08-1.88-.38-3,.2-4.28s-.18-3.5-.12-4.84c.05-1.07,1-3.14.56-4.52a12.7,12.7,0,0,1-.11-5.1c.52,0,.84.6,1.36.63.68.32,1.24-.45,1.92-.13,1.17.89,2.62-.35,3.78.81.48.84,2.91,1,3.61.8,1.43-.7,2.95.21,4.32.58l7.62.55c.52,0,1.19.62,1.74-.14.9-.74,1.19.62,1.88.67,1.39.1,3-.86,4.37-.49a11.87,11.87,0,0,0,7.46.27c1.4-.17,2.56,1,3.81.28.9-.74,1.2.36,1.89.41.87.06,1.77-.68,2.46-.63,2.61-.08,4.85.35,7.46.27L88.13,21c2.61-.08,4.91-1,7.51-.8.7-.22,1.2.36,1.89.41s1.08-.73,1.77-.68c1.55.38,3-.05,4.52.06a34.41,34.41,0,0,1,7.33-.81L115,19c1.39.1,3-1.39,4.37-.49,2.56,1,4.9-.72,7.49-.53a18.28,18.28,0,0,0,3.82,0l1.77-.68c.87.06,1.74-.14,2.44-.09,2.64-.61,5-.17,7.65-.25.53-.23,1.2.36,1.73.13a4.49,4.49,0,0,0,1.94-.66c1.39.1,2.92.75,4.34,0,1.25-.71,2.56,1,3.82,0,1.25-.71,2.4.71,3.66-.27,1.25-.71,2.59.19,3.82,0a23.55,23.55,0,0,0,4.34,0c2.6.19,4.89-.45,7.49-.26,1.21.09,2.59.46,3.8.54,1.38.1,3-.59,4.33.31,1.17.89,2.61-.08,3.81.28a16.68,16.68,0,0,0,3.65,0c2.78-.07,5.34.92,8.1,1.39a17.29,17.29,0,0,1,3.61.8l1.91.14c.68.32,1.41-.43,1.92-.13,1.91.14,1.2.36,1.1,2.49-.09,1.87-.67,3.17-.24,5.08.48.84-.32,3.19-.39,4.53s.74,2.73.13,4.57c-1,3.14.19,7-.65,10.14a6.92,6.92,0,0,0,0,3.75c.47,1.11-.64,2.64-.19,4,.85,4.08-4.61,2.08-5.8,1.46-1.17-.89-2.59-.46-3.81-.28s-2.36-1.51-3.61-.8c-.9.74-1.2-.36-1.89-.41-.86-.06-1.09,1-1.92.13-1.33-1.17-3,.05-4.34,0-.87-.06-1-1.41-1.88-.67a3.58,3.58,0,0,1-1.92.13c-.69-.05-1-1.14-1.72-.39s-1.22.18-1.92.13c-1.21-.09-2.59-.46-3.8-.54-.69-.05-1.09,1-1.92.13-.65-.85-1.56-.11-2.42-.18-2.56-1-4.94,1.52-7.48.26a9.18,9.18,0,0,0-3.81-.28c-1.43.7-3,.05-4.36.22l-7.48.26-3.69.8c-.86-.06-1.17-.89-1.9-.14s-1.74.14-2.44.09c-2.56-1-4.94,1.52-7.5.53-1.17-.89-2.62.35-3.85.53a23.55,23.55,0,0,0-4.34,0l-7.5.53-3.84.26c-1.4.17-2.85,1.4-4.37.49-.83-.86-2.46.63-3.69.8s-2.59-.46-3.81-.28c-2.63.61-5.4.41-8,.49s-4.9.72-7.51.8c-.7.22-1.19-.62-1.89-.41a4.5,4.5,0,0,1-1.94.66c-.52,0-1.19-.62-1.72-.39-.86-.06-1.74.14-2.61.08-1.2-.35-2.49,1.16-3.66.27s-2.6-.19-3.81-.28a17.47,17.47,0,0,1-3.82,0,21.8,21.8,0,0,1-4.37.49c-1.21-.09-2.4-.71-3.61-.8a18.59,18.59,0,0,0-3.83.26c-1.21-.09-2.4-.71-3.61-.8a3.57,3.57,0,0,0-1.92.13c-1.25.71-1.35-.9-2.6-.19-.73.75-1-.08-1.73-.13L34,56.25a50.29,50.29,0,0,1-9.11-2C24.33,51.26,24.84,47.81,25,44.6ZM227.05,26.28a7.56,7.56,0,0,0-1,2.88c-.05,1.07-.58,1.3-1.14,2.06a9.85,9.85,0,0,0-1.25,4.47c.43,1.91,1.26,2.77,1.69,4.68.47,1.11-.1,2.14.38,3a5.6,5.6,0,0,1,.93,2.48,6.84,6.84,0,0,1,.89,3.28,3.57,3.57,0,0,0,.59,2.19c.66.85.42,2.18.9,3a5.52,5.52,0,0,1,.74,2.73,117.9,117.9,0,0,0-16.07-5.46c-.69-.05-1.2-.36-1.91-.14-.9.74-1-.61-1.87-.94a19.91,19.91,0,0,1-4-.29c-.46-1.37.47-2.65.54-4,.1-2.14.56-4.52.13-6.43a49.67,49.67,0,0,1,.24-5.08c.06-1.34-.17-3.77.41-5.06.61-1.83-.22-2.7-.13-4.57s.52-3.72.61-5.59c.11-2.4-.9-3-2.07-3.9s-2.52-1.79-3.87-2.69a59.13,59.13,0,0,1-7-5.34c12.43,1.71,24.47,4.19,36.75,9.1C230.79,20.65,228.41,23.16,227.05,26.28Z"/><circle class="cls-2" cx="246.43" cy="37.17" r="14.76"/><polyline class="cls-3" points="243.17 45.85 251.28 37.74 243.17 29.63"/><path class="cls-2" d="M43.62,32.51c-1.57,0-2.11,0-2.21,0s-.19,0-.19-.21V30.92c0-.19,0-.21.19-.21s.64,0,2.21,0H54.1c1.57,0,2.09,0,2.21,0s.19,0,.19.21v1.41c0,.19,0,.21-.19.21s-.64,0-2.21,0H50.48c-.26.5-.54,1-.84,1.5v8.74c0,1.6,0,2.4,0,2.51s0,.19-.19.19h-1.6c-.17,0-.19,0-.19-.19s0-.91,0-2.51V36.6A21.16,21.16,0,0,1,42.4,41a1.08,1.08,0,0,1-.38.17c-.12,0-.19-.1-.37-.4a3.69,3.69,0,0,0-1-1.06,17.45,17.45,0,0,0,7.7-7.19Zm7.5,2.59c.07-.07.12-.1.17-.1s.09,0,.16.1a16,16,0,0,0,5.61,4.39,6.6,6.6,0,0,0-.87,1.2c-.16.28-.23.4-.33.4s-.19-.09-.42-.21a18.65,18.65,0,0,1-5.21-4.58c-.12-.16-.1-.21.07-.38Z"/><path class="cls-2" d="M65,42.75c.94-.1,1.93-.24,3-.42a7.13,7.13,0,0,0-.16.8l-.05.31a9.83,9.83,0,0,0,2-3.9,23.92,23.92,0,0,0,.57-4.44l-1.5,0c-.19,0-.21,0-.21-.19V33.67c0-.17,0-.19.21-.19s.49,0,1.57,0c0-.45,0-.91,0-1.39a17.22,17.22,0,0,0-.12-2.46c.63,0,1.13.05,1.74.12.17,0,.26.09.26.19a1.34,1.34,0,0,1-.1.42,7.48,7.48,0,0,0-.1,1.78c0,.47,0,.91,0,1.34h1c1.34,0,1.79,0,1.9,0s.21,0,.21.21c0,.59,0,1.1,0,1.65a53.34,53.34,0,0,1-.5,8,2,2,0,0,1-2.21,1.92c-.37,0-.66,0-1,0s-.4,0-.45-.61a4,4,0,0,0-.35-1.17,9.37,9.37,0,0,0,1.44.14c.52,0,.82-.28.94-1.1a49.48,49.48,0,0,0,.44-7.37H72a30.66,30.66,0,0,1-.64,5,11.09,11.09,0,0,1-2.58,5c-.17.17-.28.26-.37.26s-.17-.09-.33-.24a3.23,3.23,0,0,0-1.11-.84c.19-.17.38-.35.56-.54a1.35,1.35,0,0,1-.33.07c-1.85.37-4.11.7-6.08.91a2.73,2.73,0,0,0-.64.12.68.68,0,0,1-.3.1c-.1,0-.19-.1-.24-.3-.1-.45-.21-1-.3-1.53a16.19,16.19,0,0,0,1.83,0c.61,0,1.27-.07,2-.14v-1h-1c-1.52,0-2,0-2.12,0s-.19,0-.19-.17v-1c0-.17,0-.19.19-.19s.61,0,2.12,0h1v-.75h-.7c-1.48,0-2,0-2.09,0s-.21,0-.21-.19,0-.52,0-1.44V36.36c0-.94,0-1.34,0-1.43s0-.19.21-.19.61,0,2.09,0h.7V34H62.11c-1.57,0-2.11,0-2.21,0s-.19,0-.19-.19v-1c0-.17,0-.19.19-.19s.64,0,2.21,0H63.4v-.78c-.75.07-1.5.14-2.25.17-.49,0-.5,0-.64-.38a3.49,3.49,0,0,0-.54-.94,33.46,33.46,0,0,0,6.16-.66,6.29,6.29,0,0,0,1-.3,7.5,7.5,0,0,1,1,1,.42.42,0,0,1,.14.31c0,.1-.14.17-.37.17a5.14,5.14,0,0,0-.78.12c-.7.14-1.39.26-2.11.35v1h1c1.55,0,2.09,0,2.19,0s.17,0,.17.19v1c0,.17,0,.19-.14.19s-.68,0-2.23,0H65v.77h.75c1.46,0,2,0,2.09,0s.19,0,.19.19,0,.49,0,1.43v1.86c0,.92,0,1.34,0,1.44s0,.19-.19.19-.63,0-2.09,0H65v.75h.64c1.5,0,2,0,2.12,0s.19,0,.19.19v1c0,.16,0,.17-.19.17s-.63,0-2.12,0H65Zm-1.57-6v-.91H62v.91Zm0,1.93v-.92H62v.92ZM65,35.87v.91h1.51v-.91Zm1.51,1.92H65v.92h1.51Z"/><path class="cls-2" d="M83.78,45c-1.69,0-2.26,0-2.37,0s-.21,0-.21-.21V43.69c0-.17,0-.19.21-.19s.68,0,2.37,0h2.91V42h-.92c-1.6,0-2.14,0-2.25,0s-.19,0-.19-.19V40.73c0-.17,0-.19.19-.19s.64,0,2.25,0h.92V39.25H83.85A13.33,13.33,0,0,1,82.67,41c-.16.21-.24.3-.31.3s-.14-.09-.26-.24a3.64,3.64,0,0,0-.89-.85L81,41.28a12.75,12.75,0,0,1-1.24,3.8c-.14.23-.21.33-.3.33s-.16-.07-.28-.21a4.34,4.34,0,0,0-1.13-1,9.08,9.08,0,0,0,1.27-3.41,24.25,24.25,0,0,0,.26-4c0-1.6,0-2.3,0-2.4s0-.19.19-.19.68,0,2.32,0H83.4a11.64,11.64,0,0,0-.78-1.55h-.49c-1.67,0-2.23,0-2.33,0s-.21,0-.21-.19V31.38c0-.19,0-.21.21-.21s.66,0,2.33,0h3.45V31a7.14,7.14,0,0,0-.12-1.51c.64,0,1.24,0,1.81.09.17,0,.28.09.28.17a.81.81,0,0,1-.1.33,2.37,2.37,0,0,0-.09.91v.17h3.46c1.67,0,2.25,0,2.35,0s.19,0,.19.21v1.15c0,.17,0,.19-.19.19s-.7,0-2.37,0h-.3a1.21,1.21,0,0,0-.17.3,10.94,10.94,0,0,1-.7,1.25h1.83c1.64,0,2.19,0,2.3,0s.17,0,.17.19v1.15c0,.17,0,.19-.17.19s-.68,0-2.32,0H81.38l0,1.1a28.69,28.69,0,0,1-.19,3.27,8.41,8.41,0,0,0,2-3.08,3.62,3.62,0,0,0,.23-.91,11.52,11.52,0,0,1,1.51.37c.21.07.23.14.23.21s-.05.14-.12.21a2.25,2.25,0,0,0-.33.63l-.1.26h2.07v-.19A6.76,6.76,0,0,0,86.55,36c.64,0,1.22.05,1.81.1.17,0,.28.09.28.17a.89.89,0,0,1-.1.35,2.75,2.75,0,0,0-.09.91v.19h1.86c1.62,0,2.16,0,2.26,0s.19,0,.19.19v1.18c0,.17,0,.19-.19.19s-.64,0-2.26,0H88.45v1.32h1.24c1.6,0,2.14,0,2.25,0s.19,0,.19.19v1.15c0,.17,0,.19-.19.19s-.64,0-2.25,0H88.45v1.5h2.84c1.69,0,2.28,0,2.39,0s.19,0,.19.19v1.18c0,.19,0,.21-.19.21s-.7,0-2.39,0Zm.75-12.36a14.32,14.32,0,0,1,.68,1.55h2.61a12.63,12.63,0,0,0,.75-1.55Z"/><path class="cls-2" d="M104.34,29.57a9.61,9.61,0,0,0-3.92,8,9.61,9.61,0,0,0,3.92,8l-.45.54c-3.34-2.44-4.72-5.08-4.72-8.51s1.38-6.08,4.72-8.51Z"/><path class="cls-2" d="M111.93,40.15a6.39,6.39,0,0,0,0-1.53c.63,0,1.24.09,1.81.16.19,0,.3.1.3.23a.88.88,0,0,1-.1.35,5,5,0,0,0-.17,1c-.23,2.42-1.36,4-4.91,5a1.89,1.89,0,0,1-.4.09c-.16,0-.21-.1-.38-.42a3.89,3.89,0,0,0-.89-1.13C110.73,43.29,111.77,42.15,111.93,40.15Zm-.57-4.6c-1.69,0-2.3,0-2.4,0s-.17,0-.17-.19V34.25c0-.17,0-.19.17-.19s.71,0,2.4,0h2.51V32.93H110c-1.6,0-2.14,0-2.25,0s-.21,0-.21-.21V31.57c0-.16,0-.17.21-.17s.64,0,2.25,0h3.83v0a7.61,7.61,0,0,0-.14-1.83c.66,0,1.32.05,1.92.12.16,0,.26.1.26.17a.93.93,0,0,1-.09.35,3.9,3.9,0,0,0-.1,1.18v0H120c1.6,0,2.16,0,2.26,0s.19,0,.19.17v1.18c0,.19,0,.21-.19.21s-.66,0-2.26,0h-4.25v1.17h2.82c1.71,0,2.3,0,2.39,0s.21,0,.21.19V35.4c0,.17,0,.19-.21.19s-.68,0-2.39,0Zm8.36,1c1.64,0,2.21,0,2.33,0s.19,0,.19.17,0,.38,0,.77v.63c0,1.32,0,1.57,0,1.67s0,.19-.19.19h-1.41c-.17,0-.19,0-.19-.19V38h-11v1.74c0,.17,0,.19-.19.19h-1.39c-.19,0-.21,0-.21-.19s0-.35,0-1.67v-.52c0-.49,0-.75,0-.87s0-.17.21-.17.7,0,2.32,0Zm-2.28,6.34c0,.4.05.49.24.56a4.29,4.29,0,0,0,1.24.1,2.4,2.4,0,0,0,1.41-.26c.28-.23.35-.7.37-1.65a6.25,6.25,0,0,0,1.25.45c.45.12.47.12.42.57a2.58,2.58,0,0,1-.84,2c-.45.37-1.22.52-2.79.52a6.49,6.49,0,0,1-2.45-.28c-.33-.14-.64-.44-.64-1.24V40.4a14.18,14.18,0,0,0-.1-1.79c.64,0,1.18.07,1.74.12.23,0,.33.12.33.21a.69.69,0,0,1-.1.35,2.49,2.49,0,0,0-.07.85Z"/><path class="cls-2" d="M136.51,42.57a15.54,15.54,0,0,0,5,1.41,4.39,4.39,0,0,0-.63,1.08c-.14.37-.21.47-.44.47a1.78,1.78,0,0,1-.37-.05,17.16,17.16,0,0,1-4.93-1.9c-.16-.1-.14-.14.05-.3l.89-.71h-5c.37.23.68.42,1,.66s.23.19.23.3-.05.19-.26.24a5.45,5.45,0,0,0-.66.28,17.86,17.86,0,0,1-4.09,1.41,2.32,2.32,0,0,1-.38.05c-.17,0-.24-.12-.4-.45A4.83,4.83,0,0,0,125.8,44a15.26,15.26,0,0,0,4.35-1.08,3,3,0,0,0,.59-.35c-1.69,0-2.3,0-2.4,0s-.21,0-.21-.19,0-.63,0-1.83V37c0-1.2,0-1.71,0-1.83s0-.19.21-.19.71,0,2.4,0h6c1.71,0,2.32,0,2.42,0s.19,0,.19.19,0,.63,0,1.83v3.59c0,1.2,0,1.71,0,1.83s0,.19-.19.19-.71,0-2.42,0Zm1.79-12.24c1.64,0,2.23,0,2.33,0s.19,0,.19.19,0,.4,0,1.2v1.22c0,.78,0,1.08,0,1.18s0,.19-.19.19-.7,0-2.33,0h-9.16c-1.64,0-2.23,0-2.33,0s-.19,0-.19-.19,0-.4,0-1.18V31.69c0-.8,0-1.1,0-1.2s0-.19.19-.19.7,0,2.33,0ZM130.81,33V31.62h-2.4V33Zm-.91,3.34v.84h7.63v-.84Zm7.63,2.91v-.84h-7.63v.84Zm0,1.22h-7.63v.82h7.63ZM134.82,33V31.62H132.5V33ZM139,31.62h-2.51V33H139Z"/><path class="cls-2" d="M149.79,37.54A1.74,1.74,0,1,1,148,35.8,1.75,1.75,0,0,1,149.79,37.54Z"/><path class="cls-2" d="M157.27,33.08a15.86,15.86,0,0,1-1.6,1c-.21.12-.31.19-.4.19s-.17-.12-.33-.42a3.4,3.4,0,0,0-.68-.89,12.86,12.86,0,0,0,3.94-3,5,5,0,0,0,.49-.68,13.61,13.61,0,0,1,1.39.56c.14.07.24.16.24.28s-.12.19-.28.26a2.06,2.06,0,0,0-.47.49q-.26.31-.57.63v2.73c0,.82,0,1.15,0,1.25s0,.21-.19.21h-1.39c-.19,0-.21,0-.21-.21s0-.44,0-1.11Zm3.53,10.48c.17.07.24.16.24.26s-.1.17-.26.21a2.9,2.9,0,0,0-.71.31,14,14,0,0,1-4,1.22,1.56,1.56,0,0,1-.37,0c-.19,0-.24-.09-.42-.37a4.3,4.3,0,0,0-.8-1,15.18,15.18,0,0,0,3.94-.82,3.92,3.92,0,0,0,.82-.45C159.94,43.16,160.32,43.34,160.81,43.56Zm4.44-7.33c1.69,0,2.3,0,2.4,0s.19,0,.19.19,0,.57,0,1.71V41c0,1.11,0,1.6,0,1.71s0,.19-.19.19-.71,0-2.4,0h-5.69c-1.71,0-2.3,0-2.42,0s-.19,0-.19-.19,0-.59,0-1.71V38.1c0-1.13,0-1.6,0-1.71s0-.19.19-.19.71,0,2.42,0Zm-6.6,1.93h7.47v-.73h-7.47Zm7.47,1.76v-.73h-7.47v.73Zm0,1h-7.47v.75h7.47Zm-3.31-5.38c-1.62,0-2.16,0-2.26,0s-.19,0-.19-.21v-.87c0-.17,0-.19.19-.19s.64,0,2.26,0H164v-.91h-1.67c-1.67,0-2.26,0-2.37,0s-.19,0-.19-.19v-1c0-.17,0-.19.19-.19s.7,0,2.37,0H164v-.78c-.78.05-1.57.1-2.33.12-.49,0-.49,0-.64-.35a3.42,3.42,0,0,0-.52-.87,34.5,34.5,0,0,0,6.27-.52,3.29,3.29,0,0,0,.92-.26,9.14,9.14,0,0,1,1.17.85c.1.09.16.14.16.24s-.09.17-.33.19-.42.05-.7.1c-.68.14-1.48.24-2.32.35v.92h2c1.69,0,2.26,0,2.35,0s.19,0,.19.19v1c0,.17,0,.19-.19.19s-.66,0-2.35,0h-2v.91H167c1.6,0,2.16,0,2.26,0s.19,0,.19.19v.87c0,.19,0,.21-.19.21s-.66,0-2.26,0ZM165,43c.21-.1.24-.1.42,0a13.94,13.94,0,0,0,4.74,1.17,5.69,5.69,0,0,0-.84,1.08c-.17.28-.24.35-.42.35a2.46,2.46,0,0,1-.4-.05,13.72,13.72,0,0,1-4.75-1.71c-.16-.1-.16-.17.09-.28Z"/><path class="cls-2" d="M176,33.15a15,15,0,0,1-1.65,1,1.12,1.12,0,0,1-.4.17c-.12,0-.19-.12-.33-.42A3.2,3.2,0,0,0,173,33a11.31,11.31,0,0,0,4-2.82,4,4,0,0,0,.52-.71,13.9,13.9,0,0,1,1.41.58c.16.07.28.16.28.28s-.1.23-.26.3a1.93,1.93,0,0,0-.52.45l-.66.68V34c0,.75,0,1,0,1.13s0,.19-.21.19h-1.39c-.17,0-.19,0-.19-.19s0-.3,0-.89Zm3.46,10.27c.17.05.24.14.24.24s-.09.17-.24.21a4,4,0,0,0-.71.33,14.41,14.41,0,0,1-4,1.29,2.4,2.4,0,0,1-.38.05c-.17,0-.24-.09-.4-.37a3.61,3.61,0,0,0-.8-1,15.52,15.52,0,0,0,3.9-.87,5.11,5.11,0,0,0,.82-.47A13.77,13.77,0,0,1,179.5,43.42Zm4.84-14c.17-.17.23-.14.4-.05a12.17,12.17,0,0,1,1.67.94c.09.05.12.09.12.14s0,.1-.12.17l-.8.73c1.41-.14,2.28-.28,2.45-.3s.17,0,.19.19l.12,1.11c0,.17,0,.19-.19.21s-.78.05-2.33.23l-1.74.17a4.8,4.8,0,0,0,.52.5,3.11,3.11,0,0,0,2.14,1.06c.5,0,.78-.38,1-1.41a3.57,3.57,0,0,0,.92.54c.52.19.56.21.4.73a2,2,0,0,1-2,1.67,4.52,4.52,0,0,1-.49,0c0,.21,0,.71,0,1.62v3.15c0,1.13,0,1.64,0,1.74s0,.19-.19.19-.71,0-2.42,0h-5.69c-1.69,0-2.28,0-2.4,0s-.19,0-.19-.19,0-.61,0-1.74V37.7c0-1.13,0-1.64,0-1.74s0-.19.19-.19.71,0,2.4,0h7.05a5.26,5.26,0,0,1-1.88-1.15,8.78,8.78,0,0,1-1.25-1.46l-1,.09-2.3.26c-.17,0-.19,0-.21-.17l-.12-1.11c0-.17,0-.17.17-.19s.77,0,2.32-.21l.35,0a10.51,10.51,0,0,1-.45-1.18c-.12-.38-.24-.77-.38-1.11.64,0,1.18,0,1.64,0s.49.09.49.21a1.33,1.33,0,0,1-.05.28,1.48,1.48,0,0,0,.12.7,7,7,0,0,0,.4.92l2.28-.24a.38.38,0,0,1-.1-.07,7.34,7.34,0,0,0-1.64-1c-.16-.07-.19-.1,0-.3Zm-7,7.64v.75h7.47v-.75Zm7.47,2.56v-.73h-7.47v.73Zm0,1.08h-7.47v.75h7.47Zm-1.11,2.19c.21-.1.24-.1.42,0A14.08,14.08,0,0,0,188.89,44a4.63,4.63,0,0,0-.84,1.11c-.14.26-.24.35-.42.35a2.25,2.25,0,0,1-.4-.05,13.72,13.72,0,0,1-4.75-1.71c-.16-.1-.16-.17.09-.28Z"/><path class="cls-2" d="M192.24,29c3.34,2.44,4.72,5.08,4.72,8.51s-1.38,6.08-4.72,8.51l-.45-.54a9.61,9.61,0,0,0,3.92-8,9.61,9.61,0,0,0-3.92-8Z"/></svg>