<svg id="レイヤー_1" data-name="レイヤー 1" xmlns="http://www.w3.org/2000/svg" viewBox="0 0 236 102" width="236" height="102"><defs><style>.cls-1{fill:#fff;}.cls-2{fill:none;stroke:#ef7d32;stroke-miterlimit:10;stroke-width:4.07px;fill-rule:evenodd;}.cls-3{fill:#ef7d32;}</style></defs><title>link_maintenance</title><circle class="cls-1" cx="62.89" cy="86.87" r="14.76"/><polyline class="cls-2" points="59.63 78.19 67.74 86.3 59.63 94.41"/><path class="cls-3" d="M2.13,35.77A16.44,16.44,0,0,1,4.26,31.9c1.3-1.25,1.06-3.68,2-4.68a7.84,7.84,0,0,0,1.57-3.37c.82-2.36-.7-3.8-1.32-5.72a14.58,14.58,0,0,1-.4-2.71c.06-1.34-.6-2.19-1.07-3.56L1.88.36a12.3,12.3,0,0,1,3.8,1.88,7.64,7.64,0,0,0,2.47.18l2.41,1.24a4.72,4.72,0,0,0,1.94.14C13.37,4.13,14,5,14.91,5,16.5,5.16,18.35,6.9,20,6.21c.92-.74,1,.61,1.74.66.87.33,1.76.13,2.45.44l2.64.19c.88.06,1.56.65,2.44.71l9.65,1.49a8.45,8.45,0,0,1-2.72,1.42,7.32,7.32,0,0,0-3.77,1.34c-1.27.71-2.49.36-3.77,1.34-.92.74-3.55.28-3.12,2.46.37,3.24-.84,6.38-.46,9.62.48,1.11.2,3.23.13,4.57,0,.8-.27,1.86-.32,2.93,0,.8-.44,1.85-.48,2.65s.29,1.36.25,2.16-.27,1.86-.3,2.66c-.27,1.86,0,4.29-.29,6.15,0,.8-6.68-.75-7.56-.81-.7-.05-1.19-.89-1.9-.94s-1.22-.36-1.92-.41c-1.55-.91-2.8-.47-4.35-1.38C5.71,42.2,2.9,41.73.3,40.74.57,38.88,1.51,37.61,2.13,35.77ZM25.72,45c.06-1.34,1-2.61.57-4.52-.46-1.37.29-2.39.18-3.74-.09-1.88-.39-3,.2-4.28s-.18-3.5-.12-4.84c.05-1.07,1-3.14.57-4.52A12.49,12.49,0,0,1,27,18c.53,0,.85.6,1.38.63.69.32,1.26-.45,1.95-.13,1.19.89,2.67-.35,3.85.81.49.84,3,1,3.67.8,1.45-.7,3,.21,4.39.58l7.75.55c.53,0,1.21.62,1.77-.14.92-.74,1.21.62,1.91.67,1.41.1,3-.86,4.44-.49a12.26,12.26,0,0,0,7.58.27c1.42-.17,2.6,1,3.87.28.92-.74,1.22.36,1.92.41.88.06,1.8-.68,2.5-.63,2.65-.08,4.93.35,7.58.27l8.32-.48c2.65-.08,5-1,7.64-.8.72-.22,1.22.36,1.92.41s1.1-.73,1.8-.68c1.57.38,3-.05,4.59.06a35.55,35.55,0,0,1,7.46-.81l3.9-.26c1.41.1,3.07-1.39,4.44-.49,2.6,1,5-.72,7.62-.53a18.9,18.9,0,0,0,3.89,0l1.8-.68c.88.06,1.77-.14,2.48-.09,2.68-.61,5.13-.17,7.78-.25.54-.23,1.22.36,1.76.13a4.62,4.62,0,0,0,2-.66c1.41.1,3,.75,4.41,0,1.27-.71,2.6,1,3.89,0,1.27-.71,2.44.71,3.72-.27,1.27-.71,2.64.19,3.88,0a24.35,24.35,0,0,0,4.41,0c2.64.19,5-.45,7.61-.26,1.23.09,2.63.46,3.86.54,1.41.1,3-.59,4.4.31,1.19.89,2.65-.08,3.87.28a17.24,17.24,0,0,0,3.71,0c2.83-.07,5.43.92,8.24,1.39a17.84,17.84,0,0,1,3.67.8l1.94.14c.69.32,1.43-.43,1.95-.13,1.94.14,1.22.36,1.12,2.49-.09,1.87-.68,3.17-.24,5.08.49.84-.33,3.19-.39,4.53s.75,2.73.13,4.57c-1,3.14.2,7-.66,10.14a6.81,6.81,0,0,0,0,3.75c.48,1.11-.65,2.64-.19,4,.87,4.08-4.69,2.08-5.9,1.46-1.19-.89-2.63-.46-3.87-.28s-2.4-1.51-3.67-.8c-.92.74-1.22-.36-1.93-.41-.88-.06-1.11,1-1.95.13-1.36-1.17-3,.05-4.41,0-.88-.06-1-1.41-1.91-.67a3.7,3.7,0,0,1-2,.13c-.7-.05-1-1.14-1.75-.39s-1.25.18-1.95.13c-1.23-.09-2.63-.46-3.86-.54-.71-.05-1.11,1-2,.13-.66-.85-1.58-.11-2.46-.18-2.6-1-5,1.52-7.61.26a9.49,9.49,0,0,0-3.87-.28c-1.45.7-3,.05-4.43.22l-7.61.26-3.75.8c-.88-.06-1.19-.89-1.94-.14s-1.77.14-2.48.09c-2.6-1-5,1.52-7.62.53-1.19-.89-2.67.35-3.91.53a24.34,24.34,0,0,0-4.41,0l-7.62.53-3.9.26c-1.42.17-2.89,1.4-4.44.49-.84-.86-2.5.63-3.75.8s-2.63-.46-3.87-.28c-2.68.61-5.49.41-8.15.49s-5,.72-7.64.8c-.72.22-1.21-.62-1.92-.41a4.63,4.63,0,0,1-2,.66c-.53,0-1.21-.62-1.75-.39-.88-.06-1.77.14-2.65.08-1.22-.35-2.53,1.16-3.72.27s-2.64-.19-3.87-.28a18.06,18.06,0,0,1-3.89,0,22.53,22.53,0,0,1-4.44.49c-1.23-.09-2.44-.71-3.67-.8a19.21,19.21,0,0,0-3.9.26c-1.23-.09-2.44-.71-3.67-.8a3.68,3.68,0,0,0-1.95.13c-1.27.71-1.37-.9-2.64-.19-.74.75-1.06-.08-1.76-.13l-7-.5a51.87,51.87,0,0,1-9.27-2C25,51.62,25.56,48.17,25.72,45ZM231.17,26.64a7.47,7.47,0,0,0-1,2.88c-.05,1.07-.59,1.3-1.16,2.06A9.72,9.72,0,0,0,227.72,36c.44,1.91,1.28,2.77,1.72,4.68.48,1.11-.1,2.14.39,3a5.55,5.55,0,0,1,.94,2.48,6.76,6.76,0,0,1,.9,3.28,3.53,3.53,0,0,0,.6,2.19c.67.85.43,2.18.92,3a5.45,5.45,0,0,1,.75,2.73,121.27,121.27,0,0,0-16.34-5.46c-.71-.05-1.22-.36-1.94-.14-.92.74-1-.61-1.9-.94a20.58,20.58,0,0,1-4.05-.29c-.46-1.37.48-2.65.54-4,.1-2.14.57-4.52.13-6.43a48.86,48.86,0,0,1,.24-5.08c.06-1.34-.17-3.77.42-5.06.62-1.83-.22-2.7-.13-4.57s.53-3.72.62-5.59c.12-2.4-.91-3-2.11-3.9s-2.56-1.79-3.93-2.69a60,60,0,0,1-7.16-5.34C211,9.65,223.21,12.13,235.7,17,235,21,232.56,23.52,231.17,26.64Z"/><path class="cls-1" d="M48.61,35.48c-.87.07-1.76.14-2.92.14-.3,0-.38-.1-.42-.37s-.12-.91-.19-1.51a8.93,8.93,0,0,0,1.36.09c.73,0,1.48-.07,2.21-.14,0-.57,0-1.24,0-2a6.49,6.49,0,0,0-.12-1.41,9.88,9.88,0,0,1,2.07.31c.21.05.35.17.35.33a.61.61,0,0,1-.1.28,2.14,2.14,0,0,0-.24.68c-.05.45-.07.89-.09,1.44a17.1,17.1,0,0,0,2.23-.64c.16-.05.28,0,.3.16a8.79,8.79,0,0,1,.1,1.36c0,.17-.05.23-.23.28a17.67,17.67,0,0,1-2.49.66c0,.83,0,1.69,0,2.52a11,11,0,0,1,4.28-1,3.45,3.45,0,0,1,3.71,3.48c0,2.23-1.43,3.53-3.78,3.53a6.69,6.69,0,0,1-1.43-.16.47.47,0,0,1-.38-.52,3,3,0,0,0-.52-1.48,6.49,6.49,0,0,0,2.18.31,1.73,1.73,0,0,0,1.88-1.79c0-1.13-.7-1.76-1.92-1.76a8.62,8.62,0,0,0-4,1.18c0,.73,0,1.32.07,2.09s.14,1.86.14,2.26c0,.24,0,.5-.26.57a7.08,7.08,0,0,1-1.29.21c-.19,0-.26-.12-.42-.35a10.72,10.72,0,0,0-2.47-2.23,3.18,3.18,0,0,0-.56.38.43.43,0,0,1-.3.12A.49.49,0,0,1,45,42.3c-.19-.31-.54-1-.8-1.62a6.43,6.43,0,0,0,1.6-.61l2.84-1.62Zm-1.62,6a17.44,17.44,0,0,0,1.64.78c.14,0,.19,0,.17-.14,0-.45-.07-1.25-.1-1.83C48.21,40.61,47.62,41,47,41.47Zm8.32-9.14c.12-.19.17-.24.3-.21a8.27,8.27,0,0,1,3.69,2.12c.07.07.1.12.1.17a.45.45,0,0,1-.07.17c-.23.35-.68.89-.94,1.24-.05.07-.3.09-.35,0a8,8,0,0,0-3.53-2.14A10.65,10.65,0,0,1,55.31,32.33Z"/><path class="cls-1" d="M64.14,35a48.84,48.84,0,0,1-.28,5.8,12,12,0,0,1-1.18,4.11c-.1.23-.17.33-.24.33s-.17-.09-.35-.28a5.37,5.37,0,0,0-1.15-1A9.5,9.5,0,0,0,62.13,40a47.08,47.08,0,0,0,.24-5.34c0-2.44,0-3.5,0-3.6s0-.19.19-.19.68,0,2.32,0h3.66v-.23a6.6,6.6,0,0,0-.1-1.37c.66,0,1.25.05,1.85.1.17,0,.28.09.28.17a.57.57,0,0,1-.1.33,1.56,1.56,0,0,0-.12.73v.26h4c1.64,0,2.19,0,2.3,0s.19,0,.19.19v1.24c0,.17,0,.19-.19.19s-.66,0-2.3,0H64.14ZM67,43.24A8.78,8.78,0,0,1,64.9,45a1.08,1.08,0,0,1-.38.17c-.12,0-.19-.12-.37-.38a3.56,3.56,0,0,0-.78-.89,8.2,8.2,0,0,0,2.47-1.81,13.36,13.36,0,0,1-1.2-1.76c-.12-.23-.12-.26.12-.43l.73-.5a.47.47,0,0,1,.23-.1c.07,0,.12.05.17.16a9.6,9.6,0,0,0,.85,1.32,7.86,7.86,0,0,0,.75-2.26H66.38a3.18,3.18,0,0,0-.19.31c-.09.14-.16.16-.35.1l-1-.31c-.16-.05-.23-.1-.23-.17a.42.42,0,0,1,.1-.19,24,24,0,0,0,2-3.29H66c-.64,0-.91,0-1,0s-.19,0-.19-.19V33.63c0-.17,0-.19.19-.19s.35,0,1.27,0h1.06a.89.89,0,0,0,.33-.05.41.41,0,0,1,.21-.05c.12,0,.23.05.57.4s.45.47.45.61a.33.33,0,0,1-.16.28,1.16,1.16,0,0,0-.37.45c-.35.64-.75,1.34-1.18,2.07h.7a.72.72,0,0,0,.31-.05.31.31,0,0,1,.21-.07c.1,0,.23,0,.59.4s.37.47.37.57-.1.19-.21.3a1.28,1.28,0,0,0-.23.61,10.88,10.88,0,0,1-1,3c1,.83,2.3,1.31,4.79,1.31A43.33,43.33,0,0,0,77.23,43a3.46,3.46,0,0,0-.4,1.22c-.1.57-.1.57-.64.59-1.36.07-2.32.07-3.24.07-3.08,0-4.68-.64-5.85-1.58Zm7.59-6.32c1.39,0,1.86,0,2,0s.19,0,.19.21v1.1c0,.17,0,.19-.19.19s-.57,0-2,0h-.8v2h.44c1.32,0,1.74,0,1.85,0s.19,0,.19.19v1.1c0,.17,0,.19-.19.19s-.52,0-1.85,0H71.83c-1.31,0-1.74,0-1.84,0s-.17,0-.17-.19v-1.1c0-.17,0-.19.17-.19s.54,0,1.84,0h.31v-2h-.42c-1.39,0-1.84,0-1.95,0s-.19,0-.19-.19V37.1c0-.19,0-.21.19-.21s.56,0,1.95,0h.42V35.22c-.47.09-1,.16-1.51.23s-.5.05-.7-.5a3.37,3.37,0,0,0-.44-.82,17.86,17.86,0,0,0,4.65-.84,5.85,5.85,0,0,0,.94-.42,7.36,7.36,0,0,1,1,1,.4.4,0,0,1,.12.28c0,.12-.09.16-.28.17a2.85,2.85,0,0,0-.59.14,13.06,13.06,0,0,1-1.55.45v2Z"/><path class="cls-1" d="M87.48,33.25a21.81,21.81,0,0,1-2.18,7.5,3.31,3.31,0,0,1-3,2c-1.53,0-3.08-1.64-3.08-4.47a6.41,6.41,0,0,1,2-4.53,7.62,7.62,0,0,1,5.66-2.23c4.18,0,6.63,2.58,6.63,6,0,3.24-1.83,5.28-5.36,6.34-.37.1-.52,0-.75-.31a3.7,3.7,0,0,0-1.22-1.1c2.94-.7,5.26-1.92,5.26-5.21a4,4,0,0,0-3.9-4Zm-5,1.69a5,5,0,0,0-1.36,3.22c0,1.6.64,2.49,1.18,2.49s.84-.23,1.31-1.06a19.88,19.88,0,0,0,1.85-6.23A5.25,5.25,0,0,0,82.48,34.94Z"/><path class="cls-1" d="M105.08,32.64a8.09,8.09,0,0,0,.66-2.14,8.46,8.46,0,0,1,2.19,1.1.36.36,0,0,1,.17.3.51.51,0,0,1-.19.38,3.8,3.8,0,0,0-.78,1.17,34.27,34.27,0,0,1-2,3.45,20.27,20.27,0,0,1,2.56,2.37.38.38,0,0,1,.1.24.47.47,0,0,1-.09.23c-.35.45-.7.84-1.06,1.24a.27.27,0,0,1-.21.12c-.09,0-.16-.05-.24-.16a17.76,17.76,0,0,0-2.28-2.3,22.84,22.84,0,0,1-6,5.43.79.79,0,0,1-.4.14.48.48,0,0,1-.33-.12,5.07,5.07,0,0,0-1.57-1,21.26,21.26,0,0,0,6.56-5.71,19.08,19.08,0,0,0-3.4-2.07c.5-.64.92-1.18,1.15-1.43a.24.24,0,0,1,.17-.09.49.49,0,0,1,.21.07,25.94,25.94,0,0,1,3,1.83A20.6,20.6,0,0,0,105.08,32.64Z"/><path class="cls-1" d="M112.63,31.72a.32.32,0,0,1,.24-.14.47.47,0,0,1,.23.09,18.1,18.1,0,0,1,3.33,2.47c.1.1.16.17.16.24a.37.37,0,0,1-.1.23c-.26.35-.84,1-1.08,1.31-.09.09-.14.14-.21.14s-.14-.05-.23-.14a18.46,18.46,0,0,0-3.55-2.84C111.8,32.6,112.3,32.06,112.63,31.72Zm1.51,9.18a25.78,25.78,0,0,0,5-3.24,26.12,26.12,0,0,0,4.77-4.74,7.77,7.77,0,0,0,.49,2,.85.85,0,0,1,.09.33c0,.16-.09.3-.28.52a28.44,28.44,0,0,1-4,3.69A37.5,37.5,0,0,1,115,42.91a6.06,6.06,0,0,0-1.17.8.48.48,0,0,1-.31.17.45.45,0,0,1-.3-.19,12.1,12.1,0,0,1-1.39-1.93A10.48,10.48,0,0,0,114.15,40.89Z"/><path class="cls-1" d="M135,36.8a9.94,9.94,0,0,1-1,4.44,8.76,8.76,0,0,1-3.06,3.29,1.06,1.06,0,0,1-.52.21.51.51,0,0,1-.37-.17,4.58,4.58,0,0,0-1.55-.92,7.74,7.74,0,0,0,3.46-3.1,7.4,7.4,0,0,0,.89-3.74h-3.31c-.87,0-1.72.05-2.61.1-.16,0-.21-.1-.23-.33a10.5,10.5,0,0,1-.14-1.67c1,.09,2,.09,3,.09h7.82c1.36,0,2.37,0,3.39-.1.17,0,.19.1.19.35s0,1.11,0,1.34-.1.3-.26.3c-.91,0-2.11-.07-3.31-.07Zm-3.45-4c-.8,0-1.5,0-2.47.07-.23,0-.28-.09-.3-.3-.05-.42-.07-1-.12-1.67,1.22.07,2.11.09,2.89.09h3.9c1,0,2.07,0,2.94-.07.17,0,.21.1.21.33a7.68,7.68,0,0,1,0,1.27c0,.24,0,.33-.23.33-.94,0-2-.05-2.92-.05Z"/><path class="cls-1" d="M153.77,34.47c1,0,2.12,0,3,0,.24,0,.31,0,.33.31a8.75,8.75,0,0,1,0,1.36c0,.28-.07.33-.33.33-.63,0-1.95-.07-2.92-.07H151.4c-.17,2.52-.44,3.52-1.18,4.75a9.66,9.66,0,0,1-3.71,3.43.72.72,0,0,1-.4.12.52.52,0,0,1-.38-.17,4.84,4.84,0,0,0-1.46-1,8.81,8.81,0,0,0,4-3.15,7.49,7.49,0,0,0,1.06-4h-3.36c-.85,0-1.85.07-2.51.09-.23,0-.28-.07-.31-.33S143,35,143,34.4c1.13.09,2.11.09,3,.09h3.43c0-.87,0-1.81,0-2.58a7.53,7.53,0,0,0-.21-1.76,13.11,13.11,0,0,1,2.32.24c.19.05.26.12.26.24a1.06,1.06,0,0,1-.12.38,3.25,3.25,0,0,0-.14,1.06c0,.82,0,1.39,0,2.38Z"/><path class="cls-1" d="M160.54,31.72a.32.32,0,0,1,.24-.14.47.47,0,0,1,.23.09,18.1,18.1,0,0,1,3.33,2.47c.1.1.16.17.16.24a.37.37,0,0,1-.1.23c-.26.35-.84,1-1.08,1.31-.09.09-.14.14-.21.14s-.14-.05-.23-.14a18.46,18.46,0,0,0-3.55-2.84C159.7,32.6,160.21,32.06,160.54,31.72Zm1.51,9.18a25.78,25.78,0,0,0,5-3.24,26.12,26.12,0,0,0,4.77-4.74,7.77,7.77,0,0,0,.49,2,.85.85,0,0,1,.09.33c0,.16-.09.3-.28.52a28.44,28.44,0,0,1-4,3.69,37.5,37.5,0,0,1-5.26,3.41,6.06,6.06,0,0,0-1.17.8.48.48,0,0,1-.31.17.45.45,0,0,1-.3-.19,12.1,12.1,0,0,1-1.39-1.93A10.48,10.48,0,0,0,162.05,40.89Z"/><path class="cls-1" d="M183.57,31.82a2.55,2.55,0,0,0,1.2-.16.29.29,0,0,1,.19-.07.58.58,0,0,1,.3.14A6.34,6.34,0,0,1,186.39,33a.46.46,0,0,1,.09.23.48.48,0,0,1-.23.35,3.18,3.18,0,0,0-.64.77,27.49,27.49,0,0,1-2.23,3.26,41,41,0,0,1,4.82,4.21.4.4,0,0,1,.14.24.43.43,0,0,1-.12.26,9.3,9.3,0,0,1-1.17,1.18.3.3,0,0,1-.21.1.36.36,0,0,1-.24-.14,31.6,31.6,0,0,0-4.53-4.32,25.06,25.06,0,0,1-5.85,4.6,1.09,1.09,0,0,1-.4.14.39.39,0,0,1-.3-.16,4.77,4.77,0,0,0-1.46-1.13,21.17,21.17,0,0,0,6.13-4.44,21.37,21.37,0,0,0,3.27-4.37l-4.49,0c-.91,0-1.81,0-2.75.1-.14,0-.19-.1-.23-.3a10.16,10.16,0,0,1-.16-1.81c.94.07,1.81.07,2.94.07Z"/></svg>