<svg id="レイヤー_1" data-name="レイヤー 1" xmlns="http://www.w3.org/2000/svg" viewBox="0 0 269 59" width="269" height="59"><defs><style>.cls-1{fill:#ef7d32;}.cls-2{fill:#fff;}.cls-3{fill:none;stroke:#ef7d32;stroke-miterlimit:10;stroke-width:4.07px;fill-rule:evenodd;}</style></defs><title>link_exterior</title><path class="cls-1" d="M43.52,35.73a16.63,16.63,0,0,1,2.05-3.87c1.25-1.25,1-3.68,1.92-4.68A8,8,0,0,0,49,23.81c.79-2.36-.67-3.8-1.27-5.72a15.08,15.08,0,0,1-.38-2.71c.06-1.34-.58-2.19-1-3.56L43.28.32A11.71,11.71,0,0,1,46.94,2.2a7.12,7.12,0,0,0,2.38.18l2.33,1.24a4.4,4.4,0,0,0,1.87.14C54.36,4.09,55,4.94,55.85,5c1.53.11,3.32,1.85,4.89,1.17.89-.74,1,.61,1.68.66.84.33,1.7.13,2.36.44l2.55.19c.85.06,1.5.65,2.35.71L79,9.66a8,8,0,0,1-2.62,1.42,6.9,6.9,0,0,0-3.64,1.34c-1.22.71-2.4.36-3.64,1.34-.89.74-3.42.28-3,2.46.36,3.24-.81,6.38-.44,9.62.46,1.11.19,3.23.13,4.57,0,.8-.26,1.86-.31,2.93,0,.8-.43,1.85-.46,2.65s.28,1.36.24,2.16S65,40,64.93,40.8c-.26,1.86,0,4.29-.28,6.15,0,.8-6.44-.75-7.29-.81-.68-.05-1.15-.89-1.83-.94s-1.18-.36-1.86-.41c-1.49-.91-2.71-.47-4.2-1.38-2.5-1.26-5.2-1.73-7.71-2.72C42,38.84,42.92,37.57,43.52,35.73Zm22.76,9.19c.06-1.34,1-2.61.55-4.52-.45-1.37.28-2.39.17-3.74-.08-1.88-.37-3,.2-4.28s-.18-3.5-.12-4.84c0-1.07,1-3.14.55-4.52a12.94,12.94,0,0,1-.1-5.1c.51,0,.82.6,1.33.63.67.32,1.21-.45,1.88-.13,1.15.89,2.57-.35,3.71.81.47.84,2.85,1,3.54.8,1.4-.7,2.89.21,4.24.58l7.47.55c.51,0,1.16.62,1.71-.14.89-.74,1.16.62,1.85.67,1.36.1,2.94-.86,4.28-.49a11.44,11.44,0,0,0,7.32.27c1.37-.17,2.51,1,3.74.28.89-.74,1.18.36,1.86.41.85.06,1.74-.68,2.42-.63,2.56-.08,4.76.35,7.32.27l8-.48c2.56-.08,4.82-1,7.37-.8.69-.22,1.18.36,1.86.41s1.06-.73,1.74-.68c1.52.38,2.9-.05,4.43.06a33.15,33.15,0,0,1,7.2-.81l3.76-.26c1.36.1,3-1.39,4.28-.49,2.51,1,4.8-.72,7.35-.53a17.6,17.6,0,0,0,3.75,0l1.73-.68c.85.06,1.71-.14,2.39-.09,2.59-.61,4.95-.17,7.51-.25.52-.23,1.18.36,1.7.13a4.35,4.35,0,0,0,1.9-.66c1.36.1,2.86.75,4.26,0,1.23-.71,2.51,1,3.75,0,1.23-.71,2.35.71,3.59-.27,1.22-.71,2.55.19,3.75,0a22.67,22.67,0,0,0,4.26,0c2.55.19,4.8-.45,7.34-.26,1.19.09,2.54.46,3.73.54,1.36.1,2.92-.59,4.25.31,1.15.89,2.56-.08,3.74.28a16.06,16.06,0,0,0,3.58,0c2.73-.07,5.24.92,7.95,1.39a16.69,16.69,0,0,1,3.54.8l1.87.14c.67.32,1.38-.43,1.88-.13,1.87.14,1.18.36,1.08,2.49-.09,1.87-.66,3.17-.23,5.08.47.84-.32,3.19-.38,4.53s.73,2.73.13,4.57c-1,3.14.19,7-.64,10.14a7.05,7.05,0,0,0,0,3.75c.46,1.11-.63,2.64-.19,4,.84,4.08-4.53,2.08-5.69,1.46-1.15-.89-2.54-.46-3.74-.28s-2.31-1.51-3.54-.8c-.89.74-1.18-.36-1.86-.41-.85-.06-1.07,1-1.88.13-1.31-1.17-2.9.05-4.26,0-.85-.06-1-1.41-1.84-.67a3.45,3.45,0,0,1-1.88.13c-.68-.05-1-1.14-1.69-.39s-1.2.18-1.88.13c-1.19-.09-2.54-.46-3.73-.54-.68-.05-1.07,1-1.88.13-.64-.85-1.53-.11-2.38-.18-2.51-1-4.84,1.52-7.34.26a8.84,8.84,0,0,0-3.74-.28c-1.4.7-2.9.05-4.27.22l-7.34.26-3.62.8c-.85-.06-1.15-.89-1.87-.14s-1.71.14-2.39.09c-2.51-1-4.84,1.52-7.35.53-1.15-.89-2.57.35-3.78.53a22.67,22.67,0,0,0-4.26,0l-7.35.53-3.76.26c-1.37.17-2.79,1.4-4.28.49-.81-.86-2.42.63-3.62.8s-2.54-.46-3.74-.28c-2.58.61-5.3.41-7.86.49s-4.81.72-7.37.8c-.69.22-1.16-.62-1.86-.41a4.36,4.36,0,0,1-1.9.66c-.51,0-1.16-.62-1.69-.39-.85-.06-1.71.14-2.56.08-1.17-.35-2.44,1.16-3.59.27s-2.55-.19-3.74-.28a16.82,16.82,0,0,1-3.75,0,21,21,0,0,1-4.28.49c-1.19-.09-2.35-.71-3.54-.8a17.9,17.9,0,0,0-3.76.26c-1.19-.09-2.35-.71-3.54-.8a3.44,3.44,0,0,0-1.88.13c-1.23.71-1.32-.9-2.55-.19-.72.75-1-.08-1.7-.13l-6.8-.5a48.54,48.54,0,0,1-8.94-2C65.63,51.58,66.13,48.13,66.28,44.92ZM264.52,26.6a7.65,7.65,0,0,0-1,2.88c0,1.07-.57,1.3-1.12,2.06A10,10,0,0,0,261.18,36c.42,1.91,1.24,2.77,1.66,4.68.46,1.11-.1,2.14.37,3a5.67,5.67,0,0,1,.91,2.48,6.94,6.94,0,0,1,.87,3.28,3.62,3.62,0,0,0,.58,2.19c.64.85.41,2.18.88,3a5.61,5.61,0,0,1,.72,2.73,114.18,114.18,0,0,0-15.77-5.46c-.68-.05-1.18-.36-1.87-.14-.88.74-1-.61-1.83-.94a19.17,19.17,0,0,1-3.91-.29c-.45-1.37.46-2.65.52-4,.1-2.14.55-4.52.13-6.43a50.62,50.62,0,0,1,.23-5.08c.06-1.34-.17-3.77.4-5.06.6-1.83-.22-2.7-.13-4.57s.51-3.72.6-5.59c.11-2.4-.88-3-2-3.9s-2.47-1.79-3.8-2.69a58.13,58.13,0,0,1-6.91-5.34c12.19,1.71,24,4.19,36.06,9.1C268.19,21,265.86,23.48,264.52,26.6Z"/><path class="cls-2" d="M92.62,37c.06-.08.1-.11.14-.11s.1,0,.16.1a14.35,14.35,0,0,1,1.42,1.38,15.56,15.56,0,0,0,1.11-3.49H93.17a15.69,15.69,0,0,1-2.73,4c-.14.16-.24.24-.32.24s-.16-.1-.27-.32a3.4,3.4,0,0,0-.8-1,12.73,12.73,0,0,0,3.38-5.69,4.89,4.89,0,0,0,.21-1.27,12.72,12.72,0,0,1,1.64.35c.16,0,.24.13.24.23a.36.36,0,0,1-.11.27,2.23,2.23,0,0,0-.32.82c-.1.29-.18.56-.27.82h1.66a.86.86,0,0,0,.48-.1.4.4,0,0,1,.23-.06c.11,0,.29,0,.71.43s.47.47.47.56-.06.16-.16.27l-.1.16a11.72,11.72,0,0,0,1.61,2.06V33.28a14.79,14.79,0,0,0-.13-2.44,15.48,15.48,0,0,1,1.77.13c.15,0,.24.06.24.16a1,1,0,0,1-.08.32,6.4,6.4,0,0,0-.11,1.79V38.1A18.5,18.5,0,0,0,104.15,40a5,5,0,0,0-.71,1.27c-.11.29-.16.4-.29.4a1.1,1.1,0,0,1-.37-.13,18.09,18.09,0,0,1-2.41-1.35v2.32c0,1.8,0,2.72,0,2.8s0,.18-.18.18h-1.4c-.16,0-.18,0-.18-.18s0-1,0-2.8V38.89a13.33,13.33,0,0,1-2-2.38A14.35,14.35,0,0,1,90.84,45c-.19.14-.31.23-.39.23s-.18-.11-.35-.32a3.92,3.92,0,0,0-.93-.85,12.68,12.68,0,0,0,4.39-4.21A17.29,17.29,0,0,0,92,38.17c-.06-.06-.1-.1-.1-.14a.35.35,0,0,1,.1-.19Z"/><path class="cls-2" d="M110.94,43.55c1-.16,2.07-.35,3.25-.63a5.25,5.25,0,0,0-.1,1c0,.34,0,.34-.53.45-1.61.37-3.39.67-4.91.92a2.06,2.06,0,0,0-.59.18.36.36,0,0,1-.24.1c-.11,0-.19,0-.26-.22-.13-.43-.24-.92-.35-1.38.68,0,1.14-.11,1.72-.18l.47,0V42.12a18.39,18.39,0,0,1-3,1.22,1.73,1.73,0,0,1-.37.08c-.14,0-.19-.1-.34-.4a3.89,3.89,0,0,0-.61-.88,14.52,14.52,0,0,0,5-2h-2.56c-1.43,0-1.91,0-2,0s-.16,0-.16-.18V38.86c0-.16,0-.18.16-.18s.58,0,2,0h4.2a11.18,11.18,0,0,0-.08-1.19c.58,0,1.08.06,1.61.11.21,0,.27.11.27.19a1,1,0,0,1-.1.35,1.34,1.34,0,0,0-.06.53h4.2c1.43,0,1.91,0,2,0s.18,0,.18.18V40c0,.16,0,.18-.18.18s-.58,0-2,0h0c.34.23.63.43.92.66a.3.3,0,0,1,.14.24c0,.11-.1.18-.21.21a1.58,1.58,0,0,0-.51.31c-.45.35-.92.68-1.43,1a11.5,11.5,0,0,0,3.76,1.37,4.77,4.77,0,0,0-.71,1.09c-.21.45-.24.45-.71.32a9.36,9.36,0,0,1-6.27-5.23h-.23a11.23,11.23,0,0,1-1.35,1.08Zm-2.25-10.9a12.28,12.28,0,0,0-.1-1.83c.59,0,1.13,0,1.67.11.13,0,.24.08.24.16a.61.61,0,0,1-.1.3c-.1.18-.1.39-.1,1.22v3.49c0,1.17,0,1.72,0,1.82s0,.18-.16.18h-1.35c-.16,0-.16,0-.16-.18s0-.61,0-1.67c-.64.31-1.38.63-2,.88a2,2,0,0,0-.48.22.38.38,0,0,1-.26.13c-.08,0-.14-.08-.21-.21-.18-.4-.35-.92-.51-1.42a8.54,8.54,0,0,0,1.33-.31c.76-.26,1.46-.51,2.15-.82Zm-2.2-.93c.14-.13.18-.14.32,0a15.65,15.65,0,0,1,1.56,1.54c.11.14.1.18-.06.32l-.82.76c-.1.08-.14.13-.21.13s-.08,0-.13-.11a8.94,8.94,0,0,0-1.45-1.64c-.13-.1-.11-.14,0-.29Zm7,5.5c-1.42,0-1.88,0-2,0s-.19,0-.19-.18V36c0-.16,0-.16.19-.16s.56,0,2,0h.79V34.07h-1c-1.5,0-2,0-2.12,0s-.18,0-.18-.18V32.81c0-.18,0-.19.18-.19s.63,0,2.12,0h1v-.32a7.68,7.68,0,0,0-.11-1.54c.63,0,1.13.06,1.67.11.16,0,.26.1.26.18a.61.61,0,0,1-.08.29,2,2,0,0,0-.1.92v.37h1.38c1.5,0,2,0,2.12,0s.18,0,.18.19v1.11c0,.16,0,.18-.18.18s-.63,0-2.12,0h-1.38v1.75h.88c1.43,0,1.9,0,2,0s.19,0,.19.16v1.11c0,.16,0,.18-.19.18s-.56,0-2,0Zm.61,2.91a5.84,5.84,0,0,0,1.25,1.62,11.19,11.19,0,0,0,1.42-1.14,2.44,2.44,0,0,0,.4-.48Z"/><path class="cls-2" d="M130.2,38.13a1.61,1.61,0,1,1-1.61-1.61A1.61,1.61,0,0,1,130.2,38.13Z"/><path class="cls-2" d="M145.14,41h2.3c1.08,0,2.16,0,3.25-.06.18,0,.26.06.26.26,0,.42,0,.87,0,1.29,0,.21,0,.29-.24.29-.77,0-2.2-.06-3.25-.06H141c-.66,0-1.7,0-3,.06-.26,0-.29,0-.34-.32a9.36,9.36,0,0,1-.11-1.51C138.73,41,140,41,141,41h2.19v-5.5h-1.25c-1.16,0-1.83,0-2.49.06-.19,0-.23-.1-.27-.34a8.89,8.89,0,0,1-.13-1.5,27.41,27.41,0,0,0,2.78.06h4.55c1,0,1.87,0,2.81,0,.16,0,.21.08.21.26,0,.4,0,.85,0,1.25,0,.21,0,.31-.23.31-1.08,0-1.87-.06-2.77-.06h-1.25Z"/><path class="cls-2" d="M161.67,33.91a1.5,1.5,0,0,0,.8-.19.33.33,0,0,1,.21-.06.47.47,0,0,1,.26.1,7.45,7.45,0,0,1,1.09.87.52.52,0,0,1,.21.37.47.47,0,0,1-.19.34,1.94,1.94,0,0,0-.53.69,22.21,22.21,0,0,1-3.18,5,20.45,20.45,0,0,1-4.89,4,.44.44,0,0,1-.26.08.57.57,0,0,1-.37-.18,4.22,4.22,0,0,0-1.53-.74,18.53,18.53,0,0,0,5.36-4.1,16.39,16.39,0,0,0,3-4.57l-3.89.11a22.43,22.43,0,0,1-3,3.3.5.5,0,0,1-.34.18.39.39,0,0,1-.24-.1,4.36,4.36,0,0,0-1.54-.69,19.08,19.08,0,0,0,4.33-4.78,6.86,6.86,0,0,0,.95-2.17,7.91,7.91,0,0,1,1.88.85.34.34,0,0,1,.16.27.32.32,0,0,1-.18.27,1.74,1.74,0,0,0-.4.43l-.53.8Z"/><path class="cls-2" d="M175.09,33.07a2.36,2.36,0,0,0,1.11-.14.27.27,0,0,1,.18-.06.53.53,0,0,1,.27.13,5.88,5.88,0,0,1,1,1.13.43.43,0,0,1,.08.21.44.44,0,0,1-.21.32,2.93,2.93,0,0,0-.59.71,25.34,25.34,0,0,1-2.06,3,37.84,37.84,0,0,1,4.46,3.89.37.37,0,0,1,.13.22.39.39,0,0,1-.11.24,8.6,8.6,0,0,1-1.08,1.09.28.28,0,0,1-.19.1.33.33,0,0,1-.22-.13,29.3,29.3,0,0,0-4.18-4A23.16,23.16,0,0,1,168.3,44a1,1,0,0,1-.37.13.36.36,0,0,1-.27-.15,4.41,4.41,0,0,0-1.35-1A20.08,20.08,0,0,0,175,34.84l-4.15,0c-.84,0-1.67,0-2.54.1-.13,0-.18-.1-.21-.27a9.4,9.4,0,0,1-.14-1.67c.87.06,1.67.06,2.72.06Z"/><path class="cls-2" d="M189.5,37.67a9.19,9.19,0,0,1-.95,4.1,8.1,8.1,0,0,1-2.83,3,1,1,0,0,1-.48.19.47.47,0,0,1-.34-.16,4.24,4.24,0,0,0-1.43-.85,7.14,7.14,0,0,0,3.2-2.86,6.84,6.84,0,0,0,.82-3.46h-3.06c-.8,0-1.59,0-2.41.1-.15,0-.19-.1-.21-.31a9.6,9.6,0,0,1-.13-1.54c.9.08,1.8.08,2.73.08h7.22c1.25,0,2.19,0,3.14-.1.16,0,.18.1.18.32s0,1,0,1.24-.1.27-.24.27c-.84,0-1.95-.06-3.06-.06Zm-3.18-3.73c-.74,0-1.38,0-2.28.06-.21,0-.26-.08-.27-.27,0-.39-.06-1-.11-1.54,1.13.06,1.95.08,2.67.08h3.6c.9,0,1.91,0,2.72-.06.16,0,.19.1.19.31a7.14,7.14,0,0,1,0,1.17c0,.23,0,.31-.21.31-.87,0-1.82,0-2.7,0Z"/><path class="cls-2" d="M198.29,34.18a11.06,11.06,0,0,0-.18-2.35,11.85,11.85,0,0,1,2,.34c.19,0,.27.14.27.26a.68.68,0,0,1-.06.24,3.7,3.7,0,0,0-.18,1.53v3.25c0,.84,0,1.46,0,2,0,.24-.1.32-.35.32h-1.29c-.22,0-.32-.08-.31-.27,0-.56,0-1.5,0-2.19Zm7.58,3c0,2.38-.35,4-1.3,5.24A8.31,8.31,0,0,1,201,45a1,1,0,0,1-.34.08.52.52,0,0,1-.39-.19,5.22,5.22,0,0,0-1.37-1,7.86,7.86,0,0,0,3.92-2.35c.74-.92,1.08-2.25,1.08-4.29v-3a11.83,11.83,0,0,0-.18-2.62,10.08,10.08,0,0,1,2.09.35.27.27,0,0,1,.23.27.51.51,0,0,1-.06.26,4.85,4.85,0,0,0-.14,1.75Z"/><path class="cls-2" d="M212.69,34.39c-.92,0-1.9.06-2.85.13-.19,0-.26-.1-.29-.24a15,15,0,0,1-.29-1.74c1.09.08,2,.11,3.26.11h6.9a3.39,3.39,0,0,0,1.11-.1,1.16,1.16,0,0,1,.31-.11.55.55,0,0,1,.37.23,8.12,8.12,0,0,1,1,1,.47.47,0,0,1,.13.29.42.42,0,0,1-.22.34,2,2,0,0,0-.43.47,13.67,13.67,0,0,1-2.83,3.1.46.46,0,0,1-.34.15.63.63,0,0,1-.39-.16,3.7,3.7,0,0,0-1.33-.66,11.45,11.45,0,0,0,2.88-2.81Zm.9,6.27a7.43,7.43,0,0,0,.79-3.79,5.8,5.8,0,0,0-.16-1.51,17.63,17.63,0,0,1,2.08.31c.21,0,.27.16.27.31a.66.66,0,0,1-.08.29,1.47,1.47,0,0,0-.15.66,9.83,9.83,0,0,1-.95,4.42,8.37,8.37,0,0,1-2.93,3.2.81.81,0,0,1-.45.16.45.45,0,0,1-.32-.14,4.53,4.53,0,0,0-1.46-.82A7.12,7.12,0,0,0,213.6,40.66Z"/><circle class="cls-2" cx="14.88" cy="25.89" r="14.76"/><polyline class="cls-3" points="18.15 34.58 10.03 26.47 18.15 18.36"/></svg>