<svg id="レイヤー_1" data-name="レイヤー 1" xmlns="http://www.w3.org/2000/svg" viewBox="0 0 232 93" width="232" height="93"><defs><style>.cls-1{fill:#fff;}.cls-2{fill:none;stroke:#ef7d32;stroke-miterlimit:10;stroke-width:4.07px;fill-rule:evenodd;}.cls-3{fill:#ef7d32;}</style></defs><title>link_interior</title><circle class="cls-1" cx="49.45" cy="77.97" r="14.76"/><polyline class="cls-2" points="46.18 86.66 54.3 78.55 46.18 70.43"/><path class="cls-3" d="M2,35.68a16.53,16.53,0,0,1,2.09-3.87c1.28-1.25,1-3.68,2-4.68a7.9,7.9,0,0,0,1.55-3.37C8.45,21.4,7,19.95,6.35,18A14.81,14.81,0,0,1,6,15.32c.06-1.34-.59-2.19-1-3.56L1.8.27A12,12,0,0,1,5.54,2.15,7.4,7.4,0,0,0,8,2.32l2.37,1.24a4.57,4.57,0,0,0,1.9.14C13.1,4,13.75,4.89,14.62,5c1.56.11,3.39,1.85,5,1.17.9-.74,1,.61,1.71.66.85.33,1.73.13,2.41.44l2.6.19c.87.06,1.53.65,2.4.71L38.2,9.61A8.26,8.26,0,0,1,35.53,11a7.12,7.12,0,0,0-3.71,1.34c-1.25.71-2.45.36-3.71,1.34-.9.74-3.49.28-3.07,2.46.37,3.24-.82,6.38-.45,9.62.47,1.11.19,3.23.13,4.57,0,.8-.26,1.86-.31,2.93,0,.8-.43,1.85-.47,2.65s.28,1.36.24,2.16-.26,1.86-.3,2.66c-.26,1.86,0,4.29-.29,6.15,0,.8-6.57-.75-7.43-.81-.69-.05-1.17-.89-1.87-.94s-1.2-.36-1.89-.41c-1.52-.91-2.76-.47-4.28-1.38C5.57,42.1,2.81,41.63.25,40.64.51,38.79,1.44,37.51,2,35.68Zm23.2,9.19c.06-1.34,1-2.61.56-4.52-.46-1.37.29-2.39.18-3.74-.08-1.88-.38-3,.2-4.28s-.18-3.5-.12-4.84c.05-1.07,1-3.14.56-4.52a12.7,12.7,0,0,1-.11-5.1c.52,0,.84.6,1.36.63.68.32,1.24-.45,1.92-.13,1.17.89,2.62-.35,3.78.81.48.84,2.91,1,3.61.8,1.43-.7,2.95.21,4.32.58l7.62.55c.52,0,1.19.62,1.74-.14.9-.74,1.19.62,1.88.67,1.39.1,3-.86,4.37-.49a11.87,11.87,0,0,0,7.46.27c1.4-.17,2.56,1,3.81.28.9-.74,1.2.36,1.89.41.87.06,1.77-.68,2.46-.63,2.61-.08,4.85.35,7.46.27l8.19-.48c2.61-.08,4.91-1,7.51-.8.7-.22,1.2.36,1.89.41s1.08-.73,1.77-.68c1.55.38,3-.05,4.52.06a34.41,34.41,0,0,1,7.33-.81l3.84-.26c1.39.1,3-1.39,4.37-.49,2.56,1,4.9-.72,7.49-.53a18.28,18.28,0,0,0,3.82,0l1.77-.68c.87.06,1.74-.14,2.44-.09,2.64-.61,5-.17,7.65-.25.53-.23,1.2.36,1.73.13a4.49,4.49,0,0,0,1.94-.66c1.39.1,2.92.75,4.34,0,1.25-.71,2.56,1,3.82,0,1.25-.71,2.4.71,3.66-.27,1.25-.71,2.59.19,3.82,0a23.55,23.55,0,0,0,4.34,0c2.6.19,4.89-.45,7.49-.26,1.21.09,2.59.46,3.8.54,1.38.1,3-.59,4.33.31,1.17.89,2.61-.08,3.81.28a16.68,16.68,0,0,0,3.65,0c2.78-.07,5.34.92,8.1,1.39a17.29,17.29,0,0,1,3.61.8l1.91.14c.68.32,1.41-.43,1.92-.13,1.91.14,1.2.36,1.1,2.49-.09,1.87-.67,3.17-.24,5.08.48.84-.32,3.19-.39,4.53s.74,2.73.13,4.57c-1,3.14.19,7-.65,10.14a6.92,6.92,0,0,0,0,3.75c.47,1.11-.64,2.64-.19,4,.85,4.08-4.61,2.08-5.8,1.46-1.17-.89-2.59-.46-3.81-.28s-2.36-1.51-3.61-.8c-.9.74-1.2-.36-1.89-.41-.86-.06-1.09,1-1.92.13-1.33-1.17-3,.05-4.34,0-.87-.06-1-1.41-1.88-.67a3.58,3.58,0,0,1-1.92.13c-.69-.05-1-1.14-1.72-.39s-1.22.18-1.92.13c-1.21-.09-2.59-.46-3.8-.54-.69-.05-1.09,1-1.92.13-.65-.85-1.56-.11-2.42-.18-2.56-1-4.94,1.52-7.48.26a9.18,9.18,0,0,0-3.81-.28c-1.43.7-3,.05-4.36.22l-7.48.26-3.69.8c-.86-.06-1.17-.89-1.9-.14s-1.74.14-2.44.09c-2.56-1-4.94,1.52-7.5.53-1.17-.89-2.62.35-3.85.53A23.55,23.55,0,0,0,121,55l-7.5.53-3.84.26c-1.4.17-2.85,1.4-4.37.49-.83-.86-2.46.63-3.69.8s-2.59-.46-3.81-.28c-2.63.61-5.4.41-8,.49s-4.9.72-7.51.8c-.7.22-1.19-.62-1.89-.41a4.5,4.5,0,0,1-1.94.66c-.52,0-1.19-.62-1.72-.39-.86-.06-1.74.14-2.61.08-1.2-.35-2.49,1.16-3.66.27s-2.6-.19-3.81-.28a17.47,17.47,0,0,1-3.82,0,21.8,21.8,0,0,1-4.37.49c-1.21-.09-2.4-.71-3.61-.8A18.59,18.59,0,0,0,51,58c-1.21-.09-2.4-.71-3.61-.8a3.57,3.57,0,0,0-1.92.13c-1.25.71-1.35-.9-2.6-.19-.73.75-1-.08-1.73-.13l-6.93-.5a50.29,50.29,0,0,1-9.11-2C24.58,51.53,25.09,48.08,25.24,44.87ZM227.3,26.54a7.56,7.56,0,0,0-1,2.88c-.05,1.07-.58,1.3-1.14,2.06A9.85,9.85,0,0,0,223.9,36c.43,1.91,1.26,2.77,1.69,4.68.47,1.11-.1,2.14.38,3a5.6,5.6,0,0,1,.93,2.48,6.84,6.84,0,0,1,.89,3.28,3.57,3.57,0,0,0,.59,2.19c.66.85.42,2.18.9,3a5.52,5.52,0,0,1,.74,2.73,117.9,117.9,0,0,0-16.07-5.46c-.69-.05-1.2-.36-1.91-.14-.9.74-1-.61-1.87-.94a19.91,19.91,0,0,1-4-.29c-.46-1.37.47-2.65.54-4,.1-2.14.56-4.52.13-6.43A49.67,49.67,0,0,1,207.1,35c.06-1.34-.17-3.77.41-5.06.61-1.83-.22-2.7-.13-4.57s.52-3.72.61-5.59c.11-2.4-.9-3-2.07-3.9s-2.52-1.79-3.87-2.69a59.13,59.13,0,0,1-7-5.34c12.43,1.71,24.47,4.19,36.75,9.1C231,20.92,228.66,23.43,227.3,26.54Z"/><path class="cls-1" d="M50.94,38.71c0,1.2,0,2.23.05,3.62,0,.23-.07.3-.26.3a14.39,14.39,0,0,1-1.74,0c-.19,0-.26-.07-.24-.28,0-1.25.07-2.38.07-3.57V34.72A30.09,30.09,0,0,1,44,38.06a.49.49,0,0,1-.26.07A.49.49,0,0,1,43.4,38a6.48,6.48,0,0,0-1.5-1,27.94,27.94,0,0,0,5.48-3.57,28.28,28.28,0,0,0,3.71-3.64,5,5,0,0,0,1.1-1.79,15.37,15.37,0,0,1,1.93,1.22.31.31,0,0,1,.14.26.5.5,0,0,1-.24.38,5.73,5.73,0,0,0-1,1,27.55,27.55,0,0,1-2,2.19Z"/><path class="cls-1" d="M58.32,29.76a.33.33,0,0,1,.24-.14.47.47,0,0,1,.23.09,18.13,18.13,0,0,1,3.33,2.47c.1.1.16.17.16.24a.37.37,0,0,1-.1.23c-.26.35-.84,1-1.08,1.31-.09.09-.14.14-.21.14s-.14-.05-.23-.14a18.48,18.48,0,0,0-3.55-2.84C57.49,30.65,58,30.11,58.32,29.76Zm1.51,9.18a25.8,25.8,0,0,0,5-3.24A26.17,26.17,0,0,0,69.62,31a7.79,7.79,0,0,0,.49,2,.84.84,0,0,1,.09.33c0,.16-.09.3-.28.52a28.48,28.48,0,0,1-4,3.69A37.5,37.5,0,0,1,60.66,41a6,6,0,0,0-1.17.8.48.48,0,0,1-.31.17.45.45,0,0,1-.3-.19,12,12,0,0,1-1.39-1.93A10.47,10.47,0,0,0,59.84,38.93Z"/><path class="cls-1" d="M80.73,34.84a9.94,9.94,0,0,1-1,4.44,8.76,8.76,0,0,1-3.06,3.29,1.06,1.06,0,0,1-.52.21.52.52,0,0,1-.37-.17,4.57,4.57,0,0,0-1.55-.92,7.74,7.74,0,0,0,3.46-3.1,7.4,7.4,0,0,0,.89-3.74H75.24c-.87,0-1.72.05-2.61.1-.16,0-.21-.1-.23-.33a10.5,10.5,0,0,1-.14-1.67c1,.09,2,.09,3,.09H83c1.36,0,2.37,0,3.4-.1.17,0,.19.1.19.35s0,1.11,0,1.34-.1.3-.26.3c-.91,0-2.11-.07-3.31-.07Zm-3.45-4c-.8,0-1.5,0-2.47.07-.23,0-.28-.09-.3-.3-.05-.42-.07-1-.12-1.67,1.22.07,2.11.09,2.89.09h3.9c1,0,2.07,0,2.94-.07.17,0,.21.1.21.33a7.79,7.79,0,0,1,0,1.27c0,.24,0,.33-.23.33-.94,0-2-.05-2.92-.05Z"/><path class="cls-1" d="M90.25,31.06a11.92,11.92,0,0,0-.19-2.54,12.9,12.9,0,0,1,2.16.37c.21.05.3.16.3.28a.74.74,0,0,1-.07.26,4,4,0,0,0-.19,1.65V34.6c0,.91,0,1.58.05,2.19,0,.26-.1.35-.38.35H90.53c-.24,0-.35-.09-.33-.3,0-.61.05-1.62.05-2.37Zm8.2,3.25c0,2.58-.38,4.3-1.41,5.68a9,9,0,0,1-3.83,2.73,1.09,1.09,0,0,1-.37.09.57.57,0,0,1-.42-.21,5.66,5.66,0,0,0-1.48-1.06A8.5,8.5,0,0,0,95.19,39c.8-1,1.17-2.44,1.17-4.65V31.06a12.77,12.77,0,0,0-.19-2.84,10.89,10.89,0,0,1,2.26.38.29.29,0,0,1,.24.3.55.55,0,0,1-.07.28,5.25,5.25,0,0,0-.16,1.9Z"/><path class="cls-1" d="M105.84,31.29c-1,0-2.05.07-3.08.14-.21,0-.28-.1-.31-.26a16.28,16.28,0,0,1-.31-1.88c1.18.09,2.14.12,3.53.12h7.47a3.68,3.68,0,0,0,1.2-.1,1.26,1.26,0,0,1,.33-.12.59.59,0,0,1,.4.24,8.88,8.88,0,0,1,1,1.1.51.51,0,0,1,.14.31.46.46,0,0,1-.24.37,2.16,2.16,0,0,0-.47.5,14.8,14.8,0,0,1-3.06,3.36.5.5,0,0,1-.37.16.68.68,0,0,1-.42-.17,4,4,0,0,0-1.45-.71,12.37,12.37,0,0,0,3.12-3Zm1,6.79a8,8,0,0,0,.85-4.11,6.3,6.3,0,0,0-.17-1.64,19.24,19.24,0,0,1,2.25.33c.23.05.3.17.3.33a.71.71,0,0,1-.09.31,1.6,1.6,0,0,0-.16.71,10.64,10.64,0,0,1-1,4.79,9.06,9.06,0,0,1-3.17,3.46.88.88,0,0,1-.49.17.49.49,0,0,1-.35-.16,4.9,4.9,0,0,0-1.58-.89A7.71,7.71,0,0,0,106.82,38.08Z"/><path class="cls-1" d="M119.93,31.06a11.92,11.92,0,0,0-.19-2.54,12.9,12.9,0,0,1,2.16.37c.21.05.3.16.3.28a.74.74,0,0,1-.07.26,4,4,0,0,0-.19,1.65V34.6c0,.91,0,1.58.05,2.19,0,.26-.1.35-.38.35h-1.39c-.24,0-.35-.09-.33-.3,0-.61.05-1.62.05-2.37Zm8.2,3.25c0,2.58-.38,4.3-1.41,5.68a9,9,0,0,1-3.83,2.73,1.09,1.09,0,0,1-.37.09.57.57,0,0,1-.42-.21,5.66,5.66,0,0,0-1.48-1.06A8.5,8.5,0,0,0,124.87,39c.8-1,1.17-2.44,1.17-4.65V31.06a12.77,12.77,0,0,0-.19-2.84,10.89,10.89,0,0,1,2.26.38.29.29,0,0,1,.24.3.55.55,0,0,1-.07.28,5.25,5.25,0,0,0-.16,1.9Z"/><path class="cls-1" d="M135.59,31.83c-1.13,0-2.12.05-2.87.09-.23,0-.3-.1-.33-.35s-.12-1.25-.16-1.76a30.48,30.48,0,0,0,3.34.12h6.22a1.66,1.66,0,0,0,1-.17.5.5,0,0,1,.26-.07.86.86,0,0,1,.33.09,5.36,5.36,0,0,1,1.27,1.15.44.44,0,0,1,.12.3.59.59,0,0,1-.24.44,2.08,2.08,0,0,0-.4.68A20.48,20.48,0,0,1,140.71,38a19.52,19.52,0,0,1-4.94,4.14.84.84,0,0,1-.47.16.61.61,0,0,1-.44-.19,5.16,5.16,0,0,0-1.62-1,16.81,16.81,0,0,0,5.69-4.35,14.65,14.65,0,0,0,2.94-5Z"/><path class="cls-1" d="M153.37,37a13.53,13.53,0,0,1-1.74,1.92A21.09,21.09,0,0,1,149,40.85a.61.61,0,0,1-.3.1.39.39,0,0,1-.28-.17,2.78,2.78,0,0,0-1.25-.85,16.21,16.21,0,0,0,3.24-2.19,14,14,0,0,0,1.9-1.92h-2c-.73,0-1.45.05-2.19.07-.14,0-.24-.09-.26-.28-.05-.38-.09-.84-.12-1.45,1.06.07,1.67.07,2.52.07h3l-.05-1.15a9.15,9.15,0,0,0-.24-1.71,16.88,16.88,0,0,1,1.9.16c.26,0,.31.23.23.44a2.25,2.25,0,0,0-.09,1l.05,1.24h1.22c.87,0,1.92-.05,2.65-.05.21,0,.3.05.3.23,0,.4,0,.82,0,1.22,0,.16-.1.26-.3.24-.66,0-1.57,0-2.59,0h-1.15l.23,4.86c0,.91-.21,1.32-.7,1.6a4,4,0,0,1-1.92.52c-.3,0-.42-.09-.5-.3a2.9,2.9,0,0,0-1.11-1.32,12.55,12.55,0,0,0,2.09-.14.38.38,0,0,0,.35-.42Z"/><path class="cls-1" d="M164.39,36.58a13.91,13.91,0,0,0-2.56.21c-.21,0-.35-.1-.4-.37a18.85,18.85,0,0,1-.26-2.11,22.29,22.29,0,0,0,3.76.21h5.61c1.32,0,2.66,0,4-.05.26,0,.31,0,.31.24a12.89,12.89,0,0,1,0,1.64c0,.21-.07.28-.31.26-1.31,0-2.59,0-3.88,0Z"/><path class="cls-1" d="M184.2,29.18c.12.09.21.17.21.28a.58.58,0,0,1-.17.35,5.61,5.61,0,0,0-.71,1.45c-1,2.66-1.9,5.22-3,7.83,2.68-.23,4.14-.37,6.09-.66a17.36,17.36,0,0,0-1.93-2.79l1.51-.83c.19-.1.3,0,.42.1a24.47,24.47,0,0,1,3.52,5.69.42.42,0,0,1,.07.23c0,.1-.07.21-.23.3a8.79,8.79,0,0,1-1.32.71.46.46,0,0,1-.21.05c-.1,0-.19-.09-.24-.24-.21-.49-.4-.94-.61-1.39-2.79.42-5.43.71-8.27,1a5.87,5.87,0,0,0-2,.42c-.23.1-.42.07-.5-.17a16.29,16.29,0,0,1-.61-2.25c.7.05,1.43,0,2.12,0,1.24-3.12,2.14-5.69,3-8.62a9.28,9.28,0,0,0,.5-2.39A9.48,9.48,0,0,1,184.2,29.18Z"/></svg>