<svg id="レイヤー_1" data-name="レイヤー 1" xmlns="http://www.w3.org/2000/svg" viewBox="0 0 1278 87" width="1278" height="87"><defs><style>.cls-1{fill:none;stroke:#ef7d32;stroke-miterlimit:10;}.cls-2{fill:#231815;}</style></defs><title>service_lead</title><path class="cls-1" d="M0,46.49s291,50,488,21c168.76-24.84,448-40.29,790,7.36"/><path class="cls-2" d="M193.1,32.45c1.09-3.06,3.7-4.51,7.06-4.24,4,.32,6.44,2.87,6.18,6.08a4.81,4.81,0,0,1-4.62,4.64l0,.2A5.39,5.39,0,0,1,205.93,45c-.31,3.9-3.35,6.34-7.58,6-3.64-.29-5.93-2-6.64-5.44l3.64-.76c.32,2.27,1.29,3.24,3.19,3.4,2.08.16,3.49-1.12,3.68-3.46.2-2.52-.87-4.08-4-4.33l-1.68-.13.23-2.95,1.53.12c2.89.23,4.15-.92,4.32-3.15A2.81,2.81,0,0,0,199.88,31c-1.53-.12-2.85.73-3.31,2.79Z"/><path class="cls-2" d="M215.48,35.17c4.56-1.2,8.24-1.84,10.58-1.68,5.18.36,8.29,3.71,8,8.25-.26,3.79-2.08,6.08-5.65,7.69a24.71,24.71,0,0,1-7.51,1.89c-.59.08-.82,0-1-.53A5.38,5.38,0,0,0,218,48.37a27.24,27.24,0,0,0,8-1.6c2.54-1.07,4.21-2.82,4.39-5.48s-1.46-4.52-4.67-4.74c-2.6-.18-6.12.62-10.65,2.26a18.61,18.61,0,0,0-2.07.9c-.43.32-.67.39-.81.38s-.51-.21-.8-.67a16.88,16.88,0,0,1-1.64-3.14A25.74,25.74,0,0,0,215.48,35.17Z"/><path class="cls-2" d="M253.54,36.45c-.94,4.89-2.4,9.34-4.3,12.28-1.36,2.1-2.93,3.18-5.11,3.06-2.55-.14-5-3-4.72-7.72a10.69,10.69,0,0,1,3.69-7.35,12.69,12.69,0,0,1,9.62-3.19c7,.38,10.8,4.89,10.48,10.65-.3,5.39-3.52,8.61-9.5,10.05-.62.14-.87,0-1.22-.59a6.15,6.15,0,0,0-1.93-1.94c5-.89,8.92-2.71,9.22-8.18a6.59,6.59,0,0,0-6.12-7.07Zm-8.47,2.35A8.35,8.35,0,0,0,242.52,44c-.15,2.67.84,4.2,1.74,4.25s1.41-.3,2.27-1.65a33.14,33.14,0,0,0,3.64-10.2A8.73,8.73,0,0,0,245.07,38.81Z"/><path class="cls-2" d="M288,39.42c1.42.06,3,.09,4.38.09.35,0,.37.16.39.48a15.07,15.07,0,0,1-.09,2.29c0,.38-.11.49-.51.44l-4.17-.2-1.19,0c-.34,4.14-1.07,6.54-2.59,8.84a13.66,13.66,0,0,1-7.05,5.12,2.42,2.42,0,0,1-.82.23c-.17,0-.32-.1-.54-.34a6.7,6.7,0,0,0-2.34-1.83c4.17-1.11,6.46-2.5,8-4.82,1.2-1.81,1.75-3.79,2-7.32l-6.17-.25,0,1c-.07,1.71-.13,3.27-.11,4.81,0,.32-.19.37-.51.39a17.87,17.87,0,0,1-2.49-.1c-.38,0-.55-.11-.51-.43.15-1.5.26-2.92.33-4.75l0-1.1-.87,0c-1.56-.06-3.89-.07-4.79,0-.23,0-.31-.19-.33-.56A26.16,26.16,0,0,1,268,38.5c1.21.14,3.09.27,5.33.36l.87,0,.08-2.12a20.18,20.18,0,0,0-.18-4.27,28.1,28.1,0,0,1,3.52.61c.32.07.43.22.42.42a2,2,0,0,1-.2.6c-.22.51-.24.8-.31,2.77L277.43,39l6.23.25.14-2.84a19.3,19.3,0,0,0-.1-4,26.85,26.85,0,0,1,3.37.63c.4.1.51.25.5.48a1.56,1.56,0,0,1-.14.52,8,8,0,0,0-.33,2.54L287,39.38Z"/><path class="cls-2" d="M302,47.28a23.25,23.25,0,0,0-4.27.25c-.35,0-.58-.19-.65-.62a31.6,31.6,0,0,1-.35-3.52,37.21,37.21,0,0,0,6.25.5l9.34.22c2.2.05,4.44,0,6.67.07.44,0,.52.07.51.42a21.33,21.33,0,0,1-.06,2.73c0,.35-.13.46-.53.42-2.17-.08-4.32-.16-6.46-.21Z"/><path class="cls-2" d="M329.41,43.58a54.54,54.54,0,0,0,7.09-2.76,9,9,0,0,0,3.12-2.06A16.58,16.58,0,0,1,342,41.38a.84.84,0,0,1,.23.52c0,.23-.15.43-.5.52a15.45,15.45,0,0,0-2.41.94,76.11,76.11,0,0,1-10,3.52l0,3.86c0,1.36.19,1.83.94,2.07a14.92,14.92,0,0,0,3.65.35,51.25,51.25,0,0,0,8.18-.61c.44-.06.49.06.52.41.08.81.16,1.92.16,2.52,0,.38-.18.49-.61.52a57.93,57.93,0,0,1-8.61.46,14.26,14.26,0,0,1-5.5-.82c-1.45-.62-2-2-2-4.36l.08-10.7a30.11,30.11,0,0,0-.25-5.31,24.89,24.89,0,0,1,3.65.61c.35.09.46.26.46.47a1.26,1.26,0,0,1-.21.61,6.61,6.61,0,0,0-.31,2.61Zm12.18-8.29c.15-.12.26-.08.43.06a13.36,13.36,0,0,1,2.73,3.12.29.29,0,0,1-.09.46l-1.22.89a.3.3,0,0,1-.49-.09,14.4,14.4,0,0,0-2.9-3.38Zm2.59-1.87c.17-.11.26-.08.43.06a12.1,12.1,0,0,1,2.73,3,.33.33,0,0,1-.09.52l-1.17.89a.3.3,0,0,1-.49-.09,13.74,13.74,0,0,0-2.87-3.36Z"/><path class="cls-2" d="M365.56,36.55a4.26,4.26,0,0,0,2-.29.49.49,0,0,1,.32-.12,1,1,0,0,1,.5.23,10.56,10.56,0,0,1,1.91,2,.78.78,0,0,1,.15.38.8.8,0,0,1-.37.58A5.29,5.29,0,0,0,369,40.63a45.8,45.8,0,0,1-3.65,5.47A68.16,68.16,0,0,1,373.48,53a.66.66,0,0,1,.24.4.72.72,0,0,1-.2.44,15.54,15.54,0,0,1-1.92,2,.5.5,0,0,1-.35.18.59.59,0,0,1-.41-.23,52.84,52.84,0,0,0-7.62-7.1,41.74,41.74,0,0,1-9.65,7.77,1.82,1.82,0,0,1-.66.24.65.65,0,0,1-.5-.25,7.94,7.94,0,0,0-2.46-1.85,35.23,35.23,0,0,0,10.12-7.52,35.58,35.58,0,0,0,5.36-7.34l-7.48.12c-1.51,0-3,.09-4.58.23-.23,0-.32-.17-.38-.49a16.88,16.88,0,0,1-.3-3c1.57.1,3,.08,4.9.06Z"/><path class="cls-2" d="M386,36.38a19.72,19.72,0,0,0,.18-3.23,21.33,21.33,0,0,1,3.51.83.59.59,0,0,1,.3,1,3.66,3.66,0,0,0-.54,1.12c-.33,1.2-.59,2.28-.92,3.51a22.46,22.46,0,0,1,2.31-.2c2.69-.09,4.21,1.74,4.34,5.45A24.7,24.7,0,0,1,393.88,54a4.15,4.15,0,0,1-3.82,2.86,7.69,7.69,0,0,1-3-.33.77.77,0,0,1-.55-.79,8.29,8.29,0,0,0-.64-2.68,7.71,7.71,0,0,0,3.36.64c1,0,1.38-.4,1.8-1.6a22.39,22.39,0,0,0,.88-7.25c-.07-2-.47-2.65-1.74-2.61a19,19,0,0,0-2.43.29,80.07,80.07,0,0,1-5.35,13.82.48.48,0,0,1-.74.29,13.25,13.25,0,0,1-2-1.21.6.6,0,0,1-.25-.43.54.54,0,0,1,.1-.32,61.13,61.13,0,0,0,4.91-11.54c-1.12.21-2,.42-2.82.59a8.55,8.55,0,0,0-1.58.52.64.64,0,0,1-.94-.34,26.39,26.39,0,0,1-1-3c1.27,0,2.55-.18,3.82-.34s2.28-.34,3.4-.55C385.62,38.39,385.78,37.37,386,36.38Zm11.54,1.54c.2-.12.35-.07.56.13a19.41,19.41,0,0,1,5.05,6.87.42.42,0,0,1-.1.58A11.87,11.87,0,0,1,400.89,47c-.28.15-.58.14-.67-.21a19.64,19.64,0,0,0-5-7.34A24.76,24.76,0,0,1,397.49,37.92Zm.64-4.08c.14-.12.26-.1.44,0a13.36,13.36,0,0,1,2.86,3,.29.29,0,0,1-.07.47l-1.19.94a.3.3,0,0,1-.5-.07,14.38,14.38,0,0,0-3-3.26Zm2.51-2c.17-.12.26-.1.44,0a12.11,12.11,0,0,1,2.86,2.89.34.34,0,0,1-.07.52l-1.13.94a.3.3,0,0,1-.5-.07,13.71,13.71,0,0,0-3-3.23Z"/><path class="cls-2" d="M414,51.07a4.5,4.5,0,0,0,2.67,2.22,17.3,17.3,0,0,0,5.51.24c3.73-.23,8.12-.68,12.41-1.39a4.5,4.5,0,0,0-.65,2.1c-.12.94-.09.94-1,1.05-3.72.44-7.19.71-10.11.9a20.05,20.05,0,0,1-6.82-.36,6.17,6.17,0,0,1-3.23-2.41,32.32,32.32,0,0,1-2.6,2.6,2.59,2.59,0,0,0-.6.65.48.48,0,0,1-.39.31c-.17,0-.33-.18-.46-.38a22.68,22.68,0,0,1-1.29-2.51,15.15,15.15,0,0,0,1.65-1,15.81,15.81,0,0,0,2.11-2l-.4-6.46-1.22.08c-1.51.09-1.91.18-2.05.19-.32,0-.35,0-.37-.33l-.14-2.2c0-.29,0-.32.33-.34.15,0,.55,0,2.06-.07l1.65-.1c1.5-.09,2-.18,2.11-.19s.32,0,.34.3,0,1,.12,2.81Zm-5.26-19c.31-.22.39-.23.61-.07a23.21,23.21,0,0,1,3.92,4.08c.16.22.13.28-.14.53L411.68,38a.63.63,0,0,1-.34.2c-.09,0-.18,0-.27-.19a22.54,22.54,0,0,0-3.84-4.29c-.24-.19-.22-.28.11-.5Zm10.6,18.46c-2.81.18-3.79.3-4,.31s-.35,0-.37-.3l-.12-1.85c0-.29,0-.32.33-.34s1.16,0,4-.19l3.27-.21-.1-1.62-2.08.13c-2.66.17-3.61.29-3.82.3s-.29,0-.31-.3,0-.9-.11-2.61L415.84,40c-.11-1.71-.21-2.43-.22-2.6s0-.35.27-.37,1.16,0,3.82-.18l2.08-.13-.1-1.56-3.15.2c-2.81.18-3.76.29-3.93.3s-.32,0-.34-.3l-.11-1.82c0-.29,0-.32.3-.34s1.13,0,3.94-.19l3.16-.2a17,17,0,0,0-.38-2.42,23,23,0,0,1,2.88,0c.29,0,.47.12.48.29a1.57,1.57,0,0,1-.14.53,3.69,3.69,0,0,0-.08,1.43l3.59-.23c2.81-.18,3.79-.3,4-.31s.32,0,.34.3l.11,1.82c0,.29,0,.32-.3.34s-1.16,0-4,.19l-3.59.23.1,1.56,2.26-.14c2.66-.17,3.59-.28,3.79-.3s.32,0,.34.33,0,.9.11,2.61l.24,3.88c.11,1.71.21,2.43.22,2.6s0,.32-.3.34-1.13,0-3.8.18l-2.26.14.1,1.62,3.73-.23c2.84-.18,3.82-.3,4-.31s.32,0,.34.3l.12,1.85c0,.29,0,.32-.3.34s-1.16,0-4,.19l-3.73.23c.09,1.5.19,2.11.2,2.25s0,.32-.3.34l-2.23.14c-.26,0-.32,0-.34-.3s0-.75-.08-2.26ZM422,40.49l-.1-1.68-3.5.22.1,1.68Zm.24,3.82-.11-1.82-3.5.22.11,1.82Zm2.4-5.67.11,1.68,3.62-.23-.1-1.68Zm3.85,3.45-3.62.23.11,1.82,3.62-.23Z"/><path class="cls-2" d="M442.19,41.76c.84-.4,1.69-.86,2.53-1.29a13.85,13.85,0,0,0,.08,2.06c.07.78,0,.81-.51,1.07s-1.19.67-1.83,1l.12,1.24c.26,2.77.5,4.32.64,5.77s0,2.39-.62,2.94-1.18.75-2.94.92c-.89.11-.95.12-1.18-.76a6.4,6.4,0,0,0-.92-2,21.54,21.54,0,0,0,2.2-.12c.38,0,.59-.23.53-.87l-.56-5.86c-.39.18-.75.33-1.06.45a3.14,3.14,0,0,0-1,.62.76.76,0,0,1-.48.19c-.17,0-.3-.06-.41-.31a19.82,19.82,0,0,1-.75-2.7,18.62,18.62,0,0,0,2.63-.8l.76-.3-.53-5.54-.49,0c-1.79.17-2.33.28-2.51.3s-.29,0-.32-.29l-.2-2.11c0-.29,0-.32.26-.34s.73,0,2.52-.18l.49,0-.14-1.5a27.68,27.68,0,0,0-.62-4.08c1.07-.07,2-.1,3-.08.29,0,.51.13.52.27a1.51,1.51,0,0,1-.14.63c-.14.36-.08,1,.1,2.93l.15,1.56c1.15-.11,1.61-.21,1.78-.23s.32,0,.35.29l0,.49a13.67,13.67,0,0,0,2.82-4.37,8,8,0,0,0,.54-2.24,13.87,13.87,0,0,1,2.4.38c.33.09.52.21.53.39a.53.53,0,0,1-.22.43,3.47,3.47,0,0,0-.69,1.29c-.07.15-.12.3-.19.43l3.58-.34a10.82,10.82,0,0,0,.64-1.81,4.34,4.34,0,0,0,.2-1.27c.88.06,1.85.14,2.47.26.3.06.48.16.5.33a.45.45,0,0,1-.17.39,2.38,2.38,0,0,0-.4.68c-.14.39-.31.76-.47,1.15l2-.19c2.4-.23,3.2-.36,3.37-.38s.32,0,.34.26l.14,1.47c0,.29,0,.32-.29.35s-1,0-3.38.26l-2.11.2.12,1.3.26,0c3.06-.29,4.15-.45,4.33-.47s.32,0,.35.29l.12,1.27c0,.29,0,.32-.29.35s-1.28.06-4.34.35l-.26,0,.12,1.3.2,0c3.09-.29,4.18-.46,4.35-.47s.32,0,.35.29l.12,1.27c0,.29,0,.32-.29.35s-1.28.06-4.37.36l-.2,0,.13,1.36,2-.19c2.68-.26,3.6-.4,3.78-.42s.29,0,.32.29l.14,1.47c0,.26,0,.29-.26.32s-1.1.08-3.78.33l-7.33.7c-2.71.26-3.63.38-3.84.39s-.32,0-.35-.26-.05-1.16-.24-3.18l-.34-3.58-.49.63c-.16.19-.26.29-.38.3s-.3-.09-.47-.33a5.28,5.28,0,0,0-1.06-1.06l.1,1c0,.29,0,.32-.29.35l-1.8.11Zm13.2,1.92a1.42,1.42,0,0,0,.71-.18,1.25,1.25,0,0,1,.36-.18c.23,0,.44,0,1.2.35s1,.49,1,.69-.09.3-.27.49a1.71,1.71,0,0,0-.34.67l-.25.78,2.48-.24c1.13-.11,1.56-.18,1.79-.2s.33.06.32.26c0,.91-.08,1.64-.13,2.29a17.39,17.39,0,0,1-.46,3.16c-.39,1.44-1.59,1.93-3.15,2.08-.61.06-1.33.13-2.29.16-.61,0-.61,0-.83-.74a6.82,6.82,0,0,0-.76-1.85,19.39,19.39,0,0,0,3-.05c.78-.07,1.16-.31,1.32-.85a9.27,9.27,0,0,0,.24-2.09l-2.17.21L457,49c-.11.39-.28.41-.84.37l-1.35-.1c-.5,0-.55-.24-.43-.51a14.08,14.08,0,0,0,1-2.81l-3.32.32c-.21,4.19-1.88,6.56-5.54,8.48a2,2,0,0,1-.64.29c-.23,0-.37-.17-.67-.61A6.22,6.22,0,0,0,443.83,53c3.54-1.38,5.14-3.23,5.36-6.42l-.72.07c-2.31.22-3.08.35-3.23.37s-.32,0-.35-.29L444.73,45c0-.29,0-.32.29-.35s.93,0,3.24-.25Zm-2.7-9.39-.12-1.3-4,.38.12,1.3Zm.29,3.09-.12-1.3-4,.38.12,1.3Zm.3,3.15-.13-1.36-4,.38.13,1.36Z"/><path class="cls-2" d="M470.14,27.67c.5.05.72.17.76.46a2.81,2.81,0,0,1-.17,1,17.4,17.4,0,0,0,0,3.56c.28,4.47.52,7.42,1,11.19.37,2.91.8,3.52,3.11,3.23,2.56-.33,6.36-2.4,9.38-6.59a10.09,10.09,0,0,0,1,2.65,1.92,1.92,0,0,1,.32.66c0,.26-.05.5-.46,1a16.57,16.57,0,0,1-10.34,5.72c-3.68.47-5.6-.77-6.16-5.17-.62-4.83-.9-9-1.2-12.48a19.26,19.26,0,0,0-1-5.23A29.87,29.87,0,0,1,470.14,27.67Z"/><path class="cls-2" d="M494.68,31.94a35.7,35.7,0,0,1-4.85,4.13c-.32.22-.48.36-.62.38s-.34-.16-.65-.64A7,7,0,0,0,487,34.06a25.83,25.83,0,0,0,9.84-10.33,9.09,9.09,0,0,0,.84-2.2c1.14,0,2.23,0,3.09.13.36.07.54.13.58.39a.49.49,0,0,1-.23.47.77.77,0,0,0-.2.23,26.18,26.18,0,0,0,13.48,7.06,7.71,7.71,0,0,0-.9,2.35c-.1.57-.18.79-.41.82a1.76,1.76,0,0,1-.73-.16,31.63,31.63,0,0,1-6-2.44l.28,2c0,.29,0,.32-.27.36s-1,.07-3.25.39l-4.45.62c-2.3.32-3,.48-3.24.51s-.32,0-.36-.27Zm-.41,17.13c-.29,0-.32,0-.36-.27s-.07-1-.65-5.12l-.34-2.47c-.34-2.47-.52-3.3-.54-3.47s0-.32.27-.36,1.19-.11,3.94-.49l9.19-1.27c2.76-.38,3.76-.58,3.93-.6s.35,0,.39.27.08,1,.36,3.05l.39,2.82c.57,4.14.74,4.91.76,5s0,.32-.3.36l-2.44.34c-.29,0-.32,0-.36-.27l-.13-.95-11.52,1.6.15,1.09c0,.29,0,.32-.3.36Zm8.38-18.59c1.7-.23,2.55-.38,3-.44a26,26,0,0,1-6-4.73,28.65,28.65,0,0,1-4.48,6.16c.35,0,1.16-.1,3.11-.37Zm-6.15,14.18L508,43.06l-.69-5-11.52,1.6Z"/><path class="cls-2" d="M521.13,27.82a20.79,20.79,0,0,1,6.41-2.26c3.86-.48,6.4,1.86,6.93,6.09A11.37,11.37,0,0,1,533,38.83a16.38,16.38,0,0,1-5,5.27,1.3,1.3,0,0,1-.47.21.94.94,0,0,1-.74-.29,7.16,7.16,0,0,0-2.58-1.23A15.77,15.77,0,0,0,530,37.19a8.5,8.5,0,0,0,.95-5.29c-.3-2.39-1.46-3.5-3.13-3.29a9.71,9.71,0,0,0-4.36,1.8,13.66,13.66,0,0,0-2.27,1.69,1.06,1.06,0,0,1-.6.37c-.37,0-.68-.29-.88-.53a20,20,0,0,1-1.84-2.84A15.14,15.14,0,0,0,521.13,27.82Zm9.68-7.93a.41.41,0,0,1,.44.47,23.52,23.52,0,0,1-.32,2.61c-.05.3-.12.45-.35.45A38.31,38.31,0,0,1,522,22.26c-.15,0-.31-.17-.27-.55a13.67,13.67,0,0,1,.53-2.81A36.47,36.47,0,0,0,530.81,19.9Z"/><path class="cls-2" d="M545.43,31.3c.28.12.32.26.2.5a4.77,4.77,0,0,0-.5,2.27c.2,1.82,2.18,2.5,7.14,1.94A36.93,36.93,0,0,0,560,34.3c.39-.13.55-.06.63.19a24.17,24.17,0,0,1,.78,2.77c.06.26-.1.39-.44.49a43.78,43.78,0,0,1-8.51,1.66c-6.46.73-10-1-10.43-4.72a7.65,7.65,0,0,1,1.06-4.29C543.87,30.69,544.64,31,545.43,31.3Zm5.24-12c2.1-.24,4.25-.62,6.08-.95.28-.06.41,0,.47.27a19,19,0,0,1,.42,2.43c0,.4-.08.59-.42.66a16.9,16.9,0,0,0-6.74,3.65,1.24,1.24,0,0,1-.69.34,1.22,1.22,0,0,1-.62-.1,6.94,6.94,0,0,0-2.12-.7c1.39-1.15,2.57-2.1,3.51-2.82a20,20,0,0,1-2.35.35,36.23,36.23,0,0,1-5.1.08c-.27,0-.39-.13-.43-.48-.08-.69-.11-1.53-.17-2.58A36.59,36.59,0,0,0,550.67,19.27Z"/><path class="cls-2" d="M572.49,14.54c.35.05.54.18.57.41,0,.4-.12.83-.08,1.23.06.58.21,1.26.34,1.92A40.77,40.77,0,0,0,574.74,23l3.88-2.61a7.17,7.17,0,0,0,1.83-1.76,14.9,14.9,0,0,1,2.38,2.5,1.17,1.17,0,0,1,.26.58c0,.29-.12.54-.52.64a13.87,13.87,0,0,0-2.68,1.15,40.42,40.42,0,0,0-6.44,4.06c-2.34,1.9-3.1,3.34-3,4.7.17,1.7,1.51,2.29,4.83,2a50.58,50.58,0,0,0,8.73-1.55c.31-.09.46,0,.55.29a25.82,25.82,0,0,1,.56,2.65c.06.31-.13.48-.47.54a62,62,0,0,1-8.55,1.3c-5.45.55-8.52-.95-8.9-4.7-.32-3.2,1.57-5.52,4.73-8a44,44,0,0,1-2.21-6.89,13,13,0,0,0-1.09-3.27A16.77,16.77,0,0,1,572.49,14.54Z"/><path class="cls-2" d="M601.93,17c-3.46,1-6.5,1.87-9.53,2.78-1.07.36-1.36.44-1.78.63a1.68,1.68,0,0,1-.61.29.68.68,0,0,1-.59-.38,20.21,20.21,0,0,1-1.35-3,40.2,40.2,0,0,0,4.55-.9c3.51-.84,9.77-2.36,17.14-4,.43-.1.59.06.64.26a16.58,16.58,0,0,1,.55,2.51c0,.35-.13.45-.51.48a12.92,12.92,0,0,0-3.47,1c-4.76,2.12-6.91,5.72-6.6,9.18.33,3.73,3.17,5.51,8.23,5.38.46,0,.65.06.67.38a10.3,10.3,0,0,1-.09,2.51c0,.44-.15.63-.49.66-5.08.46-10.92-2-11.46-8-.37-4.1,1.43-7.06,4.72-9.65Zm6,2.61c.13-.13.25-.11.44,0a13.35,13.35,0,0,1,3,2.84.29.29,0,0,1,0,.47l-1.13,1a.3.3,0,0,1-.5,0,14.41,14.41,0,0,0-3.22-3.09Zm2.4-2.11c.16-.13.25-.11.44,0a12.1,12.1,0,0,1,3,2.73.33.33,0,0,1,0,.53l-1.08,1a.3.3,0,0,1-.5,0A13.72,13.72,0,0,0,609,18.67Z"/><path class="cls-2" d="M619.24,27.89a.62.62,0,0,1,.42-.26.58.58,0,0,1,.39.14,21.6,21.6,0,0,1,6.17,4.84c.19.22.23.3.24.42s0,.26-.25.49l-1.65,1.64c-.19.19-.3.29-.38.29s-.26,0-.43-.26a21.65,21.65,0,0,0-5.89-5.1c-.18-.1-.28-.18-.28-.27s0-.18.18-.36Z"/><path class="cls-2" d="M645.86,21c-2.78.2-3.76.33-3.93.34s-.32,0-.34-.29V21a7.35,7.35,0,0,0-.67,1.56c-.12.36-.19.54-.31.55s-.21-.13-.41-.44a16.65,16.65,0,0,1-1.67-3.46c.57,7.55,1.18,13.67,1.21,14.13,0,.29,0,.32-.29.34l-2.29.16c-.29,0-.32,0-.34-.29s-.28-6-.72-12.63a21.68,21.68,0,0,1-2,6c-.15.3-.29.49-.4.49s-.21-.13-.32-.44a8,8,0,0,0-1.17-2.1,24.66,24.66,0,0,0,3.35-9.34l-.32,0c-1.91.14-2.48.24-2.66.25s-.32,0-.34-.32l-.14-2c0-.32,0-.35.29-.37s.76,0,2.67-.13l.43,0-.12-1.71a21.12,21.12,0,0,0-.51-3.86,25.73,25.73,0,0,1,2.82,0c.29,0,.47.11.49.29a1.22,1.22,0,0,1-.13.62A8.38,8.38,0,0,0,638,11l.12,1.74c1.68-.12,2.22-.22,2.4-.23s.29,0,.31.33l.14,2c0,.32,0,.35-.26.37s-.73,0-2.35.11a19.61,19.61,0,0,0,3.16,5.15l-.09-1.33c0-.29,0-.32.3-.34s1.16,0,3.94-.22l2.14-.15-.12-1.76-1.33.09c-2.58.18-3.44.3-3.61.32s-.32,0-.34-.3L642.29,15c0-.32,0-.35.29-.37s1,0,3.62-.2l1.33-.09-.12-1.74-1.74.12c-2.72.19-3.64.32-3.82.33s-.32,0-.34-.27l-.13-1.85c0-.29,0-.32.3-.34s1,0,3-.16a24,24,0,0,0-1.47-2.34c-.19-.25-.14-.34.17-.51l1.72-.79c.31-.14.34-.14.56.11a15.65,15.65,0,0,1,1.56,2.27c.17.28.11.34-.23.51l-1.52.69,4.31-.31c.35-.81.75-1.77,1-2.54a6.39,6.39,0,0,0,.26-1.3,22.69,22.69,0,0,1,2.53.4c.3.07.48.17.49.37a.56.56,0,0,1-.26.45,1.17,1.17,0,0,0-.37.55c-.22.54-.52,1.23-.86,1.86h.17c2.69-.19,3.61-.32,3.79-.33s.35,0,.37.29l.13,1.85c0,.26,0,.29-.33.31s-1.1,0-3.79.21l-2.78.2.12,1.74,2.05-.15c2.6-.19,3.44-.3,3.61-.32s.32,0,.34.32l.13,1.79c0,.29,0,.32-.29.34s-1,0-3.62.2l-2.05.15.13,1.76,3.53-.25c2.78-.2,3.73-.32,3.9-.34s.32,0,.34.3l.14,1.91c0,.29,0,.32-.29.34s-1.13,0-3.91.22l-3,.21a21.35,21.35,0,0,0,2.08,3.05,20.13,20.13,0,0,0,1.73-1.87,4.52,4.52,0,0,0,.65-1.06,15.75,15.75,0,0,1,2,1.29c.21.16.34.3.35.47s-.09.3-.35.4a2.35,2.35,0,0,0-.83.61c-.51.56-1.08,1.18-1.84,1.91a19.68,19.68,0,0,0,4.84,3.09,6.3,6.3,0,0,0-1.27,1.81c-.2.42-.31.6-.45.61s-.33-.12-.66-.33a17,17,0,0,1-6.53-6.78c.21,2.49.43,4.45.53,5.75a2.73,2.73,0,0,1-.75,2.53c-.52.44-1.23.64-3.11.8-.93.07-.93.07-1.19-.82a7.09,7.09,0,0,0-.88-1.8,19.35,19.35,0,0,0,2.06,0c.87-.06,1.06-.28,1-1l-.14-2a52.31,52.31,0,0,1-5,3.27,2.81,2.81,0,0,0-.86.64.65.65,0,0,1-.39.29c-.12,0-.21-.07-.34-.29-.37-.67-.74-1.4-1.19-2.39a10.41,10.41,0,0,0,1.64-.7,52.6,52.6,0,0,0,6-3.62L648,20.87Zm-.61,4.55c-.27.31-.38.35-.57.13a11.14,11.14,0,0,0-2.57-2.23c-.27-.16-.25-.24,0-.52l1-1.18c.27-.28.36-.29.6-.16a11.44,11.44,0,0,1,2.62,2c.19.22.17.31,0,.56Z"/><path class="cls-2" d="M672.5,15.76a35.45,35.45,0,0,1-6.4,7.7c-.25.19-.39.31-.56.32a.55.55,0,0,1-.35-.09,7.78,7.78,0,0,0-2.53-1,36.5,36.5,0,0,0,8.78-11.53,13.66,13.66,0,0,0,1.48-4.36,19.83,19.83,0,0,1,3.26,1.11.51.51,0,0,1,.29.42.7.7,0,0,1-.23.51,4.61,4.61,0,0,0-.81,1c-.41.92-1.09,2.21-1.53,3l5.29-.46a3,3,0,0,0,1.46-.38.64.64,0,0,1,.37-.14,1,1,0,0,1,.59.17,10.62,10.62,0,0,1,1.88,1.34.94.94,0,0,1,.3.59.57.57,0,0,1-.15.42,4.42,4.42,0,0,0-.9,1.45A33.07,33.07,0,0,1,678,23.45a23.41,23.41,0,0,1,2.89,2.7c.16.17.25.28.26.39s-.07.24-.24.42a15.74,15.74,0,0,1-1.73,1.67c-.14.12-.22.19-.31.19s-.21-.08-.33-.24A30.72,30.72,0,0,0,670,21.8c.6-.67,1.14-1.32,1.72-1.87.14-.15.22-.22.34-.22a.87.87,0,0,1,.42.15,29,29,0,0,1,3.23,2,23.15,23.15,0,0,0,4-6.75Z"/><path class="cls-2" d="M702.49,8.28c.26-.1.37-.11.45.21a15.75,15.75,0,0,1,.38,2.33c0,.26-.1.32-.33.36-1.55.4-3,.67-4.74,1a80.15,80.15,0,0,1-5,12.7c-.11.21-.19.3-.3.31a.81.81,0,0,1-.36-.13,13.75,13.75,0,0,1-2.07-1.38c-.15-.11-.21-.19-.22-.31a.55.55,0,0,1,.13-.35,58.49,58.49,0,0,0,4.51-10.36c-1.1.11-2,.16-2.89.2-.64,0-.87,0-1.59,0-.29,0-.35-.07-.43-.44a15.19,15.19,0,0,1-.41-2.45c1.19,0,1.86,0,2.7,0,1.13-.06,2-.13,3.32-.31.29-1.23.44-2.23.59-3.28a11.16,11.16,0,0,0,.06-2.35,26.94,26.94,0,0,1,3.42.44c.29,0,.47.21.49.41a.71.71,0,0,1-.23.56,3.2,3.2,0,0,0-.41,1.09c-.17.71-.36,1.61-.57,2.5A31.19,31.19,0,0,0,702.49,8.28Zm1.2,7.72a10.18,10.18,0,0,0-.33-2,15.69,15.69,0,0,1,3.18.39.45.45,0,0,1,.43.44,3.61,3.61,0,0,1-.14.62,3,3,0,0,0-.06,1.19,37.77,37.77,0,0,0,.56,4.91,22.71,22.71,0,0,1,5.35,2.43c.3.19.33.3.2.6A17.8,17.8,0,0,1,711.67,27c-.08.15-.16.21-.25.22a.45.45,0,0,1-.3-.16,21.57,21.57,0,0,0-3.65-2.26c.14,2.9-1.87,4.33-5.18,4.5s-5.41-1.36-5.53-3.85,1.88-4.33,5.15-4.49a15,15,0,0,1,2.3.06C703.93,19.13,703.79,17.36,703.69,16ZM702,23.4c-1.45.07-2.55.71-2.49,1.81,0,.93.88,1.35,2.53,1.27s2.48-1,2.42-2.18a3.37,3.37,0,0,0-.06-.58A7.38,7.38,0,0,0,702,23.4Zm4.7-14.2c.16-.3.3-.33.6-.23a22.66,22.66,0,0,1,5.81,2.44c.18.11.27.19.28.31a.69.69,0,0,1-.1.35,17.71,17.71,0,0,1-1.11,2.2c-.08.15-.16.21-.25.21a.4.4,0,0,1-.27-.1,25.07,25.07,0,0,0-6.15-2.86C706,10.64,706.34,9.75,706.69,9.21Z"/><path class="cls-2" d="M722.61,18.4c.27.13.3.28.17.52a4.76,4.76,0,0,0-.67,2.23c.07,1.83,2,2.65,7,2.46a36.87,36.87,0,0,0,7.82-1.15c.4-.1.55,0,.62.24a24.48,24.48,0,0,1,.57,2.82c0,.26-.13.38-.48.45a46,46,0,0,1-8.46,1c-6.69.26-10-1.7-10.2-5.46a7.65,7.65,0,0,1,1.37-4.2C721.1,17.68,721.84,18,722.61,18.4Zm6.11-11.61c2.12-.08,4.17-.28,6-.5.29,0,.41.07.45.3A17,17,0,0,1,735.54,9c0,.41-.12.58-.47.63a16.91,16.91,0,0,0-7,3.15,1.23,1.23,0,0,1-.71.29,1.22,1.22,0,0,1-.62-.15,6.94,6.94,0,0,0-2.06-.85c1.47-1,2.71-1.91,3.7-2.55a17.76,17.76,0,0,1-2.11.17,34.69,34.69,0,0,1-5.35-.29c-.26,0-.38-.16-.4-.51,0-.7,0-1.54,0-2.58A36.54,36.54,0,0,0,728.72,6.79Zm7.76-3.52c.14-.12.26-.1.44,0a13.37,13.37,0,0,1,2.87,3,.29.29,0,0,1-.07.47l-1.18.95a.3.3,0,0,1-.5-.07A14.36,14.36,0,0,0,735,4.4Zm2.51-2c.17-.12.26-.1.44,0a12.11,12.11,0,0,1,2.87,2.88.34.34,0,0,1-.07.53l-1.12.94a.3.3,0,0,1-.5-.07,13.74,13.74,0,0,0-3-3.22Z"/><path class="cls-2" d="M750.06,5c-2.58.07-3.48.16-3.65.16s-.32,0-.33-.31L746,2.82c0-.29,0-.32.31-.33s1.07,0,3.66,0L767.62,2c2.61-.07,3.48-.16,3.65-.16s.32,0,.33.31l.06,2.06c0,.29,0,.32-.31.33s-1,0-3.66,0l-4.55.13.06,2.06L765,6.68c2.84-.08,3.85-.17,4-.17s.32,0,.33.31,0,.73,0,2.15l.07,2.35c0,1.42.11,1.94.12,2.14s0,.32-.31.33-1.19,0-4,.05L753,14.18c-2.84.08-3.85.17-4,.17s-.32,0-.33-.31,0-.73,0-2.15l-.07-2.35c0-1.42-.11-1.94-.12-2.14s0-.32.31-.33,1.19,0,4-.05l1.59,0-.06-2.06Zm0,14.13c-2.55.07-3.42.15-3.59.16s-.29,0-.3-.31L746.16,17c0-.26,0-.29.28-.3s1,0,3.6,0l4.64-.13a10.52,10.52,0,0,0,1.07-2.32,20.31,20.31,0,0,1,2.85.36c.35.08.44.22.45.36a.54.54,0,0,1-.31.47,3,3,0,0,0-.81,1l10.44-.29c2.55-.07,3.42-.15,3.59-.16s.29,0,.3.28l.06,2.06c0,.29,0,.32-.28.33s-1,0-3.6,0l-2.61.07a14.85,14.85,0,0,1-2.31,3.52,63.33,63.33,0,0,1,7.06,2.5c.15.05.24.14.24.23s-.05.18-.17.32L769.27,27c-.31.36-.31.44-.6.28a43.39,43.39,0,0,0-7.37-3c-3,2.17-6.9,3.15-12.06,3.64-.9.08-1,.11-1.33-.78a6.27,6.27,0,0,0-1.06-1.71c4.87-.22,8.27-.93,10.76-2.13-1.14-.26-2.36-.49-3.71-.74a4,4,0,0,1-.31.42.69.69,0,0,1-.78.25l-2.1-.41c-.26-.05-.3-.22-.18-.37l.67-.86a13,13,0,0,0,1-1.39l.78-1.12Zm4.41-7.23-.08-2.78-3,.08.08,2.78ZM756.4,19c-.33.53-.67,1-1,1.54,1.69.27,3.35.57,5,.93a11.56,11.56,0,0,0,2.07-2.64Zm4-12.18-.06-2.06-3.19.09.06,2.06ZM760.44,9l-3.19.09.08,2.78,3.19-.09Zm6.06-.17-3.25.09.08,2.78,3.25-.09Z"/><path class="cls-2" d="M797.53,1.23c2.17,0,2.93-.11,3.1-.11s.35.05.35.31c0,.46-.09,1.42-.13,2.41a70.6,70.6,0,0,1-.62,7.43c-.29,1.69-.88,2.86-2.15,3.17a12,12,0,0,1-2.17.21c-.9,0-1,0-1.14-.53a6.74,6.74,0,0,0-.64-2,12.2,12.2,0,0,0,2.47,0c.46-.07.74-.74.9-1.67l-5.71.1a9.79,9.79,0,0,1-2.8,4.14c-.31.27-.51.42-.69.42s-.41-.17-.73-.45a4.68,4.68,0,0,0-1.79-1.07,7.8,7.8,0,0,0,1.23-.86.88.88,0,0,1-.32.06,32.9,32.9,0,0,1-3.71.24,11.21,11.21,0,0,1-3.75-.31c-.79-.31-1.21-1-1.23-2.47l-.07-4.17-1.74.09c-.29,0-.32,0-.32-.31l0-2c0-.29,0-.29.31-.29s1,0,3.39,0l1.51,0V2.68a11.44,11.44,0,0,0-.21-2.05c.87,0,2.09,0,2.93.12.26,0,.41.14.41.28a1.12,1.12,0,0,1-.17.5,2.41,2.41,0,0,0-.13,1.08v.87l.87,0c2.44,0,3.22-.08,3.39-.09s.32,0,.32.28l0,2c0,.29,0,.32-.31.32s-1,0-3.39,0l-4,.07.05,3c0,.78.1,1,.46,1.18a4.48,4.48,0,0,0,1.77.17,29.61,29.61,0,0,0,3.65-.27c.46-.07.49,0,.5.72l0,1.13a1.49,1.49,0,0,1-.08.64c2-1.75,2.71-4.19,2.9-8.29a22.71,22.71,0,0,0,0-2.73c0-.29,0-.35.28-.35s.7,0,2.35,0ZM780,26.42c-2.55,0-3.42.12-3.59.12s-.29,0-.3-.31l0-1.91c0-.29,0-.32.28-.32s1,0,3.6,0l7.42-.13,0-1.86-3.74.06c-2.84,0-3.83.13-4,.13s-.32,0-.33-.34l0-1.74c0-.29,0-.32.31-.32s1.16,0,4,0l3.74-.07,0-1.83-5.45.09c-2.81,0-3.74.12-3.91.13s-.32,0-.32-.31l0-1.8c0-.29,0-.32.31-.32s1.1,0,3.92,0l14.26-.25c2.78,0,3.71-.12,3.88-.12s.35,0,.35.31l0,1.8c0,.29,0,.32-.34.33s-1.1,0-3.89,0l-5.86.1,0,1.83,4.12-.07c2.84,0,3.83-.12,4-.13s.35,0,.35.31l0,1.74c0,.32,0,.35-.34.35s-1.16,0-4,0l-4.12.07,0,1.86,7.77-.13c2.58,0,3.42-.12,3.62-.12s.29,0,.29.31l0,1.91c0,.29,0,.32-.28.32s-1,0-3.62,0Zm12.48-19.3c0,.49-.1,1-.18,1.42l5.42-.09c0-.44.13-.93.15-1.42Zm.2-3.48,0,1.42L798.06,5l.06-1.42Z"/><path class="cls-2" d="M811.9,3.32c.5.26.67.43.67.69s-.06.29-.43.87A6.84,6.84,0,0,0,811.46,7a47,47,0,0,0-1.15,9.37,27.92,27.92,0,0,0,.2,3.39c.6-1.34,1.11-2.3,1.94-4.33a7.53,7.53,0,0,0,1,1.82,1.14,1.14,0,0,1,.21.43.8.8,0,0,1-.14.46,28.38,28.38,0,0,0-1.62,4.39,3.3,3.3,0,0,0-.08.9c0,.35.06.58.06.81s-.11.32-.37.38a14.46,14.46,0,0,1-2.37.48c-.2,0-.32-.11-.38-.32a27.19,27.19,0,0,1-1.4-8.63,55.38,55.38,0,0,1,.92-9.52,23.38,23.38,0,0,0,.49-4.32A12.82,12.82,0,0,1,811.9,3.32Zm6.31,13.61c.23,0,.29.11.29.43.19,2,1.58,2.71,4.75,2.69a41.52,41.52,0,0,0,5.54-.42c.29,0,.35,0,.41.37a21.26,21.26,0,0,1,.19,2.49c0,.35,0,.38-.49.44a38.93,38.93,0,0,1-4.72.35c-4.29,0-6.3-.65-7.56-2.35a6.39,6.39,0,0,1-1-3.76ZM816.5,6.1c0-.35.11-.44.4-.5A46.36,46.36,0,0,1,823.19,5c1.74,0,3.07,0,4.29.14.61,0,.67.08.67.37,0,.87,0,1.65,0,2.46,0,.26-.11.38-.37.35-1.74-.1-3.25-.15-4.73-.14a35.42,35.42,0,0,0-6.58.71C816.45,7.32,816.44,6.6,816.5,6.1Z"/><path class="cls-2" d="M839.14,9.82a48.4,48.4,0,0,1-.83,9.31A19.69,19.69,0,0,1,836,25.53c-.2.38-.32.55-.46.55s-.29-.15-.58-.46A10.07,10.07,0,0,0,833,24a16.08,16.08,0,0,0,2.39-6.06,44.25,44.25,0,0,0,.69-8.67c0-3.63,0-5.28,0-5.45s0-.32.32-.32,1.19.06,3.94.07h5.77V2.32A11.57,11.57,0,0,0,845.89,0C847,0,848,.06,849,.15c.29,0,.46.12.46.29a1,1,0,0,1-.17.55A2.76,2.76,0,0,0,849,2.24V3.57h5.89c2.76,0,3.71-.05,3.89,0s.29,0,.29.32v2.2c0,.32,0,.35-.29.35s-1.13-.06-3.89-.07l-15.78,0Zm13.45,4.73c.38-.17.44-.2.61.06a68.62,68.62,0,0,1,5.55,9.7c.12.29.09.41-.26.58L856.34,26c-.35.17-.49.09-.61-.2-.37-.87-.75-1.74-1.16-2.61-3.74.66-8.76,1.4-13.52,1.92a2.78,2.78,0,0,0-1.07.32.93.93,0,0,1-.46.17c-.2,0-.32-.12-.43-.44-.23-.81-.46-1.86-.69-3a32.68,32.68,0,0,0,3.31-.05,81.56,81.56,0,0,0,3.65-11.48,14.05,14.05,0,0,0,.38-2.7,29.74,29.74,0,0,1,3.22.88c.41.12.49.26.49.49a.87.87,0,0,1-.26.58,3.88,3.88,0,0,0-.73,1.62A91.21,91.21,0,0,1,845,21.78c2.84-.31,5.74-.68,8.33-1.14A49,49,0,0,0,850.47,16c-.14-.23-.12-.35.23-.52Z"/><path class="cls-2" d="M878.52,3.12a.71.71,0,0,1,.23.47.58.58,0,0,1-.41.55,5.49,5.49,0,0,0-1.4,1c-2.52,2.21-5.74,5.16-8,7.45-.26.32-.38.49-.38.63s.11.32.37.53A80.35,80.35,0,0,1,879.61,23a.7.7,0,0,1,.2.38c0,.12-.06.2-.21.35-.67.72-1.52,1.55-2,2-.18.14-.29.23-.41.23s-.2-.09-.34-.26a73.17,73.17,0,0,0-10.45-9.92c-1.09-.85-1.52-1.5-1.51-2.45s.54-1.59,1.45-2.54c2.49-2.64,4.93-5,7.45-7.72A8.4,8.4,0,0,0,875.36.88,23,23,0,0,1,878.52,3.12Z"/><path class="cls-2" d="M887.74,10.34a.4.4,0,0,1,.29-.14.31.31,0,0,1,.26.15c1.14,1.18,2.27,2.39,3.35,3.63a25.37,25.37,0,0,0,1.16-6l-4-.08c-2.49,0-3.33,0-3.51,0s-.32,0-.31-.35l0-2.17c0-.29,0-.32.33-.31s1,.08,3.51.13l1.48,0,0-1.86A12.2,12.2,0,0,0,890.23.5a27.3,27.3,0,0,1,3.07.26c.29,0,.46.13.46.3a1.63,1.63,0,0,1-.19.58,5.45,5.45,0,0,0-.18,1.74l0,1.86.84,0c2.52,0,3.36,0,3.54,0s.32,0,.31.33l0,2.17c0,.32,0,.35-.33.34L895.82,8a29.93,29.93,0,0,1-2,8.55c1.16,1.5,2.26,3.06,3.3,4.71.17.24.2.32-.1.61l-1.74,1.53a.57.57,0,0,1-.32.2c-.09,0-.14-.09-.26-.27-.73-1.35-1.51-2.64-2.36-3.9A27.41,27.41,0,0,1,887,25.61c-.29.25-.47.4-.62.39s-.31-.21-.57-.62a5.91,5.91,0,0,0-1.53-1.74,19.54,19.54,0,0,0,6.11-6.9,46.83,46.83,0,0,0-4.14-4.58c-.23-.18-.23-.27,0-.52ZM899.81,12c.29-.17.41-.17.58.07a21.87,21.87,0,0,1,3.26,5.49c.11.29.08.38-.21.55l-1.88,1c-.35.2-.41.17-.52-.13A24.18,24.18,0,0,0,898,13.44c-.2-.26-.14-.35.16-.52Zm8.12,5.9c0,2,0,4.23-.06,5.86s-.21,2.11-1,2.71-1.81.6-4.62.55c-.87,0-.87,0-1.06-.89a7.23,7.23,0,0,0-.83-2.19,33,33,0,0,0,3.3.15c.84,0,1.08-.21,1.09-.91l.26-13.28-2.78-.05c-2.44,0-3.25,0-3.42,0s-.32,0-.31-.33l0-2.35c0-.29,0-.32.33-.31s1,.08,3.42.12l2.78.05,0-2.06a32.93,32.93,0,0,0-.09-4.09c1,0,2.11.13,3.07.23.29,0,.46.18.46.33a1.36,1.36,0,0,1-.19.61,9,9,0,0,0-.23,2.92l0,2.12c1.83,0,2.52,0,2.67,0s.32,0,.31.33l0,2.35c0,.29,0,.32-.33.31s-.84,0-2.67-.11Z"/><path class="cls-2" d="M919.93,10.5a57.43,57.43,0,0,1-.82,9.15,21.53,21.53,0,0,1-2.4,6.78c-.21.37-.33.54-.48.54s-.32-.15-.57-.48a8.45,8.45,0,0,0-1.84-1.68,17.42,17.42,0,0,0,2.39-6.37,52.57,52.57,0,0,0,.71-8.57c.1-3.54.09-5.13.1-5.31s0-.32.36-.31,1.13.09,3.88.17l5.83.17,0-1.22A11.79,11.79,0,0,0,927,1c1.07,0,2.08.15,3.07.26.29,0,.46.16.46.3a1.35,1.35,0,0,1-.19.55,2.84,2.84,0,0,0-.24,1.24l0,1.3,6.21.18c2.72.08,3.68,0,3.86.05s.32,0,.31.33l-.06,2.17c0,.26,0,.29-.33.28s-1.13-.09-3.85-.17L920,7.05Zm4.38,5c.37.1.43.13.36.47a29.89,29.89,0,0,1-2.38,7.94c-.15.26-.27.2-.61,0l-1.95-1c-.34-.18-.34-.33-.19-.59a23.09,23.09,0,0,0,2.39-7.24c0-.32.1-.32.53-.19Zm4.4,7.44c0,1,0,1.25.36,1.52a3.49,3.49,0,0,0,1.85.34,3.28,3.28,0,0,0,2.07-.38c.56-.45.74-1.46.86-3.69a7.5,7.5,0,0,0,2.06.9c.78.2.78.2.67,1-.31,2.57-.86,3.6-1.78,4.18s-2.14.69-4.14.63c-2.17-.06-3.42-.27-4.18-.85-.57-.45-.78-1-.74-2.63l.2-7a30.3,30.3,0,0,0-.1-3.49c.93.06,2.08.18,3,.32.35,0,.57.19.57.39a1.23,1.23,0,0,1-.25.63,7.51,7.51,0,0,0-.24,2.31Zm-.93-14.88c.27-.28.3-.31.58-.16a31.28,31.28,0,0,1,5.4,3.75c.14.09.2.18.2.24s-.06.17-.21.34l-1.41,1.55c-.3.34-.36.34-.55.13a31.11,31.11,0,0,0-5.28-4c-.2-.12-.26-.18,0-.46Zm10.57,15.63c-.41.19-.47.19-.55-.13A34.92,34.92,0,0,0,935,15.72c-.14-.26-.11-.35.28-.51l1.76-.73c.35-.16.41-.16.55.1a36,36,0,0,1,3,7.75c.08.32,0,.35-.36.54Z"/><path class="cls-2" d="M958.45,9.14c-3.56.53-6.68,1-9.81,1.54-1.11.22-1.4.27-1.84.39a1.7,1.7,0,0,1-.65.21.68.68,0,0,1-.53-.46,20.29,20.29,0,0,1-1-3.17,40.1,40.1,0,0,0,4.63-.32c3.58-.38,10-1.1,17.51-1.79.44,0,.58.14.6.34a16.62,16.62,0,0,1,.22,2.56c0,.35-.19.43-.57.41a13,13,0,0,0-3.56.5c-5,1.49-7.58,4.79-7.72,8.26-.14,3.74,2.44,5.87,7.47,6.38.46,0,.63.14.62.46a10.35,10.35,0,0,1-.41,2.48c-.1.43-.23.6-.57.59-5.1-.2-10.58-3.34-10.35-9.37.16-4.11,2.32-6.82,5.92-9Zm5.62,3.35c.15-.11.26-.08.43.08a13.35,13.35,0,0,1,2.63,3.21.29.29,0,0,1-.11.46l-1.25.85a.3.3,0,0,1-.49-.11,14.39,14.39,0,0,0-2.8-3.47Zm2.65-1.78c.18-.11.26-.08.43.07a12.1,12.1,0,0,1,2.64,3.09.34.34,0,0,1-.11.52l-1.19.85a.3.3,0,0,1-.49-.11,13.72,13.72,0,0,0-2.77-3.44Z"/><path class="cls-2" d="M981.44,6.37a7.33,7.33,0,0,0-.93-1.9A20.47,20.47,0,0,1,984,4.31c.41,0,.63.26.61.55s-.08.37-.08.55a5.1,5.1,0,0,0,.08.87c.17.76.24,1,.39,1.53a45.35,45.35,0,0,0,6-1.26c.27-.1.41-.07.49.17.15.56.31,1.38.4,2a.44.44,0,0,1-.37.5c-2,.52-3.76.87-5.75,1.21.23.74.56,1.65.9,2.48A34,34,0,0,0,992,11.62c.3-.13.44-.07.51.2a11,11,0,0,1,.43,1.94c0,.26,0,.41-.26.51a35.65,35.65,0,0,1-5,1.19,21.61,21.61,0,0,0,3.56,5.19c.28.27.27.39.11.7a8.41,8.41,0,0,1-1.27,1.74c-.18.19-.3.28-.48.27a.77.77,0,0,1-.4-.19,7.3,7.3,0,0,0-1.67-1A14.11,14.11,0,0,0,982.2,21c-2.72-.13-4.35.64-4.42,2-.09,1.88,2.34,2.61,6.78,2.81,1.07,0,2.15,0,3.19,0,.29,0,.37.16.33.39a18.84,18.84,0,0,1-.7,2.61c-.1.29-.22.4-.63.41q-1,0-2.09,0c-6.66-.31-10.11-2.36-9.94-5.92.15-3.1,2.9-4.91,7.42-4.7a13.43,13.43,0,0,1,4.95,1A33.66,33.66,0,0,1,984.85,16a68.61,68.61,0,0,1-8,.5c-.32,0-.43-.14-.5-.43a14.63,14.63,0,0,1-.41-2.4,50.65,50.65,0,0,0,7.82-.36c-.26-.62-.65-1.63-1-2.46a50.31,50.31,0,0,1-7.07.37c-.35,0-.52-.14-.56-.43s-.22-1.4-.35-2.34A51.14,51.14,0,0,0,982,8.28C981.84,7.6,981.69,7.1,981.44,6.37Z"/><path class="cls-2" d="M1007,19a51.42,51.42,0,0,1-6-.44c-.32,0-.43-.14-.44-.52a17.35,17.35,0,0,1,0-2.47,40.84,40.84,0,0,0,6.5.59c0-1.1.09-2.23.13-3.33a47.83,47.83,0,0,1-6.91-.52c-.32,0-.46-.14-.47-.43,0-.73-.07-1.43-.06-2.62a66.3,66.3,0,0,0,7.57.71c.06-1.07.07-1.83.1-2.81a8.35,8.35,0,0,0-.24-2,16.78,16.78,0,0,1,3.62.72.59.59,0,0,1,.27.89,3.74,3.74,0,0,0-.51,1.37c-.06.58-.08,1-.16,1.85a48.74,48.74,0,0,0,6.39-.52c.35-.07.46,0,.47.37a15.56,15.56,0,0,1,0,2.12c0,.38-.11.43-.34.45a59.47,59.47,0,0,1-6.73.39c-.06,1.16-.09,2.23-.15,3.27,2.21,0,3.61-.24,5.72-.44.35-.07.44,0,.45.26,0,.55,0,1.51,0,2.38,0,.29-.14.37-.46.38A52.65,52.65,0,0,1,1010,19c0,1.33,0,2.76,0,4.09a25.83,25.83,0,0,1,7.48,3.92c.28.28.27.36.17.71a8.74,8.74,0,0,1-1.39,2.07.43.43,0,0,1-.39.21.44.44,0,0,1-.31-.16,23,23,0,0,0-5.58-3.62c-.2,3.13-2.15,4.3-6.12,4.08-3.77-.21-5.82-2-5.69-4.38s2.51-4,6-3.79c.72,0,1.42.08,2.77.27C1007,21.15,1007,20,1007,19Zm-2.81,5.71c-2.11-.12-3.16.44-3.21,1.36,0,.75.8,1.35,2.8,1.46a3.58,3.58,0,0,0,2.68-.72,2.78,2.78,0,0,0,.41-1.6A12.52,12.52,0,0,0,1004.18,24.69Z"/><path class="cls-2" d="M1035.93,9.08a9.21,9.21,0,0,0-.21-2.13,29.48,29.48,0,0,1,3.36.62c.49.12.79.34.78.6a1.22,1.22,0,0,1-.3.65,3,3,0,0,0-.28.83c-.05.37-.08.75-.18,1.85,3.13.08,6.12.24,8.9.42.35,0,.4.08.41.46,0,.73-.06,1.48-.14,2.2,0,.32-.17.4-.52.34-3-.28-5.81-.46-8.82-.62-.11,1.77-.23,3.62-.31,5.39a9,9,0,0,1,.25,2.89,10.83,10.83,0,0,1-5.74,9,2.77,2.77,0,0,1-1.16.48,1.64,1.64,0,0,1-.84-.49,6.47,6.47,0,0,0-2.13-1.3c3.48-1.29,5.66-3.59,6.34-6a3.35,3.35,0,0,1-2.79,1c-2.29-.15-3.92-1.91-3.74-4.68a4.23,4.23,0,0,1,4.65-4.07,3.55,3.55,0,0,1,2.16.72c.06-1,.1-2,.16-3-3.66,0-7.76.06-10.07.24-.64,0-1.12.28-1.38.26s-.4-.14-.47-.44a20.39,20.39,0,0,1-.54-3,19.14,19.14,0,0,0,3.54.11c1.78,0,5.52,0,9,0C1035.87,10.59,1035.91,9.87,1035.93,9.08Zm-4.45,11.49a1.8,1.8,0,0,0,1.73,2.08,1.86,1.86,0,0,0,2.09-1.87,1.74,1.74,0,0,0-1.79-2A1.85,1.85,0,0,0,1031.49,20.57Z"/><path class="cls-2" d="M1055.74,30.55a4.21,4.21,0,1,1-3.9-4.47A4.18,4.18,0,0,1,1055.74,30.55Zm-6.6-.47a2.41,2.41,0,1,0,2.57-2.23A2.37,2.37,0,0,0,1049.15,30.08Z"/><path class="cls-1" d="M0,51.49s291,50,488,21c168.76-24.84,448-40.29,790,7.36"/><path class="cls-1" d="M0,56.49s291,50,488,21c168.76-24.84,448-40.29,790,7.36"/></svg>