<svg id="レイヤー_1" data-name="レイヤー 1" xmlns="http://www.w3.org/2000/svg" viewBox="0 0 263 24" width="263" height="24"><defs><style>.cls-1{fill:#ef7d32;}</style></defs><title>tit_new</title><path class="cls-1" d="M5.72,23.12H.13a1.52,1.52,0,0,0,.73-1.2V1.54A1.52,1.52,0,0,0,.13.34H5l7.26,12.53a23.37,23.37,0,0,1,1.92,4.42,26.68,26.68,0,0,1-.41-4.42V1.54a1.52,1.52,0,0,0-.73-1.2h5.58A1.48,1.48,0,0,0,18,1.54V22a1.35,1.35,0,0,0,.69,1.17H13.8L6.19,9.74a14.47,14.47,0,0,1-1.51-3.6c.22,2,.35,3.34.35,3.91V22A1.35,1.35,0,0,0,5.72,23.12Z"/><path class="cls-1" d="M27.12,13.63v5.74h7.1a1.47,1.47,0,0,0,1.17-.73v4.48H22.19a1.52,1.52,0,0,0,.73-1.2V1.54a1.52,1.52,0,0,0-.73-1.2H35.38V4.82a1.47,1.47,0,0,0-1.17-.73h-7.1V9.87h4.45a1.44,1.44,0,0,0,1.2-.73v5.21a1.52,1.52,0,0,0-1.2-.73Z"/><path class="cls-1" d="M51.86,15.14l-2.34,6.31a3.2,3.2,0,0,0-.16.88,7.46,7.46,0,0,0,.09.79h-4.7L37.41,2.2A5.69,5.69,0,0,0,36.3.34H42a3.51,3.51,0,0,0-.32,1.29,2.9,2.9,0,0,0,.16.88L47,18.42l2.84-8.84L47.35,2.2A6,6,0,0,0,46.24.34h5.68a3.37,3.37,0,0,0-.32,1.26,3.1,3.1,0,0,0,.16.92L57,18.42l5.14-15.9a2.74,2.74,0,0,0,.16-.88A3.53,3.53,0,0,0,62,.34h5.71a5.43,5.43,0,0,0-1.1,1.86L59.43,21.45a3.08,3.08,0,0,0-.13.88,7.3,7.3,0,0,0,.06.79H54.7Z"/><path class="cls-1" d="M90.71.34h5.62a1.52,1.52,0,0,0-.73,1.2V22a1.38,1.38,0,0,0,.73,1.17H90.71a1.52,1.52,0,0,0,.73-1.2V1.54A1.52,1.52,0,0,0,90.71.34Z"/><path class="cls-1" d="M100.3,21.92V11.64a1.76,1.76,0,0,0-.44-1.42,4.52,4.52,0,0,0,2-.79c1.42-.92,2.84-2.49,5.77-2.49,4.42,0,7.1,2.81,7.1,7.83v7.16a1.44,1.44,0,0,0,.69,1.2H110a1.47,1.47,0,0,0,.73-1.2V15c0-2.93-.63-4.48-3-4.48A5.17,5.17,0,0,0,104.41,12v9.88a1.44,1.44,0,0,0,.69,1.2H99.61A1.44,1.44,0,0,0,100.3,21.92Z"/><path class="cls-1" d="M119.4,21.92V10.6h-.82a1.52,1.52,0,0,0-1.2.73V7.66h2V7.22c0-2.62.54-4.23,2.08-5.33s3.31-.57,4.51-1.58V4.66a3.87,3.87,0,0,0-.57,0c-1.45,0-1.92.82-1.92,2.84v.19H126v3.66a1.52,1.52,0,0,0-1.2-.73H123.5V21.92a1.52,1.52,0,0,0,.73,1.2h-5.55A1.52,1.52,0,0,0,119.4,21.92Z"/><path class="cls-1" d="M136.44,7.09A8.3,8.3,0,1,1,128,15.36,8.34,8.34,0,0,1,136.44,7.09Zm0,12.88a4.61,4.61,0,0,0,0-9.21,4.61,4.61,0,0,0,0,9.21Z"/><path class="cls-1" d="M148,21.92V8.54a1.48,1.48,0,0,0-.69-1.2h4.42V9.81a2.8,2.8,0,0,1,2.05-2.27c1-.38,2.08-.32,2.84-1.14v5a5.55,5.55,0,0,0-1.64-.32,2.6,2.6,0,0,0-2.81,2v8.77a1.52,1.52,0,0,0,.73,1.2h-5.58A1.48,1.48,0,0,0,148,21.92Z"/><path class="cls-1" d="M174.78,23.12H169.2a1.48,1.48,0,0,0,.69-1.2V15c0-2.87-.57-4.48-3-4.48A5.24,5.24,0,0,0,163.49,12v9.88a1.52,1.52,0,0,0,.73,1.2H158.6a1.52,1.52,0,0,0,.73-1.2V11.64a1.78,1.78,0,0,0-.47-1.42,4.63,4.63,0,0,0,2.08-.79c1.51-1,3-2.49,5.9-2.49A6.92,6.92,0,0,1,172.07,9,8,8,0,0,1,177.4,6.9c4.26,0,7.23,2.81,7.23,7.86v7.16a1.52,1.52,0,0,0,.73,1.2h-5.58a1.48,1.48,0,0,0,.69-1.2V15c0-2.87-.54-4.48-3-4.48A5.38,5.38,0,0,0,174.06,12v9.88A1.52,1.52,0,0,0,174.78,23.12Z"/><path class="cls-1" d="M200.32,22.24a6.38,6.38,0,0,1-4.26,1.42,8,8,0,0,1-8.33-8.33c0-4.92,3.57-8.43,8.77-8.43a9.11,9.11,0,0,1,6.18,2.37,2.67,2.67,0,0,0,1.8.73h.32a2.15,2.15,0,0,0-.6,1.42V21.92a1.52,1.52,0,0,0,.73,1.2h-4.61Zm-4-11.68a4.35,4.35,0,0,0-4.7,4.48,4.62,4.62,0,0,0,4.58,4.89,6.43,6.43,0,0,0,4.1-1.7V12.43A5.22,5.22,0,0,0,196.34,10.56Z"/><path class="cls-1" d="M214.27,23.12h-5.62a1.52,1.52,0,0,0,.73-1.2V10.72h-2.08l6.25-8.14V7.35h2.75v4.1a1.47,1.47,0,0,0-1.17-.73h-1.58v11.2A1.52,1.52,0,0,0,214.27,23.12Z"/><path class="cls-1" d="M224.46,23.12h-5.58a1.48,1.48,0,0,0,.69-1.2V8.54a1.48,1.48,0,0,0-.69-1.2h4.89V21.92A1.48,1.48,0,0,0,224.46,23.12ZM221.65.88A2.36,2.36,0,0,1,224,3.21a2.36,2.36,0,0,1-2.37,2.33,2.29,2.29,0,0,1-2.33-2.33A2.29,2.29,0,0,1,221.65.88Z"/><path class="cls-1" d="M235.82,7.09a8.3,8.3,0,1,1-8.39,8.27A8.34,8.34,0,0,1,235.82,7.09Zm0,12.88a4.61,4.61,0,1,0,0-9.21,4.61,4.61,0,0,0,0,9.21Z"/><path class="cls-1" d="M247.72,21.92V11.64a1.77,1.77,0,0,0-.44-1.42,4.53,4.53,0,0,0,2-.79c1.42-.92,2.84-2.49,5.77-2.49,4.42,0,7.1,2.81,7.1,7.83v7.16a1.44,1.44,0,0,0,.69,1.2h-5.49a1.48,1.48,0,0,0,.73-1.2V15c0-2.93-.63-4.48-3-4.48A5.17,5.17,0,0,0,251.82,12v9.88a1.44,1.44,0,0,0,.69,1.2H247A1.44,1.44,0,0,0,247.72,21.92Z"/></svg>