<svg id="レイヤー_1" data-name="レイヤー 1" xmlns="http://www.w3.org/2000/svg" viewBox="0 0 508 51" width="508" height="51"><defs><style>.cls-1{fill:#0b579e;}.cls-2{fill:#231815;}</style></defs><title>tit_kaitai_sp</title><path class="cls-1" d="M143.17,44.06a28.72,28.72,0,0,0,9.17,2.61,8.1,8.1,0,0,0-1.16,2c-.26.68-.39.87-.8.87a3.33,3.33,0,0,1-.68-.1,31.69,31.69,0,0,1-9.11-3.51c-.29-.19-.26-.26.1-.55l1.64-1.32h-9.27c.68.42,1.26.77,1.87,1.22.35.23.42.35.42.55s-.1.35-.48.45a10.28,10.28,0,0,0-1.22.52,33,33,0,0,1-7.56,2.61,4.32,4.32,0,0,1-.71.1c-.32,0-.45-.23-.74-.84a9,9,0,0,0-1.25-2,28.21,28.21,0,0,0,8-2,5.43,5.43,0,0,0,1.09-.64c-3.12,0-4.25.06-4.44.06-.35,0-.39,0-.39-.35s.06-1.16.06-3.38V33.77c0-2.22-.06-3.15-.06-3.38s0-.35.39-.35c.19,0,1.32.06,4.44.06h11.07c3.15,0,4.28-.06,4.47-.06s.35,0,.35.35-.06,1.16-.06,3.38v6.63c0,2.22.06,3.15.06,3.38s0,.35-.35.35-1.32-.06-4.47-.06Zm3.31-22.62c3,0,4.12-.06,4.31-.06s.35,0,.35.35-.06.74-.06,2.22V26.2c0,1.45.06,2,.06,2.19s0,.35-.35.35-1.29-.06-4.31-.06H129.56c-3,0-4.12.06-4.31.06s-.35,0-.35-.35.06-.74.06-2.19V24c0-1.48-.06-2-.06-2.22s0-.35.35-.35,1.29.06,4.31.06Zm-13.84,4.89V23.82H128.2v2.51ZM131,32.51v1.54h14.09V32.51Zm14.09,5.37V36.34H131v1.54Zm0,2.25H131v1.51h14.09Zm-5-13.81V23.82h-4.28v2.51Zm7.79-2.51H143.2v2.51h4.63Z"/><path class="cls-1" d="M164.11,25.69c.29.13.51.35.51.58a2.8,2.8,0,0,1-.26.9,14.46,14.46,0,0,0-.29,3.15,40.54,40.54,0,0,0,.58,7.34c.45,2.54,1.29,4.73,2.64,4.73,1,0,1.83-1.13,3.09-4.47a12.3,12.3,0,0,0,2.06,2.48,1,1,0,0,1,.23,1.19c-1.22,3.28-3.22,5-5.47,5-2.51,0-5.15-3-6-8.4a58.37,58.37,0,0,1-.77-9.36,17.28,17.28,0,0,0-.39-4.22A13.94,13.94,0,0,1,164.11,25.69Zm14.93,2a1,1,0,0,1,.35-.13.49.49,0,0,1,.35.19,21.28,21.28,0,0,1,6.31,11c.1.42-.1.55-.35.71a10.92,10.92,0,0,1-2.51,1.29c-.39.13-.61,0-.68-.35a21.69,21.69,0,0,0-6-11.23C177.72,28.42,178.53,28,179,27.72Z"/><path class="cls-1" d="M208.77,25.78c.35-.1.48.06.51.32.1.71.19,1.64.23,2.32,0,.42-.06.52-.48.61a51.31,51.31,0,0,1-5.6,1.22c-2.19,7.14-3.83,12.07-5.89,17.41-.16.45-.35.42-.71.32s-1.9-.8-2.57-1.19a.52.52,0,0,1-.26-.64,120.75,120.75,0,0,0,5.57-15.25c-1.87.19-4.12.35-5.63.35-.48,0-.61-.1-.68-.52-.13-.68-.29-1.77-.45-2.93a14.83,14.83,0,0,0,2.38.1,43.52,43.52,0,0,0,5.21-.32c.32-1.29.58-2.7.8-4a22.11,22.11,0,0,0,.19-3,18.75,18.75,0,0,1,4.06.9.54.54,0,0,1,.35.52.77.77,0,0,1-.16.51,6.18,6.18,0,0,0-.68,1.29c-.32,1.16-.55,2.25-.77,3.06C205.46,26.65,207.2,26.24,208.77,25.78Zm-1.25,15.38c.32,0,.45.13.48.45.26,2.35,1.83,3,4.92,3a48.06,48.06,0,0,0,5.41-.45c.26,0,.35,0,.39.29a20.1,20.1,0,0,1,.26,2.8c0,.39,0,.48-.51.52a38.32,38.32,0,0,1-4.38.35c-4.22,0-6.4-.58-7.85-2.09a6.27,6.27,0,0,1-1.45-4.41A16.34,16.34,0,0,1,207.52,41.17Zm-.35-8.53c0-.45.1-.55.58-.64a33.6,33.6,0,0,1,6.28-.74,23.42,23.42,0,0,1,3.77.32c.45.06.55.1.55.48a22.68,22.68,0,0,1,0,2.57c0,.55-.16.68-.61.58a21.55,21.55,0,0,0-4-.39,35.64,35.64,0,0,0-6.47.74C207.23,34.44,207.16,33.28,207.16,32.64Z"/><path class="cls-1" d="M231.42,25.69c.29.13.51.35.51.58a2.8,2.8,0,0,1-.26.9,14.46,14.46,0,0,0-.29,3.15,40.54,40.54,0,0,0,.58,7.34c.45,2.54,1.29,4.73,2.64,4.73,1,0,1.83-1.13,3.09-4.47a12.3,12.3,0,0,0,2.06,2.48,1,1,0,0,1,.23,1.19c-1.22,3.28-3.22,5-5.47,5-2.51,0-5.15-3-6-8.4a58.37,58.37,0,0,1-.77-9.36,17.28,17.28,0,0,0-.39-4.22A13.94,13.94,0,0,1,231.42,25.69Zm14.93,2a1,1,0,0,1,.35-.13.49.49,0,0,1,.35.19,21.28,21.28,0,0,1,6.31,11c.1.42-.1.55-.35.71a10.92,10.92,0,0,1-2.51,1.29c-.39.13-.61,0-.68-.35a21.69,21.69,0,0,0-6-11.23C245,28.42,245.84,28,246.35,27.72Z"/><path class="cls-1" d="M274.27,27.44a11.43,11.43,0,0,0-4.66,9.48,11.43,11.43,0,0,0,4.66,9.48l-.54.64c-4-2.9-5.61-6-5.61-10.12s1.64-7.23,5.61-10.13Z"/><path class="cls-1" d="M279.81,33.68a19.48,19.48,0,0,1-.44,2.42c-.1.35-.14.5-.27.5a1.46,1.46,0,0,1-.46-.21,6.54,6.54,0,0,0-1.22-.41,21.81,21.81,0,0,0,.87-5.43,7.39,7.39,0,0,0,0-1.33c.56.06,1.24.15,1.74.23.23,0,.31.12.31.25a.72.72,0,0,1-.08.33,1.86,1.86,0,0,0-.12.7c0,.33,0,.66-.08,1h1V30.61a22.07,22.07,0,0,0-.17-3.13c.77,0,1.43.06,2.13.15.21,0,.33.1.33.21a1.16,1.16,0,0,1-.12.44,8.51,8.51,0,0,0-.12,2.3v1.18c1.1,0,1.51,0,1.61,0s.23,0,.23.21v1.41a12.5,12.5,0,0,0,2.3-4.2,9.69,9.69,0,0,0,.37-1.66c.56.08,1.35.21,1.95.35.23.06.35.15.35.29a.61.61,0,0,1-.21.41,2.83,2.83,0,0,0-.41,1c-.19.56-.41,1.12-.66,1.7h4.82c1.57,0,2.07,0,2.2,0s.29.06.29.27c0,.56,0,1.12,0,1.62a63.23,63.23,0,0,1-.6,10c-.33,2.22-1.24,3.27-3.08,3.27-.37,0-1,0-1.49,0s-.64,0-.77-.73a5.47,5.47,0,0,0-.5-1.55,13.34,13.34,0,0,0,2.42.21c.93,0,1.24-.62,1.41-1.72a67.9,67.9,0,0,0,.64-8.94c-1.47,5.22-3.52,8.9-7.1,11.68-.25.19-.39.29-.52.29s-.25-.12-.43-.39a4.24,4.24,0,0,0-1.14-1.14c3.91-2.65,6-6.19,7.37-10.87h-1.37a16.15,16.15,0,0,1-4.58,7.54c-.23.23-.37.33-.5.33s-.23-.1-.41-.35a5.42,5.42,0,0,0-1.16-1.06A12.64,12.64,0,0,0,288.72,33h-1.1a14.57,14.57,0,0,1-1.53,2.09c-.23.25-.33.35-.43.35s-.23-.1-.46-.33a6.58,6.58,0,0,0-1.18-.87l.54-.56-1.49,0V37c.6-.29,1.24-.6,1.92-1,0,.37,0,.93,0,1.39,0,.62,0,.64-.52.93s-1,.52-1.45.75v3.5c0,2.36,0,3.54,0,3.64s0,.23-.23.23H281.2c-.21,0-.23,0-.23-.23s0-1.28,0-3.62V40.05c-.48.21-1,.39-1.45.58a2.84,2.84,0,0,0-.66.37.53.53,0,0,1-.35.21.35.35,0,0,1-.33-.23c-.25-.6-.5-1.37-.7-2a17,17,0,0,0,1.95-.54c.52-.17,1-.35,1.55-.54V33.68Z"/><path class="cls-1" d="M302,38.27c0-.75,0-1.64,0-2.53-.43.6-.87,1.18-1.35,1.72-.17.17-.27.27-.35.27s-.19-.12-.25-.37a7.35,7.35,0,0,0-.7-1.78,18.81,18.81,0,0,0,3.91-6.67,7.22,7.22,0,0,0,.35-1.55,18.44,18.44,0,0,1,2,.68c.23.1.33.19.33.29s0,.23-.21.37a2.11,2.11,0,0,0-.43.83,27.28,27.28,0,0,1-1.2,2.75V43c0,2,0,3.06,0,3.17s0,.23-.23.23h-1.76c-.21,0-.23,0-.23-.23s0-1.12,0-3.17Zm9.13-7.58a20.59,20.59,0,0,0-.17-3.13c.79,0,1.53.06,2.26.12.19,0,.33.12.33.23a1.56,1.56,0,0,1-.12.41,8.34,8.34,0,0,0-.14,2.3V32H315c1.88,0,2.53,0,2.65,0s.25,0,.25.23V33.8c0,.21,0,.23-.25.23s-.77,0-2.65,0h-1.76v3.58h2.36c2,0,2.71,0,2.84,0s.23,0,.23.23v1.62c0,.23,0,.25-.23.25s-.81,0-2.84,0h-2.36v3c0,2.32,0,3.5,0,3.6s0,.23-.23.23h-1.78c-.21,0-.23,0-.23-.23s0-1.26,0-3.58v-3h-2.78c-2,0-2.71,0-2.84,0s-.23,0-.23-.25V37.76c0-.21,0-.23.23-.23s.81,0,2.84,0h2.78V34h-3.09a18.27,18.27,0,0,1-1.16,2.17c-.17.27-.27.41-.37.41s-.23-.12-.46-.33a4.74,4.74,0,0,0-1.28-.85,17.22,17.22,0,0,0,2.59-5.53,5.26,5.26,0,0,0,.23-1.39,17.22,17.22,0,0,1,1.88.54c.25.08.35.19.35.31a.42.42,0,0,1-.12.29,1.77,1.77,0,0,0-.37.83c-.14.52-.31,1.06-.5,1.59h2.3Z"/><path class="cls-1" d="M325.19,37.86c-1.86,0-2.5,0-2.63,0s-.23,0-.23-.21v-2c0-.19,0-.21.23-.21s.77,0,2.63,0h12.49c1.86,0,2.5,0,2.63,0s.23,0,.23.21v2c0,.19,0,.21-.23.21s-.77,0-2.63,0Z"/><path class="cls-1" d="M356.66,43.82c0,.31.06.5.39.56a14.64,14.64,0,0,0,1.7.06,4.4,4.4,0,0,0,2-.27c.35-.21.46-.44.5-1.68a4.16,4.16,0,0,0,1.41.62c.54.15.54.19.46.75a2.3,2.3,0,0,1-.91,1.82c-.62.46-1.76.56-3.48.56a11.51,11.51,0,0,1-3.54-.31c-.5-.19-.77-.5-.77-1.35V43.1h-1.78c-1.2,2.4-3.44,3.11-6.44,3.35-.64.06-.64,0-.91-.56a4.81,4.81,0,0,0-.77-1.18c2.59-.06,4.64-.33,5.67-1.61-1.88,0-2.59,0-2.71,0s-.23,0-.23-.25,0-.62,0-1.84v-3c0-1.22,0-1.72,0-1.86s0-.23.23-.23.85,0,2.86,0h6.71c2,0,2.71,0,2.84,0s.25,0,.25.23,0,.64,0,1.86v3c0,1.22,0,1.72,0,1.84s0,.25-.25.25-.85,0-2.84,0h-.43ZM351.56,34c1.41,0,1.86,0,2,0s.23,0,.23.23v1c0,.21,0,.23-.23.23s-.58,0-2,0h-3.4c-1.74,0-2.57,0-2.69,0s-.23,0-.23-.23,0-.75,0-2V30.4c0-1.3,0-1.93,0-2.05s0-.23.23-.23,1,0,2.69,0h3c1.7,0,2.21,0,2.34,0s.23,0,.23.23v1c0,.21,0,.23-.23.23s-.64,0-2.34,0h-.25v.81c1.24,0,1.82,0,1.95,0s.21,0,.21.23,0,.35,0,.93V32c0,.58,0,.81,0,.93s0,.23-.21.23-.7,0-1.95,0V34Zm-4.39-3.64h2v-.81h-2Zm4,1h-4v.81h4Zm-2,2.63v-.81h-2V34Zm.17,3.33v.79h8.8V37.3Zm8.8,2.67v-.79h-8.8V40Zm0,1.08h-8.8v.81h8.8Zm-1.84-9.9A12.7,12.7,0,0,1,355,32.64c-.23.21-.35.33-.46.33s-.25-.12-.46-.41a3.23,3.23,0,0,0-.89-.81,10.8,10.8,0,0,0,2.51-3.17,4,4,0,0,0,.43-1.16c.6.12,1.12.27,1.68.41.25.06.37.17.37.29s-.06.19-.19.31a2.24,2.24,0,0,0-.48.72l-.12.25H360c1.86,0,2.51,0,2.63,0s.25,0,.25.23v1.35c0,.23,0,.25-.25.25s-.77,0-2.63,0Zm1.28,3.5c-1.43,0-1.88,0-2,0s-.23,0-.23-.23V33.1c0-.21,0-.23.23-.23s.58,0,2,0h2.26c1.43,0,1.88,0,2,0s.23,0,.23.23v1.37c0,.21,0,.23-.23.23s-.58,0-2,0Z"/><path class="cls-1" d="M366.9,26.8c4,2.9,5.61,6,5.61,10.13s-1.64,7.23-5.61,10.13l-.54-.64A11.43,11.43,0,0,0,371,36.93a11.43,11.43,0,0,0-4.66-9.48Z"/><path class="cls-2" d="M.2,50.93H87.62a9.28,9.28,0,0,0,9.25-9.25V9.32A8.78,8.78,0,0,1,105.62.57H382.2A8.78,8.78,0,0,1,391,9.32V41.68a9.28,9.28,0,0,0,9.25,9.25H507.8v-.5H400.2a8.78,8.78,0,0,1-8.75-8.75V9.32A9.28,9.28,0,0,0,382.2.07H105.62a9.28,9.28,0,0,0-9.25,9.25V41.68a8.78,8.78,0,0,1-8.75,8.75H.2v.5Z"/></svg>