<svg id="レイヤー_1" data-name="レイヤー 1" xmlns="http://www.w3.org/2000/svg" viewBox="0 0 879 96" width="879" height="96"><defs><style>.cls-1{fill:#ef7d32;}.cls-2{fill:#fff;}</style></defs><title>tit_informartion</title><path class="cls-1" d="M6.42,59.34c2.1-2.18,4.91-5.24,7.62-6.51,4.74-2.12,3.64-6.16,7-7.87a12.35,12.35,0,0,0,5.59-5.67c2.86-3.95-3-6.32-5.43-9.5-.59-1.35-1.81-3.16-1.73-4.5.12-2.23-2.45-3.63-4.31-5.9L2.35.36a81.87,81.87,0,0,1,14.38,3c3.28.52,6.6.15,9.25.22l9.15,2c2.61.51,5.28.12,7.26.17,3.28.52,5.84,1.92,9.15,2,5.94.14,13.05,3,19.06,1.78,3.38-1.26,3.92,1,6.56,1,3.27.52,6.6.15,9.21.66l9.9.23c3.3.08,5.89,1,9.2,1.11l36.23,2.18a52,52,0,0,1-10,2.44c-4.65.34-9.29.68-14,2.35-4.69,1.23-9.28.68-14,2.35-3.38,1.26-13.26.58-11.46,4.19,1.68,5.39-2.57,10.65-.87,16,1.88,1.83,1,5.38.91,7.6-.07,1.34-.83,3.1-.93,4.89-.07,1.34-1.49,3.09-1.56,4.42s1.2,2.26,1.12,3.6-.83,3.1-.9,4.44c-.83,3.1.27,7.14-.56,10.25-.07,1.34-25.06-1-28.37-1.11-2.64-.06-4.55-1.44-7.18-1.51s-4.6-.55-7.23-.61c-5.88-1.48-10.54-.69-16.42-2.17-9.81-2-20.34-2.7-30.16-4.27C.85,64.57,4.26,62.42,6.42,59.34Zm89.1,14.57c.12-2.23,3.54-4.38,1.73-7.54-1.86-2.28.88-4,.34-6.24C97.09,57,95.87,55.18,98,53s-1-5.82-.88-8.05c.1-1.78,3.58-5.27,1.73-7.54-1.88-1.83-1.61-6.73-.86-8.5,2,0,3.24,1,5.23,1,2.61.51,4.67-.78,7.28-.28,4.55,1.44,10-.66,14.48,1.23,1.9,1.38,11.15,1.6,13.81,1.21,5.36-1.21,11.23.26,16.49.83l29,.68c2,0,4.57,1,6.62-.29,3.38-1.26,4.57,1,7.22,1.06,5.28.12,11.32-1.52,16.57-1,9.83,1.57,18.43,1.32,28.41.22,5.31-.32,9.83,1.57,14.52.34,3.38-1.26,4.6.55,7.23.61,3.3.08,6.68-1.18,9.32-1.12,9.93-.21,18.49.43,28.41.22l31.11-1.06c9.93-.21,18.61-1.8,28.51-1.57,2.66-.38,4.6.55,7.23.61s4-1.24,6.67-1.18c5.92.58,11.26-.18,17.2,0,10-1.11,17.92-1.37,27.84-1.58l14.57-.55c5.28.12,11.37-2.41,16.58-1,9.83,1.57,18.57-1.35,28.48-1.12,4.62.11,9.9.23,14.55-.11L502,24.94c3.31.08,6.62-.29,9.27-.23,10-1.11,19.18-.45,29.11-.66,2-.4,4.6.55,6.61.15,2.64.06,5.33-.77,7.33-1.17,5.28.12,11.17,1.15,16.53-.06,4.69-1.23,9.83,1.57,14.55-.11,4.69-1.23,9.19,1.11,13.91-.57,4.68-1.23,9.89.23,14.54-.11,5.28.12,11.22.26,16.52-.06,9.9.23,18.56-.91,28.47-.67,4.62.11,9.88.68,14.5.78,5.27.12,11.29-1.08,16.5.38,4.55,1.44,9.92-.21,14.51.34,4.62.11,9.24.22,13.89-.12,10.58-.2,20.41,1.37,31,2.06,4.62.11,9.22.66,13.81,1.21l7.27.17c2.61.51,5.33-.77,7.28-.28,7.27.17,4.6.55,4.41,4.12-.17,3.12-2.27,5.3-.46,8.47,1.9,1.38-1,5.33-1.07,7.56s3.06,4.53.9,7.6c-3.58,5.27,1.36,11.63-1.58,16.92-.76,1.77-1.56,4.42.32,6.25s-2.22,4.41-.36,6.68c3.6,6.78-17.38,3.61-22,2.61-4.55-1.44-9.88-.68-14.52-.34s-9.11-2.44-13.81-1.21c-3.38,1.26-4.6-.55-7.24-.61-3.29-.08-4.05,1.69-7.28.28-5.18-1.91-11.25.18-16.53.06-3.3-.08-3.84-2.32-7.21-1.06-1.35.41-4,.35-7.29.28-2.64-.06-3.86-1.87-6.57-.6s-4.65.34-7.28.28c-4.62-.11-9.88-.68-14.5-.78-2.65-.06-4.06,1.69-7.29.28-2.56-1.4-5.94-.14-9.24-.22-9.83-1.57-18.66,2.69-28.46.67A78.93,78.93,0,0,0,596,82.9c-5.37,1.21-11.25.18-16.56.51L551,84.09l-14,1.46c-3.3-.08-4.54-1.44-7.26-.17s-6.63.29-9.27.23C510.7,84,501.88,88.29,492,86.73c-4.55-1.45-10,.66-14.6,1-5.28-.12-11.22-.26-16.52.06l-28.48,1.12-14.57.55c-5.3.32-10.71,2.43-16.57,1-3.23-1.41-9.32,1.12-14,1.46s-9.88-.68-14.53-.34c-10,1.11-20.53.86-30.45,1.07S323.77,94,313.85,94.17c-2.66.39-4.57-1-7.23-.61-2,.4-4.69,1.23-7.33,1.17-2,0-4.57-1-6.58-.6-3.3-.08-6.62.29-9.93.21-4.59-.55-9.36,2-13.9.57s-9.9-.23-14.52-.34c-4.65.34-9.27.23-14.55.11-5.31.32-10.64,1.09-16.58,1-4.62-.11-9.19-1.11-13.82-1.21s-9.92.21-14.56.55c-4.62-.11-9.2-1.11-13.82-1.21-3.31-.08-5.94-.14-7.28.28-4.7,1.23-5.21-1.46-9.91-.23-2.72,1.27-4-.09-6.6-.15L130.83,93c-12.52-.74-23.72-1.45-34.87-3C93.58,85,95.22,79.26,95.52,73.91Zm767.4-37c-2.08,1.74-2.79,2.61-3.57,4.82-.1,1.78-2.11,2.18-4.16,3.47-2.07,1.74-4.91,5.24-4.37,7.48,1.82,3.17,5,4.58,6.86,7.75,1.88,1.83-.19,3.56,1.71,4.95s3.18,2.3,3.75,4.1c1.9,1.38,3.77,3.66,3.67,5.44-.07,1.34.54,2.24,2.44,3.63,2.57,1.4,1.79,3.61,3.7,5s3.13,3.2,3.05,4.53c-20.29-3.6-40.63-6.3-61.66-8.58-2.65-.06-4.6-.55-7.27-.17-3.36,1.26-3.9-1-7.18-1.51-4.62-.11-9.93.21-15.18-.35-1.85-2.27,1.56-4.42,1.68-6.65.19-3.57,1.74-7.54-.08-10.71-.49-3.13.29-5.35.46-8.47.12-2.23-1-6.27,1.12-8.45,2.16-3.07-1.08-4.49-.91-7.6s1.66-6.21,1.83-9.33c.22-4-3.69-5-8.24-6.44s-9.76-2.91-15-4.37C755.81,13,748,10.16,738.31,6.81,785.76,9.25,831.82,13,879,20.79,876.64,27.43,867.82,31.69,862.91,36.93Z"/><path class="cls-2" d="M205.72,67.31a1.51,1.51,0,0,0,.73-.09.78.78,0,0,1,.35-.13c.17,0,.36.14.91.75s.76.88.75,1.1a.46.46,0,0,1-.26.38c-.3.18-.38.27-.72.79a14.87,14.87,0,0,1-6.41,5.37,1.38,1.38,0,0,1-.59.22c-.19,0-.28-.18-.53-.61a5.1,5.1,0,0,0-1.07-1.41c2.93-1,5-2.19,6.31-4.31l-2.42-.11c-1.77-.08-2.32-.06-2.47-.07s-.29,0-.28-.25l.08-1.67c0-.24,0-.26.3-.25s.7.08,2.46.16Zm12.66-3.19c-.05,1.09-.06,1.72-.07,2a17,17,0,0,1,1.45,1.11c.26.21.35.36.34.55s-.13.26-.33.32a4.27,4.27,0,0,0-1.22.74,35,35,0,0,1-3,2,20.19,20.19,0,0,0,5.92,3.52A5.66,5.66,0,0,0,220.25,76c-.24.4-.34.59-.54.58a1.39,1.39,0,0,1-.55-.24c-3.35-1.88-5.95-3.91-7.65-7.53,0,1.87,0,3.71-.1,5.74a2,2,0,0,1-1,1.89,6.33,6.33,0,0,1-3.24.36c-.75,0-.7,0-.89-.75a7,7,0,0,0-.71-1.85,17.57,17.57,0,0,0,2.1.19c.87,0,1.24-.16,1.27-.67l.35-7.55-3-.14c-2.37-.11-3.22-.1-3.36-.11s-.29,0-.28-.28.09-.8.15-2.25l.19-4c.07-1.5,0-2.11.06-2.28s0-.24.3-.23,1,.09,3.36.21l2.06.1a12.41,12.41,0,0,0,.47-1.21,5.42,5.42,0,0,0,.31-1.34c.79.11,1.9.31,2.57.46.19.06.31.18.3.3a.53.53,0,0,1-.24.38,1.51,1.51,0,0,0-.34.47c-.17.43-.33.76-.46,1.07l3.68.17c2.35.11,3.2.1,3.36.11s.27,0,.25.25-.08.77-.15,2.27ZM216,63l-10.62-.5L205.27,64l10.62.5Zm-10.53-2.41,10.62.5.07-1.52L205.5,59Zm6.71,5.74a15.65,15.65,0,0,0,1.9,3A22.26,22.26,0,0,0,216.91,67a3.88,3.88,0,0,0,.46-.46c-.51,0-1.35-.09-2.68-.15Z"/><path class="cls-2" d="M230.65,64.89a12.09,12.09,0,0,0,1.19-3.55,24.22,24.22,0,0,1,3,1.32.42.42,0,0,1,.28.4.72.72,0,0,1-.26.48,4.63,4.63,0,0,0-.89,1.45,26.66,26.66,0,0,1-5.41,8,.92.92,0,0,1-.69.34.81.81,0,0,1-.55-.26,6.71,6.71,0,0,0-2.1-1.1A21.46,21.46,0,0,0,230.65,64.89Zm9.15-3a.58.58,0,0,1,.34-.14.49.49,0,0,1,.36.2A30.41,30.41,0,0,1,246.33,71a.61.61,0,0,1,.09.34.47.47,0,0,1-.25.38,14.68,14.68,0,0,1-2,1.23c-.32.14-.49.08-.57-.23a31.69,31.69,0,0,0-5.72-9.58C238.71,62.55,239.38,62.11,239.8,61.85Zm8.2-1.42a2.62,2.62,0,0,1-5.23-.14,2.56,2.56,0,0,1,2.69-2.52A2.59,2.59,0,0,1,248,60.43Zm-4-.11a1.43,1.43,0,1,0,1.47-1.39A1.39,1.39,0,0,0,244,60.32Z"/><path class="cls-2" d="M256.32,69.09a19.38,19.38,0,0,0-3.56.25c-.29,0-.48-.15-.55-.51a26.18,26.18,0,0,1-.33-2.93,31.13,31.13,0,0,0,5.23.35l7.8.09c1.84,0,3.71,0,5.57,0,.36,0,.44.05.43.34a17.79,17.79,0,0,1,0,2.28c0,.29-.1.39-.44.36-1.82,0-3.61-.09-5.4-.11Z"/><path class="cls-2" d="M288.89,61.15a2.24,2.24,0,0,0,1.21-.29.49.49,0,0,1,.31-.1.7.7,0,0,1,.39.14,11.17,11.17,0,0,1,1.65,1.3.78.78,0,0,1,.32.56.7.7,0,0,1-.29.51,2.92,2.92,0,0,0-.8,1,33.37,33.37,0,0,1-4.78,7.5,30.75,30.75,0,0,1-7.35,6,.65.65,0,0,1-.39.12.86.86,0,0,1-.56-.26,6.38,6.38,0,0,0-2.3-1.11,27.9,27.9,0,0,0,8-6.2,24.68,24.68,0,0,0,4.46-6.89L283,63.7a33.74,33.74,0,0,1-4.56,5,.76.76,0,0,1-.51.27.59.59,0,0,1-.36-.14,6.54,6.54,0,0,0-2.33-1,28.72,28.72,0,0,0,6.5-7.21,10.33,10.33,0,0,0,1.42-3.27A11.87,11.87,0,0,1,286,58.56a.51.51,0,0,1,.24.41.48.48,0,0,1-.27.41,2.64,2.64,0,0,0-.6.66l-.8,1.21Z"/><path class="cls-2" d="M311.57,60.36A2.37,2.37,0,0,0,312.9,60a.7.7,0,0,1,.41-.18.83.83,0,0,1,.44.19,7.83,7.83,0,0,1,1.67,1.45.59.59,0,0,1,.2.43.62.62,0,0,1-.26.46,3,3,0,0,0-.71.93,37.87,37.87,0,0,1-3.47,5.92,21.52,21.52,0,0,1,2.65,2.41.48.48,0,0,1,.15.34.47.47,0,0,1-.14.32,14.91,14.91,0,0,1-1.48,1.55.51.51,0,0,1-.29.13.42.42,0,0,1-.27-.14,27,27,0,0,0-2.38-2.31,29.49,29.49,0,0,1-7.63,6.17,1.31,1.31,0,0,1-.6.23.72.72,0,0,1-.46-.21,6.87,6.87,0,0,0-2.32-1.2,29.33,29.33,0,0,0,8.81-6.7,20.1,20.1,0,0,0-3.52-2.22c.52-.59,1-1.23,1.57-1.74a.46.46,0,0,1,.31-.17.63.63,0,0,1,.24.09A24.26,24.26,0,0,1,309,67.59a23.36,23.36,0,0,0,2.76-4.84l-6,.21a29.24,29.24,0,0,1-5.1,5.53.87.87,0,0,1-.48.22.56.56,0,0,1-.39-.16,10.09,10.09,0,0,0-2.05-1.08,27,27,0,0,0,6.74-7.71,9,9,0,0,0,1.26-3,15.21,15.21,0,0,1,2.85,1.14.42.42,0,0,1,.27.38.65.65,0,0,1-.28.49,2.05,2.05,0,0,0-.5.52c-.19.34-.33.59-.73,1.22Z"/><path class="cls-2" d="M334.9,60.46a3.31,3.31,0,0,0,1.81-.32A.58.58,0,0,1,337,60a.78.78,0,0,1,.54.23,11.68,11.68,0,0,1,1.66,1.46.5.5,0,0,1,.18.36.83.83,0,0,1-.23.54,2.65,2.65,0,0,0-.5,1.2,26.92,26.92,0,0,1-2.86,7.2,20.13,20.13,0,0,1-6.08,6.1.71.71,0,0,1-.38.16.88.88,0,0,1-.52-.23,8.18,8.18,0,0,0-2.45-1,17.59,17.59,0,0,0,6.76-6.22A20,20,0,0,0,335.79,63l-10.53.29.06,2c0,1,.1,2,.15,2.93,0,.39-.06.46-.37.47a17.11,17.11,0,0,1-2.23.06c-.31,0-.39-.06-.4-.35,0-1.24,0-2,0-3l-.05-2c0-.78,0-1.64-.11-2.35,0-.22.11-.32.33-.32,1.14,0,2.47,0,3.68,0l2.47-.07,0-.94a13,13,0,0,0-.33-3.21,27.46,27.46,0,0,1,3,.28c.49.08.64.35.46.74a5,5,0,0,0-.24,1.87l0,1.16Z"/><path class="cls-2" d="M346.67,58.55a.45.45,0,0,1,.33-.21.64.64,0,0,1,.32.11,25.24,25.24,0,0,1,4.76,3.26c.15.14.23.23.23.33a.52.52,0,0,1-.13.32c-.34.5-1.1,1.5-1.43,1.87-.12.13-.19.2-.28.21s-.2-.07-.32-.18A25.59,25.59,0,0,0,345,60.51C345.55,59.83,346.22,59.05,346.67,58.55Zm2.6,12.67a35.78,35.78,0,0,0,6.8-4.78,36.42,36.42,0,0,0,6.37-6.84,10.79,10.79,0,0,0,.79,2.8,1.19,1.19,0,0,1,.14.46c0,.22-.1.42-.36.74A39.62,39.62,0,0,1,357.64,69a52.06,52.06,0,0,1-7.12,5,8.33,8.33,0,0,0-1.58,1.18.67.67,0,0,1-.43.26.63.63,0,0,1-.42-.25,16.67,16.67,0,0,1-2-2.61A14.54,14.54,0,0,0,349.27,71.22Z"/><path class="cls-2" d="M374.67,55.4c.29.06.45.17.46.37s-.14.69-.12,1,.13,1.06.2,1.62a34,34,0,0,0,1,4.12l3.34-2a6,6,0,0,0,1.6-1.39A12.43,12.43,0,0,1,383,61.31a1,1,0,0,1,.19.5c0,.24-.12.44-.46.51a11.62,11.62,0,0,0-2.29.84,33.7,33.7,0,0,0-5.54,3.12c-2,1.48-2.73,2.66-2.67,3.8.07,1.43,1.17,2,3.95,1.84a42.34,42.34,0,0,0,7.35-.93c.26-.06.39,0,.45.27a21.44,21.44,0,0,1,.36,2.24c0,.26-.13.39-.41.43a51.77,51.77,0,0,1-7.19.73c-4.57.23-7.07-1.15-7.22-4.29-.14-2.68,1.54-4.54,4.28-6.47A36.79,36.79,0,0,1,372.26,58a10.82,10.82,0,0,0-.77-2.77A14.06,14.06,0,0,1,374.67,55.4Z"/><path class="cls-2" d="M398.95,64c-3.54,1.16-5.79,2.17-7.8,3a2.75,2.75,0,0,1-.69.31.71.71,0,0,1-.51-.45A18.54,18.54,0,0,1,389,64.9c.52-.18.74-.26,1.23-.46a11.92,11.92,0,0,0,2.23-1.57,79.43,79.43,0,0,0,6.5-6.75c-1.45.5-2.74.82-4.24,1.2-.36.09-.55.13-.91.25a2.54,2.54,0,0,1-.66.28c-.22,0-.42-.19-.61-.5a14.05,14.05,0,0,1-1-2.34,16.07,16.07,0,0,0,2.4-.1c1.61-.22,3.36-.62,5.47-1.06a3.17,3.17,0,0,0,1.26-.49.78.78,0,0,1,.45-.2c.22,0,.37.1.67.32a8.09,8.09,0,0,1,1.26,1.14,1.1,1.1,0,0,1,.33.66c0,.24-.12.42-.4.58a5.86,5.86,0,0,0-.95.79c-2.38,2.38-4.32,4.29-7,6.53l.05.07a94.18,94.18,0,0,1,11.49-3.36c.31-.07.42.09.48.36a10.48,10.48,0,0,1,.38,1.94c0,.24-.1.32-.37.36a17,17,0,0,0-4.45,1c-2.74,1.14-4,2.93-3.86,4.67.14,2.32,2.72,2.87,6.23,2.65.24,0,.39.1.39.41,0,.61-.15,1.61-.19,2s-.16.54-.5.56a13.67,13.67,0,0,1-1.6,0c-4.57-.18-6.68-2.14-6.86-5.07A5.65,5.65,0,0,1,399,64Z"/><path class="cls-2" d="M423.67,56.5a30.33,30.33,0,0,1-2.27,10.62c-.91,1.88-2.1,2.94-3.91,3.07-2.12.15-4.44-2-4.72-5.9a8.92,8.92,0,0,1,2.28-6.47,10.59,10.59,0,0,1,7.63-3.65c5.8-.42,9.46,2.92,9.8,7.72.32,4.49-2,7.5-6.81,9.32-.5.18-.72.1-1.07-.36a5.14,5.14,0,0,0-1.8-1.4c4-1.26,7.1-3.18,6.78-7.74a5.5,5.5,0,0,0-5.81-5.21Zm-6.76,2.84a7,7,0,0,0-1.56,4.6c.16,2.22,1.14,3.39,1.89,3.34s1.14-.4,1.71-1.6a27.64,27.64,0,0,0,1.94-8.83A7.29,7.29,0,0,0,416.91,59.34Z"/><path class="cls-2" d="M443.48,66.43a3.72,3.72,0,0,0,2.15,1.86,13.83,13.83,0,0,0,4.48.14c3.12-.23,6.77-.68,10.34-1.3a4.84,4.84,0,0,0-.51,2c-.06.78-.06.78-.83.89-3.05.39-5.92.65-8.44.83S446,71,445,70.55a6.45,6.45,0,0,1-2.67-2c-.7.78-1.56,1.64-2.28,2.33a2.2,2.2,0,0,0-.45.52.4.4,0,0,1-.35.24.46.46,0,0,1-.36-.26,19.42,19.42,0,0,1-1.15-2.2,11.06,11.06,0,0,0,1.37-.85,14.92,14.92,0,0,0,2-1.7l-.39-5.36-1.18.09c-1.3.09-1.64.17-1.76.18s-.29,0-.31-.27l-.13-1.83c0-.24,0-.27.27-.29s.46,0,1.77-.08l1.52-.11c1.28-.09,1.66-.17,1.81-.18s.27,0,.28.25,0,.82.12,2.3Zm-4.6-15.64c.14-.11.21-.16.28-.17a.45.45,0,0,1,.25.1,21.21,21.21,0,0,1,3.56,3.6c.16.16.14.23-.11.47L441.54,56a.68.68,0,0,1-.3.17c-.07,0-.12,0-.21-.15a20.47,20.47,0,0,0-3.47-3.73c-.21-.16-.16-.23.09-.44Zm9.6,7.93a19.69,19.69,0,0,1-.17,4.36A11.47,11.47,0,0,1,446.75,67c-.19.33-.3.48-.42.49s-.25-.13-.51-.38A6.68,6.68,0,0,0,444.3,66,8.18,8.18,0,0,0,446,61.9a23.82,23.82,0,0,0,0-4.9l-.13-1.81c-.1-1.4-.28-2.55-.5-3.85a16.72,16.72,0,0,1,2.12.41,27.85,27.85,0,0,0,6.38-2.11,8.37,8.37,0,0,0,1.42-.83,11,11,0,0,1,1.84,1.66.54.54,0,0,1,.17.4c0,.15-.13.25-.34.29a4.88,4.88,0,0,0-1,.24,39.32,39.32,0,0,1-7.78,2.5l.18,2.51,7.22-.52c2.15-.16,2.87-.25,3-.27s.27,0,.29.25l.13,1.86c0,.24,0,.27-.25.28s-.87,0-3,.17l-.72.05.42,5.87c.12,1.71.23,2.53.24,2.68s0,.27-.25.29l-2.05.15c-.24,0-.27,0-.29-.25s0-1-.14-2.68l-.42-5.87Z"/><path class="cls-2" d="M468.35,48.54a1.79,1.79,0,0,0,.6-.11,1.22,1.22,0,0,1,.36-.1c.19,0,.34.08,1,.71.5.55.58.76.59.91a.6.6,0,0,1-.21.52,2,2,0,0,0-.42.93,40.12,40.12,0,0,1-1.39,4.34c1.5,1.87,1.91,2.79,2,4.34a3.23,3.23,0,0,1-3.08,3.72c-.29,0-.35-.1-.46-.75a3.31,3.31,0,0,0-.56-1.44c1.41,0,2.06-.42,2-1.71s-.64-2.07-2.16-3.77a38.45,38.45,0,0,0,1.57-5.34l-2.22.14.85,13.1c.22,3.38.42,5.72.43,5.87s0,.24-.25.26l-1.89.12c-.22,0-.24,0-.26-.23s-.09-1.81-.32-5.22l-.68-10.46c-.22-3.43-.36-5.12-.37-5.27s0-.29.22-.31.68,0,1.79-.07Zm7,10.88a1.07,1.07,0,0,0,.45-.1.73.73,0,0,1,.21-.06c.07,0,.22,0,.79.51s.6.59.6.71a.5.5,0,0,1-.17.4,1,1,0,0,0-.18.52,12.54,12.54,0,0,1-5,8.09,1.54,1.54,0,0,1-.56.3c-.14,0-.27-.1-.56-.42a3.67,3.67,0,0,0-1.17-.89,12.22,12.22,0,0,0,3.7-3.23c-.26-.27-.52-.52-.8-.77s-.21-.16,0-.44l.64-.92c.18-.25.25-.28.48-.13a4.75,4.75,0,0,1,.67.54,10.72,10.72,0,0,0,.77-2.28l-1.45.09a16.24,16.24,0,0,1-2.25,3.47c-.25.31-.38.44-.51.45s-.17-.09-.3-.22a4.41,4.41,0,0,0-1.32-.93,10.6,10.6,0,0,0,3.16-5.18,5,5,0,0,0,.17-1.05l-.4.24a1.77,1.77,0,0,1-.54.28c-.17,0-.28-.15-.52-.52a5.2,5.2,0,0,0-1.12-1.17,12.82,12.82,0,0,0,4.7-3.12l-.51,0c-2.3.15-3.12.25-3.26.26s-.24,0-.26-.25l-.09-1.35c0-.24,0-.27.22-.28s1,0,3.27-.17l2-.13-.09-1.38a17.19,17.19,0,0,0-.36-2.91,23.18,23.18,0,0,1,2.35,0c.24,0,.37.1.38.22a2.29,2.29,0,0,1-.13.59,9.84,9.84,0,0,0,0,1.94l.09,1.38,2.66-.17c2.32-.15,3.11-.25,3.26-.26s.27,0,.28.25l.09,1.35c0,.24,0,.27-.25.28s-.95,0-3.27.16l-1.18.08a12.66,12.66,0,0,0,5.52,2,5.14,5.14,0,0,0-.68,1.5c-.14.47-.2.64-.39.66a2.12,2.12,0,0,1-.54-.13,13.17,13.17,0,0,1-5.44-3c.15,1.86.33,3.16.35,3.52s0,.29-.27.31l-1.69.11c-.27,0-.29,0-.31-.27s0-1.63-.11-3.51A12.75,12.75,0,0,1,473,57.68l1.62.21c.32.08.42.17.43.31s0,.22-.19.38a1.77,1.77,0,0,0-.36.8l0,.1Zm-2.28-11.21c.23-.14.29-.09.44.09a13.74,13.74,0,0,1,1.37,2c.11.24.09.26-.19.42l-1.31.74c-.26.16-.31.12-.42-.12a10.67,10.67,0,0,0-1.33-2.12c-.16-.21-.14-.26.17-.42Zm8,11.18a12.39,12.39,0,0,0-.25-2c.61,0,1.5,0,2,0,.32,0,.44.12.45.21a1.15,1.15,0,0,1-.09.47,4.93,4.93,0,0,0,0,1.09c.87-.06,1.23-.1,1.35-.11s.29,0,.31.22l.1,1.47c0,.24,0,.27-.27.28l-1.36,0,.18,2.8c1.26-.08,1.76-.16,1.88-.17s.27,0,.28.22l.1,1.52c0,.24,0,.27-.25.28l-1.89.08v0c.12,1.84.23,2.73.24,2.87s0,.24-.25.26l-1.67.11c-.24,0-.27,0-.28-.22s0-1.07-.14-2.93l-1.91.12c-1.88.12-2.49.21-2.63.22s-.29,0-.31-.25l-.1-1.52c0-.22,0-.24.27-.26.1,0,.51,0,1.6-.06l-.18-2.78a3,3,0,0,1-.39,0c-.24,0-.27,0-.28-.25l-.1-1.47c0-.22,0-.24.25-.26s.68,0,2.3-.12Zm-.57-10.64a4.64,4.64,0,0,0,.32-1.09,19.22,19.22,0,0,1,2.05.57c.2.06.27.13.28.25s0,.22-.17.35a1.27,1.27,0,0,0-.31.46c-.22.4-.52,1-.81,1.41-.17.3-.29.43-.43.44a1.35,1.35,0,0,1-.6-.2,4.69,4.69,0,0,0-1.34-.4A11,11,0,0,0,480.5,48.75Zm.88,15.35-.18-2.8-1.06.07.18,2.8Z"/><path class="cls-2" d="M494.26,48.93c.42.2.58.33.59.55s0,.24-.32.75A5.73,5.73,0,0,0,494,52a39.25,39.25,0,0,0-.57,7.87,23.64,23.64,0,0,0,.31,2.82c.45-1.14.84-2,1.44-3.7a6.26,6.26,0,0,0,.93,1.47,1,1,0,0,1,.19.35.67.67,0,0,1-.1.39,23.74,23.74,0,0,0-1.17,3.73,2.76,2.76,0,0,0,0,.75c0,.29.08.48.09.67s-.08.27-.3.33a12.06,12.06,0,0,1-2,.5c-.17,0-.27-.08-.33-.25A22.71,22.71,0,0,1,491,59.79a46.21,46.21,0,0,1,.37-8,19.55,19.55,0,0,0,.23-3.63A10.8,10.8,0,0,1,494.26,48.93ZM500.09,60c.19,0,.25.08.26.35.24,1.66,1.43,2.2,4.07,2a34.67,34.67,0,0,0,4.6-.58c.24,0,.29,0,.36.29a18,18,0,0,1,.26,2.07c0,.29,0,.31-.39.39a32.44,32.44,0,0,1-3.93.49c-3.58.2-5.28-.28-6.4-1.65a5.34,5.34,0,0,1-1-3.1Zm-1.87-9c0-.29.08-.37.32-.43a39,39,0,0,1,5.22-.73c1.45-.08,2.57-.1,3.59-.06.51,0,.56,0,.57.28,0,.73.08,1.38.07,2.06,0,.22-.08.32-.3.31-1.46,0-2.72,0-4,.08a29.57,29.57,0,0,0-5.46.87C498.23,52.08,498.19,51.48,498.22,51.06Z"/><path class="cls-2" d="M520.49,53.35c-1.2.15-2.43.31-4.05.39-.41,0-.54-.12-.6-.48s-.23-1.25-.37-2.09a12.38,12.38,0,0,0,1.89,0c1,0,2.05-.19,3.06-.34,0-.8-.06-1.72-.11-2.76a9,9,0,0,0-.26-2,13.71,13.71,0,0,1,2.9.3c.29.06.5.22.51.44a.86.86,0,0,1-.13.39,3,3,0,0,0-.29,1c0,.63,0,1.24,0,2a23.78,23.78,0,0,0,3.05-1c.21-.08.39,0,.42.2a12.18,12.18,0,0,1,.23,1.88c0,.24-.06.32-.3.4A24.67,24.67,0,0,1,523,52.77c0,1.16.09,2.35.12,3.51A15.28,15.28,0,0,1,529,54.67c3-.12,5.24,1.69,5.38,4.59.15,3.1-1.75,5-5,5.16a9.47,9.47,0,0,1-2-.12.65.65,0,0,1-.57-.7,4.24,4.24,0,0,0-.82-2,9,9,0,0,0,3,.29,2.4,2.4,0,0,0,2.5-2.61c-.08-1.57-1.08-2.4-2.78-2.32a12,12,0,0,0-5.46,1.91c.07,1,.13,1.84.23,2.9s.32,2.58.34,3.14c0,.34.08.7-.32.82a9.79,9.79,0,0,1-1.78.38c-.26,0-.37-.15-.6-.46a14.9,14.9,0,0,0-3.58-2.93,4.34,4.34,0,0,0-.75.57.62.62,0,0,1-.4.19.68.68,0,0,1-.55-.36c-.29-.42-.82-1.42-1.22-2.2a9,9,0,0,0,2.19-1c1-.63,2.12-1.34,3.84-2.44Zm-1.85,8.43a24.6,24.6,0,0,0,2.33,1c.2,0,.27,0,.23-.21-.08-.63-.18-1.74-.27-2.53C520.27,60.51,519.47,61.11,518.63,61.78Zm11-13.25c.16-.27.23-.35.4-.31a11.51,11.51,0,0,1,5.27,2.71c.1.09.15.16.16.24a.62.62,0,0,1-.08.25c-.29.5-.88,1.28-1.22,1.78-.07.1-.41.14-.48,0a11.19,11.19,0,0,0-5.05-2.74A14.89,14.89,0,0,1,529.59,48.53Z"/><path class="cls-2" d="M542.39,53.64c-.42.6-.88,1.2-1.34,1.77-.19.22-.33.33-.42.33s-.17-.12-.28-.4a7.32,7.32,0,0,0-.87-2.05,22,22,0,0,0,4.3-7.89,7.77,7.77,0,0,0,.33-1.71,15.45,15.45,0,0,1,2.42.64c.27.11.37.18.38.35a.49.49,0,0,1-.23.44c-.17.13-.28.35-.47,1a32.6,32.6,0,0,1-1.47,3.57L545.16,62c.08,2.37.18,3.56.18,3.68s0,.27-.23.27L543,66c-.22,0-.24,0-.25-.26s0-1.31-.08-3.68Zm7.52,11.07c-2.37.09-3.22.17-3.36.17s-.27,0-.28-.28l-.07-1.86c0-.24,0-.27.26-.28s1,0,3.37-.07l3-.11-.18-5-1.62.06c-2.25.08-3,.16-3.17.16s-.29,0-.3-.26l-.07-1.82c0-.24,0-.27.28-.28s.92,0,3.17-.07l1.62-.06-.15-4.19-2.27.08c-2.35.08-3.15.16-3.29.17s-.27,0-.28-.26L546.46,49c0-.27,0-.27.26-.28s.95,0,3.29-.09l7.58-.27c2.32-.08,3.15-.14,3.29-.14s.29,0,.3.25l.07,1.84c0,.24,0,.27-.28.28s-1,0-3.29.07l-2.71.1.15,4.19,1.91-.07c2.28-.08,3-.16,3.19-.16s.27,0,.28.26l.07,1.82c0,.24,0,.27-.26.28s-.92,0-3.2.07l-1.91.07.18,5,3.41-.12c2.37-.09,3.19-.16,3.34-.17s.27,0,.28.26l.07,1.86c0,.27,0,.29-.26.3s-1,0-3.34.07Zm1.35-20.94a.36.36,0,0,1,.5-.11,20.79,20.79,0,0,1,4.3,2.29c.12.09.2.14.2.21a.73.73,0,0,1-.16.27L555,47.76c-.23.3-.33.3-.53.17a19.36,19.36,0,0,0-4.3-2.44c-.12-.07-.17-.12-.18-.19s0-.15.16-.27Z"/><path class="cls-2" d="M570.57,47.13c.22.09.39.26.4.43a2.1,2.1,0,0,1-.18.68,10.89,10.89,0,0,0-.16,2.38,30.51,30.51,0,0,0,.57,5.51c.38,1.9,1.05,3.54,2.07,3.51.78,0,1.36-.88,2.25-3.42A9.24,9.24,0,0,0,577.1,58a.74.74,0,0,1,.19.89c-.86,2.49-2.33,3.83-4,3.87-1.89,0-3.93-2.14-4.67-6.21a44,44,0,0,1-.75-7,13,13,0,0,0-.37-3.16A10.53,10.53,0,0,1,570.57,47.13Zm11.27,1.26a.7.7,0,0,1,.26-.1.38.38,0,0,1,.27.14,16,16,0,0,1,4.94,8.17c.08.31-.06.41-.25.54a8.16,8.16,0,0,1-1.87,1c-.29.1-.46,0-.51-.25a16.33,16.33,0,0,0-4.72-8.34C580.86,48.95,581.45,48.59,581.84,48.39Z"/><path class="cls-2" d="M604.18,47.76a30.32,30.32,0,0,1-2.95,10.46C600.2,60,599,61,597.14,61c-2.13,0-4.3-2.24-4.33-6.19a8.92,8.92,0,0,1,2.69-6.32,10.59,10.59,0,0,1,7.85-3.16c5.81,0,9.25,3.51,9.29,8.33,0,4.5-2.49,7.36-7.39,8.87-.51.15-.73.05-1-.43a5.14,5.14,0,0,0-1.71-1.51c4.08-1,7.29-2.72,7.26-7.3a5.5,5.5,0,0,0-5.47-5.58Zm-6.93,2.4a7,7,0,0,0-1.85,4.5c0,2.23.92,3.46,1.67,3.45s1.16-.32,1.81-1.49a27.68,27.68,0,0,0,2.5-8.69A7.3,7.3,0,0,0,597.25,50.16Z"/><path class="cls-2" d="M622.48,50c1.72-.25,3.42-.59,5.66-1.13a5.78,5.78,0,0,0-.14,1.28c0,.78,0,.78-.74,1a78.33,78.33,0,0,1-7.7,1.61,2.83,2.83,0,0,0-.87.23.75.75,0,0,1-.39.14c-.14,0-.26-.15-.33-.37a22.61,22.61,0,0,1-.44-2.23,15.24,15.24,0,0,0,2.3-.15l.22,0,.05-5a20.16,20.16,0,0,0-.14-3c1.06,0,1.69.12,2.49.2.22,0,.34.12.34.25a1.14,1.14,0,0,1-.15.46,5.43,5.43,0,0,0-.12,1.72v.24l2.37,0c2,0,2.57,0,2.74,0s.27,0,.26.27l0,1.62c0,.24,0,.27-.27.26s-.73-.06-2.74-.08l-2.37,0Zm-1.17,14.45c-.24,0-.27,0-.26-.27s.06-.82.1-4.55l0-2.33c0-2.3,0-3,0-3.15s0-.29.27-.29,1,.06,3.34.08l1.57,0c.15-.29.27-.53.4-.82a6,6,0,0,0,.45-1.47c.75.15,1.55.31,2.27.53.22.05.31.17.31.32s-.1.27-.25.38a1.63,1.63,0,0,0-.42.48l-.35.6,3.83,0c2.35,0,3.2,0,3.34,0s.27,0,.26.29-.06.85-.08,2.81l0,2.59c0,3.71,0,4.38,0,4.53s0,.24-.27.24l-2,0c-.24,0-.27,0-.26-.25v-.63l-10-.11v.73c0,.24,0,.27-.27.26Zm12.29-2.9,0-1.84-10-.11,0,1.84Zm-10-3.86,10,.11,0-1.72-10-.11Zm8.1-11.74a25.15,25.15,0,0,0,3.92-1.61,5.83,5.83,0,0,0,1.32-.88A11.84,11.84,0,0,1,638.36,45a.56.56,0,0,1,.19.41c0,.15-.2.26-.39.29a4.14,4.14,0,0,0-1.14.37,35.52,35.52,0,0,1-5.33,2V49.3c0,.46.14.7.48.8a10.11,10.11,0,0,0,2.18.14,4.17,4.17,0,0,0,2.28-.39c.37-.33.49-.84.6-2.22a7.55,7.55,0,0,0,1.62.7c.58.18.58.18.52.83-.21,1.48-.56,2.15-1.29,2.63a8,8,0,0,1-3.76.54,14.83,14.83,0,0,1-4-.36,1.57,1.57,0,0,1-1-1.61l.06-5.64a16,16,0,0,0-.1-2.37c.92.06,1.6.12,2.4.22.31,0,.43.1.43.25a1,1,0,0,1-.15.46,3.12,3.12,0,0,0-.16,1.38Z"/><path class="cls-2" d="M654.91,55c-2.32-.08-3.15-.06-3.29-.06s-.26,0-.26-.28v-.07a6.13,6.13,0,0,0-.7,1.24c-.13.29-.21.43-.3.43s-.17-.13-.3-.4a13.93,13.93,0,0,1-1.08-3c-.19,6.32-.22,11.45-.23,11.84s0,.27-.28.26l-1.91-.07c-.24,0-.26,0-.26-.28s.29-5,.5-10.54a18.07,18.07,0,0,1-2.2,4.82c-.15.24-.28.38-.38.38s-.17-.13-.23-.4a6.69,6.69,0,0,0-.79-1.84,20.59,20.59,0,0,0,3.6-7.46h-.27c-1.6-.05-2.08,0-2.23,0s-.27,0-.26-.3l.06-1.67c0-.27,0-.29.28-.28s.63.07,2.22.12H647l0-1.43a17.72,17.72,0,0,0-.08-3.25,21.2,21.2,0,0,1,2.34.25c.24.06.38.13.38.28a1,1,0,0,1-.16.5,7,7,0,0,0-.22,2.27l0,1.45c1.4,0,1.86,0,2,0s.24,0,.23.3l-.06,1.67c0,.27,0,.29-.25.28s-.6-.07-2-.12a16.37,16.37,0,0,0,2.17,4.56l0-1.11c0-.24,0-.27.28-.26s1,.08,3.29.16l1.79.06.05-1.48-1.11,0c-2.15-.07-2.88,0-3-.05s-.26,0-.26-.28l0-1.5c0-.27,0-.29.28-.28s.87.08,3,.15l1.11,0,0-1.45-1.45,0c-2.28-.08-3.05-.06-3.2-.06s-.27,0-.26-.25l.05-1.55c0-.24,0-.27.28-.26s.8.08,2.51.13a20.3,20.3,0,0,0-1-2.07c-.14-.22-.09-.29.18-.41l1.49-.51c.27-.09.29-.09.46.14a12.93,12.93,0,0,1,1.09,2c.11.25.06.29-.23.4l-1.32.44,3.61.12c.36-.64.77-1.4,1.06-2a5.3,5.3,0,0,0,.33-1.05,19.07,19.07,0,0,1,2.06.55c.24.08.38.18.38.35a.47.47,0,0,1-.25.36,1,1,0,0,0-.35.42c-.23.43-.54,1-.87,1.47h.14c2.25.08,3,.05,3.17.06s.29,0,.28.28L665,48.19c0,.22,0,.24-.3.23s-.92-.08-3.17-.16l-2.32-.08,0,1.45,1.72.06c2.18.07,2.88,0,3,.05s.27,0,.26.3l-.05,1.5c0,.24,0,.27-.28.26s-.84-.08-3-.15l-1.72-.06,0,1.48,3,.1c2.32.08,3.12.06,3.27.06s.26,0,.26.27l-.05,1.6c0,.24,0,.27-.28.26s-.94-.08-3.26-.16l-2.52-.08a18,18,0,0,0,1.46,2.71,16.93,16.93,0,0,0,1.6-1.4,3.79,3.79,0,0,0,.63-.83,13.08,13.08,0,0,1,1.51,1.24c.16.15.26.28.25.42s-.1.24-.33.3a2,2,0,0,0-.74.43c-.47.42-1,.89-1.69,1.42a16.34,16.34,0,0,0,3.75,3,5.29,5.29,0,0,0-1.21,1.39c-.21.33-.31.47-.43.47s-.26-.13-.52-.33a14.22,14.22,0,0,1-4.83-6.2c0,2.08,0,3.73-.07,4.82a2.28,2.28,0,0,1-.84,2c-.47.32-1.08.42-2.65.39-.77,0-.77,0-.92-.78a5.91,5.91,0,0,0-.58-1.57,16,16,0,0,0,1.71.16c.73,0,.9-.14.92-.77l.06-1.69a44.08,44.08,0,0,1-4.46,2.27,2.32,2.32,0,0,0-.77.46.54.54,0,0,1-.35.21c-.1,0-.17-.08-.26-.27-.25-.59-.49-1.23-.78-2.09a8.58,8.58,0,0,0,1.42-.44A44.09,44.09,0,0,0,656.6,58l.1-3Zm-.9,3.72c-.25.23-.35.25-.49.06a9.32,9.32,0,0,0-1.94-2.08c-.21-.15-.19-.23,0-.44l1-.89c.25-.21.32-.21.51-.08a9.56,9.56,0,0,1,2,1.91c.14.2.11.27-.09.46Z"/><path class="cls-2" d="M672,53.8c.84-.58,2.67-2,4.56-3.48a3.05,3.05,0,0,1,2.17-.89,2.9,2.9,0,0,1,2,1c1.72,1.56,2.7,2.59,5,4.48a55.49,55.49,0,0,0,5.49,3.9c.24.11.34.31.21.52a10.15,10.15,0,0,1-1.32,2.2c-.13.16-.23.23-.33.22a.58.58,0,0,1-.33-.14c-1.12-.75-3.64-2.84-5-4-1.66-1.41-3.31-3.06-4.81-4.59a1.56,1.56,0,0,0-1-.62c-.27,0-.52.19-.85.46-1.26,1.11-3.1,2.67-4.31,3.74a6.1,6.1,0,0,0-.94,1,.52.52,0,0,1-.45.26.64.64,0,0,1-.45-.24A22.43,22.43,0,0,1,669.81,55,8.28,8.28,0,0,0,672,53.8Z"/></svg>