<svg id="レイヤー_1" data-name="レイヤー 1" xmlns="http://www.w3.org/2000/svg" viewBox="0 0 258 30" width="258" height="30"><defs><style>.cls-1{fill:#040000;}</style></defs><title>tit_contact</title><path class="cls-1" d="M70.74,6.81c.17.06.3.19.3.32s-.24.32-.64.36a38.22,38.22,0,0,1-3.23,6.56,28.94,28.94,0,0,1,3.68,4,13.76,13.76,0,0,0-1.67,1.8,28,28,0,0,0-3.31-4,24.49,24.49,0,0,1-8.53,7,7.56,7.56,0,0,0-1.71-1.69,21.27,21.27,0,0,0,8.57-6.86,36.56,36.56,0,0,0-4.72-3.57L60.76,9a52.32,52.32,0,0,1,4.72,3.55,27.76,27.76,0,0,0,2.91-6.78Z"/><path class="cls-1" d="M96.73,13.11v2.31H78.46V13.11Z"/><path class="cls-1" d="M107.7,6.19c.21,0,.49,0,.49.28s-.24.34-.41.41v5.26c0,4.32-1.22,7.16-5.34,10a6,6,0,0,0-1.84-1.58c4.25-2.5,4.83-5.13,4.83-8.27V6.06ZM112.83,6c.24,0,.43,0,.43.26s-.21.28-.43.38V18.82a22.35,22.35,0,0,0,6.82-6.43,6.24,6.24,0,0,0,1.18,2,31.6,31.6,0,0,1-7.57,7,6.79,6.79,0,0,0-1.2.94l-1.6-1.07c0-.43.09-1.07.09-1.67V5.86Z"/><path class="cls-1" d="M142.84,7.7c-5.26,0-10.3,4.68-10.3,8.72,0,1.3.6,4.42,6.48,5a14.78,14.78,0,0,0-1,2.46c-3.36-.68-7.74-2.61-7.74-7.4,0-4.51,4.1-7.23,5.39-8.06-2.52.15-9.66,1.13-10.92,1.47l-.34-2.74c.41,0,.75,0,1.22,0a106.26,106.26,0,0,0,16.76-1.92Zm-3.61,3.78a22.37,22.37,0,0,1,1.95,2.29,6.62,6.62,0,0,0-1.15,1,14.7,14.7,0,0,0-1.95-2.33Zm2.12-1.62a15.32,15.32,0,0,1,2,2.27,5.9,5.9,0,0,0-1.18,1,14.71,14.71,0,0,0-2-2.39Z"/><path class="cls-1" d="M156.67,21.17c6.37-1.33,6.8-6.09,6.8-7.33a5.92,5.92,0,0,0-6.11-6A31.46,31.46,0,0,1,155,17.58c-1.15,2.63-2.27,4-3.48,4-1.6,0-4.21-2.57-4.21-6.18a10,10,0,0,1,9.9-9.58c4.51,0,8.47,3,8.47,8a9.3,9.3,0,0,1-2.5,6.33,11.69,11.69,0,0,1-5,3A10.81,10.81,0,0,0,156.67,21.17Zm-7.25-5.94c0,2.14,1.13,3.72,2,3.72s1.43-1.62,2-3A22.6,22.6,0,0,0,155,8.17,7.79,7.79,0,0,0,149.42,15.23Z"/><path class="cls-1" d="M177.91,4.92c.23,0,.43.06.43.3s-.21.28-.36.3c0,.49-.11,1.33-.17,3a17.44,17.44,0,0,0,4-1.13c0,1.22,0,1.9.06,2.27a24.9,24.9,0,0,1-4.1,1l0,2.91a10.43,10.43,0,0,1,4.06-1c2.86,0,5.73,1.6,5.73,5.26A4.54,4.54,0,0,1,183,22.67c-3.19,0-3.25-2.91-3.25-3.63a16.83,16.83,0,0,0,1.84-.62c0,.71-.09,2.16,1.6,2.16,1.37,0,2.24-1.18,2.24-2.74a3.31,3.31,0,0,0-3.63-3.36,8.65,8.65,0,0,0-4.06,1.13,69.85,69.85,0,0,0,.28,7.08l-1.8.86A32,32,0,0,0,171.91,20c-.38.36-.68.66-1.15,1.13l-.94-2.35c.43-.26.71-.47,1.15-.79,3.23-2.37,3.59-2.63,4.6-3.25,0-1.71,0-1.92,0-3.8-1.45.11-2.93.15-4.38.17l-.06-2.25a9.65,9.65,0,0,0,1.6.11c1,0,2.27-.09,2.84-.13,0-1.43,0-2.87,0-4.28Zm-4.64,13.77a23.58,23.58,0,0,0,2.22,1.65c.11,0,.09-.34.06-3.44A27.64,27.64,0,0,0,173.28,18.69Zm11.54-11a17.09,17.09,0,0,1,4.66,3.46A16.13,16.13,0,0,0,188,12.88a12.35,12.35,0,0,0-4.53-3.4Z"/><path class="cls-1" d="M201.47,4.86v7.59h-5.69V24h-2.2V4.86Zm-2,3.06V6.48h-3.66V7.92Zm-3.66,1.48v1.45h3.66V9.39ZM200.55,22h-2.14v-8h8.06v6.24h-5.92Zm3.81-3.48V15.83h-3.81v2.74Zm7-13.68V21.53c0,2.29-1.62,2.46-3.14,2.46-.28,0-.43,0-.68,0a5.8,5.8,0,0,0-.88-2.46,6,6,0,0,0,1.48.19c.88,0,1-.17,1-.88V12.45h-5.71V4.88Zm-2.2,3.06V6.48h-3.68V7.94Zm-3.68,1.47v1.43h3.68V9.41Z"/><path class="cls-1" d="M230.24,13.07h-9.66V11.72a24.73,24.73,0,0,1-3.91,2.59,6.93,6.93,0,0,0-1.6-1.92,18.84,18.84,0,0,0,9.11-8l2.67.21c.17,0,.38.09.38.28s-.11.19-.21.24l-.32.13c1.5,2.24,5.26,5.26,9.11,6.75a6.42,6.42,0,0,0-1.5,2,28.24,28.24,0,0,1-4.06-2.48Zm-9.06,9.73V24h-2.24V15.08h12.89V24h-2.24V22.8Zm8.4-2V17.07h-8.4v3.74Zm.15-9.71a20,20,0,0,1-4.45-4.3,24.69,24.69,0,0,1-4,4.3Z"/><path class="cls-1" d="M253.48,5.18c.45.06.47.17.47.26s-.26.32-.41.36c0,.36,0,2.71,0,4.06l4.25-.53,0,2.33a31.3,31.3,0,0,0-4.32.26c0,5.56-.38,6.18-5,6.16a18,18,0,0,0-.58-2.14,10.93,10.93,0,0,0,1.45.09c1.88,0,1.9-.51,2-3.85l-5.69.9c0,.43,0,2.24,0,2.67,0,4.32.09,5.19,4.25,5.19a25.5,25.5,0,0,0,6.48-.81,18.36,18.36,0,0,0-.32,2.35,42.52,42.52,0,0,1-6.58.51c-5.77,0-5.9-2.82-5.9-6.67,0-.19,0-2.57,0-2.84-2,.36-3.4.75-4.49,1L239,12a33.73,33.73,0,0,0,4.68-.62,37.76,37.76,0,0,0-.24-5.22l2.52.32c.24,0,.56.09.56.32s-.24.34-.43.41c-.06,1-.17,2.65-.21,3.83.6-.11,4.47-.68,5.54-.85A31.94,31.94,0,0,0,251,4.84Z"/><polygon class="cls-1" points="38.94 17.97 33.93 12.77 38.94 8.45 38.94 17.97"/><polygon class="cls-1" points="5.14 12.77 0.12 17.98 0.12 8.45 5.14 12.77"/><path class="cls-1" d="M38.94,22.7v4.79a2.1,2.1,0,0,1-2.1,2.1H2.22a2.1,2.1,0,0,1-2.1-2.1V22.7l7.5-7.79,8.57,7.38a5.28,5.28,0,0,0,6.68,0l8.56-7.38Z"/><path class="cls-1" d="M38.94,2.5V4.6L20.63,20.37a1.79,1.79,0,0,1-2.21,0L.12,4.6V2.5A2.09,2.09,0,0,1,2.22.41H36.84A2.09,2.09,0,0,1,38.94,2.5Z"/></svg>