<svg id="レイヤー_1" data-name="レイヤー 1" xmlns="http://www.w3.org/2000/svg" viewBox="0 0 272 56" width="272" height="56"><defs><style>.cls-1{fill:#fff;}.cls-2{fill:#e16a0e;}.cls-3{fill:#595738;}</style></defs><title>logo</title><circle class="cls-1" cx="27.62" cy="27.99" r="27.62"/><path class="cls-2" d="M27.6,32.57a10.55,10.55,0,0,1-6.68-2.4H.12A23.27,23.27,0,0,0,.66,34H54.5a20,20,0,0,0,.59-3.79H34.28a10.58,10.58,0,0,1-6.69,2.4"/><path class="cls-2" d="M55.12,26h-22a8.43,8.43,0,0,1-5.48,2,8.26,8.26,0,0,1-5.46-2H.12A11.35,11.35,0,0,0,0,28c0,.49,0,.94,0,1.16H55.17c0-.22,0-.67,0-1.16,0-.67,0-1.32-.06-2"/><path class="cls-2" d="M27.6,37.67A14.27,14.27,0,0,1,19.17,35H.86a22.33,22.33,0,0,0,1.6,4.24H52.74A21.67,21.67,0,0,0,54.31,35H36a14.21,14.21,0,0,1-8.42,2.71"/><path class="cls-2" d="M27.6,43.52a23.33,23.33,0,0,1-12-3.33H2.85A20.7,20.7,0,0,0,6,45H49.19a19.65,19.65,0,0,0,3.17-4.8H39.63a23.25,23.25,0,0,1-12,3.33"/><path class="cls-2" d="M54.61,22.46h-23a6.11,6.11,0,0,1-8,0H.56C.4,23.35.23,24.3.14,25H55a24.12,24.12,0,0,0-.43-2.57"/><path class="cls-2" d="M34.84,15.59l-.64.18-.81.93-.09.49-.37,0-.56.53-.66.19-.17.15-1.2-.47L30,17.4l-.16.3-.75-.14-.41-.33-.14.06-.15,1.15.31.44,1.3.48,1,.1-1.25.32-1.56.13-.18.21-1.2-.06-.16-.12-1.4-.16-1.19-.14v-.18l1.15-.19,1.12-.49.11-.42.19-.82-.57-.43-.45-.22L25,16.8l-.74.68H24l-.22-.19-.39-.06-.41.32-.56,0-.45-.3v-.7l-.54-.24-.86-.06-.16-.28.17-.41,1.17.07v-.23l-.57.06.21-.54-.59-.7.06-.27.45-.1.08-.85-.43-.2-.55,0-.17-.43.33-.32.82.12v-.23l-.31-.4.28-.23.81-.24.12-.45-.32-.4V10l.75-.43V9.3L22.38,9V8.8L23,8.69l-.75-.56.7-.08.23-.21.71,0L24,7.42l.75-.09L24.81,7l0-.11.16-.27.54,0,.14-.16,0-.14.36-.14-.34-.26.19-.15.59-.21h.48l.32.06.42-.18.63-.1.25.21.19.17,0,.09L29,5.8l.13.36.64.1.22.23,0,.62.86.06v.16l-.2.21h.79l.25.3-.11.29v.59l.87.06.57.2.27.32.22.49,0,.63-.36.43.16.14v.33l-.22.14.17.1.27.05.16.29-.22.46,1.17,1.07,0,.3-.23.31-.5.08-.24.24.85.8.52.13ZM27.6.45a27.65,27.65,0,0,0-26.85,21H54.44A27.59,27.59,0,0,0,27.6.45"/><path class="cls-2" d="M27,15.22l-.26.26,0,.14a2,2,0,0,1,.28.49c0,.11.21-.1.21-.1L27,15.48Z"/><polygon class="cls-2" points="26.2 16.39 26.53 16.55 26.63 16.45 26.27 16.15 26.2 16.39"/><polygon class="cls-2" points="28.38 16.47 28.82 16.47 28.67 16.11 28.38 16.47"/><path class="cls-2" d="M27.6,50.88A22.71,22.71,0,0,1,13.47,46H6.65a27.57,27.57,0,0,0,41.91,0H41.76A22.9,22.9,0,0,1,27.6,50.88"/><path class="cls-3" d="M82.83,28.83v-.4H81.25v.39c.58,7.56,2.65,12.75,6.46,16.68l.23.24V43.43l0,0C84.9,39.52,83.24,35,82.83,28.83Z"/><path class="cls-3" d="M74.44,28.8c-.41,6.49-2,11.17-5,14.59l0,0v2.31l.23-.23c3.68-3.78,5.75-9,6.32-16.72v-.36H74.44Z"/><rect class="cls-3" x="91.86" y="36.39" width="14.6" height="1.35"/><rect class="cls-3" x="216.35" y="36.39" width="14.6" height="1.33"/><path class="cls-3" d="M114.49,28.57c-.92,2.75-1.76,4.66-4,6.14l-.06,0v1.73l.2-.11c2.61-1.5,3.82-3.65,5-6.49H126c-1,8.21-5.27,13.23-12.68,14.33l-.11,0v1.53l.15,0c8.75-1.26,13.62-7.12,14.35-17v-.3H114.52Z"/><path class="cls-3" d="M135.62,28.57c-.92,2.75-1.76,4.66-4,6.14l-.06,0v1.73l.2-.11c2.61-1.5,3.82-3.65,5-6.49h10.3a17.39,17.39,0,0,1-2,7,62.77,62.77,0,0,0-8.19-2.62l-.16,0v1.54l.1,0a47.23,47.23,0,0,1,7.48,2.43c-2.16,3.32-5.49,5.31-10,6l-.11,0v1.53l.15,0c8.75-1.26,13.62-7.06,14.35-16.89v-.3H135.65Z"/><path class="cls-3" d="M162.11,27.15h-1.37v2.66h-8v6.66h1.39V31.27h14.26c-.08,7.22-3.06,11.67-10.27,12.91l-.11,0v1.51l.15,0c8.29-1.39,11.87-6.59,11.87-15v-.92h-8Z"/><path class="cls-3" d="M182.53,32l.17.06V30.4l-.09,0a56.18,56.18,0,0,0-8.44-1.83l-.15,0V30.1h.12A46.89,46.89,0,0,1,182.53,32Z"/><path class="cls-3" d="M189.63,31.22c-1.37,7.73-7.15,12.26-15.48,13H174v1.55h.14c9.25-.67,15.71-5.83,17.08-14.51l0-.15h-1.63Z"/><path class="cls-3" d="M211.1,27.14h-1.42v2.64H199.19V27.14H197.8v2.64h-2.68v1.33h2.68v6.63h1.39V31.11h10.49v3.47c0,6.09-3,8.94-9.11,9.72h-.12v1.37l.15,0c7.19-1,10.5-4.17,10.5-11.17V31.11h2.66V29.78H211.1Z"/><rect class="cls-3" x="249.43" y="27.15" width="1.4" height="2.67"/><rect class="cls-3" x="245.49" y="27.15" width="1.36" height="2.67"/><path class="cls-3" d="M236.53,28.43H235v12.8c0,3.07,1.55,4.43,5,4.43h10.86V44.37H240.08c-2.55,0-3.55-1-3.55-3.22V32.47h14.3V31.05h-14.3Z"/><path class="cls-3" d="M87.94,25.82a2.64,2.64,0,1,0,2.64,2.64A2.64,2.64,0,0,0,87.94,25.82Zm0,4.31a1.67,1.67,0,1,1,1.67-1.67A1.67,1.67,0,0,1,87.94,30.13Z"/><path class="cls-3" d="M271.94,44.18c-4.4-3.3-5.91-5.15-6.32-5.74a24.18,24.18,0,0,0,5.06-10h-15.9v1.4h13.89s-2.43,9.58-13.83,14.38v1.49a23.91,23.91,0,0,0,9.79-6.18,35.69,35.69,0,0,0,7.17,6.09l.21.13V44.26Z"/><path class="cls-3" d="M193.63,10.3a.37.37,0,0,0-.36.37v9.67l-7.89-9.94a.36.36,0,0,0-.4-.12.38.38,0,0,0-.25.34l0,10.8a.36.36,0,0,0,.36.36.36.36,0,0,0,.37-.36l0-9.76,7.89,9.94a.34.34,0,0,0,.39.11.36.36,0,0,0,.25-.33V10.67A.37.37,0,0,0,193.63,10.3Z"/><path class="cls-3" d="M156.5,10.46h-5.89a.36.36,0,1,0,0,.72h2.54V21.51a.36.36,0,1,0,.73,0V11.18h2.63a.36.36,0,1,0,0-.72Z"/><path class="cls-3" d="M183.14,10.34a.36.36,0,0,0-.47.22l-3.28,9.59-2.95-9.59a.36.36,0,0,0-.34-.25.35.35,0,0,0-.35.25l-3.2,9.61-3.12-9.6a.35.35,0,0,0-.45-.23.35.35,0,0,0-.23.45h0l3.46,10.66a.36.36,0,0,0,.34.25.38.38,0,0,0,.35-.25l3.19-9.58L179,21.43a.36.36,0,0,0,.34.26.37.37,0,0,0,.35-.25l3.65-10.66h0A.36.36,0,0,0,183.14,10.34Z"/><path class="cls-3" d="M105.56,10.34a.35.35,0,0,0-.39.07L101,14.33l-4.11-3.9a.38.38,0,0,0-.39-.07.36.36,0,0,0-.22.33V21.41a.36.36,0,0,0,.73,0V11.54l3.75,3.56a.37.37,0,0,0,.5,0l3.81-3.58v9.89a.36.36,0,0,0,.72,0V10.67A.36.36,0,0,0,105.56,10.34Z"/><path class="cls-3" d="M74.1,10.67V21.52h0a.36.36,0,0,0,.36.37.37.37,0,0,0,.37-.37h0V10.67h0a.37.37,0,0,0-.37-.37.36.36,0,0,0-.36.37Z"/><path class="cls-3" d="M108.25,10.67V21.52h0a.37.37,0,1,0,.73,0h0V10.67h0a.37.37,0,1,0-.73,0Z"/><path class="cls-3" d="M85.48,10.76v6.82a7.29,7.29,0,0,0,.13,1.24,3.85,3.85,0,0,0,3.95,2.85c3.76,0,4.2-2.84,4.21-2.87a10.6,10.6,0,0,0,.08-1.22V10.76h0a.36.36,0,0,0-.36-.36.36.36,0,0,0-.36.36h0v6.82A9.42,9.42,0,0,1,93,18.7c0,.09-.38,2.25-3.49,2.25a3.08,3.08,0,0,1-3.24-2.28,6.46,6.46,0,0,1-.11-1.09V10.76h0a.37.37,0,0,0-.37-.36.36.36,0,0,0-.36.36Z"/><path class="cls-3" d="M83.72,21h-6l5.94-9.94a.37.37,0,0,0,0-.37.36.36,0,0,0-.32-.18H77.08a.36.36,0,0,0-.37.36.37.37,0,0,0,.37.37H82.7l-5.94,9.94a.36.36,0,0,0,.32.55h6.63a.36.36,0,1,0,0-.72Z"/><path class="cls-3" d="M130.59,21.41h0L125.91,10.7a.37.37,0,0,0-.34-.22.35.35,0,0,0-.33.23l-4.49,10.66a.36.36,0,0,0,.67.28l4.16-9.88,4.34,9.93a.36.36,0,0,0,.67-.29Z"/><path class="cls-3" d="M146.31,21.45l-5.78-5.57,4.25-4.67h0a.36.36,0,0,0,0-.51.36.36,0,0,0-.52,0l-4.49,4.93a.36.36,0,0,0-.06.09V10.91a.36.36,0,1,0-.72,0V21.64a.36.36,0,1,0,.72,0V16a.42.42,0,0,0,.08.1l6,5.82a.36.36,0,0,0,.51,0A.37.37,0,0,0,146.31,21.45Z"/><path class="cls-3" d="M121.73,14.24a3.47,3.47,0,0,0-1.11-2.7c-1.55-1.4-4.15-1.13-4.26-1.13a.36.36,0,0,0-.32.36V21.42a.36.36,0,0,0,.72,0V18a5.51,5.51,0,0,0,4-1.42A3.44,3.44,0,0,0,121.73,14.24Zm-5,3V11.12a5.07,5.07,0,0,1,3.37,1,2.77,2.77,0,0,1,.87,2.18,2.72,2.72,0,0,1-.78,1.84A4.83,4.83,0,0,1,116.76,17.28Z"/><path class="cls-3" d="M137.62,21.19h0l-4.29-3.13a5.08,5.08,0,0,0,3.25-1.38,3.43,3.43,0,0,0,1-2.35,3.49,3.49,0,0,0-1.11-2.71c-1.55-1.4-4.15-1.13-4.26-1.12a.37.37,0,0,0-.33.36V21.51a.36.36,0,1,0,.73,0v-3.1l4.61,3.37a.36.36,0,0,0,.51-.08A.37.37,0,0,0,137.62,21.19Zm-5-10a5.15,5.15,0,0,1,3.38,1,2.79,2.79,0,0,1,.87,2.18,2.71,2.71,0,0,1-.79,1.84,4.83,4.83,0,0,1-3.46,1.19Z"/><path class="cls-3" d="M162.4,21.69A5.69,5.69,0,1,1,168.08,16,5.69,5.69,0,0,1,162.4,21.69Zm0-10.56A4.88,4.88,0,1,0,167.28,16,4.88,4.88,0,0,0,162.4,11.13Z"/></svg>